<svg width="52" height="10" viewBox="0 0 52 10" fill="none" xmlns="http://www.w3.org/2000/svg">
<path fill-rule="evenodd" clip-rule="evenodd" d="M0 4.88395V9.76788L2.40512 9.75372C3.78024 9.74562 4.90674 9.72927 5.03555 9.71554C5.15946 9.70234 5.40034 9.66107 5.5708 9.62384C6.9211 9.32888 7.6769 8.61112 7.87458 7.43601C7.91766 7.17989 7.91766 6.69764 7.87458 6.44151C7.7745 5.84659 7.48179 5.27091 7.12153 4.96046C6.9288 4.79438 6.68027 4.64327 6.45496 4.55519C6.35583 4.51644 6.25604 4.4769 6.2332 4.4673C6.19996 4.45336 6.23155 4.4254 6.39159 4.32724C6.74914 4.10783 7.04118 3.81714 7.23199 3.49076C7.56445 2.92214 7.55359 1.81878 7.20894 1.14848C6.95431 0.65322 6.44987 0.311895 5.71966 0.140719C5.16762 0.0113268 5.34259 0.0186369 2.5741 0.00899086L0 0V4.88395ZM16.1318 4.89511V9.7882H17.0647H17.9976L18.0091 7.68032C18.0163 6.35033 18.0295 5.51641 18.0447 5.42062C18.1766 4.5906 18.4623 4.22669 19.0821 4.09907C19.336 4.04678 19.7106 4.0638 19.913 4.13682C20.2618 4.26268 20.4544 4.53931 20.5736 5.08586C20.6232 5.31298 20.6238 5.34026 20.632 7.55186L20.6402 9.7882H21.5751H22.51L22.5018 7.27159C22.4945 5.02593 22.4895 4.72784 22.4547 4.50294C22.3572 3.87217 22.1573 3.41801 21.8403 3.10714C21.4655 2.73959 21.0395 2.56993 20.3675 2.52058C19.8296 2.48108 19.468 2.55209 18.9739 2.79419C18.611 2.97207 18.3535 3.19828 18.136 3.53026C18.0861 3.60652 18.0354 3.66892 18.0235 3.66892C18.0098 3.66892 18.0018 2.99489 18.0018 1.83548V0.00203139H17.0668H16.1318V4.89511ZM10.026 1.14648V1.6136H11.9411H13.8562V1.14648V0.679355H11.9411H10.026V1.14648ZM4.49914 1.68357C4.58827 1.69557 4.74542 1.73871 4.84836 1.77945C5.00718 1.84227 5.05815 1.87691 5.18461 2.00798C5.38434 2.21497 5.43269 2.34476 5.44657 2.71133C5.46827 3.28383 5.31107 3.59893 4.90377 3.79946C4.62329 3.93754 4.55063 3.94438 3.26128 3.95408L2.09533 3.96288V2.8116V1.66031L3.21622 1.66103C3.83269 1.66143 4.41004 1.67156 4.49914 1.68357ZM11.7383 2.51509C11.0924 2.59495 10.5887 2.76698 10.1662 3.05207C9.64468 3.40393 9.28352 3.81934 9.00649 4.38598C8.70638 4.99977 8.60331 5.48004 8.60396 6.26144C8.60448 6.86162 8.65224 7.19269 8.81293 7.70951C9.05959 8.50294 9.61512 9.19841 10.2922 9.56132C11.3482 10.1274 12.7172 10.1472 13.7468 9.61137C14.0486 9.45427 14.2004 9.341 14.4312 9.10067C14.6611 8.86115 14.8594 8.57202 15.0167 8.24675C15.1091 8.05567 15.2756 7.64313 15.2756 7.6053C15.2756 7.59838 14.903 7.59275 14.4476 7.59278L13.6196 7.59285L13.5533 7.72707C13.4593 7.91722 13.18 8.19941 12.9852 8.30103C12.6417 8.48024 12.2782 8.54811 11.8817 8.50707C11.5737 8.47517 11.4104 8.43166 11.2011 8.32572C10.8122 8.12887 10.541 7.69375 10.4426 7.10882C10.4241 6.99907 10.4091 6.86337 10.4091 6.80725V6.7052H12.8757H15.3424L15.3574 6.64305C15.3799 6.55019 15.3483 5.65509 15.3126 5.37391C15.2508 4.88694 15.0078 4.30542 14.645 3.77622C14.2174 3.15252 13.4962 2.68886 12.7522 2.5593C12.5454 2.52331 11.8997 2.49515 11.7383 2.51509ZM26.4282 2.52642C25.9575 2.55164 25.5698 2.61734 25.2453 2.72698C24.653 2.92707 24.1782 3.28474 23.8819 3.75385C23.7098 4.0265 23.5893 4.42479 23.5893 4.72146V4.86008H24.5244C25.0386 4.86008 25.4595 4.85221 25.4597 4.84256C25.4618 4.75339 25.537 4.48783 25.5926 4.3736C25.7277 4.09606 25.9425 3.91696 26.2306 3.84148C26.4249 3.79056 26.9786 3.78134 27.1626 3.82592C27.5001 3.90769 27.7234 4.06985 27.8408 4.31845C27.8978 4.43923 27.9035 4.4748 27.9037 4.70827C27.904 5.0154 27.8712 5.10457 27.7143 5.22439C27.5736 5.33182 27.2943 5.4409 27.061 5.4795C26.9546 5.49711 26.5431 5.55427 26.1465 5.60649C25.106 5.74357 24.8091 5.81392 24.4005 6.0202C24.1901 6.12644 24.111 6.18166 23.9786 6.31469C23.5737 6.72179 23.416 7.09775 23.3922 7.71308C23.3598 8.5486 23.6291 9.14971 24.2137 9.54735C24.4469 9.70601 24.5926 9.77273 24.8934 9.85868C25.1844 9.94183 25.4344 9.97519 25.7629 9.97465C26.6516 9.9732 27.3591 9.73315 27.8752 9.25802C27.9793 9.16214 27.993 9.15567 28.008 9.19524C28.0172 9.21948 28.0254 9.27763 28.0263 9.32446C28.0282 9.428 28.1033 9.68685 28.1524 9.759L28.1881 9.81155H29.1331C29.6529 9.81155 30.0781 9.80555 30.0781 9.79819C30.0781 9.79086 30.0539 9.74092 30.0243 9.68725C29.9413 9.53651 29.8775 9.30713 29.8374 9.01523C29.8067 8.79073 29.7986 8.38532 29.7862 6.43661C29.7716 4.12764 29.7715 4.12411 29.7209 3.95113C29.6161 3.59236 29.4717 3.37001 29.1814 3.12024C28.904 2.8815 28.4368 2.6783 28.0053 2.60868C27.5737 2.53905 26.8739 2.50257 26.4282 2.52642ZM34.5166 2.52546C34.2802 2.54816 34.1126 2.58747 33.8537 2.6809C33.3314 2.86928 33.0071 3.11595 32.7343 3.53241C32.6851 3.6075 32.6351 3.66892 32.6232 3.66892C32.61 3.66892 32.6015 3.47719 32.6015 3.17845V2.68797H31.6778H30.754V6.26144V9.83491H31.7003H32.6466L32.6473 7.75038C32.6476 6.5799 32.6573 5.58904 32.6693 5.49069C32.7286 5.00449 32.8602 4.67779 33.0914 4.44243C33.3583 4.17073 33.6834 4.04348 34.111 4.04337C34.7555 4.04318 35.1005 4.33989 35.2644 5.03525C35.3134 5.24317 35.314 5.27009 35.3217 7.51683L35.3294 9.7882H36.2769H37.2244L37.2134 7.34165C37.2006 4.49787 37.1979 4.45481 36.9972 3.92311C36.8591 3.55742 36.7255 3.33734 36.5018 3.10742C36.3421 2.9433 36.2698 2.88862 36.0937 2.79887C35.976 2.73884 35.7934 2.66415 35.688 2.63287C35.3835 2.54251 34.8492 2.49351 34.5166 2.52546ZM41.118 2.51717C40.7074 2.54914 40.1886 2.68045 39.8794 2.83068C39.3894 3.0687 38.8791 3.51041 38.6108 3.92874C38.35 4.33534 38.0995 4.96102 38.0067 5.43779C37.9379 5.79105 37.9198 6.62589 37.9729 7.00077C38.1033 7.92261 38.5517 8.72008 39.2467 9.26596C39.5815 9.52892 40.1693 9.79518 40.6293 9.8922C41.275 10.0284 42.1047 9.97518 42.6945 9.75977C43.7442 9.37638 44.3883 8.58616 44.6321 7.38253C44.6569 7.26049 44.6773 7.14226 44.6774 7.11977C44.6778 7.08152 44.6201 7.0789 43.7787 7.0789H42.8796L42.8635 7.20152C42.7962 7.71528 42.5236 8.13693 42.1292 8.33734C41.8654 8.47141 41.698 8.51093 41.3884 8.51233C41.0883 8.51366 40.8761 8.45931 40.6674 8.32765C40.4375 8.18259 40.1497 7.82821 40.0256 7.5374C39.871 7.17487 39.7983 6.65644 39.8189 6.06291C39.8327 5.66687 39.8576 5.51575 39.9673 5.16191C40.127 4.64654 40.4993 4.20158 40.9011 4.04575C41.2752 3.90061 41.859 3.94651 42.189 4.14695C42.3081 4.21933 42.4758 4.39462 42.5479 4.52207C42.6218 4.65291 42.7103 4.93386 42.7297 5.09948L42.7454 5.23378H43.6682H44.5909L44.576 5.09948C44.4989 4.40746 44.2511 3.83038 43.8593 3.43062C43.5872 3.15308 43.1029 2.85606 42.7064 2.72357C42.2224 2.56183 41.5937 2.48015 41.118 2.51717ZM48.2601 2.52532C47.186 2.66209 46.3543 3.17301 45.7968 4.03856C45.5621 4.40286 45.3601 4.90406 45.2775 5.3272C45.1798 5.82793 45.1729 6.58417 45.2612 7.10648C45.311 7.40084 45.4472 7.85233 45.5681 8.12382C45.7771 8.59293 46.2246 9.12605 46.6605 9.42524C47.1578 9.76659 47.8108 9.9643 48.5306 9.99146C49.1872 10.0163 49.7637 9.90019 50.2991 9.63545C50.5878 9.49274 50.7558 9.37309 50.9778 9.15221C51.2257 8.90553 51.4233 8.63214 51.581 8.31747C51.6975 8.08505 51.865 7.67188 51.865 7.61697C51.865 7.60067 51.601 7.59275 51.0595 7.59278L50.2541 7.59285L50.1871 7.72707C50.0939 7.91395 49.8206 8.18994 49.6228 8.29708C49.2879 8.47844 48.9119 8.54979 48.5183 8.50675C48.0361 8.45401 47.7526 8.3341 47.5121 8.0812C47.2629 7.81898 47.0878 7.38372 47.0519 6.93638L47.037 6.75192H49.5044H51.9718L51.9857 6.66433C52.0228 6.43178 51.9843 5.80579 51.909 5.41801C51.7516 4.60727 51.2921 3.74322 50.7693 3.27502C50.3605 2.90887 49.8517 2.6521 49.3529 2.56017C49.1085 2.51514 48.494 2.49554 48.2601 2.52532ZM12.4481 4.05245C12.8407 4.16162 13.1156 4.4002 13.3028 4.7945C13.4045 5.00855 13.4957 5.31765 13.4957 5.44788V5.51437L11.9693 5.50837L10.4428 5.50237L10.4495 5.42062C10.4614 5.27318 10.5259 4.96766 10.5721 4.83925C10.6047 4.74881 10.6659 4.66057 10.7893 4.52606C11.0468 4.2453 11.2682 4.11196 11.6144 4.02905C11.7885 3.98738 12.2617 4.00067 12.4481 4.05245ZM49.1263 4.05502C49.5128 4.16508 49.7501 4.37484 49.9446 4.77833C50.0093 4.91265 50.1307 5.27883 50.1633 5.43814L50.1788 5.51405H48.6449H47.1111V5.44648C47.1111 5.35135 47.1749 5.02988 47.2158 4.91847C47.379 4.47471 47.7813 4.13934 48.2827 4.02928C48.4707 3.98801 48.9414 4.00238 49.1263 4.05502ZM4.82863 5.45229C5.12839 5.5271 5.31477 5.62501 5.47653 5.79266C5.72966 6.055 5.82269 6.32611 5.82172 6.79863C5.82118 7.0526 5.81323 7.11489 5.76053 7.27743C5.69062 7.49305 5.59842 7.633 5.42535 7.78628C5.24528 7.94576 5.05826 8.02734 4.74605 8.08265C4.50106 8.12602 4.38093 8.12992 3.28721 8.12992H2.09533V6.76191V5.39388L3.38519 5.40395C4.47992 5.41247 4.69829 5.41978 4.82863 5.45229ZM27.8858 7.00883C27.8796 7.31071 27.8628 7.60499 27.8485 7.6628C27.7587 8.02683 27.4453 8.41236 27.1419 8.53206C26.7386 8.6911 26.0375 8.68864 25.6734 8.5269C25.5613 8.47711 25.4147 8.32277 25.3313 8.16675C25.2708 8.05366 25.2679 8.034 25.2679 7.74258V7.437L25.3494 7.3105C25.4626 7.13491 25.5992 7.00192 25.7369 6.93334C25.8685 6.86776 26.353 6.74141 26.6084 6.70602C27.33 6.60608 27.6449 6.51992 27.8363 6.37C27.8785 6.337 27.8819 6.33879 27.8893 6.39735C27.8936 6.43177 27.8921 6.70696 27.8858 7.00883Z" fill="url(#paint0_linear_2587_992)"/>
<defs>
<linearGradient id="paint0_linear_2587_992" x1="0" y1="0" x2="51.6837" y2="9.63739" gradientUnits="userSpaceOnUse">
<stop stop-color="#091C91"/>
<stop offset="1" stop-color="#24BCFF"/>
</linearGradient>
</defs>
</svg>
