<svg width="34" height="23" viewBox="0 0 34 23" fill="none" xmlns="http://www.w3.org/2000/svg">
<path fill-rule="evenodd" clip-rule="evenodd" d="M0 11.2667V22.5334L5.92549 22.5216L11.851 22.5098L12.3368 22.4156C13.9275 22.1069 15.0596 21.5413 15.9828 20.594C16.9411 19.6108 17.4558 18.4378 17.6289 16.8428C17.6846 16.3297 17.675 15.0716 17.6116 14.576C17.428 13.1401 16.9921 12.0607 16.3004 11.3289C15.7233 10.7183 14.9801 10.3657 14.129 10.2986L13.8321 10.2752L14.1255 10.1951C14.5368 10.0828 14.759 9.99224 15.0719 9.80911C15.9858 9.27441 16.5856 8.38497 16.8322 7.19881C16.9258 6.74857 16.9612 5.729 16.9031 5.15817C16.6097 2.27478 14.8409 0.435002 11.9967 0.0547446C11.6423 0.0073681 10.8067 0 5.79359 0H0V11.2667ZM22.0709 2.70519V4.09339H26.4261H30.7813V2.70519V1.317H26.4261H22.0709V2.70519ZM11.3935 4.08794C11.673 4.20362 11.9972 4.52124 12.1599 4.83899C12.3607 5.23092 12.4282 5.55277 12.4491 6.21867C12.4919 7.5832 12.201 8.46555 11.5971 8.8027C11.1912 9.0293 11.2924 9.02325 7.91223 9.02325H4.84103L4.83211 6.50421L4.82323 3.98514L8.00742 3.99479L11.1916 4.0044L11.3935 4.08794ZM25.4336 5.78435C23.3806 6.03767 21.7768 6.8838 20.5908 8.33933C19.4241 9.77106 18.7033 11.7576 18.5281 14.0243C18.4452 15.0966 18.581 16.3729 18.8977 17.4994C19.7408 20.498 21.753 22.337 24.7509 22.8491C26.0039 23.0631 27.7025 23.0481 28.8553 22.8128C31.4455 22.2842 33.0834 20.8819 33.6301 18.7249C33.7363 18.3055 33.8352 17.5801 33.8352 17.2191V17.0143H31.9834H30.1315L30.1085 17.2155C30.0198 17.9894 29.551 18.6422 28.8206 19.0084C28.4061 19.2162 28.0877 19.3106 27.5609 19.3817C25.6187 19.644 24.1146 18.981 23.4414 17.566C23.1996 17.0577 23.043 16.3624 23.0428 15.7951L23.0426 15.5193H28.4889C31.9343 15.5193 33.9428 15.5067 33.9558 15.4851C34.0014 15.4093 34.0168 13.9158 33.9775 13.3836C33.7887 10.8338 33.0578 8.94042 31.7514 7.61726C30.7934 6.64699 29.6118 6.07441 28.0398 5.81873C27.5353 5.73669 25.9855 5.71622 25.4336 5.78435ZM27.6735 9.14537C28.9417 9.50527 29.759 10.6338 29.899 12.2185L29.9233 12.4937H26.4609H22.9985L23.0204 12.3296C23.0325 12.2393 23.0966 11.9992 23.1629 11.796C23.6642 10.2594 24.6392 9.33218 26.0243 9.07511C26.1117 9.05888 26.4565 9.05044 26.7905 9.05639C27.2865 9.06518 27.4483 9.08148 27.6735 9.14537ZM11.3274 12.5471C12.1907 12.7347 12.7989 13.3925 13.0718 14.434C13.1594 14.7684 13.165 14.8363 13.1657 15.5727C13.1664 16.3093 13.1609 16.3763 13.0747 16.7024C12.9434 17.1988 12.7733 17.5125 12.4598 17.8366C12.2629 18.0402 12.1335 18.1387 11.9377 18.2344C11.3865 18.5036 11.6298 18.4871 8.04236 18.5L4.82368 18.5117V15.5027V12.4937L7.95561 12.4943C10.5717 12.4949 11.1271 12.5036 11.3274 12.5471Z" fill="url(#paint0_linear_2587_993)"/>
<defs>
<linearGradient id="paint0_linear_2587_993" x1="0" y1="0" x2="34.8702" y2="1.84845" gradientUnits="userSpaceOnUse">
<stop stop-color="#091C91"/>
<stop offset="1" stop-color="#24BCFF"/>
</linearGradient>
</defs>
</svg>
