<svg width="27" height="27" viewBox="0 0 27 27" fill="none" xmlns="http://www.w3.org/2000/svg">
<path fill-rule="evenodd" clip-rule="evenodd" d="M12.1833 0.0574837C10.2254 0.243444 8.08956 0.967762 6.44321 2.00406C2.87419 4.25053 0.600517 7.81404 0.105427 11.9371C0.0180933 12.6639 0.0174325 14.3434 0.104045 15.0707C0.280154 16.5483 0.735995 18.0856 1.39734 19.432C1.61053 19.8661 1.78502 20.2493 1.78502 20.2835C1.78502 20.3177 1.38009 21.8396 0.885237 23.6654C0.390328 25.4913 -0.00799245 26.9918 0.000121808 26.9999C0.00817597 27.0079 1.59388 26.6416 3.52394 26.1859L7.03308 25.3572L7.69984 25.6737C9.53198 26.5434 11.4423 26.97 13.5056 26.9702C17.2423 26.9706 20.6483 25.5307 23.2179 22.8643C25.2075 20.7997 26.4523 18.2794 26.8899 15.4292C27.0371 14.4708 27.0366 12.4785 26.889 11.525C26.3264 7.89026 24.4646 4.81021 21.4898 2.59275C19.2559 0.927519 16.2705 -0.0313518 13.42 0.000782719C13.0208 0.00528756 12.4643 0.030815 12.1833 0.0574837ZM9.83942 7.41059C9.91245 7.47666 10.0277 7.63883 10.0955 7.77098C10.3133 8.19527 11.2817 10.5856 11.2817 10.6989C11.2817 10.8998 10.996 11.37 10.5658 11.8769C10.3207 12.1657 10.1397 12.4348 10.1397 12.5104C10.1397 12.6602 10.5461 13.3418 10.94 13.8525C11.8363 15.0147 13.0296 15.9789 14.287 16.5568C15.0131 16.8905 15.141 16.9265 15.3256 16.8488C15.4848 16.7817 16.0801 16.117 16.5312 15.5027C16.658 15.33 16.8256 15.1726 16.9036 15.153C17.1183 15.0992 17.3803 15.2028 18.8976 15.941C20.4628 16.7026 20.3977 16.641 20.3432 17.3114C20.2973 17.8747 20.1309 18.3822 19.8858 18.7063C19.6253 19.0507 18.8964 19.5638 18.3977 19.7535C17.9773 19.9136 17.2439 19.9826 16.6643 19.9166C15.8672 19.826 14.1187 19.2506 13.1149 18.7487C11.2172 17.7998 9.47205 16.1286 7.82966 13.6873C6.36393 11.5086 6.28621 9.5081 7.60655 7.94492C8.10946 7.3495 8.31604 7.25676 9.09675 7.27568C9.60933 7.28812 9.72786 7.30962 9.83942 7.41059Z" fill="url(#paint0_linear_2587_987)"/>
<defs>
<linearGradient id="paint0_linear_2587_987" x1="0" y1="0" x2="27.7332" y2="0.994495" gradientUnits="userSpaceOnUse">
<stop stop-color="#239110"/>
<stop offset="1" stop-color="#61EE61"/>
</linearGradient>
</defs>
</svg>
