<svg width="60" height="12" viewBox="0 0 60 12" fill="none" xmlns="http://www.w3.org/2000/svg">
<path fill-rule="evenodd" clip-rule="evenodd" d="M0 0.0171491C0 0.0347585 2.25927 8.96901 2.36809 9.38166L2.42192 9.5858H3.4463H4.47069L5.18091 6.55917C5.57154 4.89451 5.9135 3.43054 5.94085 3.30589C5.97195 3.1642 6.00009 3.09767 6.01593 3.12838C6.02986 3.1554 6.38338 4.61936 6.8015 6.38162L7.56171 9.58576H8.56828L9.57486 9.5858L9.62893 9.38166C9.71729 9.04786 11.9907 0.203858 12.0154 0.0976331L12.0381 0H11.0502H10.0622L10.0282 0.133136C10.0095 0.206379 9.67229 1.68018 9.27892 3.40828C8.88557 5.13639 8.55873 6.56627 8.55265 6.5858C8.54653 6.60533 8.2005 5.18432 7.7837 3.42802C7.36687 1.67173 7.01186 0.181918 6.9948 0.117374L6.96377 0H6.02024H5.07671L4.36781 2.90237C3.9779 4.49869 3.62123 5.96106 3.57518 6.1521C3.52913 6.34314 3.48359 6.49122 3.47393 6.48117C3.46432 6.47109 3.13364 5.0127 2.73911 3.24028L2.02181 0.0177515L1.01089 0.00834267C0.454892 0.00315924 0 0.00713724 0 0.0171491ZM12.4386 4.7929V9.5858H13.3543H14.2699L14.2818 7.42899C14.2932 5.34994 14.2963 5.26235 14.3668 4.9991C14.407 4.84892 14.465 4.67535 14.4957 4.6134C14.5968 4.40904 14.8111 4.20213 15.0301 4.0974C15.2256 4.00381 15.2745 3.99575 15.6502 3.99494C15.9933 3.99423 16.0823 4.00584 16.2113 4.06821C16.4079 4.16325 16.5556 4.31865 16.6511 4.53082C16.814 4.89295 16.8215 5.01682 16.8221 7.37574L16.8227 9.5858H17.7573H18.6919L18.6917 7.48225C18.6917 6.32528 18.6756 5.15794 18.656 4.88812C18.5705 3.70782 18.2593 3.09405 17.5651 2.73646C17.1958 2.54624 16.8761 2.47683 16.3469 2.47193C15.8537 2.46738 15.6298 2.51862 15.2084 2.73256C14.8933 2.8925 14.6134 3.14056 14.4241 3.42774L14.2908 3.62997L14.282 1.81498L14.2732 0H13.3559H12.4386V4.7929ZM40.2004 0.0976331C40.0826 0.413645 36.772 9.56446 36.772 9.57408C36.772 9.58055 37.2289 9.5858 37.7874 9.5858H38.8028L39.0507 8.84911C39.1871 8.44395 39.3478 7.96864 39.408 7.7929L39.5172 7.47337L41.2288 7.46461L42.9403 7.45587L43.2833 8.51194L43.6262 9.56805L44.6813 9.57742L45.7365 9.58679L45.1854 8.05079C44.8824 7.206 44.1099 5.04898 43.4689 3.2574L42.3034 0H41.2701H40.2368L40.2004 0.0976331ZM27.2561 1.59763V2.62722H26.7124H26.1686V3.28402V3.94083H26.7124H27.2561V6.10477C27.2561 7.5595 27.2685 8.33035 27.294 8.45684C27.4142 9.05393 27.7928 9.42014 28.4515 9.5766C28.6426 9.62201 28.8783 9.63618 29.4652 9.63742C29.8857 9.63831 30.2719 9.62677 30.3233 9.61175L30.4168 9.58445V8.83889V8.09333L30.3233 8.11871C30.2719 8.1327 30.0693 8.14438 29.873 8.14466C29.4541 8.1453 29.2888 8.08285 29.1773 7.88166C29.1107 7.76169 29.108 7.69165 29.0984 5.84911L29.0886 3.94083H29.7527H30.4168V3.28402V2.62722H29.7541H29.0913V1.59763V0.568047H28.1737H27.2561V1.59763ZM41.837 4.13744L42.4019 5.85799H41.2316C40.3102 5.85799 40.0644 5.84854 40.0759 5.81361C40.4137 4.78878 41.2435 2.38715 41.2554 2.39961C41.2645 2.40912 41.5262 3.19115 41.837 4.13744ZM22.1765 2.48861C21.2485 2.60801 20.6464 2.88082 20.1954 3.3862C19.8871 3.73168 19.7326 4.08824 19.6589 4.62426L19.6357 4.7929H20.5523H21.4689L21.5253 4.55414C21.596 4.25485 21.7101 4.07254 21.9095 3.94047C22.1328 3.7925 22.3532 3.75202 22.8415 3.76928C23.2296 3.78302 23.2776 3.79246 23.4488 3.88913C23.7303 4.04801 23.8571 4.28986 23.8574 4.66864C23.8578 5.16121 23.5077 5.35718 22.3963 5.48649C21.4199 5.6001 20.8779 5.7278 20.4395 5.94753C19.7899 6.27305 19.4407 6.88104 19.4407 7.68639C19.4407 8.46483 19.8001 9.13463 20.3921 9.45962C21.3303 9.97466 22.9859 9.80031 23.7447 9.10662C23.9374 8.93049 23.9318 8.92793 23.9753 9.21302C23.9872 9.29112 24.0127 9.40697 24.0319 9.47041L24.0668 9.5858H24.9968H25.9269L25.8629 9.4347C25.728 9.11606 25.716 8.9012 25.6941 6.40828C25.6707 3.74897 25.6767 3.82253 25.4529 3.46949C25.1479 2.98843 24.5891 2.67007 23.8208 2.5396C23.4149 2.47065 22.5295 2.44321 22.1765 2.48861ZM33.1136 2.4835C32.0997 2.60581 31.4657 2.93396 31.0916 3.52999C30.9268 3.79264 30.8352 4.09686 30.806 4.47919C30.736 5.39428 31.1778 5.99585 32.167 6.33213C32.3165 6.38297 32.76 6.50503 33.1526 6.60334C34.4289 6.92311 34.7656 7.07081 34.9053 7.37222C35.0027 7.5823 34.9791 7.83831 34.844 8.03797C34.729 8.20786 34.4234 8.39091 34.1638 8.44537C33.786 8.52462 33.2684 8.46962 32.9894 8.32058C32.6663 8.14786 32.4425 7.83561 32.4026 7.50149L32.3801 7.31361H31.5125H30.6448L30.6644 7.55741C30.7334 8.41782 31.2787 9.13981 32.1134 9.4761C32.9503 9.81327 34.3027 9.85207 35.1821 9.56421C35.6281 9.41826 35.907 9.24834 36.1946 8.94746C36.5896 8.53424 36.7569 8.14267 36.794 7.54438C36.8317 6.93738 36.6869 6.51249 36.3202 6.15419C35.924 5.76692 35.5059 5.59658 34.2061 5.29296C32.987 5.00812 32.6981 4.8534 32.6409 4.45449C32.5987 4.16073 32.7927 3.89766 33.1221 3.80212C33.1949 3.78099 33.4157 3.76363 33.6127 3.76353C34.3873 3.7631 34.7916 4.01538 34.8591 4.54125L34.8779 4.68756L35.7485 4.67812L36.6191 4.66864L36.6085 4.54438C36.5892 4.31727 36.4634 3.8852 36.3632 3.70204C36.1377 3.28956 35.7146 2.92026 35.2427 2.724C34.7465 2.51762 33.757 2.40586 33.1136 2.4835ZM49.3125 2.48989C49.0134 2.54091 48.6187 2.69191 48.4054 2.83683C48.2157 2.96578 47.9839 3.20162 47.8262 3.42604L47.7514 3.53254L47.7503 3.07988L47.7492 2.62722H46.8826H46.016V7.31361V12H46.9336H47.8512V10.3868V8.77353L48.1146 9.04726C48.5398 9.48913 49.0361 9.71137 49.6898 9.75252C50.5165 9.80457 51.2369 9.52931 51.7955 8.94802C52.4309 8.28685 52.7509 7.36775 52.7539 6.19527C52.7569 4.99129 52.4539 4.04691 51.8522 3.38517C51.5673 3.07186 51.382 2.92495 51.0627 2.75904C50.5559 2.49572 49.884 2.3924 49.3125 2.48989ZM56.5296 2.49962C56.2041 2.5647 56.0658 2.61351 55.802 2.75648C55.564 2.88543 55.2957 3.13079 55.1276 3.37328L55.0242 3.52236L55.0147 3.08364L55.0051 2.64497H54.1385H53.2718L53.2632 7.32249L53.2546 12H54.1723H55.09V10.3684V8.73678L55.3704 9.03195C55.5949 9.26823 55.7084 9.35645 55.9397 9.47404C56.3799 9.69792 56.5911 9.74521 57.1461 9.74414C57.5344 9.74343 57.6707 9.7287 57.887 9.66416C58.5395 9.46942 59.0656 9.06345 59.4384 8.46682C59.6474 8.13231 59.7901 7.77345 59.9067 7.28894C59.9916 6.93621 59.9991 6.84817 60 6.19527C60.001 5.40525 59.9648 5.14818 59.7667 4.53877C59.4348 3.51756 58.7276 2.8074 57.7919 2.55571C57.4394 2.46092 56.8535 2.43486 56.5296 2.49962ZM49.9073 4.0135C50.3045 4.1705 50.6793 4.66828 50.8283 5.23669C50.9137 5.56264 50.933 6.51326 50.8619 6.89226C50.6751 7.88734 50.0196 8.42585 49.1365 8.30957C48.5215 8.22863 48.0842 7.78924 47.8788 7.04609C47.81 6.79704 47.8008 6.68705 47.8015 6.12426C47.8024 5.40515 47.8443 5.15577 48.03 4.76169C48.2219 4.35444 48.6053 4.02448 48.9848 3.94001C49.2221 3.88719 49.68 3.92365 49.9073 4.0135ZM57.2464 4.06076C57.828 4.36104 58.133 4.98327 58.1728 5.95047C58.2151 6.97903 57.994 7.66104 57.4933 8.04607C57.2322 8.24684 56.9926 8.31976 56.6024 8.31728C56.2476 8.31501 56.0442 8.25327 55.7733 8.06585C55.2891 7.73066 55.0486 7.07972 55.0495 6.10651C55.0505 5.11754 55.3035 4.47646 55.8329 4.12154C56.0732 3.9605 56.3113 3.90334 56.6798 3.91828C56.9611 3.92964 57.0223 3.94506 57.2464 4.06076ZM23.8279 7.28002C23.7836 7.61446 23.6451 7.91812 23.4502 8.10859C23.1424 8.40937 22.8226 8.50832 22.2624 8.47608C21.786 8.44868 21.5024 8.30254 21.3499 8.00592C21.2637 7.83852 21.2727 7.36978 21.3655 7.18935C21.5599 6.81107 21.859 6.67381 22.797 6.53237C23.2932 6.45756 23.6554 6.36028 23.7731 6.27021C23.8393 6.21958 23.8408 6.22665 23.8502 6.62897C23.8555 6.8547 23.8455 7.14767 23.8279 7.28002Z" fill="url(#paint0_linear_2587_986)"/>
<defs>
<linearGradient id="paint0_linear_2587_986" x1="0" y1="0" x2="59.7866" y2="10.7196" gradientUnits="userSpaceOnUse">
<stop stop-color="#239110"/>
<stop offset="1" stop-color="#61EE61"/>
</linearGradient>
</defs>
</svg>
