<svg width="70" height="54" viewBox="0 0 70 54" fill="none" xmlns="http://www.w3.org/2000/svg">
<path d="M3.60938 42.3809H5.27344L8.58984 51H6.88477L6.21094 49.2246H2.69531L1.99219 51H0.287109L3.60938 42.3809ZM4.45312 44.666L3.30469 47.625H5.5957L4.45312 44.666ZM9.04969 44.625H9.61805C9.62195 43.7891 9.63562 43.2949 9.65906 43.1426C9.70203 42.791 9.84852 42.5137 10.0985 42.3105C10.3524 42.1035 10.7098 42 11.1708 42C11.5028 42 11.8778 42.0762 12.2958 42.2285V43.4473C12.0653 43.3809 11.8759 43.3477 11.7274 43.3477C11.5399 43.3477 11.4032 43.3867 11.3173 43.4648C11.2548 43.5234 11.2235 43.6445 11.2235 43.8281L11.2177 44.625H12.2313V45.9844H11.2177V51H9.61805V45.9844H9.04969V44.625ZM13.488 42.2754H15.0818V44.625H16.031V46.002H15.0818V51H13.488V46.002H12.6677V44.625H13.488V42.2754ZM23.3991 48.2754H18.2604C18.3346 48.7285 18.5319 49.0898 18.8522 49.3594C19.1764 49.625 19.5885 49.7578 20.0885 49.7578C20.6862 49.7578 21.1998 49.5488 21.6295 49.1309L22.9772 49.7637C22.6413 50.2402 22.2389 50.5938 21.7702 50.8242C21.3014 51.0508 20.7448 51.1641 20.1002 51.1641C19.1002 51.1641 18.2858 50.8496 17.6569 50.2207C17.028 49.5879 16.7135 48.7969 16.7135 47.8477C16.7135 46.875 17.026 46.0684 17.651 45.4277C18.2799 44.7832 19.067 44.4609 20.0123 44.4609C21.0163 44.4609 21.8327 44.7832 22.4616 45.4277C23.0905 46.0684 23.4049 46.916 23.4049 47.9707L23.3991 48.2754ZM21.7936 47.0156C21.6881 46.6602 21.4791 46.3711 21.1666 46.1484C20.858 45.9258 20.4987 45.8145 20.0885 45.8145C19.6432 45.8145 19.2526 45.9395 18.9166 46.1895C18.7057 46.3457 18.5104 46.6211 18.3307 47.0156H21.7936ZM24.4448 44.625H25.8159V45.4277C25.9644 45.1113 26.1616 44.8711 26.4077 44.707C26.6538 44.543 26.9234 44.4609 27.2163 44.4609C27.4234 44.4609 27.6402 44.5156 27.8667 44.625L27.3687 46.002C27.1812 45.9082 27.0269 45.8613 26.9058 45.8613C26.6597 45.8613 26.4507 46.0137 26.2788 46.3184C26.1109 46.623 26.0269 47.2207 26.0269 48.1113L26.0327 48.4219V51H24.4448V44.625ZM32.4485 42.3809H37.1536V43.9863H34.0774V45.5449H37.1536V47.1211H34.0774V49.3887H37.1536V51H32.4485V42.3809ZM37.8713 44.625H38.4396C38.4435 43.7891 38.4572 43.2949 38.4806 43.1426C38.5236 42.791 38.6701 42.5137 38.9201 42.3105C39.174 42.1035 39.5314 42 39.9923 42C40.3244 42 40.6994 42.0762 41.1173 42.2285V43.4473C40.8869 43.3809 40.6974 43.3477 40.549 43.3477C40.3615 43.3477 40.2248 43.3867 40.1388 43.4648C40.0763 43.5234 40.0451 43.6445 40.0451 43.8281L40.0392 44.625H41.0529V45.9844H40.0392V51H38.4396V45.9844H37.8713V44.625ZM41.3545 44.625H41.9229C41.9268 43.7891 41.9405 43.2949 41.9639 43.1426C42.0069 42.791 42.1534 42.5137 42.4034 42.3105C42.6573 42.1035 43.0147 42 43.4756 42C43.8077 42 44.1827 42.0762 44.6006 42.2285V43.4473C44.3702 43.3809 44.1807 43.3477 44.0323 43.3477C43.8448 43.3477 43.708 43.3867 43.6221 43.4648C43.5596 43.5234 43.5284 43.6445 43.5284 43.8281L43.5225 44.625H44.5362V45.9844H43.5225V51H41.9229V45.9844H41.3545V44.625ZM51.9863 48.2754H46.8476C46.9218 48.7285 47.1191 49.0898 47.4394 49.3594C47.7636 49.625 48.1757 49.7578 48.6757 49.7578C49.2734 49.7578 49.787 49.5488 50.2167 49.1309L51.5644 49.7637C51.2284 50.2402 50.8261 50.5938 50.3573 50.8242C49.8886 51.0508 49.332 51.1641 48.6874 51.1641C47.6874 51.1641 46.873 50.8496 46.2441 50.2207C45.6152 49.5879 45.3007 48.7969 45.3007 47.8477C45.3007 46.875 45.6132 46.0684 46.2382 45.4277C46.8671 44.7832 47.6542 44.4609 48.5995 44.4609C49.6034 44.4609 50.4198 44.7832 51.0488 45.4277C51.6777 46.0684 51.9921 46.916 51.9921 47.9707L51.9863 48.2754ZM50.3808 47.0156C50.2753 46.6602 50.0663 46.3711 49.7538 46.1484C49.4452 45.9258 49.0859 45.8145 48.6757 45.8145C48.2304 45.8145 47.8398 45.9395 47.5038 46.1895C47.2929 46.3457 47.0976 46.6211 46.9179 47.0156H50.3808ZM59.6473 45.9141L58.3172 46.6465C58.0672 46.3848 57.8191 46.2031 57.573 46.1016C57.3309 46 57.0457 45.9492 56.7176 45.9492C56.1199 45.9492 55.6355 46.1289 55.2645 46.4883C54.8973 46.8438 54.7137 47.3008 54.7137 47.8594C54.7137 48.4023 54.8914 48.8457 55.2469 49.1895C55.6023 49.5332 56.0691 49.7051 56.6473 49.7051C57.3621 49.7051 57.9188 49.4609 58.3172 48.9727L59.577 49.834C58.8934 50.7207 57.9285 51.1641 56.6824 51.1641C55.5613 51.1641 54.6824 50.832 54.0457 50.168C53.4129 49.5039 53.0965 48.7266 53.0965 47.8359C53.0965 47.2188 53.2508 46.6504 53.5594 46.1309C53.868 45.6113 54.2977 45.2031 54.8484 44.9062C55.4031 44.6094 56.0223 44.4609 56.7059 44.4609C57.3387 44.4609 57.907 44.5879 58.4109 44.8418C58.9148 45.0918 59.327 45.4492 59.6473 45.9141ZM61.4079 42.2754H63.0016V44.625H63.9509V46.002H63.0016V51H61.4079V46.002H60.5876V44.625H61.4079V42.2754ZM68.8345 45.5156L67.8443 46.5059C67.442 46.1074 67.0767 45.9082 66.7486 45.9082C66.5689 45.9082 66.4283 45.9473 66.3267 46.0254C66.2252 46.0996 66.1744 46.1934 66.1744 46.3066C66.1744 46.3926 66.2056 46.4727 66.2681 46.5469C66.3345 46.6172 66.4947 46.7148 66.7486 46.8398L67.3345 47.1328C67.9517 47.4375 68.3755 47.748 68.606 48.0645C68.8365 48.3809 68.9517 48.752 68.9517 49.1777C68.9517 49.7441 68.7427 50.2168 68.3248 50.5957C67.9107 50.9746 67.3541 51.1641 66.6548 51.1641C65.7252 51.1641 64.983 50.8008 64.4283 50.0742L65.4127 49.002C65.6002 49.2207 65.8189 49.3984 66.0689 49.5352C66.3228 49.668 66.5474 49.7344 66.7427 49.7344C66.9537 49.7344 67.1236 49.6836 67.2525 49.582C67.3814 49.4805 67.4459 49.3633 67.4459 49.2305C67.4459 48.9844 67.2134 48.7441 66.7486 48.5098L66.2095 48.2402C65.1783 47.7207 64.6627 47.0703 64.6627 46.2891C64.6627 45.7852 64.856 45.3555 65.2427 45C65.6334 44.6406 66.1314 44.4609 66.7369 44.4609C67.1509 44.4609 67.5396 44.5527 67.9029 44.7363C68.2701 44.916 68.5806 45.1758 68.8345 45.5156Z" fill="#1F2A3C"/>
<g clip-path="url(#clip0_2847_2571)">
<path d="M24.3125 0H43.6875C46.625 0 49 2.4359 49 5.44872V24.5513C49 27.5641 46.625 30 43.6875 30H24.3125C21.375 30 19 27.5641 19 24.5513V5.44872C19 2.4359 21.375 0 24.3125 0Z" fill="url(#paint0_linear_2847_2571)"/>
<path d="M31.0501 17.9485H26.4001L25.4501 20.9742C25.4251 21.0896 25.3251 21.1665 25.2126 21.1537H22.8626C22.7251 21.1537 22.6876 21.0767 22.7251 20.9229L26.7501 9.08957C26.7876 8.96136 26.8251 8.84598 26.8751 8.69213C26.9251 8.4229 26.9501 8.14085 26.9501 7.8588C26.9376 7.7947 26.9876 7.73059 27.0501 7.71777H27.0876H30.2876C30.3751 7.71777 30.4376 7.75623 30.4501 7.82034L35.0126 20.8973C35.0501 21.0383 35.0126 21.1024 34.8876 21.1024H32.2751C32.1876 21.1152 32.1001 21.0511 32.0751 20.9614L31.0501 17.8844V17.9485ZM27.1251 15.3973H30.3001C30.2251 15.128 30.1251 14.8075 30.0126 14.4742C29.9001 14.128 29.7876 13.7562 29.6751 13.3716C29.5501 12.9742 29.4376 12.5896 29.3126 12.1921C29.1876 11.7947 29.0751 11.4229 28.9751 11.0511C28.8751 10.6921 28.7876 10.3588 28.7001 10.0511H28.6751C28.5626 10.6024 28.4251 11.1537 28.2501 11.705C28.0626 12.3203 27.8751 12.9614 27.6751 13.6024C27.5126 14.2562 27.3126 14.8588 27.1251 15.3973Z" fill="white"/>
<path d="M42.3749 16.7947H38.4124C38.4624 17.1921 38.5874 17.5896 38.7999 17.9357C39.0249 18.2819 39.3374 18.5511 39.7124 18.7049C40.2124 18.9229 40.7624 19.0383 41.3124 19.0255C41.7499 19.0126 42.1874 18.9742 42.6124 18.8844C42.9999 18.8332 43.3749 18.7306 43.7249 18.5896C43.7874 18.5383 43.8249 18.5639 43.8249 18.6921V20.6537C43.8249 20.705 43.8124 20.7562 43.7999 20.8075C43.7749 20.846 43.7499 20.8716 43.7124 20.8973C43.3124 21.0767 42.8999 21.2049 42.4624 21.2819C41.8749 21.3973 41.2874 21.4485 40.6874 21.4357C39.7374 21.4357 38.9374 21.2819 38.2874 20.987C37.6749 20.7178 37.1374 20.2947 36.7124 19.7691C36.3124 19.2691 36.0249 18.705 35.8499 18.0896C35.6749 17.487 35.5874 16.8588 35.5874 16.2178C35.5874 15.5255 35.6874 14.846 35.8999 14.1793C36.0999 13.5383 36.4124 12.9485 36.8374 12.4229C37.2499 11.9101 37.7624 11.4998 38.3499 11.2049C38.9374 10.9101 39.6374 10.8075 40.4374 10.8075C41.0999 10.7947 41.7624 10.9229 42.3749 11.2049C42.8874 11.4357 43.3374 11.7819 43.6874 12.2306C44.0124 12.6665 44.2749 13.1537 44.4374 13.6921C44.5999 14.2049 44.6749 14.7306 44.6749 15.2562C44.6749 15.5639 44.6624 15.8332 44.6499 16.0767C44.6249 16.3203 44.6124 16.4998 44.5999 16.6152C44.5874 16.705 44.5124 16.7819 44.4249 16.7819C44.3499 16.7819 44.2124 16.7947 44.0124 16.8075C43.8124 16.8332 43.5749 16.846 43.2874 16.846C42.9999 16.846 42.6999 16.7947 42.3749 16.7947ZM38.4124 14.9229H41.0499C41.3749 14.9229 41.6124 14.9229 41.7624 14.9101C41.8624 14.8973 41.9624 14.8716 42.0499 14.8075V14.6793C42.0499 14.5126 42.0249 14.3588 41.9749 14.2049C41.7499 13.487 41.0874 12.9998 40.3499 13.0255C39.6624 12.987 39.0124 13.3588 38.6874 13.9998C38.5374 14.2947 38.4499 14.6024 38.4124 14.9229Z" fill="white"/>
</g>
<defs>
<linearGradient id="paint0_linear_2847_2571" x1="19" y1="0" x2="49.8147" y2="1.10499" gradientUnits="userSpaceOnUse">
<stop stop-color="#091C91"/>
<stop offset="1" stop-color="#24BCFF"/>
</linearGradient>
<clipPath id="clip0_2847_2571">
<rect width="30" height="30" fill="white" transform="translate(19)"/>
</clipPath>
</defs>
</svg>
