<svg width="105" height="82" viewBox="0 0 105 82" fill="none" xmlns="http://www.w3.org/2000/svg">
<path d="M5.41406 64.0713H7.91016L12.8848 77H10.3271L9.31641 74.3369H4.04297L2.98828 77H0.430664L5.41406 64.0713ZM6.67969 67.499L4.95703 71.9375H8.39355L6.67969 67.499ZM13.5745 67.4375H14.4271C14.4329 66.1836 14.4534 65.4424 14.4886 65.2139C14.553 64.6865 14.7728 64.2705 15.1478 63.9658C15.5286 63.6553 16.0648 63.5 16.7562 63.5C17.2542 63.5 17.8167 63.6143 18.4437 63.8428V65.6709C18.098 65.5713 17.8138 65.5215 17.5911 65.5215C17.3099 65.5215 17.1048 65.5801 16.9759 65.6973C16.8821 65.7852 16.8353 65.9668 16.8353 66.2422L16.8265 67.4375H18.347V69.4766H16.8265V77H14.4271V69.4766H13.5745V67.4375ZM20.2321 63.9131H22.6227V67.4375H24.0465V69.5029H22.6227V77H20.2321V69.5029H19.0016V67.4375H20.2321V63.9131ZM35.0986 72.9131H27.3906C27.5019 73.5928 27.7978 74.1348 28.2783 74.5391C28.7646 74.9375 29.3828 75.1367 30.1328 75.1367C31.0293 75.1367 31.7998 74.8232 32.4443 74.1963L34.4658 75.1455C33.9619 75.8604 33.3584 76.3906 32.6552 76.7363C31.9521 77.0762 31.1171 77.2461 30.1504 77.2461C28.6504 77.2461 27.4287 76.7744 26.4853 75.8311C25.542 74.8818 25.0703 73.6953 25.0703 72.2715C25.0703 70.8125 25.539 69.6025 26.4765 68.6416C27.4199 67.6748 28.6005 67.1914 30.0185 67.1914C31.5244 67.1914 32.749 67.6748 33.6923 68.6416C34.6357 69.6025 35.1074 70.874 35.1074 72.4561L35.0986 72.9131ZM32.6904 71.0234C32.5322 70.4902 32.2187 70.0566 31.75 69.7227C31.2871 69.3887 30.748 69.2217 30.1328 69.2217C29.4648 69.2217 28.8789 69.4092 28.375 69.7842C28.0586 70.0186 27.7656 70.4316 27.4961 71.0234H32.6904ZM36.6673 67.4375H38.7239V68.6416C38.9466 68.167 39.2425 67.8066 39.6116 67.5605C39.9807 67.3145 40.385 67.1914 40.8245 67.1914C41.135 67.1914 41.4602 67.2734 41.8001 67.4375L41.053 69.5029C40.7718 69.3623 40.5403 69.292 40.3587 69.292C39.9895 69.292 39.6761 69.5205 39.4182 69.9775C39.1663 70.4346 39.0403 71.3311 39.0403 72.667L39.0491 73.1328V77H36.6673V67.4375ZM48.6728 64.0713H55.7304V66.4795H51.1161V68.8174H55.7304V71.1816H51.1161V74.583H55.7304V77H48.6728V64.0713ZM56.8069 67.4375H57.6594C57.6653 66.1836 57.6858 65.4424 57.7209 65.2139C57.7854 64.6865 58.0051 64.2705 58.3801 63.9658C58.761 63.6553 59.2971 63.5 59.9885 63.5C60.4866 63.5 61.0491 63.6143 61.676 63.8428V65.6709C61.3303 65.5713 61.0461 65.5215 60.8235 65.5215C60.5422 65.5215 60.3371 65.5801 60.2082 65.6973C60.1145 65.7852 60.0676 65.9668 60.0676 66.2422L60.0588 67.4375H61.5793V69.4766H60.0588V77H57.6594V69.4766H56.8069V67.4375ZM62.0318 67.4375H62.8843C62.8902 66.1836 62.9107 65.4424 62.9459 65.2139C63.0103 64.6865 63.23 64.2705 63.605 63.9658C63.9859 63.6553 64.522 63.5 65.2134 63.5C65.7115 63.5 66.274 63.6143 66.9009 63.8428V65.6709C66.5552 65.5713 66.2711 65.5215 66.0484 65.5215C65.7671 65.5215 65.5621 65.5801 65.4332 65.6973C65.3394 65.7852 65.2925 65.9668 65.2925 66.2422L65.2837 67.4375H66.8043V69.4766H65.2837V77H62.8843V69.4766H62.0318V67.4375ZM77.9794 72.9131H70.2714C70.3827 73.5928 70.6786 74.1348 71.1591 74.5391C71.6454 74.9375 72.2636 75.1367 73.0136 75.1367C73.91 75.1367 74.6805 74.8232 75.3251 74.1963L77.3466 75.1455C76.8427 75.8604 76.2391 76.3906 75.536 76.7363C74.8329 77.0762 73.9979 77.2461 73.0311 77.2461C71.5311 77.2461 70.3095 76.7744 69.3661 75.8311C68.4227 74.8818 67.9511 73.6953 67.9511 72.2715C67.9511 70.8125 68.4198 69.6025 69.3573 68.6416C70.3007 67.6748 71.4813 67.1914 72.8993 67.1914C74.4052 67.1914 75.6298 67.6748 76.5731 68.6416C77.5165 69.6025 77.9882 70.874 77.9882 72.4561L77.9794 72.9131ZM75.5712 71.0234C75.413 70.4902 75.0995 70.0566 74.6307 69.7227C74.1679 69.3887 73.6288 69.2217 73.0136 69.2217C72.3456 69.2217 71.7597 69.4092 71.2557 69.7842C70.9393 70.0186 70.6464 70.4316 70.3768 71.0234H75.5712ZM89.4709 69.3711L87.4758 70.4697C87.1008 70.0771 86.7287 69.8047 86.3596 69.6523C85.9963 69.5 85.5686 69.4238 85.0764 69.4238C84.1799 69.4238 83.4533 69.6934 82.8967 70.2324C82.3459 70.7656 82.0705 71.4512 82.0705 72.2891C82.0705 73.1035 82.3371 73.7686 82.8703 74.2842C83.4035 74.7998 84.1037 75.0576 84.9709 75.0576C86.0432 75.0576 86.8781 74.6914 87.4758 73.959L89.3654 75.251C88.34 76.5811 86.8928 77.2461 85.0236 77.2461C83.342 77.2461 82.0236 76.748 81.0686 75.752C80.1193 74.7559 79.6447 73.5898 79.6447 72.2539C79.6447 71.3281 79.8762 70.4756 80.3391 69.6963C80.802 68.917 81.4465 68.3047 82.2727 67.8594C83.1047 67.4141 84.0334 67.1914 85.0588 67.1914C86.008 67.1914 86.8605 67.3818 87.6164 67.7627C88.3723 68.1377 88.9904 68.6738 89.4709 69.3711ZM92.1118 63.9131H94.5025V67.4375H95.9263V69.5029H94.5025V77H92.1118V69.5029H90.8814V67.4375H92.1118V63.9131ZM103.252 68.7734L101.766 70.2588C101.163 69.6611 100.615 69.3623 100.123 69.3623C99.8534 69.3623 99.6424 69.4209 99.4901 69.5381C99.3377 69.6494 99.2616 69.79 99.2616 69.96C99.2616 70.0889 99.3084 70.209 99.4022 70.3203C99.5018 70.4258 99.742 70.5723 100.123 70.7598L101.002 71.1992C101.928 71.6562 102.563 72.1221 102.909 72.5967C103.255 73.0713 103.428 73.6279 103.428 74.2666C103.428 75.1162 103.114 75.8252 102.487 76.3936C101.866 76.9619 101.031 77.2461 99.9823 77.2461C98.5877 77.2461 97.4745 76.7012 96.6424 75.6113L98.119 74.0029C98.4002 74.3311 98.7284 74.5977 99.1034 74.8027C99.4842 75.002 99.8211 75.1016 100.114 75.1016C100.431 75.1016 100.685 75.0254 100.879 74.873C101.072 74.7207 101.169 74.5449 101.169 74.3457C101.169 73.9766 100.82 73.6162 100.123 73.2646L99.3143 72.8604C97.7674 72.0811 96.994 71.1055 96.994 69.9336C96.994 69.1777 97.284 68.5332 97.8641 68C98.45 67.4609 99.1971 67.1914 100.105 67.1914C100.726 67.1914 101.309 67.3291 101.854 67.6045C102.405 67.874 102.871 68.2637 103.252 68.7734Z" fill="#1F2A3C"/>
<g clip-path="url(#clip0_1949_129)">
<path d="M36.5 0H67.5C72.2 0 76 3.89744 76 8.71795V39.2821C76 44.1026 72.2 48 67.5 48H36.5C31.8 48 28 44.1026 28 39.2821V8.71795C28 3.89744 31.8 0 36.5 0Z" fill="#00005B"/>
<path d="M47.2799 28.7179H39.8399L38.3199 33.5589C38.2799 33.7435 38.1199 33.8666 37.9399 33.8461H34.1799C33.9599 33.8461 33.8999 33.723 33.9599 33.4768L40.3999 14.5435C40.4599 14.3384 40.5199 14.1538 40.5999 13.9076C40.6799 13.4768 40.7199 13.0256 40.7199 12.5743C40.6999 12.4717 40.7799 12.3691 40.8799 12.3486H40.9399H46.0599C46.1999 12.3486 46.2999 12.4102 46.3199 12.5127L53.6199 33.4358C53.6799 33.6615 53.6199 33.764 53.4199 33.764H49.2399C49.0999 33.7845 48.9599 33.682 48.9199 33.5384L47.2799 28.6153V28.7179ZM40.9999 24.6358H46.0799C45.9599 24.205 45.7999 23.6922 45.6199 23.1589C45.4399 22.605 45.2599 22.0102 45.0799 21.3948C44.8799 20.7589 44.6999 20.1435 44.4999 19.5076C44.2999 18.8717 44.1199 18.2768 43.9599 17.682C43.7999 17.1076 43.6599 16.5743 43.5199 16.082H43.4799C43.2999 16.964 43.0799 17.8461 42.7999 18.7281C42.4999 19.7127 42.1999 20.7384 41.8799 21.764C41.6199 22.8102 41.2999 23.7743 40.9999 24.6358V24.6358Z" fill="#9999FF"/>
<path d="M65.4 26.8719H59.06C59.14 27.5078 59.34 28.1437 59.68 28.6975C60.04 29.2514 60.54 29.6822 61.14 29.9283C61.94 30.277 62.82 30.4616 63.7 30.4411C64.4 30.4206 65.1 30.3591 65.78 30.2155C66.4 30.1334 67 29.9693 67.56 29.7437C67.66 29.6616 67.72 29.7027 67.72 29.9078V33.0463C67.72 33.1283 67.7 33.2104 67.68 33.2924C67.64 33.354 67.6 33.395 67.54 33.436C66.9 33.7232 66.24 33.9283 65.54 34.0514C64.6 34.236 63.66 34.3181 62.7 34.2975C61.18 34.2975 59.9 34.0514 58.86 33.5796C57.88 33.1488 57.02 32.4719 56.34 31.6309C55.7 30.8309 55.24 29.9283 54.96 28.9437C54.68 27.9796 54.54 26.9745 54.54 25.9488C54.54 24.8411 54.7 23.7539 55.04 22.6873C55.36 21.6616 55.86 20.7181 56.54 19.877C57.2 19.0565 58.02 18.4001 58.96 17.9283C59.9 17.4565 61.02 17.2924 62.3 17.2924C63.36 17.2719 64.42 17.477 65.4 17.9283C66.22 18.2975 66.94 18.8514 67.5 19.5693C68.02 20.2668 68.44 21.0463 68.7 21.9078C68.96 22.7283 69.08 23.5693 69.08 24.4104C69.08 24.9027 69.06 25.3334 69.04 25.7232C69 26.1129 68.98 26.4001 68.96 26.5847C68.94 26.7283 68.82 26.8514 68.68 26.8514C68.56 26.8514 68.34 26.8719 68.02 26.8924C67.7 26.9334 67.32 26.9539 66.86 26.9539C66.4 26.9539 65.92 26.8719 65.4 26.8719V26.8719ZM59.06 23.877H63.28C63.8 23.877 64.18 23.877 64.42 23.8565C64.58 23.836 64.74 23.795 64.88 23.6924V23.4873C64.88 23.2206 64.84 22.9745 64.76 22.7283C64.4 21.5796 63.34 20.8001 62.16 20.8411C61.06 20.7796 60.02 21.3745 59.5 22.4001C59.26 22.8719 59.12 23.3642 59.06 23.877Z" fill="#9999FF"/>
</g>
<defs>
<clipPath id="clip0_1949_129">
<rect width="48" height="48" fill="white" transform="translate(28)"/>
</clipPath>
</defs>
</svg>
