<svg width="105" height="87" viewBox="0 0 105 87" fill="none" xmlns="http://www.w3.org/2000/svg">
<path d="M5.41406 69.0713H7.91016L12.8848 82H10.3271L9.31641 79.3369H4.04297L2.98828 82H0.430664L5.41406 69.0713ZM6.67969 72.499L4.95703 76.9375H8.39355L6.67969 72.499ZM13.5745 72.4375H14.4271C14.4329 71.1836 14.4534 70.4424 14.4886 70.2139C14.553 69.6865 14.7728 69.2705 15.1478 68.9658C15.5286 68.6553 16.0648 68.5 16.7562 68.5C17.2542 68.5 17.8167 68.6143 18.4437 68.8428V70.6709C18.098 70.5713 17.8138 70.5215 17.5911 70.5215C17.3099 70.5215 17.1048 70.5801 16.9759 70.6973C16.8821 70.7852 16.8353 70.9668 16.8353 71.2422L16.8265 72.4375H18.347V74.4766H16.8265V82H14.4271V74.4766H13.5745V72.4375ZM20.2321 68.9131H22.6227V72.4375H24.0465V74.5029H22.6227V82H20.2321V74.5029H19.0016V72.4375H20.2321V68.9131ZM35.0986 77.9131H27.3906C27.5019 78.5928 27.7978 79.1348 28.2783 79.5391C28.7646 79.9375 29.3828 80.1367 30.1328 80.1367C31.0293 80.1367 31.7998 79.8232 32.4443 79.1963L34.4658 80.1455C33.9619 80.8604 33.3584 81.3906 32.6552 81.7363C31.9521 82.0762 31.1171 82.2461 30.1504 82.2461C28.6504 82.2461 27.4287 81.7744 26.4853 80.8311C25.542 79.8818 25.0703 78.6953 25.0703 77.2715C25.0703 75.8125 25.539 74.6025 26.4765 73.6416C27.4199 72.6748 28.6005 72.1914 30.0185 72.1914C31.5244 72.1914 32.749 72.6748 33.6923 73.6416C34.6357 74.6025 35.1074 75.874 35.1074 77.4561L35.0986 77.9131ZM32.6904 76.0234C32.5322 75.4902 32.2187 75.0566 31.75 74.7227C31.2871 74.3887 30.748 74.2217 30.1328 74.2217C29.4648 74.2217 28.8789 74.4092 28.375 74.7842C28.0586 75.0186 27.7656 75.4316 27.4961 76.0234H32.6904ZM36.6673 72.4375H38.7239V73.6416C38.9466 73.167 39.2425 72.8066 39.6116 72.5605C39.9807 72.3145 40.385 72.1914 40.8245 72.1914C41.135 72.1914 41.4602 72.2734 41.8001 72.4375L41.053 74.5029C40.7718 74.3623 40.5403 74.292 40.3587 74.292C39.9895 74.292 39.6761 74.5205 39.4182 74.9775C39.1663 75.4346 39.0403 76.3311 39.0403 77.667L39.0491 78.1328V82H36.6673V72.4375ZM48.6728 69.0713H55.7304V71.4795H51.1161V73.8174H55.7304V76.1816H51.1161V79.583H55.7304V82H48.6728V69.0713ZM56.8069 72.4375H57.6594C57.6653 71.1836 57.6858 70.4424 57.7209 70.2139C57.7854 69.6865 58.0051 69.2705 58.3801 68.9658C58.761 68.6553 59.2971 68.5 59.9885 68.5C60.4866 68.5 61.0491 68.6143 61.676 68.8428V70.6709C61.3303 70.5713 61.0461 70.5215 60.8235 70.5215C60.5422 70.5215 60.3371 70.5801 60.2082 70.6973C60.1145 70.7852 60.0676 70.9668 60.0676 71.2422L60.0588 72.4375H61.5793V74.4766H60.0588V82H57.6594V74.4766H56.8069V72.4375ZM62.0318 72.4375H62.8843C62.8902 71.1836 62.9107 70.4424 62.9459 70.2139C63.0103 69.6865 63.23 69.2705 63.605 68.9658C63.9859 68.6553 64.522 68.5 65.2134 68.5C65.7115 68.5 66.274 68.6143 66.9009 68.8428V70.6709C66.5552 70.5713 66.2711 70.5215 66.0484 70.5215C65.7671 70.5215 65.5621 70.5801 65.4332 70.6973C65.3394 70.7852 65.2925 70.9668 65.2925 71.2422L65.2837 72.4375H66.8043V74.4766H65.2837V82H62.8843V74.4766H62.0318V72.4375ZM77.9794 77.9131H70.2714C70.3827 78.5928 70.6786 79.1348 71.1591 79.5391C71.6454 79.9375 72.2636 80.1367 73.0136 80.1367C73.91 80.1367 74.6805 79.8232 75.3251 79.1963L77.3466 80.1455C76.8427 80.8604 76.2391 81.3906 75.536 81.7363C74.8329 82.0762 73.9979 82.2461 73.0311 82.2461C71.5311 82.2461 70.3095 81.7744 69.3661 80.8311C68.4227 79.8818 67.9511 78.6953 67.9511 77.2715C67.9511 75.8125 68.4198 74.6025 69.3573 73.6416C70.3007 72.6748 71.4813 72.1914 72.8993 72.1914C74.4052 72.1914 75.6298 72.6748 76.5731 73.6416C77.5165 74.6025 77.9882 75.874 77.9882 77.4561L77.9794 77.9131ZM75.5712 76.0234C75.413 75.4902 75.0995 75.0566 74.6307 74.7227C74.1679 74.3887 73.6288 74.2217 73.0136 74.2217C72.3456 74.2217 71.7597 74.4092 71.2557 74.7842C70.9393 75.0186 70.6464 75.4316 70.3768 76.0234H75.5712ZM89.4709 74.3711L87.4758 75.4697C87.1008 75.0771 86.7287 74.8047 86.3596 74.6523C85.9963 74.5 85.5686 74.4238 85.0764 74.4238C84.1799 74.4238 83.4533 74.6934 82.8967 75.2324C82.3459 75.7656 82.0705 76.4512 82.0705 77.2891C82.0705 78.1035 82.3371 78.7686 82.8703 79.2842C83.4035 79.7998 84.1037 80.0576 84.9709 80.0576C86.0432 80.0576 86.8781 79.6914 87.4758 78.959L89.3654 80.251C88.34 81.5811 86.8928 82.2461 85.0236 82.2461C83.342 82.2461 82.0236 81.748 81.0686 80.752C80.1193 79.7559 79.6447 78.5898 79.6447 77.2539C79.6447 76.3281 79.8762 75.4756 80.3391 74.6963C80.802 73.917 81.4465 73.3047 82.2727 72.8594C83.1047 72.4141 84.0334 72.1914 85.0588 72.1914C86.008 72.1914 86.8605 72.3818 87.6164 72.7627C88.3723 73.1377 88.9904 73.6738 89.4709 74.3711ZM92.1118 68.9131H94.5025V72.4375H95.9263V74.5029H94.5025V82H92.1118V74.5029H90.8814V72.4375H92.1118V68.9131ZM103.252 73.7734L101.766 75.2588C101.163 74.6611 100.615 74.3623 100.123 74.3623C99.8534 74.3623 99.6424 74.4209 99.4901 74.5381C99.3377 74.6494 99.2616 74.79 99.2616 74.96C99.2616 75.0889 99.3084 75.209 99.4022 75.3203C99.5018 75.4258 99.742 75.5723 100.123 75.7598L101.002 76.1992C101.928 76.6562 102.563 77.1221 102.909 77.5967C103.255 78.0713 103.428 78.6279 103.428 79.2666C103.428 80.1162 103.114 80.8252 102.487 81.3936C101.866 81.9619 101.031 82.2461 99.9823 82.2461C98.5877 82.2461 97.4745 81.7012 96.6424 80.6113L98.119 79.0029C98.4002 79.3311 98.7284 79.5977 99.1034 79.8027C99.4842 80.002 99.8211 80.1016 100.114 80.1016C100.431 80.1016 100.685 80.0254 100.879 79.873C101.072 79.7207 101.169 79.5449 101.169 79.3457C101.169 78.9766 100.82 78.6162 100.123 78.2646L99.3143 77.8604C97.7674 77.0811 96.994 76.1055 96.994 74.9336C96.994 74.1777 97.284 73.5332 97.8641 73C98.45 72.4609 99.1971 72.1914 100.105 72.1914C100.726 72.1914 101.309 72.3291 101.854 72.6045C102.405 72.874 102.871 73.2637 103.252 73.7734Z" fill="#1F2A3C"/>
<g clip-path="url(#clip0_1949_211)">
<path d="M33.2708 0H70.7292C76.4083 0 81 4.7094 81 10.5342V47.4658C81 53.2906 76.4083 58 70.7292 58H33.2708C27.5917 58 23 53.2906 23 47.4658V10.5342C23 4.7094 27.5917 0 33.2708 0Z" fill="#00005B"/>
<path d="M46.2968 34.7009H37.3068L35.4701 40.5504C35.4218 40.7735 35.2284 40.9222 35.0109 40.8975H30.4676C30.2018 40.8975 30.1293 40.7487 30.2018 40.4513L37.9834 17.5735C38.0559 17.3257 38.1284 17.1026 38.2251 16.8051C38.3218 16.2846 38.3701 15.7393 38.3701 15.194C38.3459 15.0701 38.4426 14.9462 38.5634 14.9214H38.6359H44.8226C44.9918 14.9214 45.1126 14.9957 45.1368 15.1197L53.9576 40.4017C54.0301 40.6744 53.9576 40.7983 53.7159 40.7983H48.6651C48.4959 40.8231 48.3268 40.6992 48.2784 40.5257L46.2968 34.5769V34.7009ZM38.7084 29.7684H44.8468C44.7018 29.2479 44.5084 28.6282 44.2909 27.9838C44.0734 27.3145 43.8559 26.5957 43.6384 25.8522C43.3968 25.0838 43.1793 24.3402 42.9376 23.5718C42.6959 22.8034 42.4784 22.0846 42.2851 21.3658C42.0918 20.6718 41.9226 20.0274 41.7534 19.4325H41.7051C41.4876 20.4983 41.2218 21.5641 40.8834 22.6299C40.5209 23.8197 40.1584 25.059 39.7718 26.2983C39.4576 27.5624 39.0709 28.7274 38.7084 29.7684Z" fill="#9999FF"/>
<path d="M68.1918 32.47H60.531C60.6277 33.2383 60.8693 34.0067 61.2802 34.6759C61.7152 35.3452 62.3193 35.8657 63.0443 36.1631C64.011 36.5845 65.0743 36.8076 66.1377 36.7828C66.9835 36.758 67.8293 36.6836 68.651 36.5101C69.4002 36.411 70.1252 36.2127 70.8018 35.9401C70.9227 35.8409 70.9952 35.8905 70.9952 36.1383V39.9307C70.9952 40.0298 70.971 40.1289 70.9468 40.2281C70.8985 40.3024 70.8502 40.352 70.7777 40.4016C70.0043 40.7486 69.2068 40.9965 68.361 41.1452C67.2252 41.3683 66.0893 41.4674 64.9293 41.4426C63.0927 41.4426 61.546 41.1452 60.2893 40.5751C59.1052 40.0546 58.066 39.2366 57.2443 38.2204C56.471 37.2537 55.9152 36.1631 55.5768 34.9734C55.2385 33.8084 55.0693 32.5939 55.0693 31.3546C55.0693 30.0161 55.2627 28.7024 55.6735 27.4136C56.0602 26.1742 56.6643 25.0341 57.486 24.0178C58.2835 23.0264 59.2743 22.2332 60.4102 21.6631C61.546 21.093 62.8993 20.8948 64.446 20.8948C65.7268 20.87 67.0077 21.1178 68.1918 21.6631C69.1827 22.1093 70.0527 22.7785 70.7293 23.646C71.3577 24.4888 71.8652 25.4307 72.1793 26.4717C72.4935 27.4631 72.6385 28.4794 72.6385 29.4956C72.6385 30.0905 72.6143 30.611 72.5902 31.0819C72.5418 31.5529 72.5177 31.8999 72.4935 32.123C72.4693 32.2965 72.3243 32.4452 72.1552 32.4452C72.0102 32.4452 71.7443 32.47 71.3577 32.4948C70.971 32.5443 70.5118 32.5691 69.956 32.5691C69.4002 32.5691 68.8202 32.47 68.1918 32.47ZM60.531 28.8512H65.6302C66.2585 28.8512 66.7177 28.8512 67.0077 28.8264C67.201 28.8016 67.3943 28.752 67.5635 28.6281V28.3802C67.5635 28.058 67.5152 27.7606 67.4185 27.4631C66.9835 26.0751 65.7027 25.1332 64.2768 25.1828C62.9477 25.1084 61.691 25.8272 61.0627 27.0665C60.7727 27.6366 60.6035 28.2315 60.531 28.8512Z" fill="#9999FF"/>
</g>
<defs>
<clipPath id="clip0_1949_211">
<rect width="58" height="58" fill="white" transform="translate(23)"/>
</clipPath>
</defs>
</svg>
