<svg width="54" height="54" viewBox="0 0 54 54" fill="none" xmlns="http://www.w3.org/2000/svg">
<path d="M0.867188 42.3809H2.49609V51H0.867188V42.3809ZM4.12195 42.1641H5.72156V51H4.12195V42.1641ZM7.12477 42.1641H8.72437V51H7.12477V42.1641ZM10.2916 44.625H11.9088V47.6953C11.9088 48.293 11.9498 48.709 12.0319 48.9434C12.1139 49.1738 12.2448 49.3535 12.4245 49.4824C12.608 49.6113 12.8327 49.6758 13.0983 49.6758C13.3639 49.6758 13.5885 49.6133 13.7721 49.4883C13.9596 49.3594 14.0983 49.1719 14.1881 48.9258C14.2545 48.7422 14.2877 48.3496 14.2877 47.748V44.625H15.8932V47.3262C15.8932 48.4395 15.8053 49.2012 15.6295 49.6113C15.4147 50.1113 15.0983 50.4961 14.6803 50.7656C14.2623 51.0312 13.7311 51.1641 13.0866 51.1641C12.3873 51.1641 11.8209 51.0078 11.3873 50.6953C10.9577 50.3828 10.6549 49.9473 10.4791 49.3887C10.3541 49.002 10.2916 48.2988 10.2916 47.2793V44.625ZM21.5269 45.5156L20.5366 46.5059C20.1343 46.1074 19.7691 45.9082 19.4409 45.9082C19.2612 45.9082 19.1206 45.9473 19.0191 46.0254C18.9175 46.0996 18.8667 46.1934 18.8667 46.3066C18.8667 46.3926 18.898 46.4727 18.9605 46.5469C19.0269 46.6172 19.187 46.7148 19.4409 46.8398L20.0269 47.1328C20.6441 47.4375 21.0679 47.748 21.2984 48.0645C21.5288 48.3809 21.6441 48.752 21.6441 49.1777C21.6441 49.7441 21.4351 50.2168 21.0171 50.5957C20.603 50.9746 20.0464 51.1641 19.3472 51.1641C18.4175 51.1641 17.6753 50.8008 17.1206 50.0742L18.105 49.002C18.2925 49.2207 18.5112 49.3984 18.7612 49.5352C19.0152 49.668 19.2398 49.7344 19.4351 49.7344C19.646 49.7344 19.8159 49.6836 19.9448 49.582C20.0737 49.4805 20.1382 49.3633 20.1382 49.2305C20.1382 48.9844 19.9058 48.7441 19.4409 48.5098L18.9019 48.2402C17.8706 47.7207 17.355 47.0703 17.355 46.2891C17.355 45.7852 17.5484 45.3555 17.9351 45C18.3257 44.6406 18.8237 44.4609 19.4292 44.4609C19.8433 44.4609 20.232 44.5527 20.5952 44.7363C20.9624 44.916 21.273 45.1758 21.5269 45.5156ZM23.223 42.2754H24.8168V44.625H25.766V46.002H24.8168V51H23.223V46.002H22.4027V44.625H23.223V42.2754ZM26.3723 44.625H27.7434V45.4277C27.8919 45.1113 28.0891 44.8711 28.3352 44.707C28.5813 44.543 28.8509 44.4609 29.1438 44.4609C29.3509 44.4609 29.5677 44.5156 29.7942 44.625L29.2962 46.002C29.1087 45.9082 28.9544 45.8613 28.8333 45.8613C28.5872 45.8613 28.3782 46.0137 28.2063 46.3184C28.0384 46.623 27.9544 47.2207 27.9544 48.1113L27.9602 48.4219V51H26.3723V44.625ZM35.422 44.625H37.0158V51H35.422V50.3262C35.1095 50.623 34.7951 50.8379 34.4787 50.9707C34.1662 51.0996 33.8263 51.1641 33.4591 51.1641C32.6349 51.1641 31.922 50.8457 31.3205 50.209C30.7189 49.5684 30.4181 48.7734 30.4181 47.8242C30.4181 46.8398 30.7091 46.0332 31.2912 45.4043C31.8732 44.7754 32.5802 44.4609 33.4123 44.4609C33.7951 44.4609 34.1545 44.5332 34.4904 44.6777C34.8263 44.8223 35.1369 45.0391 35.422 45.3281V44.625ZM33.7404 45.9375C33.2443 45.9375 32.8322 46.1133 32.5041 46.4648C32.1759 46.8125 32.0119 47.2598 32.0119 47.8066C32.0119 48.3574 32.1779 48.8105 32.5099 49.166C32.8459 49.5215 33.258 49.6992 33.7463 49.6992C34.2502 49.6992 34.6681 49.5254 35.0002 49.1777C35.3322 48.8262 35.4982 48.3672 35.4982 47.8008C35.4982 47.2461 35.3322 46.7969 35.0002 46.4531C34.6681 46.1094 34.2482 45.9375 33.7404 45.9375ZM38.9463 42.2754H40.5401V44.625H41.4893V46.002H40.5401V51H38.9463V46.002H38.126V44.625H38.9463V42.2754ZM45.4648 44.4609C46.0663 44.4609 46.6308 44.6113 47.1581 44.9121C47.6894 45.2129 48.1034 45.6211 48.4003 46.1367C48.6972 46.6523 48.8456 47.209 48.8456 47.8066C48.8456 48.4082 48.6952 48.9707 48.3945 49.4941C48.0976 50.0176 47.6913 50.4277 47.1757 50.7246C46.6601 51.0176 46.0917 51.1641 45.4706 51.1641C44.5566 51.1641 43.7753 50.8398 43.1269 50.1914C42.4823 49.5391 42.1601 48.748 42.1601 47.8184C42.1601 46.8223 42.5253 45.9922 43.2558 45.3281C43.8964 44.75 44.6327 44.4609 45.4648 44.4609ZM45.4882 45.9668C44.9921 45.9668 44.578 46.1406 44.246 46.4883C43.9179 46.832 43.7538 47.2734 43.7538 47.8125C43.7538 48.3672 43.9159 48.8164 44.2402 49.1602C44.5683 49.5039 44.9823 49.6758 45.4823 49.6758C45.9823 49.6758 46.3984 49.502 46.7304 49.1543C47.0624 48.8066 47.2284 48.3594 47.2284 47.8125C47.2284 47.2656 47.0644 46.8223 46.7363 46.4824C46.412 46.1387 45.996 45.9668 45.4882 45.9668ZM49.9031 44.625H51.2742V45.4277C51.4227 45.1113 51.6199 44.8711 51.866 44.707C52.1121 44.543 52.3816 44.4609 52.6746 44.4609C52.8816 44.4609 53.0984 44.5156 53.325 44.625L52.827 46.002C52.6395 45.9082 52.4852 45.8613 52.3641 45.8613C52.118 45.8613 51.909 46.0137 51.7371 46.3184C51.5691 46.623 51.4852 47.2207 51.4852 48.1113L51.491 48.4219V51H49.9031V44.625Z" fill="#1F2A3C"/>
<g clip-path="url(#clip0_2847_2530)">
<path d="M16.3125 0H35.6875C38.625 0 41 2.4359 41 5.44872V24.5513C41 27.5641 38.625 30 35.6875 30H16.3125C13.375 30 11 27.5641 11 24.5513V5.44872C11 2.4359 13.375 0 16.3125 0Z" fill="url(#paint0_linear_2847_2530)"/>
<path d="M25.4998 17.9487H20.8498L19.8998 20.9615C19.8748 21.0769 19.7748 21.1538 19.6623 21.141H17.3123C17.1748 21.141 17.1373 21.0641 17.1748 20.9102L21.1998 9.0256C21.2373 8.8974 21.2748 8.75637 21.3248 8.60253C21.3748 8.3333 21.3998 8.05124 21.3998 7.76919C21.3873 7.70509 21.4373 7.64099 21.4998 7.62817H24.7373C24.8373 7.62817 24.8873 7.66663 24.8998 7.73073L29.4623 20.9359C29.4998 21.0769 29.4623 21.141 29.3373 21.141H26.7248C26.6373 21.1538 26.5498 21.0897 26.5248 21L25.4998 17.9487ZM21.5748 15.3461H24.7498C24.6748 15.0769 24.5748 14.7564 24.4623 14.423C24.3498 14.0769 24.2373 13.7051 24.1248 13.3205C23.9998 12.923 23.8873 12.5384 23.7623 12.141C23.6373 11.7436 23.5248 11.3718 23.4248 11C23.3248 10.641 23.2373 10.3077 23.1498 9.99996H23.1248C23.0123 10.5512 22.8748 11.1025 22.6998 11.6538C22.5123 12.2692 22.3248 12.9102 22.1248 13.5512C21.9498 14.2051 21.7623 14.8077 21.5748 15.3461ZM32.2498 9.87176C31.8373 9.88458 31.4373 9.71791 31.1373 9.42304C30.8498 9.10253 30.6998 8.67945 30.7123 8.24355C30.6998 7.80765 30.8623 7.3974 31.1623 7.10253C31.4623 6.80765 31.8623 6.65381 32.2748 6.65381C32.7623 6.65381 33.1373 6.80765 33.4123 7.10253C33.6873 7.41022 33.8373 7.82048 33.8248 8.24355C33.8373 8.67945 33.6873 9.10253 33.3873 9.42304C33.0998 9.73073 32.6748 9.8974 32.2498 9.87176ZM30.8498 21V11.1282C30.8498 11 30.8998 10.9487 31.0123 10.9487H33.4873C33.5998 10.9487 33.6498 11.0128 33.6498 11.1282V21C33.6498 21.141 33.5998 21.2051 33.4873 21.2051H31.0373C30.9123 21.2051 30.8498 21.1282 30.8498 21Z" fill="white"/>
</g>
<defs>
<linearGradient id="paint0_linear_2847_2530" x1="11" y1="0" x2="41.8147" y2="1.10499" gradientUnits="userSpaceOnUse">
<stop stop-color="#091C91"/>
<stop offset="1" stop-color="#24BCFF"/>
</linearGradient>
<clipPath id="clip0_2847_2530">
<rect width="30" height="30" fill="white" transform="translate(11)"/>
</clipPath>
</defs>
</svg>
