<svg width="80" height="87" viewBox="0 0 80 87" fill="none" xmlns="http://www.w3.org/2000/svg">
<path d="M1.30078 69.0713H3.74414V82H1.30078V69.0713ZM6.18293 68.7461H8.58234V82H6.18293V68.7461ZM10.6871 68.7461H13.0866V82H10.6871V68.7461ZM15.4375 72.4375H17.8632V77.043C17.8632 77.9395 17.9248 78.5635 18.0478 78.915C18.1709 79.2607 18.3671 79.5303 18.6367 79.7236C18.9121 79.917 19.249 80.0137 19.6474 80.0137C20.0459 80.0137 20.3828 79.9199 20.6582 79.7324C20.9394 79.5391 21.1474 79.2578 21.2822 78.8887C21.3818 78.6133 21.4316 78.0244 21.4316 77.1221V72.4375H23.8398V76.4893C23.8398 78.1592 23.708 79.3018 23.4443 79.917C23.122 80.667 22.6474 81.2441 22.0205 81.6484C21.3935 82.0469 20.5966 82.2461 19.6298 82.2461C18.581 82.2461 17.7314 82.0117 17.081 81.543C16.4365 81.0742 15.9824 80.4209 15.7187 79.583C15.5312 79.0029 15.4375 77.9482 15.4375 76.4189V72.4375ZM32.2903 73.7734L30.805 75.2588C30.2014 74.6611 29.6536 74.3623 29.1614 74.3623C28.8919 74.3623 28.6809 74.4209 28.5286 74.5381C28.3762 74.6494 28.3001 74.79 28.3001 74.96C28.3001 75.0889 28.347 75.209 28.4407 75.3203C28.5403 75.4258 28.7805 75.5723 29.1614 75.7598L30.0403 76.1992C30.9661 76.6562 31.6018 77.1221 31.9475 77.5967C32.2932 78.0713 32.4661 78.6279 32.4661 79.2666C32.4661 80.1162 32.1526 80.8252 31.5257 81.3936C30.9046 81.9619 30.0696 82.2461 29.0208 82.2461C27.6262 82.2461 26.513 81.7012 25.6809 80.6113L27.1575 79.0029C27.4387 79.3311 27.7669 79.5977 28.1419 79.8027C28.5227 80.002 28.8596 80.1016 29.1526 80.1016C29.469 80.1016 29.7239 80.0254 29.9173 79.873C30.1106 79.7207 30.2073 79.5449 30.2073 79.3457C30.2073 78.9766 29.8587 78.6162 29.1614 78.2646L28.3528 77.8604C26.8059 77.0811 26.0325 76.1055 26.0325 74.9336C26.0325 74.1777 26.3225 73.5332 26.9026 73C27.4886 72.4609 28.2356 72.1914 29.1438 72.1914C29.7649 72.1914 30.3479 72.3291 30.8929 72.6045C31.4436 72.874 31.9095 73.2637 32.2903 73.7734ZM34.8346 68.9131H37.2252V72.4375H38.649V74.5029H37.2252V82H34.8346V74.5029H33.6041V72.4375H34.8346V68.9131ZM39.5585 72.4375H41.6152V73.6416C41.8378 73.167 42.1337 72.8066 42.5029 72.5605C42.872 72.3145 43.2763 72.1914 43.7157 72.1914C44.0263 72.1914 44.3515 72.2734 44.6913 72.4375L43.9443 74.5029C43.663 74.3623 43.4316 74.292 43.2499 74.292C42.8808 74.292 42.5673 74.5205 42.3095 74.9775C42.0575 75.4346 41.9316 76.3311 41.9316 77.667L41.9404 78.1328V82H39.5585V72.4375ZM53.133 72.4375H55.5237V82H53.133V80.9893C52.6643 81.4346 52.1926 81.7568 51.718 81.9561C51.2493 82.1494 50.7395 82.2461 50.1887 82.2461C48.9524 82.2461 47.883 81.7686 46.9807 80.8135C46.0784 79.8525 45.6272 78.6602 45.6272 77.2363C45.6272 75.7598 46.0637 74.5498 46.9368 73.6064C47.8098 72.6631 48.8703 72.1914 50.1184 72.1914C50.6926 72.1914 51.2317 72.2998 51.7356 72.5166C52.2395 72.7334 52.7053 73.0586 53.133 73.4922V72.4375ZM50.6106 74.4062C49.8664 74.4062 49.2483 74.6699 48.7561 75.1973C48.2639 75.7188 48.0178 76.3896 48.0178 77.21C48.0178 78.0361 48.2668 78.7158 48.7649 79.249C49.2688 79.7822 49.887 80.0488 50.6194 80.0488C51.3752 80.0488 52.0022 79.7881 52.5002 79.2666C52.9983 78.7393 53.2473 78.0508 53.2473 77.2012C53.2473 76.3691 52.9983 75.6953 52.5002 75.1797C52.0022 74.6641 51.3723 74.4062 50.6106 74.4062ZM58.4195 68.9131H60.8101V72.4375H62.2339V74.5029H60.8101V82H58.4195V74.5029H57.189V72.4375H58.4195V68.9131ZM68.1971 72.1914C69.0995 72.1914 69.9462 72.417 70.7372 72.8682C71.5341 73.3193 72.1552 73.9316 72.6005 74.7051C73.0458 75.4785 73.2684 76.3135 73.2684 77.21C73.2684 78.1123 73.0429 78.9561 72.5917 79.7412C72.1464 80.5264 71.537 81.1416 70.7636 81.5869C69.9901 82.0264 69.1376 82.2461 68.2059 82.2461C66.8348 82.2461 65.663 81.7598 64.6903 80.7871C63.7235 79.8086 63.2401 78.6221 63.2401 77.2275C63.2401 75.7334 63.788 74.4883 64.8837 73.4922C65.8446 72.625 66.9491 72.1914 68.1971 72.1914ZM68.2323 74.4502C67.4882 74.4502 66.8671 74.7109 66.369 75.2324C65.8768 75.748 65.6307 76.4102 65.6307 77.2188C65.6307 78.0508 65.8739 78.7246 66.3602 79.2402C66.8524 79.7559 67.4735 80.0137 68.2235 80.0137C68.9735 80.0137 69.5975 79.7529 70.0956 79.2314C70.5936 78.71 70.8427 78.0391 70.8427 77.2188C70.8427 76.3984 70.5966 75.7334 70.1044 75.2236C69.618 74.708 68.994 74.4502 68.2323 74.4502ZM74.8547 72.4375H76.9113V73.6416C77.134 73.167 77.4299 72.8066 77.799 72.5605C78.1682 72.3145 78.5725 72.1914 79.0119 72.1914C79.3225 72.1914 79.6477 72.2734 79.9875 72.4375L79.2404 74.5029C78.9592 74.3623 78.7277 74.292 78.5461 74.292C78.177 74.292 77.8635 74.5205 77.6057 74.9775C77.3537 75.4346 77.2277 76.3311 77.2277 77.667L77.2365 78.1328V82H74.8547V72.4375Z" fill="#1F2A3C"/>
<g clip-path="url(#clip0_1949_201)">
<path d="M21.2708 0H58.7292C64.4083 0 69 4.7094 69 10.5342V47.4658C69 53.2906 64.4083 58 58.7292 58H21.2708C15.5917 58 11 53.2906 11 47.4658V10.5342C11 4.7094 15.5917 0 21.2708 0Z" fill="#330000"/>
<path d="M39.0331 34.701H30.0431L28.2064 40.5258C28.1581 40.7489 27.9648 40.8976 27.7473 40.8728H23.2039C22.9381 40.8728 22.8656 40.7241 22.9381 40.4267L30.7198 17.4497C30.7923 17.2019 30.8648 16.9292 30.9614 16.6318C31.0581 16.1113 31.1064 15.566 31.1064 15.0207C31.0823 14.8967 31.1789 14.7728 31.2998 14.748H37.5589C37.7523 14.748 37.8489 14.8224 37.8731 14.9463L46.6939 40.4762C46.7664 40.7489 46.6939 40.8728 46.4523 40.8728H41.4014C41.2323 40.8976 41.0631 40.7737 41.0148 40.6002L39.0331 34.701ZM31.4448 29.6694H37.5831C37.4381 29.1489 37.2448 28.5292 37.0273 27.8848C36.8098 27.2155 36.5923 26.4967 36.3748 25.7531C36.1331 24.9848 35.9156 24.2412 35.6739 23.4728C35.4323 22.7044 35.2148 21.9856 35.0214 21.2668C34.8281 20.5728 34.6589 19.9284 34.4898 19.3335H34.4414C34.2239 20.3993 33.9581 21.4651 33.6198 22.5309C33.2573 23.7207 32.8948 24.96 32.5081 26.1993C32.1698 27.4634 31.8073 28.6284 31.4448 29.6694ZM52.0831 19.0856C51.2856 19.1104 50.5123 18.7882 49.9323 18.2181C49.3764 17.5984 49.0864 16.7805 49.1106 15.9378C49.0864 15.095 49.4006 14.3019 49.9806 13.7318C50.5606 13.1617 51.3339 12.8643 52.1314 12.8643C53.0739 12.8643 53.7989 13.1617 54.3306 13.7318C54.8623 14.3267 55.1523 15.1198 55.1281 15.9378C55.1523 16.7805 54.8623 17.5984 54.2823 18.2181C53.7264 18.813 52.9048 19.1352 52.0831 19.0856ZM49.3764 40.6002V21.5147C49.3764 21.2668 49.4731 21.1677 49.6906 21.1677H54.4756C54.6931 21.1677 54.7898 21.2916 54.7898 21.5147V40.6002C54.7898 40.8728 54.6931 40.9967 54.4756 40.9967H49.7389C49.4973 40.9967 49.3764 40.848 49.3764 40.6002Z" fill="#FF9A00"/>
</g>
<defs>
<clipPath id="clip0_1949_201">
<rect width="58" height="58" fill="white" transform="translate(11)"/>
</clipPath>
</defs>
</svg>
