<svg width="80" height="82" viewBox="0 0 80 82" fill="none" xmlns="http://www.w3.org/2000/svg">
<path d="M1.30078 64.0713H3.74414V77H1.30078V64.0713ZM6.18293 63.7461H8.58234V77H6.18293V63.7461ZM10.6871 63.7461H13.0866V77H10.6871V63.7461ZM15.4375 67.4375H17.8632V72.043C17.8632 72.9395 17.9248 73.5635 18.0478 73.915C18.1709 74.2607 18.3671 74.5303 18.6367 74.7236C18.9121 74.917 19.249 75.0137 19.6474 75.0137C20.0459 75.0137 20.3828 74.9199 20.6582 74.7324C20.9394 74.5391 21.1474 74.2578 21.2822 73.8887C21.3818 73.6133 21.4316 73.0244 21.4316 72.1221V67.4375H23.8398V71.4893C23.8398 73.1592 23.708 74.3018 23.4443 74.917C23.122 75.667 22.6474 76.2441 22.0205 76.6484C21.3935 77.0469 20.5966 77.2461 19.6298 77.2461C18.581 77.2461 17.7314 77.0117 17.081 76.543C16.4365 76.0742 15.9824 75.4209 15.7187 74.583C15.5312 74.0029 15.4375 72.9482 15.4375 71.4189V67.4375ZM32.2903 68.7734L30.805 70.2588C30.2014 69.6611 29.6536 69.3623 29.1614 69.3623C28.8919 69.3623 28.6809 69.4209 28.5286 69.5381C28.3762 69.6494 28.3001 69.79 28.3001 69.96C28.3001 70.0889 28.347 70.209 28.4407 70.3203C28.5403 70.4258 28.7805 70.5723 29.1614 70.7598L30.0403 71.1992C30.9661 71.6562 31.6018 72.1221 31.9475 72.5967C32.2932 73.0713 32.4661 73.6279 32.4661 74.2666C32.4661 75.1162 32.1526 75.8252 31.5257 76.3936C30.9046 76.9619 30.0696 77.2461 29.0208 77.2461C27.6262 77.2461 26.513 76.7012 25.6809 75.6113L27.1575 74.0029C27.4387 74.3311 27.7669 74.5977 28.1419 74.8027C28.5227 75.002 28.8596 75.1016 29.1526 75.1016C29.469 75.1016 29.7239 75.0254 29.9173 74.873C30.1106 74.7207 30.2073 74.5449 30.2073 74.3457C30.2073 73.9766 29.8587 73.6162 29.1614 73.2646L28.3528 72.8604C26.8059 72.0811 26.0325 71.1055 26.0325 69.9336C26.0325 69.1777 26.3225 68.5332 26.9026 68C27.4886 67.4609 28.2356 67.1914 29.1438 67.1914C29.7649 67.1914 30.3479 67.3291 30.8929 67.6045C31.4436 67.874 31.9095 68.2637 32.2903 68.7734ZM34.8346 63.9131H37.2252V67.4375H38.649V69.5029H37.2252V77H34.8346V69.5029H33.6041V67.4375H34.8346V63.9131ZM39.5585 67.4375H41.6152V68.6416C41.8378 68.167 42.1337 67.8066 42.5029 67.5605C42.872 67.3145 43.2763 67.1914 43.7157 67.1914C44.0263 67.1914 44.3515 67.2734 44.6913 67.4375L43.9443 69.5029C43.663 69.3623 43.4316 69.292 43.2499 69.292C42.8808 69.292 42.5673 69.5205 42.3095 69.9775C42.0575 70.4346 41.9316 71.3311 41.9316 72.667L41.9404 73.1328V77H39.5585V67.4375ZM53.133 67.4375H55.5237V77H53.133V75.9893C52.6643 76.4346 52.1926 76.7568 51.718 76.9561C51.2493 77.1494 50.7395 77.2461 50.1887 77.2461C48.9524 77.2461 47.883 76.7686 46.9807 75.8135C46.0784 74.8525 45.6272 73.6602 45.6272 72.2363C45.6272 70.7598 46.0637 69.5498 46.9368 68.6064C47.8098 67.6631 48.8703 67.1914 50.1184 67.1914C50.6926 67.1914 51.2317 67.2998 51.7356 67.5166C52.2395 67.7334 52.7053 68.0586 53.133 68.4922V67.4375ZM50.6106 69.4062C49.8664 69.4062 49.2483 69.6699 48.7561 70.1973C48.2639 70.7188 48.0178 71.3896 48.0178 72.21C48.0178 73.0361 48.2668 73.7158 48.7649 74.249C49.2688 74.7822 49.887 75.0488 50.6194 75.0488C51.3752 75.0488 52.0022 74.7881 52.5002 74.2666C52.9983 73.7393 53.2473 73.0508 53.2473 72.2012C53.2473 71.3691 52.9983 70.6953 52.5002 70.1797C52.0022 69.6641 51.3723 69.4062 50.6106 69.4062ZM58.4195 63.9131H60.8101V67.4375H62.2339V69.5029H60.8101V77H58.4195V69.5029H57.189V67.4375H58.4195V63.9131ZM68.1971 67.1914C69.0995 67.1914 69.9462 67.417 70.7372 67.8682C71.5341 68.3193 72.1552 68.9316 72.6005 69.7051C73.0458 70.4785 73.2684 71.3135 73.2684 72.21C73.2684 73.1123 73.0429 73.9561 72.5917 74.7412C72.1464 75.5264 71.537 76.1416 70.7636 76.5869C69.9901 77.0264 69.1376 77.2461 68.2059 77.2461C66.8348 77.2461 65.663 76.7598 64.6903 75.7871C63.7235 74.8086 63.2401 73.6221 63.2401 72.2275C63.2401 70.7334 63.788 69.4883 64.8837 68.4922C65.8446 67.625 66.9491 67.1914 68.1971 67.1914ZM68.2323 69.4502C67.4882 69.4502 66.8671 69.7109 66.369 70.2324C65.8768 70.748 65.6307 71.4102 65.6307 72.2188C65.6307 73.0508 65.8739 73.7246 66.3602 74.2402C66.8524 74.7559 67.4735 75.0137 68.2235 75.0137C68.9735 75.0137 69.5975 74.7529 70.0956 74.2314C70.5936 73.71 70.8427 73.0391 70.8427 72.2188C70.8427 71.3984 70.5966 70.7334 70.1044 70.2236C69.618 69.708 68.994 69.4502 68.2323 69.4502ZM74.8547 67.4375H76.9113V68.6416C77.134 68.167 77.4299 67.8066 77.799 67.5605C78.1682 67.3145 78.5725 67.1914 79.0119 67.1914C79.3225 67.1914 79.6477 67.2734 79.9875 67.4375L79.2404 69.5029C78.9592 69.3623 78.7277 69.292 78.5461 69.292C78.177 69.292 77.8635 69.5205 77.6057 69.9775C77.3537 70.4346 77.2277 71.3311 77.2277 72.667L77.2365 73.1328V77H74.8547V67.4375Z" fill="#1F2A3C"/>
<g clip-path="url(#clip0_1949_119)">
<path d="M24.5 0H55.5C60.2 0 64 3.89744 64 8.71795V39.2821C64 44.1026 60.2 48 55.5 48H24.5C19.8 48 16 44.1026 16 39.2821V8.71795C16 3.89744 19.8 0 24.5 0Z" fill="#330000"/>
<path d="M39.1998 28.7178H31.7598L30.2398 33.5383C30.1998 33.7229 30.0398 33.846 29.8598 33.8255H26.0998C25.8798 33.8255 25.8198 33.7024 25.8798 33.4563L32.3198 14.4409C32.3798 14.2357 32.4398 14.0101 32.5198 13.7639C32.5998 13.3332 32.6398 12.8819 32.6398 12.4306C32.6198 12.328 32.6998 12.2255 32.7998 12.205H37.9798C38.1398 12.205 38.2198 12.2665 38.2398 12.3691L45.5398 33.4973C45.5998 33.7229 45.5398 33.8255 45.3398 33.8255H41.1598C41.0198 33.846 40.8798 33.7434 40.8398 33.5998L39.1998 28.7178ZM32.9198 24.5537H37.9998C37.8798 24.1229 37.7198 23.6101 37.5398 23.0768C37.3598 22.5229 37.1798 21.928 36.9998 21.3127C36.7998 20.6768 36.6198 20.0614 36.4198 19.4255C36.2198 18.7896 36.0398 18.1947 35.8798 17.5998C35.7198 17.0255 35.5798 16.4921 35.4398 15.9998H35.3998C35.2198 16.8819 34.9998 17.7639 34.7198 18.646C34.4198 19.6306 34.1198 20.6563 33.7998 21.6819C33.5198 22.728 33.2198 23.6921 32.9198 24.5537ZM49.9998 15.7947C49.3398 15.8152 48.6998 15.5486 48.2198 15.0768C47.7598 14.5639 47.5198 13.887 47.5398 13.1896C47.5198 12.4922 47.7798 11.8357 48.2598 11.3639C48.7398 10.8921 49.3798 10.646 50.0398 10.646C50.8198 10.646 51.4198 10.8921 51.8598 11.3639C52.2998 11.8563 52.5398 12.5127 52.5198 13.1896C52.5398 13.887 52.2998 14.5639 51.8198 15.0768C51.3598 15.5691 50.6798 15.8357 49.9998 15.7947ZM47.7598 33.5998V17.805C47.7598 17.5998 47.8398 17.5178 48.0198 17.5178H51.9798C52.1598 17.5178 52.2398 17.6204 52.2398 17.805V33.5998C52.2398 33.8255 52.1598 33.928 51.9798 33.928H48.0598C47.8598 33.928 47.7598 33.805 47.7598 33.5998V33.5998Z" fill="#FF9A00"/>
</g>
<defs>
<clipPath id="clip0_1949_119">
<rect width="48" height="48" fill="white" transform="translate(16)"/>
</clipPath>
</defs>
</svg>
