<svg width="71" height="72" viewBox="0 0 71 72" fill="none" xmlns="http://www.w3.org/2000/svg">
<path d="M71 37C71 56.33 55.33 72 36 72C16.67 72 1 56.33 1 37C1 17.67 16.67 2 36 2C55.33 2 71 17.67 71 37Z" fill="url(#paint0_linear_1946_393)"/>
<g filter="url(#filter0_d_1946_393)">
<path d="M8.6999 27.5813C7.5799 28.1413 4.03324 27.8146 2.3999 27.5813C3.7999 20.5812 10.0999 10.7809 20.5999 5.18092C28.9999 0.700922 39.4999 1.91426 43.6999 3.08092C44.1666 3.08092 45.0999 3.36092 45.0999 4.48092C45.0999 5.60092 46.0332 7.28092 46.4999 7.98092L55.5999 23.3809C57.4666 27.8143 60.3599 37.1009 56.9999 38.7809C53.6399 40.4609 48.5999 38.5476 46.4999 37.3809C42.2999 34.5811 32.6399 28.0013 27.5999 24.0813C21.2999 19.1813 19.1999 19.8813 16.3999 19.8813C13.5999 19.8813 10.0999 26.8813 8.6999 27.5813Z" fill="#E22569"/>
</g>
<g filter="url(#filter1_d_1946_393)">
<path fill-rule="evenodd" clip-rule="evenodd" d="M25.5 48.1998L35.3 25.7998H45.8V29.9998H41.6L49.3 48.1998H43.8485L41.8121 43.2998H33.2L31.1 48.1998H25.5ZM34.6 39.7998L37.4 33.4998L40.2 39.7998H34.6Z" fill="#F1FFFF"/>
</g>
<defs>
<filter id="filter0_d_1946_393" x="0.399902" y="0" width="62.145" height="43.4424" filterUnits="userSpaceOnUse" color-interpolation-filters="sRGB">
<feFlood flood-opacity="0" result="BackgroundImageFix"/>
<feColorMatrix in="SourceAlpha" type="matrix" values="0 0 0 0 0 0 0 0 0 0 0 0 0 0 0 0 0 0 127 0" result="hardAlpha"/>
<feOffset dx="1" dy="1"/>
<feGaussianBlur stdDeviation="1.5"/>
<feComposite in2="hardAlpha" operator="out"/>
<feColorMatrix type="matrix" values="0 0 0 0 0.252778 0 0 0 0 0.416759 0 0 0 0 0.466667 0 0 0 1 0"/>
<feBlend mode="normal" in2="BackgroundImageFix" result="effect1_dropShadow_1946_393"/>
<feBlend mode="normal" in="SourceGraphic" in2="effect1_dropShadow_1946_393" result="shape"/>
</filter>
<filter id="filter1_d_1946_393" x="22.5" y="24.7998" width="27.7998" height="26.3999" filterUnits="userSpaceOnUse" color-interpolation-filters="sRGB">
<feFlood flood-opacity="0" result="BackgroundImageFix"/>
<feColorMatrix in="SourceAlpha" type="matrix" values="0 0 0 0 0 0 0 0 0 0 0 0 0 0 0 0 0 0 127 0" result="hardAlpha"/>
<feOffset dx="-1" dy="1"/>
<feGaussianBlur stdDeviation="1"/>
<feComposite in2="hardAlpha" operator="out"/>
<feColorMatrix type="matrix" values="0 0 0 0 0.118056 0 0 0 0 0.155324 0 0 0 0 0.166667 0 0 0 0.2 0"/>
<feBlend mode="normal" in2="BackgroundImageFix" result="effect1_dropShadow_1946_393"/>
<feBlend mode="normal" in="SourceGraphic" in2="effect1_dropShadow_1946_393" result="shape"/>
</filter>
<linearGradient id="paint0_linear_1946_393" x1="53.5" y1="8.3" x2="18.5" y2="72" gradientUnits="userSpaceOnUse">
<stop stop-color="#309FB0"/>
<stop offset="0.49405" stop-color="#38C1D5"/>
<stop offset="1" stop-color="#39B1C4"/>
</linearGradient>
</defs>
</svg>
