<svg width="131" height="55" viewBox="0 0 131 55" fill="none" xmlns="http://www.w3.org/2000/svg">
<path d="M15.8367 27.1323C16.0889 28.0672 16.2623 29.1613 16.3569 30.4146C16.4753 31.627 16.5255 32.9094 16.5077 34.2617C16.4898 35.614 16.3952 37.0041 16.2237 38.4318C16.076 39.8187 15.846 41.1584 15.5337 42.4508C15.0319 44.5884 14.4637 46.4155 13.8291 47.9319C13.1858 49.4161 12.5098 50.6499 11.801 51.6333C11.1159 52.5757 10.4068 53.3 9.67355 53.8061C8.94903 54.3445 8.22972 54.7087 7.51561 54.8987C6.57428 55.1492 5.82072 54.9351 5.25492 54.2564C4.71289 53.5368 4.27662 52.5645 3.94611 51.3395C3.71128 50.469 3.56396 49.4716 3.50416 48.3473C3.47682 47.2143 3.51121 46.1167 3.60734 45.0546C3.69477 43.9602 3.8083 42.9625 3.94792 42.0615C4.07884 41.1283 4.22195 40.4337 4.37726 39.9777C5.01758 37.8378 5.67678 36.0902 6.35486 34.7349C7.03293 33.3797 7.64787 32.6286 8.19969 32.4818C8.55674 32.3868 8.8144 32.4391 8.97266 32.6389C9.12223 32.8064 9.27529 33.1803 9.43184 33.7606C9.60579 34.4054 9.61977 35.2309 9.47379 36.2372C9.36026 37.2349 9.15806 38.2908 8.86717 39.4048C8.57628 40.5188 8.23236 41.6296 7.83539 42.7373C7.47089 43.8364 7.12028 44.7935 6.78358 45.6087C6.83809 45.9397 6.88826 46.2546 6.93408 46.5534C6.9712 46.82 7.00832 47.0865 7.04544 47.3531C7.10632 47.5787 7.15416 47.756 7.18895 47.885C7.34551 48.4653 7.48467 48.9811 7.60643 49.4324C7.76066 49.8751 7.92995 50.2447 8.1143 50.5412C8.29865 50.8376 8.52618 51.0362 8.79689 51.137C9.06759 51.2377 9.41393 51.2319 9.83591 51.1196C10.193 51.0246 10.5607 50.8403 10.9392 50.5668C11.3502 50.2847 11.7295 49.821 12.0772 49.1756C12.4574 48.5215 12.8298 47.645 13.1943 46.546C13.5501 45.4147 13.8557 43.9685 14.1112 42.2074C14.2723 41.128 14.3391 40.0218 14.3118 38.8888C14.3082 37.7149 14.2527 36.6067 14.1454 35.5641C14.0294 34.4893 13.8908 33.5242 13.7296 32.6687C13.5683 31.8132 13.4268 31.1598 13.3051 30.7085C12.6876 28.4196 11.9915 26.5489 11.217 25.0965C10.4749 23.6354 9.68563 22.5152 8.84912 21.7357C8.03638 20.9154 7.21642 20.3907 6.38924 20.1617C5.56206 19.9326 4.75896 19.9218 3.97993 20.1291C3.55795 20.2414 3.15656 20.3655 2.77574 20.5014C2.39492 20.6373 2.05643 20.8656 1.76025 21.1863C1.32787 21.6468 1.06533 22.0277 0.972608 22.3288C0.903652 22.589 0.903964 22.8481 0.973544 23.106C1.04312 23.3639 1.13095 23.496 1.23703 23.5023C1.34311 23.5087 1.41789 23.5924 1.46138 23.7536C1.51356 23.947 1.4585 24.0653 1.29621 24.1085C1.16637 24.1431 0.973628 24.0734 0.717988 23.8996C0.45365 23.6935 0.260599 23.3648 0.138833 22.9135C-0.0351177 22.2687 -0.0456049 21.6496 0.107372 21.056C0.292807 20.4538 0.597365 19.9063 1.02105 19.4134C1.43603 18.8884 1.95825 18.4384 2.58772 18.0636C3.24095 17.6479 3.95708 17.3364 4.73611 17.129C5.83974 16.8353 6.91875 16.7728 7.97315 16.9414C9.06 17.1013 10.0747 17.5742 11.0173 18.3599C11.9923 19.137 12.8834 20.2475 13.6904 21.6913C14.5211 23.0942 15.2366 24.9079 15.8367 27.1323ZM7.7 35.4654C7.44032 35.5345 7.22328 35.9551 7.04887 36.7271C6.89822 37.4582 6.77367 38.2861 6.67521 39.2107C6.57675 40.1353 6.52263 41.0308 6.51285 41.8972C6.49437 42.7314 6.5037 43.2818 6.54082 43.5483C6.73091 43.2213 6.91115 42.7932 7.08152 42.2642C7.24319 41.7028 7.40052 41.1254 7.55349 40.5318C7.70647 39.9383 7.82699 39.3534 7.91504 38.7771C7.9944 38.1686 8.04247 37.6375 8.05924 37.1838C8.06731 36.6979 8.09278 36.2765 8.13564 35.9196C8.16981 35.5304 8.02459 35.379 7.7 35.4654Z" fill="url(#paint0_linear_2520_758)"/>
<path d="M57.835 34.1996C57.922 34.522 57.6716 35.1414 57.084 36.058C56.4876 36.9423 55.7008 37.8946 54.7236 38.9148C53.7701 39.8942 52.7344 40.8263 51.6163 41.7113C50.4895 42.564 49.4393 43.1199 48.4655 43.379C47.4268 43.6555 46.5445 43.5447 45.8188 43.0468C45.1255 42.5402 44.5788 41.5455 44.1787 40.0625C44.1091 39.8046 44.0372 39.4091 43.963 38.876C43.9212 38.3343 43.8663 37.7442 43.7985 37.1058C43.7631 36.4587 43.7395 35.7911 43.7279 35.1032C43.7162 34.4152 43.7295 33.7552 43.7677 33.1231L43.5208 32.9815C43.1365 33.8784 42.7329 34.8324 42.3098 35.8434C41.8781 36.8221 41.4582 37.7804 41.0502 38.7182C40.6747 39.6474 40.3186 40.5197 39.9818 41.3349C39.6364 42.1179 39.3374 42.7503 39.0847 43.2322C38.6118 44.1873 38.2047 44.9349 37.8633 45.4749C37.5544 46.0063 37.2214 46.3195 36.8644 46.4145C36.5073 46.5096 36.2853 46.3959 36.1983 46.0735C36.0939 45.6866 36.0423 45.0439 36.0434 44.1452C36.0682 43.2057 36.1145 42.0876 36.1822 40.7912C36.2117 40.1268 36.2583 39.2679 36.322 38.2143C36.3769 37.1286 36.4513 35.9858 36.5451 34.786C36.6302 33.554 36.7153 32.322 36.8004 31.09C36.918 29.8494 37.0335 28.7302 37.1471 27.7325C36.6672 28.2749 36.1247 28.9721 35.5196 29.8242C34.947 30.6676 34.4068 31.5024 33.8991 32.3286C33.2877 33.286 32.6806 34.2596 32.0778 35.2493C31.9174 36.8468 31.7126 38.4735 31.4635 40.1292C31.2057 41.7527 30.7888 43.3667 30.2128 44.9712C29.8396 46.038 29.371 47.0093 28.8071 47.885C28.2431 48.7607 27.4743 49.3281 26.5005 49.5872C25.7215 49.7946 25.2232 49.4952 25.0058 48.6893C24.8927 48.2702 24.8996 47.7155 25.0265 47.0252C25.1447 46.3027 25.3191 45.5307 25.5497 44.7091C25.8128 43.8789 26.1171 43.0724 26.4625 42.2894C26.8316 41.4655 27.2107 40.7427 27.5996 40.1209L28.6593 38.4395C28.7219 38.2846 28.7366 37.9524 28.7036 37.443C28.7029 36.9248 28.6849 36.3422 28.6495 35.6951C28.6141 35.0481 28.5419 34.3935 28.4328 33.7315C28.3476 33.0285 28.2354 32.4192 28.0962 31.9033C27.9222 31.2586 27.7408 30.6504 27.5517 30.0787C27.354 29.4748 27.1294 28.9645 26.8778 28.5477C26.6175 28.0987 26.3021 27.768 25.9317 27.5556C25.5937 27.3345 25.1813 27.2888 24.6944 27.4184C24.0777 27.5825 23.4656 28.0218 22.8582 28.7363C22.2508 29.4508 21.7095 30.2168 21.2342 31.0343C20.6402 32.0563 20.1716 33.0275 19.8285 33.9481C19.5092 34.8278 19.2632 35.4634 19.0905 35.8548C18.7659 35.9412 18.5645 35.8394 18.4862 35.5492C18.4514 35.4203 18.4923 35.1848 18.6087 34.8428C18.749 34.46 18.8817 34.1137 19.0069 33.8039C19.3111 32.9973 19.7278 32.0917 20.2569 31.0871C20.8098 30.0416 21.4288 29.0476 22.1139 28.1051C22.8227 27.1218 23.5988 26.2587 24.4421 25.516C25.2767 24.741 26.1323 24.2369 27.0087 24.0037C28.2097 23.6841 29.1505 23.8829 29.831 24.6002C30.5029 25.2852 31.0302 26.337 31.4129 27.7554C31.5259 28.1745 31.6196 28.6506 31.6938 29.1837C31.7918 29.6759 31.8617 30.1929 31.9035 30.7346C31.9453 31.2764 31.9827 31.802 32.0158 32.3115C32.0402 32.7887 32.0515 33.2176 32.0498 33.5982C32.35 33.0345 32.6827 32.4622 33.0478 31.8813C33.3654 31.3822 33.7187 30.8217 34.1076 30.1999C34.4965 29.5781 34.9016 28.952 35.3229 28.3216C35.6968 27.7729 36.0912 27.236 36.5062 26.711C36.9124 26.1537 37.3156 25.649 37.7155 25.1971C38.1391 24.7042 38.5521 24.3006 38.9544 23.9863C39.3804 23.631 39.7881 23.4016 40.1777 23.2979C40.4049 23.2375 40.5576 23.3523 40.6359 23.6424C40.6794 23.8036 40.6733 24.168 40.6177 24.7357C40.5621 25.3033 40.4712 26.1914 40.3449 27.3998C40.2187 28.6082 40.0626 30.2219 39.8767 32.2409C39.6821 34.2276 39.4838 36.7164 39.2818 39.7071L39.4409 39.7166L44.6219 27.9719C44.8787 27.2471 45.0879 26.604 45.2495 26.0427C45.435 25.4405 45.6172 24.891 45.7963 24.3941C45.9667 23.8651 46.162 23.3639 46.3822 22.8907C46.5937 22.3852 46.8334 21.8549 47.1011 21.2999C47.4401 20.6223 47.7957 20.1994 48.1678 20.0313C48.54 19.8632 48.8396 19.7489 49.0669 19.6884C49.781 19.4983 50.2206 19.7096 50.3859 20.3221C50.4816 20.6767 50.5286 21.0443 50.5268 21.4249C50.5164 21.7732 50.4217 22.1957 50.2426 22.6926C50.096 23.1808 49.8489 23.7476 49.5011 24.393C49.1772 24.9975 48.7289 25.7215 48.1562 26.5649C47.7489 28.0209 47.4554 29.7057 47.2759 31.6193C47.1201 33.4921 47.3336 35.5085 47.9164 37.6684C48.0033 37.9908 48.099 38.3454 48.2034 38.7323C48.3402 39.1105 48.5051 39.464 48.6982 39.7927C48.8825 40.0892 49.1025 40.3243 49.3582 40.4982C49.6463 40.6634 49.9851 40.6941 50.3746 40.5905C51.2186 40.3659 52.0222 39.9274 52.7855 39.2751C53.5726 38.5819 54.2656 37.8619 54.8643 37.1152C55.543 36.278 56.175 35.3324 56.7603 34.2783C56.9053 34.1706 57.0177 34.0716 57.0977 33.9812C57.2101 33.8821 57.3313 33.8153 57.4611 33.7808C57.6559 33.729 57.7805 33.8686 57.835 34.1996Z" fill="url(#paint1_linear_2520_758)"/>
<path d="M82.1451 28.2484C81.7151 28.8466 81.0514 29.6106 80.1542 30.5404C79.2894 31.4616 78.2885 32.5227 77.1513 33.7237C75.6768 35.2218 74.4281 36.3316 73.405 37.053C72.382 37.7745 71.5946 38.2086 71.0428 38.3555C70.6208 38.4678 70.3307 38.424 70.1724 38.2243C70.0142 38.0245 69.9003 37.7957 69.8307 37.5378C69.7437 37.2154 69.6869 36.7468 69.6601 36.1319C69.6247 35.4849 69.6087 34.7808 69.6121 34.0197C69.6393 33.2177 69.6578 32.3836 69.6676 31.5171C69.7098 30.6421 69.7402 29.7874 69.7586 28.9532C69.7644 28.3298 69.7713 27.7751 69.7794 27.2892C69.8112 26.7624 69.828 26.3088 69.8297 25.9282C69.8551 25.5068 69.8731 25.122 69.8835 24.7737C69.0605 26.2366 68.1651 27.7533 67.1972 29.3239C66.3719 30.6493 65.4353 32.1424 64.3874 33.8034C63.3396 35.4644 62.2138 37.0943 61.01 38.6931C60.4999 39.3817 60.0394 39.867 59.6285 40.1492C59.2262 40.4635 58.9277 40.6466 58.733 40.6985C58.0838 40.8712 57.6374 40.5063 57.3939 39.6036C57.333 39.3779 57.284 39.1318 57.2469 38.8653C57.2098 38.5987 57.1877 38.2591 57.1807 37.8463C57.2062 37.4249 57.2424 36.9142 57.2893 36.3143C57.3275 35.6822 57.4077 34.8834 57.5299 33.918L58.3718 26.5933C58.5282 25.2386 58.6469 24.0668 58.728 23.0777C58.8003 22.0564 58.8924 21.2372 59.0043 20.6201C59.1161 20.0029 59.2983 19.4534 59.551 18.9715C59.8362 18.481 60.1431 18.0711 60.4717 17.7417C60.8241 17.3715 61.1658 17.0905 61.4967 16.8988C61.8514 16.6662 62.1424 16.5197 62.3696 16.4592C62.5969 16.3987 62.7583 16.5458 62.854 16.9004C62.8911 17.167 62.9262 17.555 62.9593 18.0645C63.0248 18.5653 62.9921 19.2824 62.8612 20.2156L61.9394 28.5981C61.9203 28.9142 61.8786 29.3399 61.8143 29.8753C61.7413 30.3785 61.6727 30.8978 61.6084 31.4332C61.5441 31.9686 61.4992 32.447 61.4738 32.8684C61.4396 33.2576 61.4356 33.5005 61.4616 33.5973C61.4964 33.7262 61.5312 33.8552 61.566 33.9841C61.6333 34.1044 61.7805 34.1344 62.0077 34.0739C62.3648 33.9789 62.8189 33.5989 63.3701 32.9339C63.9213 32.2689 64.5145 31.4373 65.1497 30.4389C65.7136 29.5633 66.2181 28.7898 66.6632 28.1185C67.0997 27.4149 67.5079 26.7361 67.8881 26.0821C68.2596 25.3958 68.6106 24.6978 68.9409 23.9879C69.295 23.2372 69.6511 22.365 70.0093 21.3713C70.1083 20.9648 70.1781 20.5143 70.2187 20.0198C70.283 19.4844 70.3473 18.949 70.4116 18.4136C70.4672 17.8459 70.5639 17.3019 70.7018 16.7814C70.831 16.2288 71.0101 15.7319 71.239 15.2909C71.6668 14.5551 72.1142 14.0214 72.5814 13.6898C73.081 13.3495 73.5093 13.1319 73.8664 13.0368C74.0287 12.9936 74.2084 13.0149 74.4055 13.1007C74.6263 13.1456 74.7846 13.3453 74.8803 13.6999C75.002 14.1513 74.9931 14.8274 74.8535 15.7284C74.7463 16.6208 74.396 17.837 73.8026 19.377C73.6844 20.0995 73.5935 20.9875 73.5298 22.0411C73.4986 23.086 73.4631 24.1148 73.4231 25.1274C73.4214 25.5079 73.3995 26.1358 73.3572 27.0108C73.315 27.8859 73.2771 28.7771 73.2435 29.6844C73.2425 30.583 73.2402 31.4129 73.2368 32.174C73.2247 32.9028 73.236 33.3317 73.2708 33.4607C73.4187 34.0087 73.6711 34.2352 74.0282 34.1402C74.6449 33.9761 75.2637 33.6905 75.8845 33.2834C76.4965 32.8441 77.1237 32.3317 77.7659 31.7461C78.4081 31.1606 79.0372 30.5267 79.6533 29.8444C80.3019 29.1536 80.9342 28.467 81.5503 27.7847L82.1451 28.2484Z" fill="url(#paint2_linear_2520_758)"/>
<path d="M106.406 21.792C105.976 22.3902 105.321 23.1864 104.441 24.1807C103.594 25.1664 102.584 26.1952 101.412 27.2673C99.9031 28.6364 98.6294 29.7183 97.5913 30.5128C96.5532 31.3074 95.7907 31.7695 95.3038 31.899C94.8818 32.0113 94.5917 31.9676 94.4335 31.7678C94.2752 31.5681 94.1613 31.3393 94.0917 31.0814C94.0221 30.8235 93.974 30.3871 93.9473 29.7722C93.9205 29.1574 93.9045 28.4533 93.8993 27.66C93.9264 26.858 93.9406 26.0077 93.9416 25.1091C93.9752 24.2018 94.0012 23.331 94.0197 22.4968C94.0237 22.2539 94.0266 21.9421 94.0283 21.5616C94.0537 21.1402 94.0836 20.7349 94.1177 20.3457L94.2037 18.9234C93.8687 19.3581 93.4525 19.8144 92.9552 20.2923C92.5055 20.6884 91.9389 21.1674 91.2555 21.7294C90.5959 22.2504 89.7697 22.7986 88.7768 23.3738C88.4221 23.6064 88.0749 23.8024 87.7352 23.9619C87.3869 24.0892 87.0916 24.2196 86.8493 24.3532C86.5421 24.5041 86.2586 24.614 85.999 24.6831C86.0384 25.0873 86.0639 25.6333 86.0756 26.3213C86.0873 27.0093 86.0708 27.722 86.0262 28.4594C85.9817 29.1969 85.8959 29.9108 85.7691 30.6011C85.6746 31.2827 85.5086 31.8279 85.271 32.2367C84.867 32.9316 84.4758 33.4158 84.0973 33.6893C83.7513 33.9541 83.3835 34.1384 82.994 34.242C82.4422 34.3889 82.0915 34.3785 81.9419 34.211C81.7599 34.0522 81.6124 33.7632 81.4993 33.3441C81.4558 33.1829 81.4512 32.9077 81.4853 32.5185C81.4783 32.1057 81.4832 31.6725 81.5 31.2189C81.5405 30.7243 81.5811 30.2298 81.6216 29.7353C81.6534 29.2085 81.6702 28.7549 81.6719 28.3743L81.8082 25.5911C81.5114 25.3937 81.338 25.267 81.2882 25.2112C81.2296 25.1231 81.1438 24.8695 81.0308 24.4504C80.9351 24.0958 81.0148 23.7463 81.2698 23.402C81.5572 23.0491 81.9682 22.767 82.5026 22.5557L82.6538 21.3752C82.7633 20.6204 82.8522 19.8539 82.9205 19.0755C82.9802 18.2649 83.0366 17.507 83.0899 16.8018C83.1669 16.0557 83.2332 15.3988 83.2888 14.8312C83.3682 14.2226 83.4617 13.7313 83.5695 13.3571C83.8691 12.2753 84.3325 11.4782 84.9596 10.9658C85.6192 10.4447 86.1762 10.1237 86.6307 10.0028C86.8579 9.9423 87.0193 10.0894 87.115 10.444C87.1411 10.5407 87.1446 10.7471 87.1255 11.0632C87.0977 11.347 87.0548 11.7039 86.9969 12.134C86.9303 12.5318 86.8605 12.9823 86.7875 13.4854C86.7382 13.9477 86.7009 14.3896 86.6754 14.811C86.6071 15.5894 86.5312 16.4043 86.4478 17.2557C86.3969 18.0986 86.3491 18.8887 86.3046 19.6262C86.2623 20.5012 86.2157 21.3602 86.1648 22.203L86.8951 22.0087C87.382 21.8791 87.9533 21.6752 88.6088 21.3971C90.4868 20.6209 91.8594 19.841 92.7265 19.0574C93.6173 18.2329 94.121 17.6497 94.2375 17.3077C94.3018 16.7723 94.3359 16.3832 94.34 16.1402C94.3764 15.8886 94.4138 15.4468 94.452 14.8147C94.5133 13.6235 94.5889 12.5496 94.6786 11.5927C94.7597 10.6037 95.0335 9.68427 95.5001 8.8345C95.7615 8.38485 95.9765 8.08576 96.1451 7.93721C96.3051 7.75643 96.5538 7.5175 96.8911 7.22041C97.116 7.02235 97.3377 6.87696 97.5562 6.78426C97.7747 6.69155 97.9651 6.6236 98.1274 6.58041C98.3546 6.51994 98.5506 6.53691 98.7152 6.63131C98.9036 6.68484 99.0456 6.88891 99.1413 7.24353C99.3761 8.11397 99.3516 9.31257 99.0677 10.8394C98.7751 12.3339 98.2857 14.0017 97.5996 15.8429C97.4971 17.0104 97.4108 18.1736 97.3408 19.3325C97.3032 20.4827 97.2601 21.5481 97.2115 22.5285C97.1954 23.5003 97.2018 24.3624 97.2309 25.1148C97.2924 25.8586 97.371 26.4078 97.4666 26.7625C97.5275 26.9881 97.609 27.2256 97.711 27.4749C97.8044 27.6919 97.9971 27.7615 98.2892 27.6838C98.8735 27.5283 99.476 27.247 100.097 26.84C100.709 26.4006 101.336 25.8882 101.978 25.3027C102.62 24.7171 103.266 24.0789 103.914 23.388C104.563 22.6971 105.195 22.0106 105.811 21.3283L106.406 21.792Z" fill="url(#paint3_linear_2520_758)"/>
<path d="M131 15.247C130.57 15.8452 129.915 16.6414 129.035 17.6357C128.188 18.6214 127.178 19.6503 126.006 20.7223C124.497 22.0914 123.223 23.1733 122.185 23.9678C121.147 24.7624 120.385 25.2245 119.898 25.354C119.476 25.4663 119.186 25.4226 119.027 25.2229C118.869 25.0231 118.755 24.7943 118.686 24.5364C118.616 24.2785 118.568 23.8421 118.541 23.2272C118.514 22.6124 118.498 21.9083 118.493 21.115C118.52 20.313 118.534 19.4627 118.536 18.5641C118.569 17.6568 118.595 16.786 118.614 15.9518C118.618 15.7089 118.62 15.3971 118.622 15.0166C118.648 14.5952 118.677 14.1899 118.712 13.8007L118.798 12.3784C118.463 12.8131 118.046 13.2694 117.549 13.7473C117.099 14.1434 116.533 14.6224 115.849 15.1844C115.19 15.7054 114.364 16.2536 113.371 16.8288C113.016 17.0614 112.669 17.2574 112.329 17.4169C111.981 17.5442 111.685 17.6746 111.443 17.8082C111.136 17.9591 110.853 18.069 110.593 18.1382C110.632 18.5423 110.658 19.0883 110.669 19.7763C110.681 20.4643 110.665 21.177 110.62 21.9144C110.576 22.6519 110.49 23.3658 110.363 24.0561C110.269 24.7377 110.102 25.2829 109.865 25.6917C109.461 26.3866 109.07 26.8708 108.691 27.1443C108.345 27.4091 107.977 27.5934 107.588 27.697C107.036 27.8439 106.685 27.8335 106.536 27.666C106.354 27.5072 106.206 27.2182 106.093 26.7991C106.05 26.6379 106.045 26.3627 106.079 25.9735C106.072 25.5607 106.077 25.1275 106.094 24.6739C106.134 24.1793 106.175 23.6848 106.215 23.1903C106.247 22.6635 106.264 22.2099 106.266 21.8293L106.402 19.0461C106.105 18.8487 105.932 18.722 105.882 18.6662C105.824 18.5781 105.738 18.3245 105.625 17.9054C105.529 17.5508 105.609 17.2013 105.864 16.8571C106.151 16.5041 106.562 16.222 107.096 16.0107L107.248 14.8302C107.357 14.0754 107.446 13.3089 107.514 12.5305C107.574 11.7199 107.63 10.962 107.684 10.2568C107.761 9.51068 107.827 8.8538 107.883 8.28616C107.962 7.67764 108.056 7.18627 108.163 6.81206C108.463 5.73029 108.926 4.9332 109.553 4.42077C110.213 3.89971 110.77 3.57871 111.225 3.45777C111.452 3.39731 111.613 3.54438 111.709 3.89901C111.735 3.99572 111.738 4.20211 111.719 4.51817C111.692 4.80199 111.649 5.15893 111.591 5.58898C111.524 5.98679 111.454 6.43728 111.381 6.94045C111.332 7.40274 111.295 7.84459 111.269 8.26601C111.201 9.04436 111.125 9.85927 111.042 10.7107C110.991 11.5536 110.943 12.3437 110.898 13.0812C110.856 13.9563 110.81 14.8152 110.759 15.658L111.489 15.4637C111.976 15.3341 112.547 15.1302 113.203 14.8521C115.081 14.0759 116.453 13.296 117.32 12.5124C118.211 11.6879 118.715 11.1047 118.831 10.7627C118.896 10.2273 118.93 9.83816 118.934 9.59522C118.97 9.34363 119.008 8.90178 119.046 8.26966C119.107 7.07854 119.183 6.00456 119.273 5.04774C119.354 4.05868 119.627 3.13927 120.094 2.2895C120.355 1.83986 120.57 1.54076 120.739 1.39222C120.899 1.21143 121.148 0.972498 121.485 0.675408C121.71 0.477349 121.932 0.331965 122.15 0.239258C122.369 0.146552 122.559 0.0786048 122.721 0.0354136C122.949 -0.0250542 123.144 -0.00808624 123.309 0.0863146C123.497 0.139838 123.639 0.343909 123.735 0.698531C123.97 1.56897 123.945 2.76758 123.662 4.29435C123.369 5.78889 122.88 7.45674 122.193 9.29788C122.091 10.4654 122.005 11.6286 121.935 12.7875C121.897 13.9378 121.854 15.0031 121.805 15.9835C121.789 16.9553 121.796 17.8174 121.825 18.5698C121.886 19.3136 121.965 19.8628 122.06 20.2175C122.121 20.4431 122.203 20.6806 122.305 20.9299C122.398 21.1469 122.591 21.2165 122.883 21.1388C123.467 20.9833 124.07 20.702 124.691 20.295C125.303 19.8556 125.93 19.3432 126.572 18.7577C127.214 18.1721 127.86 17.5339 128.508 16.843C129.157 16.1521 129.789 15.4656 130.405 14.7833L131 15.247Z" fill="url(#paint4_linear_2520_758)"/>
<defs>
<linearGradient id="paint0_linear_2520_758" x1="0" y1="0" x2="133.755" y2="11.4241" gradientUnits="userSpaceOnUse">
<stop stop-color="#091C91"/>
<stop offset="1" stop-color="#24BCFF"/>
</linearGradient>
<linearGradient id="paint1_linear_2520_758" x1="0" y1="0" x2="133.755" y2="11.4241" gradientUnits="userSpaceOnUse">
<stop stop-color="#091C91"/>
<stop offset="1" stop-color="#24BCFF"/>
</linearGradient>
<linearGradient id="paint2_linear_2520_758" x1="0" y1="0" x2="133.755" y2="11.4241" gradientUnits="userSpaceOnUse">
<stop stop-color="#091C91"/>
<stop offset="1" stop-color="#24BCFF"/>
</linearGradient>
<linearGradient id="paint3_linear_2520_758" x1="0" y1="0" x2="133.755" y2="11.4241" gradientUnits="userSpaceOnUse">
<stop stop-color="#091C91"/>
<stop offset="1" stop-color="#24BCFF"/>
</linearGradient>
<linearGradient id="paint4_linear_2520_758" x1="0" y1="0" x2="133.755" y2="11.4241" gradientUnits="userSpaceOnUse">
<stop stop-color="#091C91"/>
<stop offset="1" stop-color="#24BCFF"/>
</linearGradient>
</defs>
</svg>
