<svg width="55" height="87" viewBox="0 0 55 87" fill="none" xmlns="http://www.w3.org/2000/svg">
<path d="M1.51172 69.0713H7.92773V71.4707H3.94629V73.8174H7.92773V76.1816H3.94629V82H1.51172V69.0713ZM10.9818 68.5C11.4036 68.5 11.764 68.6523 12.0628 68.957C12.3675 69.2617 12.5198 69.6309 12.5198 70.0645C12.5198 70.4922 12.3704 70.8584 12.0716 71.1631C11.7728 71.4619 11.4154 71.6113 10.9993 71.6113C10.5716 71.6113 10.2054 71.459 9.9007 71.1543C9.60188 70.8438 9.45246 70.4688 9.45246 70.0293C9.45246 69.6074 9.60188 69.2471 9.9007 68.9482C10.1995 68.6494 10.5599 68.5 10.9818 68.5ZM9.77766 72.4375H12.1859V82H9.77766V72.4375ZM21.612 72.4375H24.0026V80.6289C24.0026 82.2461 23.6774 83.4355 23.027 84.1973C22.1539 85.2285 20.8385 85.7441 19.0807 85.7441C18.1432 85.7441 17.3551 85.627 16.7164 85.3926C16.0778 85.1582 15.5387 84.8125 15.0993 84.3555C14.6598 83.9043 14.3346 83.3535 14.1237 82.7031H16.7692C17.0036 82.9727 17.3053 83.1748 17.6745 83.3096C18.0436 83.4502 18.4801 83.5205 18.984 83.5205C19.6286 83.5205 20.1471 83.4209 20.5397 83.2217C20.9323 83.0225 21.2077 82.7646 21.3659 82.4482C21.5299 82.1318 21.612 81.5869 21.612 80.8135C21.1901 81.2354 20.7477 81.54 20.2848 81.7275C19.8219 81.9092 19.2975 82 18.7116 82C17.4284 82 16.3444 81.5371 15.4596 80.6113C14.5748 79.6855 14.1325 78.5137 14.1325 77.0957C14.1325 75.5781 14.6012 74.3594 15.5387 73.4395C16.3883 72.6074 17.402 72.1914 18.5797 72.1914C19.1305 72.1914 19.6491 72.2939 20.1354 72.499C20.6276 72.6982 21.1198 73.0293 21.612 73.4922V72.4375ZM19.1246 74.4326C18.3688 74.4326 17.7448 74.6875 17.2526 75.1973C16.7604 75.7012 16.5143 76.3369 16.5143 77.1045C16.5143 77.9014 16.7662 78.5547 17.2702 79.0645C17.7741 79.5742 18.4069 79.8291 19.1686 79.8291C19.9127 79.8291 20.525 79.5801 21.0055 79.082C21.4918 78.584 21.735 77.9307 21.735 77.1221C21.735 76.3252 21.4918 75.6777 21.0055 75.1797C20.5192 74.6816 19.8922 74.4326 19.1246 74.4326ZM26.5908 72.4375H28.999V73.5361C29.4091 73.085 29.8632 72.748 30.3613 72.5254C30.8652 72.3027 31.413 72.1914 32.0048 72.1914C32.6025 72.1914 33.1416 72.3379 33.622 72.6309C34.1025 72.9238 34.4892 73.3516 34.7822 73.9141C35.163 73.3516 35.6289 72.9238 36.1796 72.6309C36.7363 72.3379 37.3427 72.1914 37.999 72.1914C38.6787 72.1914 39.2763 72.3496 39.792 72.666C40.3076 72.9824 40.6767 73.3955 40.8994 73.9053C41.1279 74.415 41.2421 75.2441 41.2421 76.3926V82H38.8252V77.1484C38.8252 76.0645 38.6904 75.332 38.4209 74.9512C38.1513 74.5645 37.747 74.3711 37.208 74.3711C36.7978 74.3711 36.4287 74.4883 36.1005 74.7227C35.7783 74.957 35.538 75.2822 35.3798 75.6982C35.2216 76.1084 35.1425 76.7705 35.1425 77.6846V82H32.7255V77.3682C32.7255 76.5127 32.6611 75.8945 32.5322 75.5137C32.4091 75.127 32.2216 74.8398 31.9697 74.6523C31.7177 74.4648 31.413 74.3711 31.0556 74.3711C30.6572 74.3711 30.2939 74.4912 29.9658 74.7314C29.6435 74.9658 29.4004 75.2969 29.2363 75.7246C29.0781 76.1523 28.999 76.8262 28.999 77.7461V82H26.5908V72.4375ZM50.7825 72.4375H53.1731V82H50.7825V80.9893C50.3138 81.4346 49.8421 81.7568 49.3675 81.9561C48.8987 82.1494 48.3889 82.2461 47.8382 82.2461C46.6018 82.2461 45.5325 81.7686 44.6302 80.8135C43.7278 79.8525 43.2766 78.6602 43.2766 77.2363C43.2766 75.7598 43.7132 74.5498 44.5862 73.6064C45.4593 72.6631 46.5198 72.1914 47.7679 72.1914C48.3421 72.1914 48.8811 72.2998 49.385 72.5166C49.8889 72.7334 50.3548 73.0586 50.7825 73.4922V72.4375ZM48.26 74.4062C47.5159 74.4062 46.8977 74.6699 46.4055 75.1973C45.9134 75.7188 45.6673 76.3896 45.6673 77.21C45.6673 78.0361 45.9163 78.7158 46.4143 79.249C46.9182 79.7822 47.5364 80.0488 48.2688 80.0488C49.0247 80.0488 49.6516 79.7881 50.1497 79.2666C50.6477 78.7393 50.8968 78.0508 50.8968 77.2012C50.8968 76.3691 50.6477 75.6953 50.1497 75.1797C49.6516 74.6641 49.0218 74.4062 48.26 74.4062Z" fill="#1F2A3C"/>
<g clip-path="url(#clip0_1949_187)">
<path d="M17.671 57.9998C22.9533 57.9998 27.2404 53.6692 27.2404 48.3332V38.6665H17.671C12.3887 38.6665 8.10156 42.9972 8.10156 48.3332C8.10156 53.6692 12.3887 57.9998 17.671 57.9998Z" fill="#0ACF83"/>
<path d="M8.10156 29.0002C8.10156 23.6642 12.3887 19.3335 17.671 19.3335H27.2404V38.6668H17.671C12.3887 38.6668 8.10156 34.3362 8.10156 29.0002Z" fill="#A259FF"/>
<path d="M8.10156 9.66667C8.10156 4.33067 12.3887 0 17.671 0H27.2404V19.3333H17.671C12.3887 19.3333 8.10156 15.0027 8.10156 9.66667Z" fill="#F24E1E"/>
<path d="M27.2402 0H36.8096C42.092 0 46.379 4.33067 46.379 9.66667C46.379 15.0027 42.092 19.3333 36.8096 19.3333H27.2402V0Z" fill="#FF7262"/>
<path d="M46.379 29.0002C46.379 34.3362 42.092 38.6668 36.8096 38.6668C31.5273 38.6668 27.2402 34.3362 27.2402 29.0002C27.2402 23.6642 31.5273 19.3335 36.8096 19.3335C42.092 19.3335 46.379 23.6642 46.379 29.0002Z" fill="#1ABCFE"/>
</g>
<defs>
<clipPath id="clip0_1949_187">
<rect width="38.2853" height="58" fill="white" transform="translate(8.09766)"/>
</clipPath>
</defs>
</svg>
