<svg width="37" height="59" viewBox="0 0 37 59" fill="none" xmlns="http://www.w3.org/2000/svg">
<path d="M1.00781 47.3809H5.28516V48.9805H2.63086V50.5449H5.28516V52.1211H2.63086V56H1.00781V47.3809ZM7.32117 47C7.60242 47 7.84266 47.1016 8.04187 47.3047C8.245 47.5078 8.34656 47.7539 8.34656 48.043C8.34656 48.3281 8.24695 48.5723 8.04773 48.7754C7.84852 48.9746 7.61023 49.0742 7.33289 49.0742C7.04773 49.0742 6.80359 48.9727 6.60047 48.7695C6.40125 48.5625 6.30164 48.3125 6.30164 48.0195C6.30164 47.7383 6.40125 47.498 6.60047 47.2988C6.79969 47.0996 7.03992 47 7.32117 47ZM6.51844 49.625H8.12391V56H6.51844V49.625ZM14.408 49.625H16.0017V55.0859C16.0017 56.1641 15.7849 56.957 15.3513 57.4648C14.7693 58.1523 13.8923 58.4961 12.7205 58.4961C12.0955 58.4961 11.5701 58.418 11.1443 58.2617C10.7185 58.1055 10.3591 57.875 10.0662 57.5703C9.7732 57.2695 9.55641 56.9023 9.41578 56.4688H11.1795C11.3357 56.6484 11.5369 56.7832 11.783 56.873C12.0291 56.9668 12.3201 57.0137 12.656 57.0137C13.0857 57.0137 13.4314 56.9473 13.6931 56.8145C13.9548 56.6816 14.1384 56.5098 14.2439 56.2988C14.3533 56.0879 14.408 55.7246 14.408 55.209C14.1267 55.4902 13.8318 55.6934 13.5232 55.8184C13.2146 55.9395 12.865 56 12.4744 56C11.6189 56 10.8962 55.6914 10.3064 55.0742C9.71656 54.457 9.42164 53.6758 9.42164 52.7305C9.42164 51.7188 9.73414 50.9062 10.3591 50.293C10.9255 49.7383 11.6013 49.4609 12.3865 49.4609C12.7537 49.4609 13.0994 49.5293 13.4236 49.666C13.7517 49.7988 14.0798 50.0195 14.408 50.3281V49.625ZM12.7498 50.9551C12.2459 50.9551 11.8298 51.125 11.5017 51.4648C11.1736 51.8008 11.0095 52.2246 11.0095 52.7363C11.0095 53.2676 11.1775 53.7031 11.5134 54.043C11.8494 54.3828 12.2712 54.5527 12.7791 54.5527C13.2752 54.5527 13.6834 54.3867 14.0037 54.0547C14.3279 53.7227 14.49 53.2871 14.49 52.748C14.49 52.2168 14.3279 51.7852 14.0037 51.4531C13.6795 51.1211 13.2615 50.9551 12.7498 50.9551ZM17.7272 49.625H19.3327V50.3574C19.6061 50.0566 19.9088 49.832 20.2409 49.6836C20.5768 49.5352 20.942 49.4609 21.3366 49.4609C21.735 49.4609 22.0944 49.5586 22.4147 49.7539C22.735 49.9492 22.9928 50.2344 23.1881 50.6094C23.442 50.2344 23.7526 49.9492 24.1198 49.7539C24.4909 49.5586 24.8952 49.4609 25.3327 49.4609C25.7858 49.4609 26.1842 49.5664 26.528 49.7773C26.8717 49.9883 27.1178 50.2637 27.2663 50.6035C27.4186 50.9434 27.4948 51.4961 27.4948 52.2617V56H25.8834V52.7656C25.8834 52.043 25.7936 51.5547 25.6139 51.3008C25.4342 51.043 25.1647 50.9141 24.8053 50.9141C24.5319 50.9141 24.2858 50.9922 24.067 51.1484C23.8522 51.3047 23.692 51.5215 23.5866 51.7988C23.4811 52.0723 23.4284 52.5137 23.4284 53.123V56H21.817V52.9121C21.817 52.3418 21.7741 51.9297 21.6881 51.6758C21.6061 51.418 21.4811 51.2266 21.3131 51.1016C21.1452 50.9766 20.942 50.9141 20.7038 50.9141C20.4381 50.9141 20.1959 50.9941 19.9772 51.1543C19.7623 51.3105 19.6002 51.5312 19.4909 51.8164C19.3854 52.1016 19.3327 52.5508 19.3327 53.1641V56H17.7272V49.625ZM33.855 49.625H35.4487V56H33.855V55.3262C33.5425 55.623 33.228 55.8379 32.9116 55.9707C32.5991 56.0996 32.2593 56.1641 31.8921 56.1641C31.0679 56.1641 30.355 55.8457 29.7534 55.209C29.1519 54.5684 28.8511 53.7734 28.8511 52.8242C28.8511 51.8398 29.1421 51.0332 29.7241 50.4043C30.3062 49.7754 31.0132 49.4609 31.8452 49.4609C32.228 49.4609 32.5874 49.5332 32.9234 49.6777C33.2593 49.8223 33.5698 50.0391 33.855 50.3281V49.625ZM32.1734 50.9375C31.6773 50.9375 31.2652 51.1133 30.937 51.4648C30.6089 51.8125 30.4448 52.2598 30.4448 52.8066C30.4448 53.3574 30.6109 53.8105 30.9429 54.166C31.2788 54.5215 31.6909 54.6992 32.1792 54.6992C32.6831 54.6992 33.1011 54.5254 33.4331 54.1777C33.7652 53.8262 33.9312 53.3672 33.9312 52.8008C33.9312 52.2461 33.7652 51.7969 33.4331 51.4531C33.1011 51.1094 32.6812 50.9375 32.1734 50.9375Z" fill="#1F2A3C"/>
<g clip-path="url(#clip0_2847_2539)">
<path d="M13.0012 35.0002C16.3126 35.0002 19 32.3868 19 29.1668V23.3335H13.0012C9.6899 23.3335 7.00244 25.9468 7.00244 29.1668C7.00244 32.3868 9.6899 35.0002 13.0012 35.0002Z" fill="url(#paint0_linear_2847_2539)"/>
<path d="M7.00244 17.4998C7.00244 14.2798 9.6899 11.6665 13.0012 11.6665H19V23.3332H13.0012C9.6899 23.3332 7.00244 20.7198 7.00244 17.4998Z" fill="url(#paint1_linear_2847_2539)"/>
<path d="M7.00244 5.83333C7.00244 2.61333 9.6899 0 13.0012 0H19V11.6667H13.0012C9.6899 11.6667 7.00244 9.05333 7.00244 5.83333Z" fill="url(#paint2_linear_2847_2539)"/>
<path d="M19 0H24.9988C28.3101 0 30.9976 2.61333 30.9976 5.83333C30.9976 9.05333 28.3101 11.6667 24.9988 11.6667H19V0Z" fill="url(#paint3_linear_2847_2539)"/>
<path d="M30.9976 17.4998C30.9976 20.7198 28.3101 23.3332 24.9988 23.3332C21.6875 23.3332 19 20.7198 19 17.4998C19 14.2798 21.6875 11.6665 24.9988 11.6665C28.3101 11.6665 30.9976 14.2798 30.9976 17.4998Z" fill="url(#paint4_linear_2847_2539)"/>
</g>
<defs>
<linearGradient id="paint0_linear_2847_2539" x1="7.00244" y1="23.3335" x2="19.3249" y2="23.7879" gradientUnits="userSpaceOnUse">
<stop stop-color="#091C91"/>
<stop offset="1" stop-color="#24BCFF"/>
</linearGradient>
<linearGradient id="paint1_linear_2847_2539" x1="7.00244" y1="11.6665" x2="19.3249" y2="12.1209" gradientUnits="userSpaceOnUse">
<stop stop-color="#091C91"/>
<stop offset="1" stop-color="#24BCFF"/>
</linearGradient>
<linearGradient id="paint2_linear_2847_2539" x1="7.00244" y1="0" x2="19.3249" y2="0.454411" gradientUnits="userSpaceOnUse">
<stop stop-color="#091C91"/>
<stop offset="1" stop-color="#24BCFF"/>
</linearGradient>
<linearGradient id="paint3_linear_2847_2539" x1="19" y1="0" x2="31.3225" y2="0.454411" gradientUnits="userSpaceOnUse">
<stop stop-color="#091C91"/>
<stop offset="1" stop-color="#24BCFF"/>
</linearGradient>
<linearGradient id="paint4_linear_2847_2539" x1="19" y1="11.6665" x2="31.3225" y2="12.1209" gradientUnits="userSpaceOnUse">
<stop stop-color="#091C91"/>
<stop offset="1" stop-color="#24BCFF"/>
</linearGradient>
<clipPath id="clip0_2847_2539">
<rect width="24" height="35" fill="white" transform="translate(7)"/>
</clipPath>
</defs>
</svg>
