<svg width="55" height="82" viewBox="0 0 55 82" fill="none" xmlns="http://www.w3.org/2000/svg">
<path d="M1.51172 64.0713H7.92773V66.4707H3.94629V68.8174H7.92773V71.1816H3.94629V77H1.51172V64.0713ZM10.9818 63.5C11.4036 63.5 11.764 63.6523 12.0628 63.957C12.3675 64.2617 12.5198 64.6309 12.5198 65.0645C12.5198 65.4922 12.3704 65.8584 12.0716 66.1631C11.7728 66.4619 11.4154 66.6113 10.9993 66.6113C10.5716 66.6113 10.2054 66.459 9.9007 66.1543C9.60188 65.8438 9.45246 65.4688 9.45246 65.0293C9.45246 64.6074 9.60188 64.2471 9.9007 63.9482C10.1995 63.6494 10.5599 63.5 10.9818 63.5ZM9.77766 67.4375H12.1859V77H9.77766V67.4375ZM21.612 67.4375H24.0026V75.6289C24.0026 77.2461 23.6774 78.4355 23.027 79.1973C22.1539 80.2285 20.8385 80.7441 19.0807 80.7441C18.1432 80.7441 17.3551 80.627 16.7164 80.3926C16.0778 80.1582 15.5387 79.8125 15.0993 79.3555C14.6598 78.9043 14.3346 78.3535 14.1237 77.7031H16.7692C17.0036 77.9727 17.3053 78.1748 17.6745 78.3096C18.0436 78.4502 18.4801 78.5205 18.984 78.5205C19.6286 78.5205 20.1471 78.4209 20.5397 78.2217C20.9323 78.0225 21.2077 77.7646 21.3659 77.4482C21.5299 77.1318 21.612 76.5869 21.612 75.8135C21.1901 76.2354 20.7477 76.54 20.2848 76.7275C19.8219 76.9092 19.2975 77 18.7116 77C17.4284 77 16.3444 76.5371 15.4596 75.6113C14.5748 74.6855 14.1325 73.5137 14.1325 72.0957C14.1325 70.5781 14.6012 69.3594 15.5387 68.4395C16.3883 67.6074 17.402 67.1914 18.5797 67.1914C19.1305 67.1914 19.6491 67.2939 20.1354 67.499C20.6276 67.6982 21.1198 68.0293 21.612 68.4922V67.4375ZM19.1246 69.4326C18.3688 69.4326 17.7448 69.6875 17.2526 70.1973C16.7604 70.7012 16.5143 71.3369 16.5143 72.1045C16.5143 72.9014 16.7662 73.5547 17.2702 74.0645C17.7741 74.5742 18.4069 74.8291 19.1686 74.8291C19.9127 74.8291 20.525 74.5801 21.0055 74.082C21.4918 73.584 21.735 72.9307 21.735 72.1221C21.735 71.3252 21.4918 70.6777 21.0055 70.1797C20.5192 69.6816 19.8922 69.4326 19.1246 69.4326ZM26.5908 67.4375H28.999V68.5361C29.4091 68.085 29.8632 67.748 30.3613 67.5254C30.8652 67.3027 31.413 67.1914 32.0048 67.1914C32.6025 67.1914 33.1416 67.3379 33.622 67.6309C34.1025 67.9238 34.4892 68.3516 34.7822 68.9141C35.163 68.3516 35.6289 67.9238 36.1796 67.6309C36.7363 67.3379 37.3427 67.1914 37.999 67.1914C38.6787 67.1914 39.2763 67.3496 39.792 67.666C40.3076 67.9824 40.6767 68.3955 40.8994 68.9053C41.1279 69.415 41.2421 70.2441 41.2421 71.3926V77H38.8252V72.1484C38.8252 71.0645 38.6904 70.332 38.4209 69.9512C38.1513 69.5645 37.747 69.3711 37.208 69.3711C36.7978 69.3711 36.4287 69.4883 36.1005 69.7227C35.7783 69.957 35.538 70.2822 35.3798 70.6982C35.2216 71.1084 35.1425 71.7705 35.1425 72.6846V77H32.7255V72.3682C32.7255 71.5127 32.6611 70.8945 32.5322 70.5137C32.4091 70.127 32.2216 69.8398 31.9697 69.6523C31.7177 69.4648 31.413 69.3711 31.0556 69.3711C30.6572 69.3711 30.2939 69.4912 29.9658 69.7314C29.6435 69.9658 29.4004 70.2969 29.2363 70.7246C29.0781 71.1523 28.999 71.8262 28.999 72.7461V77H26.5908V67.4375ZM50.7825 67.4375H53.1731V77H50.7825V75.9893C50.3138 76.4346 49.8421 76.7568 49.3675 76.9561C48.8987 77.1494 48.3889 77.2461 47.8382 77.2461C46.6018 77.2461 45.5325 76.7686 44.6302 75.8135C43.7278 74.8525 43.2766 73.6602 43.2766 72.2363C43.2766 70.7598 43.7132 69.5498 44.5862 68.6064C45.4593 67.6631 46.5198 67.1914 47.7679 67.1914C48.3421 67.1914 48.8811 67.2998 49.385 67.5166C49.8889 67.7334 50.3548 68.0586 50.7825 68.4922V67.4375ZM48.26 69.4062C47.5159 69.4062 46.8977 69.6699 46.4055 70.1973C45.9134 70.7188 45.6673 71.3896 45.6673 72.21C45.6673 73.0361 45.9163 73.7158 46.4143 74.249C46.9182 74.7822 47.5364 75.0488 48.2688 75.0488C49.0247 75.0488 49.6516 74.7881 50.1497 74.2666C50.6477 73.7393 50.8968 73.0508 50.8968 72.2012C50.8968 71.3691 50.6477 70.6953 50.1497 70.1797C49.6516 69.6641 49.0218 69.4062 48.26 69.4062Z" fill="#1F2A3C"/>
<g clip-path="url(#clip0_1949_105)">
<path d="M19.182 48C23.6302 48 27.2404 44.416 27.2404 40V32H19.182C14.7337 32 11.1235 35.584 11.1235 40C11.1235 44.416 14.7337 48 19.182 48Z" fill="#0ACF83"/>
<path d="M11.1235 24C11.1235 19.584 14.7337 16 19.182 16H27.2404V32H19.182C14.7337 32 11.1235 28.416 11.1235 24Z" fill="#A259FF"/>
<path d="M11.1235 8C11.1235 3.584 14.7337 0 19.182 0H27.2404V16H19.182C14.7337 16 11.1235 12.416 11.1235 8Z" fill="#F24E1E"/>
<path d="M27.2402 0H35.2987C39.7469 0 43.3571 3.584 43.3571 8C43.3571 12.416 39.7469 16 35.2987 16H27.2402V0Z" fill="#FF7262"/>
<path d="M43.3571 24C43.3571 28.416 39.7469 32 35.2987 32C30.8504 32 27.2402 28.416 27.2402 24C27.2402 19.584 30.8504 16 35.2987 16C39.7469 16 43.3571 19.584 43.3571 24Z" fill="#1ABCFE"/>
</g>
<defs>
<clipPath id="clip0_1949_105">
<rect width="32.2402" height="48" fill="white" transform="translate(11.1201)"/>
</clipPath>
</defs>
</svg>
