<svg width="40" height="53" viewBox="0 0 40 53" fill="none" xmlns="http://www.w3.org/2000/svg">
<path fill-rule="evenodd" clip-rule="evenodd" d="M13.3474 3.69982C14.3604 1.71324 16.2007 0.466537 18.67 0.0939854C20.4318 -0.171807 22.5177 0.138228 23.8984 0.871216C25.4452 1.69242 26.463 2.94501 27.0254 4.71948C27.3046 5.60073 27.4261 6.43459 27.4446 7.59802C27.4602 8.58375 27.4657 8.62049 27.6259 8.82163C27.9663 9.249 28.0708 10.1855 27.8891 11.1822C27.6843 12.3055 27.4239 12.9177 26.9799 13.3196C26.8226 13.4621 26.6687 13.7002 26.5545 13.9778C25.4274 16.718 23.8449 18.7092 22.0611 19.632C21.2567 20.0482 20.6753 20.2026 19.9132 20.2026C18.6602 20.2026 17.5695 19.739 16.3158 18.6734C15.1755 17.7043 13.8448 15.6685 13.2136 13.9276C13.1302 13.6976 13.0271 13.5093 12.9846 13.5093C12.8164 13.5093 12.4779 13.0969 12.2623 12.6295C11.8794 11.7993 11.7982 11.3932 11.7959 10.2965C11.7939 9.38287 11.8031 9.3083 11.9528 9.02477C12.0403 8.85911 12.1757 8.69385 12.2538 8.65751C12.3783 8.59961 12.3958 8.54158 12.3958 8.18898C12.3958 7.96763 12.4371 7.54554 12.4876 7.25104C12.5382 6.95653 12.627 6.38425 12.6851 5.9793C12.8068 5.12985 13.0567 4.27009 13.3474 3.69982ZM21.0782 6.87266C20.1153 7.12406 18.6336 7.05171 17.3391 6.69007C16.3847 6.42347 15.5013 6.67581 14.8161 7.41087C14.444 7.81007 14.0511 8.52913 13.9526 8.99131C13.8108 9.65709 13.7917 9.69705 13.6363 9.65589C13.5303 9.62778 13.4485 9.66084 13.3512 9.77108C13.16 9.98788 13.1399 10.1231 13.166 11.0153C13.188 11.7606 13.201 11.8271 13.4124 12.2654C13.6742 12.8082 13.9214 13.0449 14.102 12.9257C14.2087 12.8553 14.2357 12.8956 14.3949 13.3628C14.7331 14.3554 15.211 15.2697 15.8948 16.2324C16.4092 16.9564 16.9438 17.4996 17.5919 17.9568C18.1858 18.3756 18.68 18.5865 19.3567 18.7099C19.8296 18.796 19.9567 18.7955 20.4583 18.7048C22.3427 18.3643 24.1659 16.463 25.2586 13.6991C25.3993 13.3432 25.5144 13.0033 25.5144 12.9437C25.5144 12.856 25.5387 12.8489 25.6412 12.9069C25.8885 13.0467 26.2391 12.6858 26.469 12.0546C26.6578 11.5365 26.7198 10.2881 26.5718 9.98573C26.4186 9.67289 26.2996 9.59377 26.1154 9.68246C25.9735 9.7508 25.9562 9.74123 25.9213 9.57517C25.6869 8.45965 24.811 6.74904 24.4741 6.74904C24.3928 6.74904 24.3985 6.8058 24.5119 7.11851C24.5855 7.32172 24.6336 7.50077 24.6189 7.51643C24.6041 7.53202 24.2878 7.38598 23.9161 7.19187C22.8599 6.64027 22.2367 6.57019 21.0782 6.87266Z" fill="url(#paint0_linear_2847_2514)"/>
<path d="M25.3877 20.3808C25.3877 20.3612 25.4142 20.2715 25.4467 20.1812C25.5049 20.0196 25.5108 20.0185 25.8492 20.1016C26.0382 20.148 26.5891 20.2067 27.0735 20.2322C28.7947 20.3225 30.1476 20.6168 30.9553 21.0768C32.1937 21.7819 33.1246 22.913 33.9271 24.6872C34.0852 25.0369 34.2383 25.3983 34.2672 25.4904C34.2962 25.5824 34.4173 25.9589 34.5365 26.327L34.7533 26.9964L27.377 27.0134C23.3201 27.0228 16.6801 27.0228 12.6215 27.0134L5.24222 26.9964L5.51315 26.1597C5.98929 24.6891 6.60821 23.4662 7.34114 22.5476C8.57301 21.0036 10.0751 20.3749 12.8628 20.2366C13.3113 20.2144 13.8214 20.1675 13.9963 20.1325C14.4493 20.0417 14.4831 20.0486 14.554 20.2455C14.7193 20.7048 15.559 21.9185 16.6828 23.3223C17.3661 24.176 18.5498 25.5573 18.598 25.5573C18.6221 25.5573 18.789 24.9476 18.969 24.2023L19.2961 22.8472L19.1101 22.6552C18.9153 22.4541 18.67 21.7546 18.67 21.4004V21.2066H21.348L21.3063 21.5383C21.2447 22.0295 21.0966 22.4185 20.8826 22.6517L20.6923 22.859L20.8888 23.6559C20.9968 24.0943 21.1453 24.7014 21.2188 25.0051C21.2922 25.3089 21.372 25.5573 21.3961 25.5573C21.4849 25.5573 23.4061 23.2445 24.3221 22.0349C24.6603 21.5883 25.3877 20.4592 25.3877 20.3808Z" fill="url(#paint1_linear_2847_2514)"/>
<path d="M11.5066 38.1307C11.674 38.2572 11.7859 38.4213 11.8424 38.6232H9.98732C10.0836 38.3991 10.1882 38.2427 10.3012 38.154C10.4812 38.012 10.6904 37.9411 10.929 37.9411C11.1487 37.9411 11.3413 38.0043 11.5066 38.1307Z" fill="url(#paint2_linear_2847_2514)"/>
<path d="M15.6892 38.1307C15.8566 38.2572 15.9685 38.4213 16.025 38.6232H14.1699C14.2662 38.3991 14.3708 38.2427 14.4838 38.154C14.6638 38.012 14.873 37.9411 15.1116 37.9411C15.3313 37.9411 15.5238 38.0043 15.6892 38.1307Z" fill="url(#paint3_linear_2847_2514)"/>
<path d="M20.2154 38.3104C20.3912 38.1108 20.612 38.0109 20.8777 38.0109C21.1498 38.0109 21.3747 38.1085 21.5526 38.3037C21.7305 38.4989 21.8194 38.754 21.8194 39.069C21.8194 39.3907 21.7305 39.6513 21.5526 39.8509C21.3747 40.0483 21.1508 40.1471 20.8809 40.1471C20.6193 40.1471 20.3985 40.0461 20.2185 39.8443C20.0407 39.6424 19.9517 39.3851 19.9517 39.0723C19.9517 38.7618 20.0396 38.5078 20.2154 38.3104Z" fill="url(#paint4_linear_2847_2514)"/>
<path d="M33.8963 38.1307C34.0637 38.2572 34.1757 38.4213 34.2322 38.6232H32.3771C32.4733 38.3991 32.578 38.2427 32.691 38.154C32.8709 38.012 33.0802 37.9411 33.3188 37.9411C33.5385 37.9411 33.731 38.0043 33.8963 38.1307Z" fill="url(#paint5_linear_2847_2514)"/>
<path fill-rule="evenodd" clip-rule="evenodd" d="M0.0345272 29.2254C0.189098 28.4643 0.660797 27.9229 1.36825 27.6946C1.45558 27.6664 9.88303 27.6483 20.0959 27.6545L38.6647 27.6657L38.9873 27.8455C39.5094 28.1365 39.8407 28.6027 39.9669 29.2243C40.0189 29.4804 40.0114 29.6589 39.9321 30.0476C39.8764 30.3206 39.8071 30.6794 39.7781 30.8451C39.7491 31.0107 39.6344 31.583 39.5232 32.1168C39.4121 32.6506 39.2815 33.2982 39.2331 33.5559C39.1847 33.8135 39.0856 34.3105 39.013 34.6603C38.9403 35.01 38.8549 35.4317 38.8231 35.5973C38.7914 35.763 38.7058 36.1847 38.633 36.5344C38.5602 36.8841 38.4746 37.3058 38.4429 37.4715C38.4111 37.6371 38.3256 38.0588 38.2528 38.4085C38.18 38.7583 38.094 39.1799 38.0616 39.3456C37.8404 40.4786 37.1619 43.8754 37.0154 44.5831C36.4631 47.2518 36.1614 48.7954 36.1614 48.9537C36.1614 49.2634 35.9083 49.8273 35.6387 50.1179C35.4905 50.2778 35.2124 50.4871 35.0207 50.5832L34.6721 50.7577H5.39293L5.04126 50.6073C4.65068 50.4403 4.20769 50.0189 4.02403 49.6396C3.958 49.5033 3.87472 49.172 3.83904 48.9033C3.8033 48.6348 3.76109 48.3699 3.74531 48.3147C3.72953 48.2594 3.63079 47.785 3.52597 47.2603C3.42115 46.7355 3.24871 45.8771 3.14275 45.3527C2.96479 44.4714 2.68391 43.0738 2.47363 42.0229C2.42579 41.7836 2.342 41.377 2.2875 41.1193C2.233 40.8616 2.14827 40.44 2.09922 40.1823C1.9897 39.607 1.73361 38.3243 1.55793 37.4715C1.48587 37.1217 1.38618 36.6248 1.33637 36.3671C1.2865 36.1094 1.20145 35.6877 1.14739 35.43C1.09327 35.1723 0.965693 34.5398 0.86385 34.0244C0.762007 33.509 0.590324 32.6506 0.482397 32.1168C0.0279864 29.8695 -0.0280424 29.6047 0.00964448 29.3558C0.0158508 29.3148 0.0245985 29.2743 0.0345272 29.2254ZM6.40276 35.9913H4.11133V40.8857H4.98082V38.683H6.40276V37.788H4.98082V36.8996H6.40276V35.9913ZM7.69124 37.2656H6.95672V40.8857H7.80738V39.4217L7.80424 39.2454C7.80424 38.7396 7.84923 38.4002 7.93922 38.2272C8.03129 38.0542 8.14325 37.9677 8.27508 37.9677C8.33996 37.9677 8.42262 37.9943 8.52306 38.0475L8.78987 37.2656C8.6685 37.2035 8.55236 37.1725 8.44145 37.1725C8.2845 37.1725 8.14011 37.219 8.00827 37.3122C7.87644 37.4054 7.77076 37.5418 7.69124 37.7215V37.2656ZM9.94965 39.3385H12.7025L12.7057 39.1655C12.7057 38.5666 12.5372 38.0852 12.2003 37.7215C11.8634 37.3555 11.426 37.1725 10.8882 37.1725C10.3818 37.1725 9.96012 37.3555 9.6232 37.7215C9.28838 38.0852 9.12097 38.5433 9.12097 39.0956C9.12097 39.6347 9.28943 40.0838 9.62634 40.4432C9.96325 40.8003 10.3996 40.9789 10.9353 40.9789C11.2806 40.9789 11.5788 40.9145 11.8299 40.7859C12.081 40.655 12.2965 40.4543 12.4765 40.1837L11.7545 39.8243C11.5244 40.0617 11.2492 40.1803 10.929 40.1803C10.6611 40.1803 10.4404 40.1049 10.2667 39.9541C10.0951 39.801 9.98941 39.5958 9.94965 39.3385ZM14.1322 39.3385H16.8851L16.8882 39.1655C16.8882 38.5666 16.7198 38.0852 16.3829 37.7215C16.046 37.3555 15.6086 37.1725 15.0708 37.1725C14.5644 37.1725 14.1427 37.3555 13.8058 37.7215C13.471 38.0852 13.3036 38.5433 13.3036 39.0956C13.3036 39.6347 13.472 40.0838 13.8089 40.4432C14.1458 40.8003 14.5822 40.9789 15.1179 40.9789C15.4632 40.9789 15.7614 40.9145 16.0125 40.7859C16.2636 40.655 16.4791 40.4543 16.6591 40.1837L15.9371 39.8243C15.7069 40.0617 15.4318 40.1803 15.1116 40.1803C14.8437 40.1803 14.623 40.1049 14.4493 39.9541C14.2777 39.801 14.172 39.5958 14.1322 39.3385ZM18.4121 35.8682H17.5552V40.8857H18.4121V35.8682ZM22.6324 37.2656H21.7786V37.6649C21.6258 37.5008 21.4595 37.3776 21.2795 37.2956C21.0995 37.2135 20.907 37.1725 20.7019 37.1725C20.2562 37.1725 19.8774 37.351 19.5656 37.7082C19.2538 38.0653 19.0979 38.5233 19.0979 39.0823C19.0979 39.6213 19.2591 40.0727 19.5813 40.4365C19.9036 40.7981 20.2855 40.9789 20.7271 40.9789C20.9238 40.9789 21.1058 40.9423 21.2732 40.8691C21.4427 40.7937 21.6112 40.6717 21.7786 40.5031V40.8857H22.6324V37.2656ZM24.4168 37.2656H23.563V40.8857H24.4168V39.4317C24.4168 39.0546 24.4294 38.8095 24.4545 38.6964C24.5026 38.479 24.5884 38.3093 24.7119 38.1873C24.8374 38.0631 24.9871 38.001 25.1608 38.001C25.2947 38.001 25.4066 38.0387 25.4966 38.1141C25.5887 38.1873 25.6525 38.2949 25.6881 38.4368C25.7258 38.5788 25.7446 38.8661 25.7446 39.2986V40.8857H26.5921V38.4934C26.5921 38.0764 26.4927 37.7614 26.2939 37.5484C26.0575 37.2978 25.7697 37.1725 25.4307 37.1725C25.2654 37.1725 25.1032 37.2068 24.9442 37.2756C24.7872 37.3422 24.6114 37.4619 24.4168 37.635V37.2656ZM30.1187 38.4135L30.8312 37.9976C30.6596 37.7337 30.4388 37.5307 30.1689 37.3887C29.8989 37.2446 29.5945 37.1725 29.2555 37.1725C28.8892 37.1725 28.5576 37.2568 28.2604 37.4253C27.9653 37.5939 27.7352 37.8257 27.5698 38.1207C27.4045 38.4158 27.3219 38.7385 27.3219 39.089C27.3219 39.5947 27.4914 40.0361 27.8304 40.4132C28.1715 40.7903 28.6423 40.9789 29.2429 40.9789C29.9105 40.9789 30.4273 40.7271 30.7935 40.2236L30.1187 39.7345C29.9052 40.0117 29.607 40.1504 29.2241 40.1504C28.9144 40.1504 28.6643 40.0528 28.4739 39.8576C28.2834 39.6624 28.1882 39.4106 28.1882 39.1023C28.1882 38.7851 28.2866 38.5256 28.4833 38.3237C28.6821 38.1196 28.9416 38.0176 29.2617 38.0176C29.4375 38.0176 29.5903 38.0464 29.72 38.1041C29.8519 38.1618 29.9847 38.2649 30.1187 38.4135ZM32.3394 39.3385H35.0923L35.0954 39.1655C35.0954 38.5666 34.927 38.0852 34.59 37.7215C34.2531 37.3555 33.8158 37.1725 33.278 37.1725C32.7715 37.1725 32.3499 37.3555 32.013 37.7215C31.6781 38.0852 31.5107 38.5433 31.5107 39.0956C31.5107 39.6347 31.6792 40.0838 32.0161 40.4432C32.353 40.8003 32.7893 40.9789 33.325 40.9789C33.6703 40.9789 33.9685 40.9145 34.2196 40.7859C34.4708 40.655 34.6863 40.4543 34.8663 40.1837L34.1443 39.8243C33.9141 40.0617 33.6389 40.1803 33.3188 40.1803C33.0509 40.1803 32.8301 40.1049 32.6564 39.9541C32.4849 39.801 32.3792 39.5958 32.3394 39.3385Z" fill="url(#paint6_linear_2847_2514)"/>
<path d="M3.48452 52.7802C3.06435 52.3735 3.13178 51.6153 3.61032 51.3661C3.78739 51.2738 5.5359 51.2626 19.9913 51.2613C35.7516 51.2598 36.502 51.235 36.6357 51.5273C36.6528 51.5647 36.6599 51.6074 36.687 51.656C36.931 52.0923 36.7815 52.69 36.3702 52.9225C36.2674 52.9807 32.1702 53 19.9724 53H3.71166L3.48452 52.7802Z" fill="url(#paint7_linear_2847_2514)"/>
<defs>
<linearGradient id="paint0_linear_2847_2514" x1="0" y1="0" x2="41.109" y2="1.11256" gradientUnits="userSpaceOnUse">
<stop stop-color="#091C91"/>
<stop offset="1" stop-color="#24BCFF"/>
</linearGradient>
<linearGradient id="paint1_linear_2847_2514" x1="0" y1="0" x2="41.109" y2="1.11256" gradientUnits="userSpaceOnUse">
<stop stop-color="#091C91"/>
<stop offset="1" stop-color="#24BCFF"/>
</linearGradient>
<linearGradient id="paint2_linear_2847_2514" x1="0" y1="0" x2="41.109" y2="1.11256" gradientUnits="userSpaceOnUse">
<stop stop-color="#091C91"/>
<stop offset="1" stop-color="#24BCFF"/>
</linearGradient>
<linearGradient id="paint3_linear_2847_2514" x1="0" y1="0" x2="41.109" y2="1.11256" gradientUnits="userSpaceOnUse">
<stop stop-color="#091C91"/>
<stop offset="1" stop-color="#24BCFF"/>
</linearGradient>
<linearGradient id="paint4_linear_2847_2514" x1="0" y1="0" x2="41.109" y2="1.11256" gradientUnits="userSpaceOnUse">
<stop stop-color="#091C91"/>
<stop offset="1" stop-color="#24BCFF"/>
</linearGradient>
<linearGradient id="paint5_linear_2847_2514" x1="0" y1="0" x2="41.109" y2="1.11256" gradientUnits="userSpaceOnUse">
<stop stop-color="#091C91"/>
<stop offset="1" stop-color="#24BCFF"/>
</linearGradient>
<linearGradient id="paint6_linear_2847_2514" x1="0" y1="0" x2="41.109" y2="1.11256" gradientUnits="userSpaceOnUse">
<stop stop-color="#091C91"/>
<stop offset="1" stop-color="#24BCFF"/>
</linearGradient>
<linearGradient id="paint7_linear_2847_2514" x1="0" y1="0" x2="41.109" y2="1.11256" gradientUnits="userSpaceOnUse">
<stop stop-color="#091C91"/>
<stop offset="1" stop-color="#24BCFF"/>
</linearGradient>
</defs>
</svg>
