<svg width="70" height="90" fill="none" xmlns="http://www.w3.org/2000/svg">
<path fill-rule="evenodd" clip-rule="evenodd" d="M23.358 6.28271C25.1307 2.90927 28.3512 0.792232 32.6724 0.159598C35.7556 -0.291748 39.406 0.234727 41.8222 1.47942C44.5291 2.87392 46.3103 5.00096 47.2945 8.01422C47.7831 9.51067 47.9956 10.9267 48.028 12.9023C48.0554 14.5762 48.0649 14.6386 48.3453 14.9801C48.9411 15.7058 49.1239 17.2962 48.806 18.9886C48.4476 20.8962 47.9919 21.9357 47.2148 22.6182C46.9396 22.8601 46.6702 23.2645 46.4703 23.736C44.498 28.389 41.7287 31.7704 38.607 33.3374C37.1992 34.0442 36.1818 34.3064 34.8482 34.3064C32.6553 34.3064 30.7466 33.5191 28.5526 31.7096C26.5572 30.0639 24.2284 26.6069 23.1238 23.6507C22.9778 23.2601 22.7975 22.9403 22.723 22.9403C22.4287 22.9403 21.8362 22.2401 21.4589 21.4463C20.789 20.0365 20.6469 19.347 20.6428 17.4846C20.6393 15.9332 20.6554 15.8066 20.9174 15.3251C21.0704 15.0438 21.3074 14.7631 21.4442 14.7014C21.662 14.6031 21.6927 14.5046 21.6926 13.9058C21.6926 13.5299 21.7649 12.8132 21.8533 12.3131C21.9418 11.813 22.0973 10.8412 22.1989 10.1535C22.412 8.71107 22.8492 7.2511 23.358 6.28271ZM36.8868 11.6706C35.2019 12.0975 32.6088 11.9746 30.3434 11.3605C28.6733 10.9078 27.1273 11.3363 25.9282 12.5845C25.277 13.2624 24.5894 14.4834 24.417 15.2683C24.1688 16.3988 24.1354 16.4667 23.8635 16.3968C23.6779 16.3491 23.5349 16.4052 23.3646 16.5924C23.0299 16.9605 22.9948 17.1901 23.0406 18.7052C23.0789 19.9708 23.1018 20.0838 23.4718 20.8281C23.9299 21.7497 24.3625 22.1516 24.6784 21.9493C24.8653 21.8298 24.9126 21.8982 25.191 22.6915C25.7829 24.3771 26.6192 25.9296 27.816 27.5644C28.7162 28.794 29.6517 29.7163 30.7859 30.4926C31.8251 31.2039 32.6899 31.562 33.8743 31.7715C34.7018 31.9178 34.9242 31.9169 35.802 31.7629C39.0996 31.1846 42.2903 27.9561 44.2026 23.2626C44.4488 22.6583 44.6503 22.0811 44.6503 21.9798C44.6503 21.831 44.6927 21.819 44.8721 21.9174C45.3049 22.1548 45.9184 21.542 46.3208 20.47C46.6512 19.5903 46.7597 17.4703 46.5007 16.9569C46.2326 16.4257 46.0244 16.2913 45.702 16.4419C45.4535 16.558 45.4234 16.5417 45.3623 16.2597C44.952 14.3655 43.4192 11.4606 42.8297 11.4606C42.6873 11.4606 42.6974 11.557 42.8958 12.088C43.0246 12.4331 43.1089 12.7371 43.083 12.7637C43.0571 12.7902 42.5037 12.5422 41.8532 12.2126C40.0048 11.2759 38.9142 11.1569 36.8868 11.6706Z" fill="url(#paint0_linear_1946_398)"/>
<path d="M44.4284 34.6089C44.4284 34.5756 44.4749 34.4232 44.5317 34.27C44.6335 33.9956 44.6438 33.9937 45.2362 34.1349C45.5668 34.2136 46.5309 34.3133 47.3787 34.3565C50.3906 34.5098 52.7583 35.0097 54.1717 35.7908C56.339 36.9882 57.9681 38.9088 59.3724 41.9216C59.6492 42.5155 59.917 43.1293 59.9676 43.2856C60.0183 43.4418 60.2303 44.0812 60.4389 44.7063L60.8182 45.8429L47.9098 45.8718C40.8102 45.8877 29.1902 45.8877 22.0877 45.8718L9.17389 45.8429L9.64802 44.4222C10.4813 41.9249 11.5644 39.8483 12.847 38.2884C15.0028 35.6664 17.6315 34.5989 22.5099 34.3641C23.2948 34.3264 24.1875 34.2467 24.4936 34.1873C25.2863 34.0331 25.3454 34.0448 25.4695 34.3792C25.7588 35.1592 27.2283 37.2201 29.1949 39.604C30.3906 41.0536 32.4621 43.3992 32.5465 43.3992C32.5887 43.3992 32.8808 42.3638 33.1957 41.0983L33.7682 38.7972L33.4427 38.4711C33.1017 38.1296 32.6724 36.9418 32.6724 36.3403V36.0113H37.3591L37.2861 36.5745C37.1782 37.4086 36.9191 38.0691 36.5445 38.4652L36.2115 38.8172L36.5553 40.1705C36.7444 40.9148 37.0043 41.9457 37.1328 42.4615C37.2614 42.9773 37.401 43.3992 37.4431 43.3992C37.5986 43.3992 40.9607 39.4718 42.5637 37.4178C43.1556 36.6594 44.4284 34.742 44.4284 34.6089Z" fill="url(#paint1_linear_1946_398)"/>
<path d="M20.1365 64.7503C20.4295 64.965 20.6254 65.2437 20.7243 65.5865H17.4778C17.6463 65.2061 17.8294 64.9405 18.0271 64.7898C18.3421 64.5488 18.7083 64.4282 19.1258 64.4282C19.5103 64.4282 19.8472 64.5356 20.1365 64.7503Z" fill="url(#paint2_linear_1946_398)"/>
<path d="M27.456 64.7503C27.749 64.965 27.9449 65.2437 28.0438 65.5865H24.7973C24.9658 65.2061 25.1489 64.9405 25.3467 64.7898C25.6616 64.5488 26.0278 64.4282 26.4453 64.4282C26.8298 64.4282 27.1667 64.5356 27.456 64.7503Z" fill="url(#paint3_linear_1946_398)"/>
<path d="M35.377 65.0554C35.6846 64.7164 36.0709 64.5469 36.536 64.5469C37.0121 64.5469 37.4058 64.7126 37.717 65.0441C38.0283 65.3756 38.184 65.8087 38.184 66.3436C38.184 66.8898 38.0283 67.3324 37.717 67.6714C37.4058 68.0066 37.0139 68.1742 36.5415 68.1742C36.0837 68.1742 35.6974 68.0029 35.3824 67.6601C35.0712 67.3173 34.9155 66.8804 34.9155 66.3493C34.9155 65.8219 35.0693 65.3906 35.377 65.0554Z" fill="url(#paint4_linear_1946_398)"/>
<path d="M59.3186 64.7503C59.6115 64.965 59.8075 65.2437 59.9063 65.5865H56.6599C56.8283 65.2061 57.0115 64.9405 57.2092 64.7898C57.5241 64.5488 57.8904 64.4282 58.3078 64.4282C58.6924 64.4282 59.0293 64.5356 59.3186 64.7503Z" fill="url(#paint5_linear_1946_398)"/>
<path fill-rule="evenodd" clip-rule="evenodd" d="M0.0604226 49.628C0.330922 48.3356 1.15639 47.4162 2.39444 47.0285C2.54727 46.9807 17.2953 46.95 35.1678 46.9605L67.6632 46.9795L68.2278 47.2848C69.1415 47.7789 69.7212 48.5707 69.942 49.6262C70.0331 50.0611 70.0199 50.3642 69.8811 51.0242C69.7838 51.4877 69.6624 52.0971 69.6117 52.3784C69.5609 52.6597 69.3602 53.6315 69.1657 54.5379C68.9711 55.4444 68.7427 56.544 68.658 56.9816C68.5732 57.4192 68.3999 58.2632 68.2728 58.857C68.1456 59.4509 67.9961 60.167 67.9405 60.4483C67.8849 60.7296 67.7352 61.4457 67.6078 62.0395C67.4804 62.6334 67.3306 63.3495 67.2751 63.6308C67.2195 63.9121 67.0698 64.6282 66.9424 65.222C66.8149 65.8159 66.6644 66.532 66.6079 66.8133C66.2207 68.7373 65.0333 74.5055 64.777 75.7072C63.8104 80.2388 63.2825 82.8602 63.2825 83.1289C63.2825 83.6549 62.8395 84.6124 62.3678 85.1059C62.1084 85.3774 61.6216 85.7329 61.2861 85.896L60.6762 86.1924H9.43763L8.82221 85.937C8.1387 85.6534 7.36347 84.9377 7.04206 84.2937C6.9265 84.0622 6.78077 83.4995 6.71833 83.0434C6.65578 82.5874 6.58191 82.1375 6.5543 82.0438C6.52668 81.95 6.35389 81.1443 6.17045 80.2533C5.98701 79.3622 5.68524 77.9045 5.4998 77.014C5.18838 75.5175 4.69685 73.1443 4.32886 71.3597C4.24512 70.9534 4.09851 70.2629 4.00313 69.8253C3.90775 69.3877 3.75947 68.6716 3.67363 68.234C3.48198 67.2571 3.03381 65.0789 2.72638 63.6308C2.60028 63.0369 2.42582 62.193 2.33865 61.7554C2.25137 61.3178 2.10253 60.6017 2.00793 60.1641C1.91322 59.7265 1.68996 58.6525 1.51174 57.7773C1.33351 56.9021 1.03307 55.4444 0.844195 54.5379C0.0489761 50.7218 -0.0490742 50.2721 0.0168778 49.8495C0.0277388 49.7799 0.0430474 49.7111 0.0604226 49.628ZM11.2048 61.1173H7.19482V69.4286H8.71643V65.6882H11.2048V64.1683H8.71643V62.6597H11.2048V61.1173ZM13.4597 63.2812H12.1743V69.4286H13.6629V66.9425L13.6574 66.6431C13.6574 65.7842 13.7362 65.2079 13.8936 64.9141C14.0548 64.6203 14.2507 64.4734 14.4814 64.4734C14.5949 64.4734 14.7396 64.5186 14.9154 64.609L15.3823 63.2812C15.1699 63.1758 14.9666 63.123 14.7725 63.123C14.4979 63.123 14.2452 63.2021 14.0145 63.3604C13.7838 63.5186 13.5988 63.7502 13.4597 64.0553V63.2812ZM17.4119 66.8013H22.2294L22.2349 66.5075C22.2349 65.4904 21.9401 64.6731 21.3505 64.0553C20.7609 63.4338 19.9955 63.123 19.0543 63.123C18.1681 63.123 17.4302 63.4338 16.8406 64.0553C16.2547 64.6731 15.9617 65.4509 15.9617 66.3888C15.9617 67.3041 16.2565 68.0669 16.8461 68.6771C17.4357 69.2836 18.1992 69.5868 19.1367 69.5868C19.741 69.5868 20.2628 69.4775 20.7023 69.2591C21.1417 69.0368 21.5189 68.6959 21.8339 68.2364L20.5705 67.6262C20.1676 68.0292 19.6861 68.2307 19.1258 68.2307C18.657 68.2307 18.2707 68.1027 17.9667 67.8465C17.6664 67.5866 17.4815 67.2382 17.4119 66.8013ZM24.7314 66.8013H29.5489L29.5544 66.5075C29.5544 65.4904 29.2596 64.6731 28.67 64.0553C28.0804 63.4338 27.315 63.123 26.3739 63.123C25.4876 63.123 24.7497 63.4338 24.1601 64.0553C23.5742 64.6731 23.2812 65.4509 23.2812 66.3888C23.2812 67.3041 23.576 68.0669 24.1656 68.6771C24.7552 69.2836 25.5188 69.5868 26.4563 69.5868C27.0605 69.5868 27.5824 69.4775 28.0218 69.2591C28.4613 69.0368 28.8385 68.6959 29.1534 68.2364L27.89 67.6262C27.4872 68.0292 27.0056 68.2307 26.4453 68.2307C25.9765 68.2307 25.5902 68.1027 25.2862 67.8465C24.9859 67.5866 24.801 67.2382 24.7314 66.8013ZM32.2212 60.9082H30.7216V69.4286H32.2212V60.9082ZM39.6067 63.2812H38.1125V63.9593C37.8452 63.6805 37.5541 63.4715 37.2391 63.3321C36.9242 63.1927 36.5873 63.123 36.2284 63.123C35.4484 63.123 34.7855 63.4263 34.2399 64.0327C33.6942 64.6392 33.4214 65.417 33.4214 66.3662C33.4214 67.2815 33.7034 68.0481 34.2673 68.6658C34.8313 69.2798 35.4996 69.5868 36.2723 69.5868C36.6166 69.5868 36.9352 69.5246 37.2281 69.4003C37.5248 69.2722 37.8196 69.0651 38.1125 68.7788V69.4286H39.6067V63.2812ZM42.7294 63.2812H41.2353V69.4286H42.7294V66.9595C42.7294 66.3191 42.7514 65.9029 42.7954 65.7108C42.8796 65.3417 43.0297 65.0535 43.2458 64.8463C43.4655 64.6354 43.7274 64.5299 44.0313 64.5299C44.2657 64.5299 44.4616 64.594 44.6191 64.722C44.7802 64.8463 44.8919 65.029 44.9542 65.2701C45.0201 65.5112 45.0531 65.999 45.0531 66.7335V69.4286H46.5362V65.3661C46.5362 64.658 46.3623 64.1231 46.0144 63.7615C45.6005 63.3359 45.097 63.123 44.5037 63.123C44.2144 63.123 43.9306 63.1814 43.6523 63.2982C43.3776 63.4112 43.07 63.6146 42.7294 63.9084V63.2812ZM52.7077 65.2305L53.9546 64.5243C53.6543 64.076 53.268 63.7314 52.7956 63.4903C52.3231 63.2455 51.7903 63.123 51.197 63.123C50.5562 63.123 49.9757 63.2662 49.4557 63.5525C48.9394 63.8387 48.5365 64.2324 48.2472 64.7333C47.9579 65.2343 47.8133 65.7824 47.8133 66.3775C47.8133 67.2363 48.1099 67.9859 48.7032 68.6263C49.3001 69.2666 50.1241 69.5868 51.1751 69.5868C52.3433 69.5868 53.2478 69.1592 53.8887 68.3042L52.7077 67.4736C52.3341 67.9445 51.8123 68.1799 51.1421 68.1799C50.6001 68.1799 50.1625 68.0142 49.8293 67.6827C49.496 67.3512 49.3294 66.9237 49.3294 66.4001C49.3294 65.8615 49.5015 65.4208 49.8457 65.078C50.1936 64.7314 50.6477 64.5582 51.208 64.5582C51.5157 64.5582 51.783 64.6071 52.01 64.7051C52.2407 64.803 52.4733 64.9782 52.7077 65.2305ZM56.594 66.8013H61.4115L61.417 66.5075C61.417 65.4904 61.1222 64.6731 60.5326 64.0553C59.943 63.4338 59.1776 63.123 58.2364 63.123C57.3502 63.123 56.6123 63.4338 56.0227 64.0553C55.4367 64.6731 55.1438 65.4509 55.1438 66.3888C55.1438 67.3041 55.4386 68.0669 56.0282 68.6771C56.6178 69.2836 57.3813 69.5868 58.3188 69.5868C58.9231 69.5868 59.4449 69.4775 59.8844 69.2591C60.3238 69.0368 60.701 68.6959 61.016 68.2364L59.7525 67.6262C59.3497 68.0292 58.8681 68.2307 58.3078 68.2307C57.8391 68.2307 57.4527 68.1027 57.1488 67.8465C56.8485 67.5866 56.6636 67.2382 56.594 66.8013Z" fill="url(#paint6_linear_1946_398)"/>
<path d="M6.09792 89.6267C5.36261 88.9361 5.48062 87.6487 6.31807 87.2254C6.62794 87.0687 9.68783 87.0497 34.9847 87.0474C62.5652 87.0449 63.8784 87.0028 64.1125 87.4992C64.1425 87.5628 64.1548 87.6352 64.2023 87.7177C64.6293 88.4585 64.3677 89.4736 63.6479 89.8684C63.4679 89.9671 56.2979 90 34.9516 90H6.4954L6.09792 89.6267Z" fill="url(#paint7_linear_1946_398)"/>
<defs>
<linearGradient id="paint0_linear_1946_398" x1="35" y1="0" x2="35" y2="90" gradientUnits="userSpaceOnUse">
<stop stop-color="#FCC02A"/>
<stop offset="0.307292" stop-color="#FCC02A"/>
<stop offset="1" stop-color="#F24E1E"/>
</linearGradient>
<linearGradient id="paint1_linear_1946_398" x1="35" y1="0" x2="35" y2="90" gradientUnits="userSpaceOnUse">
<stop stop-color="#FCC02A"/>
<stop offset="0.307292" stop-color="#FCC02A"/>
<stop offset="1" stop-color="#F24E1E"/>
</linearGradient>
<linearGradient id="paint2_linear_1946_398" x1="35" y1="0" x2="35" y2="90" gradientUnits="userSpaceOnUse">
<stop stop-color="#FCC02A"/>
<stop offset="0.307292" stop-color="#FCC02A"/>
<stop offset="1" stop-color="#F24E1E"/>
</linearGradient>
<linearGradient id="paint3_linear_1946_398" x1="35" y1="0" x2="35" y2="90" gradientUnits="userSpaceOnUse">
<stop stop-color="#FCC02A"/>
<stop offset="0.307292" stop-color="#FCC02A"/>
<stop offset="1" stop-color="#F24E1E"/>
</linearGradient>
<linearGradient id="paint4_linear_1946_398" x1="35" y1="0" x2="35" y2="90" gradientUnits="userSpaceOnUse">
<stop stop-color="#FCC02A"/>
<stop offset="0.307292" stop-color="#FCC02A"/>
<stop offset="1" stop-color="#F24E1E"/>
</linearGradient>
<linearGradient id="paint5_linear_1946_398" x1="35" y1="0" x2="35" y2="90" gradientUnits="userSpaceOnUse">
<stop stop-color="#FCC02A"/>
<stop offset="0.307292" stop-color="#FCC02A"/>
<stop offset="1" stop-color="#F24E1E"/>
</linearGradient>
<linearGradient id="paint6_linear_1946_398" x1="35" y1="0" x2="35" y2="90" gradientUnits="userSpaceOnUse">
<stop stop-color="#FCC02A"/>
<stop offset="0.307292" stop-color="#FCC02A"/>
<stop offset="1" stop-color="#F24E1E"/>
</linearGradient>
<linearGradient id="paint7_linear_1946_398" x1="35" y1="0" x2="35" y2="90" gradientUnits="userSpaceOnUse">
<stop stop-color="#FCC02A"/>
<stop offset="0.307292" stop-color="#FCC02A"/>
<stop offset="1" stop-color="#F24E1E"/>
</linearGradient>
</defs>
</svg>
