<svg width="120" height="77" viewBox="0 0 120 77" fill="none" xmlns="http://www.w3.org/2000/svg">
<path d="M1.46777 59.0713H3.96387V63.9492H8.28809V59.0713H10.7754V72H8.28809V66.3311H3.96387V72H1.46777V59.0713ZM12.6341 59.0713H19.7796V61.4971H17.4241V72H14.928V61.4971H12.6341V59.0713ZM22.8952 59.0713H25.3034L28.2916 68.0889L31.3239 59.0713H33.6969L35.8766 72H33.5036L32.1149 63.835L29.3639 72H27.193L24.4772 63.835L23.0621 72H20.6627L22.8952 59.0713ZM38.0341 59.0713H40.4951V69.6533H44.081V72H38.0341V59.0713ZM47.6712 59.0713H53.7268V61.3389H49.5081L48.9807 63.6943C49.1272 63.6533 49.2708 63.624 49.4114 63.6064C49.552 63.583 49.6868 63.5713 49.8157 63.5713C50.9876 63.5713 51.9602 63.9727 52.7337 64.7754C53.513 65.5723 53.9026 66.5947 53.9026 67.8428C53.9026 69.1025 53.472 70.166 52.6106 71.0332C51.7552 71.8945 50.7122 72.3252 49.4817 72.3252C48.3802 72.3252 47.4339 72.0117 46.6429 71.3848C45.8518 70.7578 45.3333 69.8994 45.0872 68.8096H47.6712C47.8704 69.2139 48.1311 69.5215 48.4534 69.7324C48.7815 69.9375 49.1419 70.04 49.5345 70.04C50.0794 70.04 50.5423 69.8438 50.9231 69.4512C51.304 69.0586 51.4944 68.5547 51.4944 67.9395C51.4944 67.3418 51.3157 66.8525 50.9583 66.4717C50.6067 66.085 50.179 65.8916 49.6751 65.8916C49.4055 65.8916 49.1389 65.959 48.8753 66.0938C48.6175 66.2285 48.3626 66.4307 48.1106 66.7002L46.1067 66.252L47.6712 59.0713ZM64.4667 64.4414V61.1455H66.664V64.4414H69.9511V66.6387H66.664V69.9258H64.4667V66.6387H61.1708V64.4414H64.4667ZM89.7349 61.3477L88.0123 62.9912C86.8404 61.7549 85.522 61.1367 84.0572 61.1367C82.8209 61.1367 81.7779 61.5586 80.9283 62.4023C80.0845 63.2461 79.6627 64.2861 79.6627 65.5225C79.6627 66.3838 79.8502 67.1484 80.2252 67.8164C80.6002 68.4844 81.1304 69.0088 81.816 69.3896C82.5015 69.7705 83.2632 69.9609 84.1011 69.9609C84.816 69.9609 85.4693 69.8291 86.0611 69.5654C86.6529 69.2959 87.3033 68.8096 88.0123 68.1064L89.6822 69.8467C88.7271 70.7783 87.8248 71.4258 86.9752 71.7891C86.1255 72.1465 85.1558 72.3252 84.066 72.3252C82.0562 72.3252 80.4097 71.6895 79.1265 70.418C77.8492 69.1406 77.2105 67.5059 77.2105 65.5137C77.2105 64.2246 77.5005 63.0791 78.0806 62.0771C78.6666 61.0752 79.5015 60.2695 80.5855 59.6602C81.6754 59.0508 82.8472 58.7461 84.1011 58.7461C85.1675 58.7461 86.1929 58.9717 87.1773 59.4229C88.1675 59.874 89.0201 60.5156 89.7349 61.3477ZM98.8534 60.8291L97.0341 62.4375C96.3954 61.5469 95.745 61.1016 95.0829 61.1016C94.7606 61.1016 94.497 61.1895 94.2919 61.3652C94.0868 61.5352 93.9843 61.7285 93.9843 61.9453C93.9843 62.1621 94.0575 62.3672 94.204 62.5605C94.4032 62.8184 95.0038 63.3721 96.0057 64.2217C96.9432 65.0068 97.5116 65.502 97.7108 65.707C98.2089 66.2109 98.5604 66.6943 98.7655 67.1572C98.9764 67.6143 99.0819 68.1152 99.0819 68.6602C99.0819 69.7207 98.7157 70.5967 97.9833 71.2881C97.2509 71.9795 96.2958 72.3252 95.118 72.3252C94.1981 72.3252 93.3954 72.0996 92.7098 71.6484C92.0302 71.1973 91.4472 70.4883 90.9608 69.5215L93.0263 68.2734C93.6473 69.416 94.3622 69.9873 95.1708 69.9873C95.5927 69.9873 95.9472 69.8643 96.2343 69.6182C96.5214 69.3721 96.6649 69.0879 96.6649 68.7656C96.6649 68.4727 96.5565 68.1797 96.3397 67.8867C96.1229 67.5938 95.6454 67.1455 94.9071 66.542C93.5009 65.3936 92.5927 64.5088 92.1825 63.8877C91.7723 63.2607 91.5673 62.6367 91.5673 62.0156C91.5673 61.1191 91.9071 60.3516 92.5868 59.7129C93.2723 59.0684 94.1161 58.7461 95.118 58.7461C95.7626 58.7461 96.3749 58.8955 96.955 59.1943C97.5409 59.4932 98.1737 60.0381 98.8534 60.8291ZM108.403 60.8291L106.583 62.4375C105.945 61.5469 105.294 61.1016 104.632 61.1016C104.31 61.1016 104.046 61.1895 103.841 61.3652C103.636 61.5352 103.533 61.7285 103.533 61.9453C103.533 62.1621 103.607 62.3672 103.753 62.5605C103.952 62.8184 104.553 63.3721 105.555 64.2217C106.492 65.0068 107.061 65.502 107.26 65.707C107.758 66.2109 108.11 66.6943 108.315 67.1572C108.526 67.6143 108.631 68.1152 108.631 68.6602C108.631 69.7207 108.265 70.5967 107.532 71.2881C106.8 71.9795 105.845 72.3252 104.667 72.3252C103.747 72.3252 102.945 72.0996 102.259 71.6484C101.579 71.1973 100.996 70.4883 100.51 69.5215L102.575 68.2734C103.196 69.416 103.911 69.9873 104.72 69.9873C105.142 69.9873 105.496 69.8643 105.783 69.6182C106.071 69.3721 106.214 69.0879 106.214 68.7656C106.214 68.4727 106.106 68.1797 105.889 67.8867C105.672 67.5938 105.195 67.1455 104.456 66.542C103.05 65.3936 102.142 64.5088 101.732 63.8877C101.321 63.2607 101.116 62.6367 101.116 62.0156C101.116 61.1191 101.456 60.3516 102.136 59.7129C102.821 59.0684 103.665 58.7461 104.667 58.7461C105.312 58.7461 105.924 58.8955 106.504 59.1943C107.09 59.4932 107.723 60.0381 108.403 60.8291ZM113.118 62.2617H110.753C110.876 61.3066 111.219 60.5391 111.782 59.959C112.567 59.1504 113.554 58.7461 114.744 58.7461C115.804 58.7461 116.692 59.083 117.407 59.7568C118.127 60.4307 118.488 61.2305 118.488 62.1562C118.488 62.7305 118.33 63.2549 118.013 63.7295C117.703 64.2041 117.249 64.5879 116.651 64.8809C117.436 65.1152 118.048 65.5254 118.488 66.1113C118.933 66.6914 119.156 67.377 119.156 68.168C119.156 69.3281 118.728 70.3125 117.873 71.1211C117.017 71.9238 115.927 72.3252 114.603 72.3252C113.349 72.3252 112.327 71.9473 111.536 71.1914C110.745 70.4297 110.311 69.3955 110.235 68.0889H112.669C112.775 68.7568 113.006 69.2549 113.364 69.583C113.727 69.9053 114.184 70.0664 114.735 70.0664C115.309 70.0664 115.784 69.8818 116.159 69.5127C116.54 69.1436 116.73 68.6924 116.73 68.1592C116.73 67.5732 116.475 67.0781 115.965 66.6738C115.456 66.2695 114.72 66.0615 113.759 66.0498V63.9404C114.351 63.8936 114.791 63.8027 115.078 63.668C115.371 63.5273 115.596 63.3369 115.754 63.0967C115.918 62.8564 116.001 62.6016 116.001 62.332C116.001 61.9805 115.877 61.6904 115.631 61.4619C115.385 61.2275 115.063 61.1104 114.665 61.1104C114.313 61.1104 113.994 61.2188 113.707 61.4355C113.419 61.6465 113.223 61.9219 113.118 62.2617Z" fill="#1F2A3C"/>
<path d="M10.1118 0H12.2708V2.09699H14.2609V0H16.4199V6.34615H14.2609V4.23077H12.2896V6.34615H10.1118M19.2736 2.11538H17.368V0H23.3476V2.11538H21.4326V6.34615H19.2736M24.2956 0H26.5579L27.9472 2.23495L29.3365 0H31.5988V6.34615H29.4397V3.20067L27.9284 5.48161L26.4171 3.20067V6.34615H24.2956M32.6689 0H34.8279V4.24916H37.8881V6.34615H32.6689" fill="black"/>
<path d="M10.0926 44.1561L7 9.43115H41L37.9074 44.1374L23.9719 47.9999" fill="#E44D26"/>
<path d="M24 45.0469V12.2812H37.898L35.2459 41.9062" fill="#F16529"/>
<path d="M13.3164 16.5278H24V20.7841H17.9834L18.377 25.1435H24V29.3903H14.4785M14.6659 31.5278H18.9393L19.2392 34.931L24 36.206V40.6497L15.2657 38.2122" fill="#EBEBEB"/>
<path d="M34.6463 16.5278H23.9814V20.7841H34.2527M33.8684 25.1435H23.9814V29.3997H29.2295L28.7328 34.931L23.9814 36.206V40.6309L32.697 38.2122" fill="white"/>
<path d="M82.0925 44.1763L79 9.55518H112.993L109.897 44.1708L95.976 48.0215L82.0925 44.1763Z" fill="#1572B6"/>
<path d="M95.9966 45.079L107.246 41.9673L109.892 12.3867H95.9966V45.079Z" fill="#33A9DC"/>
<path d="M95.9966 24.9294H101.628L102.016 20.5814H95.9966V16.335H96.0117H106.668L106.566 17.4738L105.521 29.1759H95.9966V24.9294Z" fill="white"/>
<path d="M96.0226 35.9569L96.0033 35.9624L91.264 34.6848L90.961 31.2983H88.6575H86.6885L87.2847 37.9654L96.0019 40.3805L96.0226 40.375V35.9569Z" fill="#EBEBEB"/>
<path d="M101.266 28.9956L100.754 34.6818L96.0078 35.9594V40.3775L104.732 37.9651L104.797 37.248L105.536 28.9956H101.266Z" fill="white"/>
<path d="M96.0115 16.335V18.9727V20.5704V20.5814H85.7453H85.7315L85.6461 19.6266L85.452 17.4738L85.3501 16.335H96.0115Z" fill="#EBEBEB"/>
<path d="M95.9967 24.9292V27.5669V29.1646V29.1756H91.3303H91.3166L91.2312 28.2208L91.0384 26.0681L90.9365 24.9292H95.9967Z" fill="#EBEBEB"/>
<path d="M91.1173 0V2.19521H88.2137V4.27068H91.1173V6.34615H85.915V0H91.1173Z" fill="black"/>
<path d="M93.3756 2.19521V0H98.4569V2.19521H96.3599L98.4569 4.27068V6.34615H93.3756V4.27068H95.4727L93.3756 2.19521Z" fill="black"/>
<path d="M100.877 4.27068V6.34615H106.159V4.27068L104.062 2.19521H106.2V0H100.836V2.19521L102.933 4.27068H100.877Z" fill="black"/>
<path d="M57.6133 25.8828V19.291H62.0078V25.8828H68.582V30.2773H62.0078V36.8516H57.6133V30.2773H51.0215V25.8828H57.6133Z" fill="#1F2A3C"/>
</svg>
