<svg width="120" height="82" viewBox="0 0 120 82" fill="none" xmlns="http://www.w3.org/2000/svg">
<path d="M1.46777 64.0713H3.96387V68.9492H8.28809V64.0713H10.7754V77H8.28809V71.3311H3.96387V77H1.46777V64.0713ZM12.6341 64.0713H19.7796V66.4971H17.4241V77H14.928V66.4971H12.6341V64.0713ZM22.8952 64.0713H25.3034L28.2916 73.0889L31.3239 64.0713H33.6969L35.8766 77H33.5036L32.1149 68.835L29.3639 77H27.193L24.4772 68.835L23.0621 77H20.6627L22.8952 64.0713ZM38.0341 64.0713H40.4951V74.6533H44.081V77H38.0341V64.0713ZM47.6712 64.0713H53.7268V66.3389H49.5081L48.9807 68.6943C49.1272 68.6533 49.2708 68.624 49.4114 68.6064C49.552 68.583 49.6868 68.5713 49.8157 68.5713C50.9876 68.5713 51.9602 68.9727 52.7337 69.7754C53.513 70.5723 53.9026 71.5947 53.9026 72.8428C53.9026 74.1025 53.472 75.166 52.6106 76.0332C51.7552 76.8945 50.7122 77.3252 49.4817 77.3252C48.3802 77.3252 47.4339 77.0117 46.6429 76.3848C45.8518 75.7578 45.3333 74.8994 45.0872 73.8096H47.6712C47.8704 74.2139 48.1311 74.5215 48.4534 74.7324C48.7815 74.9375 49.1419 75.04 49.5345 75.04C50.0794 75.04 50.5423 74.8438 50.9231 74.4512C51.304 74.0586 51.4944 73.5547 51.4944 72.9395C51.4944 72.3418 51.3157 71.8525 50.9583 71.4717C50.6067 71.085 50.179 70.8916 49.6751 70.8916C49.4055 70.8916 49.1389 70.959 48.8753 71.0938C48.6175 71.2285 48.3626 71.4307 48.1106 71.7002L46.1067 71.252L47.6712 64.0713ZM64.4667 69.4414V66.1455H66.664V69.4414H69.9511V71.6387H66.664V74.9258H64.4667V71.6387H61.1708V69.4414H64.4667ZM89.7349 66.3477L88.0123 67.9912C86.8404 66.7549 85.522 66.1367 84.0572 66.1367C82.8209 66.1367 81.7779 66.5586 80.9283 67.4023C80.0845 68.2461 79.6627 69.2861 79.6627 70.5225C79.6627 71.3838 79.8502 72.1484 80.2252 72.8164C80.6002 73.4844 81.1304 74.0088 81.816 74.3896C82.5015 74.7705 83.2632 74.9609 84.1011 74.9609C84.816 74.9609 85.4693 74.8291 86.0611 74.5654C86.6529 74.2959 87.3033 73.8096 88.0123 73.1064L89.6822 74.8467C88.7271 75.7783 87.8248 76.4258 86.9752 76.7891C86.1255 77.1465 85.1558 77.3252 84.066 77.3252C82.0562 77.3252 80.4097 76.6895 79.1265 75.418C77.8492 74.1406 77.2105 72.5059 77.2105 70.5137C77.2105 69.2246 77.5005 68.0791 78.0806 67.0771C78.6666 66.0752 79.5015 65.2695 80.5855 64.6602C81.6754 64.0508 82.8472 63.7461 84.1011 63.7461C85.1675 63.7461 86.1929 63.9717 87.1773 64.4229C88.1675 64.874 89.0201 65.5156 89.7349 66.3477ZM98.8534 65.8291L97.0341 67.4375C96.3954 66.5469 95.745 66.1016 95.0829 66.1016C94.7606 66.1016 94.497 66.1895 94.2919 66.3652C94.0868 66.5352 93.9843 66.7285 93.9843 66.9453C93.9843 67.1621 94.0575 67.3672 94.204 67.5605C94.4032 67.8184 95.0038 68.3721 96.0057 69.2217C96.9432 70.0068 97.5116 70.502 97.7108 70.707C98.2089 71.2109 98.5604 71.6943 98.7655 72.1572C98.9764 72.6143 99.0819 73.1152 99.0819 73.6602C99.0819 74.7207 98.7157 75.5967 97.9833 76.2881C97.2509 76.9795 96.2958 77.3252 95.118 77.3252C94.1981 77.3252 93.3954 77.0996 92.7098 76.6484C92.0302 76.1973 91.4472 75.4883 90.9608 74.5215L93.0263 73.2734C93.6473 74.416 94.3622 74.9873 95.1708 74.9873C95.5927 74.9873 95.9472 74.8643 96.2343 74.6182C96.5214 74.3721 96.6649 74.0879 96.6649 73.7656C96.6649 73.4727 96.5565 73.1797 96.3397 72.8867C96.1229 72.5938 95.6454 72.1455 94.9071 71.542C93.5009 70.3936 92.5927 69.5088 92.1825 68.8877C91.7723 68.2607 91.5673 67.6367 91.5673 67.0156C91.5673 66.1191 91.9071 65.3516 92.5868 64.7129C93.2723 64.0684 94.1161 63.7461 95.118 63.7461C95.7626 63.7461 96.3749 63.8955 96.955 64.1943C97.5409 64.4932 98.1737 65.0381 98.8534 65.8291ZM108.403 65.8291L106.583 67.4375C105.945 66.5469 105.294 66.1016 104.632 66.1016C104.31 66.1016 104.046 66.1895 103.841 66.3652C103.636 66.5352 103.533 66.7285 103.533 66.9453C103.533 67.1621 103.607 67.3672 103.753 67.5605C103.952 67.8184 104.553 68.3721 105.555 69.2217C106.492 70.0068 107.061 70.502 107.26 70.707C107.758 71.2109 108.11 71.6943 108.315 72.1572C108.526 72.6143 108.631 73.1152 108.631 73.6602C108.631 74.7207 108.265 75.5967 107.532 76.2881C106.8 76.9795 105.845 77.3252 104.667 77.3252C103.747 77.3252 102.945 77.0996 102.259 76.6484C101.579 76.1973 100.996 75.4883 100.51 74.5215L102.575 73.2734C103.196 74.416 103.911 74.9873 104.72 74.9873C105.142 74.9873 105.496 74.8643 105.783 74.6182C106.071 74.3721 106.214 74.0879 106.214 73.7656C106.214 73.4727 106.106 73.1797 105.889 72.8867C105.672 72.5938 105.195 72.1455 104.456 71.542C103.05 70.3936 102.142 69.5088 101.732 68.8877C101.321 68.2607 101.116 67.6367 101.116 67.0156C101.116 66.1191 101.456 65.3516 102.136 64.7129C102.821 64.0684 103.665 63.7461 104.667 63.7461C105.312 63.7461 105.924 63.8955 106.504 64.1943C107.09 64.4932 107.723 65.0381 108.403 65.8291ZM113.118 67.2617H110.753C110.876 66.3066 111.219 65.5391 111.782 64.959C112.567 64.1504 113.554 63.7461 114.744 63.7461C115.804 63.7461 116.692 64.083 117.407 64.7568C118.127 65.4307 118.488 66.2305 118.488 67.1562C118.488 67.7305 118.33 68.2549 118.013 68.7295C117.703 69.2041 117.249 69.5879 116.651 69.8809C117.436 70.1152 118.048 70.5254 118.488 71.1113C118.933 71.6914 119.156 72.377 119.156 73.168C119.156 74.3281 118.728 75.3125 117.873 76.1211C117.017 76.9238 115.927 77.3252 114.603 77.3252C113.349 77.3252 112.327 76.9473 111.536 76.1914C110.745 75.4297 110.311 74.3955 110.235 73.0889H112.669C112.775 73.7568 113.006 74.2549 113.364 74.583C113.727 74.9053 114.184 75.0664 114.735 75.0664C115.309 75.0664 115.784 74.8818 116.159 74.5127C116.54 74.1436 116.73 73.6924 116.73 73.1592C116.73 72.5732 116.475 72.0781 115.965 71.6738C115.456 71.2695 114.72 71.0615 113.759 71.0498V68.9404C114.351 68.8936 114.791 68.8027 115.078 68.668C115.371 68.5273 115.596 68.3369 115.754 68.0967C115.918 67.8564 116.001 67.6016 116.001 67.332C116.001 66.9805 115.877 66.6904 115.631 66.4619C115.385 66.2275 115.063 66.1104 114.665 66.1104C114.313 66.1104 113.994 66.2188 113.707 66.4355C113.419 66.6465 113.223 66.9219 113.118 67.2617Z" fill="#1F2A3C"/>
<path d="M6.84424 0H9.51126V2.53386H11.9696V0H14.6366V7.66827H11.9696V5.11218H9.53446V7.66827H6.84424M18.1617 2.55609H15.8078V0H23.1943V2.55609H20.8287V7.66827H18.1617M24.3654 0H27.16L28.8762 2.70056L30.5924 0H33.3869V7.66827H30.7199V3.86747L28.853 6.62361L26.9861 3.86747V7.66827H24.3654M34.7089 0H37.3759V5.13441H41.1561V7.66827H34.7089" fill="black"/>
<path d="M6.82029 53.3554L3 11.396H45L41.1797 53.3327L23.9653 57.9999" fill="#E44D26"/>
<path d="M24 54.4316V14.8398H41.1681L37.892 50.6367" fill="#F16529"/>
<path d="M10.8027 19.9712H24.0001V25.1142H16.5679L17.0541 30.3817H24.0001V35.5134H12.2382M12.4698 38.0962H17.7487L18.1192 42.2083L24.0001 43.7489V49.1184L13.2107 46.1731" fill="#EBEBEB"/>
<path d="M37.1513 19.9712H23.9771V25.1142H36.665M36.1904 30.3817H23.9771V35.5247H30.46L29.8464 42.2083L23.9771 43.7489V49.0958L34.7433 46.1731" fill="white"/>
<path d="M78.8202 53.3797L75 11.5459H116.992L113.166 53.3731L95.9703 58.0261L78.8202 53.3797Z" fill="#1572B6"/>
<path d="M95.9956 54.4704L109.892 50.7105L113.161 14.9673H95.9956V54.4704Z" fill="#33A9DC"/>
<path d="M95.9956 30.1228H102.952L103.432 24.8689H95.9956V19.7378H96.0143H109.178L109.052 21.1139L107.761 35.2539H95.9956V30.1228Z" fill="white"/>
<path d="M96.0279 43.4479L96.0041 43.4546L90.1496 41.9108L89.7754 37.8188H86.9298H84.4976L85.234 45.8749L96.0024 48.7931L96.0279 48.7865V43.4479Z" fill="#EBEBEB"/>
<path d="M102.505 35.0366L101.872 41.9074L96.0093 43.4512V48.7898L106.786 45.8748L106.866 45.0083L107.779 35.0366H102.505Z" fill="white"/>
<path d="M96.0147 19.7378V22.925V24.8556V24.8689H83.3329H83.3159L83.2104 23.7152L82.9706 21.1139L82.8447 19.7378H96.0147Z" fill="#EBEBEB"/>
<path d="M95.9959 30.123V33.3103V35.2408V35.2541H90.2316H90.2146L90.1091 34.1004L89.871 31.4992L89.7451 30.123H95.9959Z" fill="#EBEBEB"/>
<path d="M89.9688 0V2.65255H86.382V5.16041H89.9688V7.66827H83.5425V0H89.9688Z" fill="black"/>
<path d="M92.7585 2.65255V0H99.0354V2.65255H96.4449L99.0354 5.16041V7.66827H92.7585V5.16041H95.349L92.7585 2.65255Z" fill="black"/>
<path d="M102.024 5.16041V7.66827H108.55V5.16041L105.96 2.65255H108.6V0H101.975V2.65255L104.565 5.16041H102.024Z" fill="black"/>
<path d="M57.6133 30.8828V24.291H62.0078V30.8828H68.582V35.2773H62.0078V41.8516H57.6133V35.2773H51.0215V30.8828H57.6133Z" fill="#1F2A3C"/>
</svg>
