<svg width="80" height="54" viewBox="0 0 80 54" fill="none" xmlns="http://www.w3.org/2000/svg">
<path d="M0.978516 42.3809H2.64258V45.6328H5.52539V42.3809H7.18359V51H5.52539V47.2207H2.64258V51H0.978516V42.3809ZM8.42273 42.3809H13.1864V43.998H11.6161V51H9.95203V43.998H8.42273V42.3809ZM15.2634 42.3809H16.8689L18.8611 48.3926L20.8826 42.3809H22.4646L23.9177 51H22.3357L21.4099 45.5566L19.5759 51H18.1287L16.3181 45.5566L15.3748 51H13.7752L15.2634 42.3809ZM25.3561 42.3809H26.9967V49.4355H29.3873V51H25.3561V42.3809ZM31.7808 42.3809H35.8179V43.8926H33.0054L32.6538 45.4629C32.7515 45.4355 32.8472 45.416 32.9409 45.4043C33.0347 45.3887 33.1245 45.3809 33.2105 45.3809C33.9917 45.3809 34.6402 45.6484 35.1558 46.1836C35.6753 46.7148 35.9351 47.3965 35.9351 48.2285C35.9351 49.0684 35.648 49.7773 35.0737 50.3555C34.5034 50.9297 33.8081 51.2168 32.9878 51.2168C32.2534 51.2168 31.6226 51.0078 31.0952 50.5898C30.5679 50.1719 30.2222 49.5996 30.0581 48.873H31.7808C31.9136 49.1426 32.0874 49.3477 32.3023 49.4883C32.521 49.625 32.7612 49.6934 33.023 49.6934C33.3862 49.6934 33.6948 49.5625 33.9487 49.3008C34.2027 49.0391 34.3296 48.7031 34.3296 48.293C34.3296 47.8945 34.2105 47.5684 33.9722 47.3145C33.7378 47.0566 33.4527 46.9277 33.1167 46.9277C32.937 46.9277 32.7593 46.9727 32.5835 47.0625C32.4116 47.1523 32.2417 47.2871 32.0737 47.4668L30.7378 47.168L31.7808 42.3809ZM42.9778 45.9609V43.7637H44.4427V45.9609H46.6341V47.4258H44.4427V49.6172H42.9778V47.4258H40.7805V45.9609H42.9778ZM59.8233 43.8984L58.6748 44.9941C57.8936 44.1699 57.0147 43.7578 56.0381 43.7578C55.2139 43.7578 54.5186 44.0391 53.9522 44.6016C53.3897 45.1641 53.1084 45.8574 53.1084 46.6816C53.1084 47.2559 53.2334 47.7656 53.4834 48.2109C53.7334 48.6562 54.087 49.0059 54.544 49.2598C55.001 49.5137 55.5088 49.6406 56.0674 49.6406C56.544 49.6406 56.9795 49.5527 57.3741 49.377C57.7686 49.1973 58.2022 48.873 58.6748 48.4043L59.7881 49.5645C59.1514 50.1855 58.5498 50.6172 57.9834 50.8594C57.417 51.0977 56.7705 51.2168 56.044 51.2168C54.7041 51.2168 53.6065 50.793 52.751 49.9453C51.8995 49.0938 51.4737 48.0039 51.4737 46.6758C51.4737 45.8164 51.667 45.0527 52.0537 44.3848C52.4444 43.7168 53.001 43.1797 53.7237 42.7734C54.4502 42.3672 55.2315 42.1641 56.0674 42.1641C56.7784 42.1641 57.462 42.3145 58.1182 42.6152C58.7784 42.916 59.3467 43.3438 59.8233 43.8984ZM65.9023 43.5527L64.6894 44.625C64.2636 44.0312 63.83 43.7344 63.3886 43.7344C63.1738 43.7344 62.998 43.793 62.8613 43.9102C62.7245 44.0234 62.6562 44.1523 62.6562 44.2969C62.6562 44.4414 62.705 44.5781 62.8027 44.707C62.9355 44.8789 63.3359 45.248 64.0038 45.8145C64.6288 46.3379 65.0077 46.668 65.1405 46.8047C65.4726 47.1406 65.707 47.4629 65.8437 47.7715C65.9843 48.0762 66.0546 48.4102 66.0546 48.7734C66.0546 49.4805 65.8105 50.0645 65.3222 50.5254C64.8339 50.9863 64.1972 51.2168 63.412 51.2168C62.7988 51.2168 62.2636 51.0664 61.8066 50.7656C61.3534 50.4648 60.9648 49.9922 60.6405 49.3477L62.0175 48.5156C62.4316 49.2773 62.9081 49.6582 63.4472 49.6582C63.7284 49.6582 63.9648 49.5762 64.1562 49.4121C64.3476 49.248 64.4433 49.0586 64.4433 48.8438C64.4433 48.6484 64.371 48.4531 64.2265 48.2578C64.082 48.0625 63.7636 47.7637 63.2714 47.3613C62.3339 46.5957 61.7284 46.0059 61.455 45.5918C61.1816 45.1738 61.0448 44.7578 61.0448 44.3438C61.0448 43.7461 61.2714 43.2344 61.7245 42.8086C62.1816 42.3789 62.7441 42.1641 63.412 42.1641C63.8417 42.1641 64.2499 42.2637 64.6366 42.4629C65.0273 42.6621 65.4491 43.0254 65.9023 43.5527ZM72.2684 43.5527L71.0555 44.625C70.6297 44.0312 70.1961 43.7344 69.7547 43.7344C69.5398 43.7344 69.3641 43.793 69.2273 43.9102C69.0906 44.0234 69.0223 44.1523 69.0223 44.2969C69.0223 44.4414 69.0711 44.5781 69.1687 44.707C69.3016 44.8789 69.702 45.248 70.3699 45.8145C70.9949 46.3379 71.3738 46.668 71.5066 46.8047C71.8387 47.1406 72.073 47.4629 72.2098 47.7715C72.3504 48.0762 72.4207 48.4102 72.4207 48.7734C72.4207 49.4805 72.1766 50.0645 71.6883 50.5254C71.2 50.9863 70.5633 51.2168 69.7781 51.2168C69.1648 51.2168 68.6297 51.0664 68.1727 50.7656C67.7195 50.4648 67.3309 49.9922 67.0066 49.3477L68.3836 48.5156C68.7977 49.2773 69.2742 49.6582 69.8133 49.6582C70.0945 49.6582 70.3309 49.5762 70.5223 49.4121C70.7137 49.248 70.8094 49.0586 70.8094 48.8438C70.8094 48.6484 70.7371 48.4531 70.5926 48.2578C70.448 48.0625 70.1297 47.7637 69.6375 47.3613C68.7 46.5957 68.0945 46.0059 67.8211 45.5918C67.5477 45.1738 67.4109 44.7578 67.4109 44.3438C67.4109 43.7461 67.6375 43.2344 68.0906 42.8086C68.5477 42.3789 69.1102 42.1641 69.7781 42.1641C70.2078 42.1641 70.616 42.2637 71.0027 42.4629C71.3934 42.6621 71.8152 43.0254 72.2684 43.5527ZM75.4118 44.5078H73.8356C73.9177 43.8711 74.1462 43.3594 74.5212 42.9727C75.0446 42.4336 75.7028 42.1641 76.4958 42.1641C77.2028 42.1641 77.7946 42.3887 78.2712 42.8379C78.7516 43.2871 78.9919 43.8203 78.9919 44.4375C78.9919 44.8203 78.8864 45.1699 78.6755 45.4863C78.4684 45.8027 78.1657 46.0586 77.7673 46.2539C78.2907 46.4102 78.6989 46.6836 78.9919 47.0742C79.2887 47.4609 79.4372 47.918 79.4372 48.4453C79.4372 49.2188 79.152 49.875 78.5817 50.4141C78.0114 50.9492 77.2848 51.2168 76.402 51.2168C75.5661 51.2168 74.8845 50.9648 74.3571 50.4609C73.8298 49.9531 73.5407 49.2637 73.4899 48.3926H75.113C75.1833 48.8379 75.3376 49.1699 75.5759 49.3887C75.818 49.6035 76.1227 49.7109 76.4899 49.7109C76.8727 49.7109 77.1891 49.5879 77.4391 49.3418C77.693 49.0957 77.82 48.7949 77.82 48.4395C77.82 48.0488 77.6501 47.7188 77.3102 47.4492C76.9704 47.1797 76.4802 47.041 75.8395 47.0332V45.627C76.2341 45.5957 76.527 45.5352 76.7184 45.4453C76.9137 45.3516 77.0641 45.2246 77.1696 45.0645C77.279 44.9043 77.3337 44.7344 77.3337 44.5547C77.3337 44.3203 77.2516 44.127 77.0876 43.9746C76.9235 43.8184 76.7087 43.7402 76.443 43.7402C76.2087 43.7402 75.9958 43.8125 75.8044 43.957C75.613 44.0977 75.4821 44.2812 75.4118 44.5078Z" fill="#1F2A3C"/>
<path d="M7.92188 0H9.25539V1.31062H10.4845V0H11.8181V3.96635H10.4845V2.64423H9.26698V3.96635H7.92188M13.5806 1.32212H12.4036V0H16.0969V1.32212H14.9141V3.96635H13.5806M16.6825 0H18.0798L18.9378 1.39684L19.7959 0H21.1932V3.96635H19.8597V2.00042L18.9263 3.426L17.9928 2.00042V3.96635H16.6825M21.8542 0H23.1877V2.65573H25.0778V3.96635H21.8542" fill="#1F2A3C"/>
<path d="M7.91014 27.5977L6 5.89453H27L25.0899 27.5859L16.4826 30" fill="url(#paint0_linear_2847_2587)"/>
<path d="M16.5 28.1543V7.67578H25.0841L23.446 26.1914" fill="url(#paint1_linear_2847_2587)"/>
<path d="M9.90137 10.3301H16.5V12.9902H12.7839L13.0271 15.7148H16.5V18.3691H10.6191M10.7349 19.7051H13.3744L13.5596 21.832L16.5 22.6289V25.4062L11.1053 23.8828" fill="#B0BFC6"/>
<path d="M23.0754 10.3301H16.4883V12.9902H22.8323M22.595 15.7148H16.4883V18.375H19.7297L19.423 21.832L16.4883 22.6289V25.3945L21.8714 23.8828" fill="white"/>
<path d="M53.9101 27.8545L52 6.21631H72.9958L71.0832 27.8511L62.4852 30.2578L53.9101 27.8545Z" fill="url(#paint2_linear_2847_2587)"/>
<path d="M62.498 28.4185L69.4462 26.4737L71.0808 7.98584H62.498V28.4185Z" fill="url(#paint3_linear_2847_2587)"/>
<path d="M62.498 15.8252H65.9764L66.2162 13.1076H62.498V10.4536H62.5074H69.089L69.0261 11.1654L68.3806 18.4792H62.498V15.8252Z" fill="white"/>
<path d="M62.5142 22.7173L62.5023 22.7207L59.5751 21.9222L59.388 19.8057H57.9652H56.749L57.1173 23.9726L62.5014 25.482L62.5142 25.4786V22.7173Z" fill="#B0BFC6"/>
<path d="M65.7527 18.3667L65.4364 21.9205L62.5049 22.7191V25.4804L67.8933 23.9727L67.9333 23.5245L68.39 18.3667H65.7527Z" fill="white"/>
<path d="M62.5074 10.4536V12.1022V13.1007V13.1076H56.1664H56.1579L56.1052 12.5109L55.9853 11.1654L55.9224 10.4536H62.5074Z" fill="#B0BFC6"/>
<path d="M62.4979 15.8252V17.4738V18.4723V18.4792H59.6158H59.6073L59.5546 17.8825L59.4355 16.537L59.3726 15.8252H62.4979Z" fill="#B0BFC6"/>
<path d="M59.4842 0V1.37201H57.6908V2.66918H59.4842V3.96635H56.271V0H59.4842Z" fill="#1F2A3C"/>
<path d="M60.879 1.37201V0H64.0174V1.37201H62.7222L64.0174 2.66918V3.96635H60.879V2.66918H62.1742L60.879 1.37201Z" fill="#1F2A3C"/>
<path d="M65.5119 2.66918V3.96635H68.7749V2.66918L67.4797 1.37201H68.7998V0H65.487V1.37201L66.7822 2.66918H65.5119Z" fill="#1F2A3C"/>
<path d="M37.7422 14.9219V10.5273H40.6719V14.9219H45.0547V17.8516H40.6719V22.2344H37.7422V17.8516H33.3477V14.9219H37.7422Z" fill="#1F2A3C"/>
<defs>
<linearGradient id="paint0_linear_2847_2587" x1="6" y1="5.89453" x2="27.577" y2="6.56859" gradientUnits="userSpaceOnUse">
<stop stop-color="#091C91"/>
<stop offset="1" stop-color="#24BCFF"/>
</linearGradient>
<linearGradient id="paint1_linear_2847_2587" x1="16.5" y1="7.67578" x2="25.3265" y2="7.80846" gradientUnits="userSpaceOnUse">
<stop stop-color="#091C91"/>
<stop offset="1" stop-color="#24BCFF"/>
</linearGradient>
<linearGradient id="paint2_linear_2847_2587" x1="52" y1="6.21631" x2="73.5726" y2="6.89189" gradientUnits="userSpaceOnUse">
<stop stop-color="#091C91"/>
<stop offset="1" stop-color="#24BCFF"/>
</linearGradient>
<linearGradient id="paint3_linear_2847_2587" x1="62.498" y1="7.98584" x2="71.3232" y2="8.11877" gradientUnits="userSpaceOnUse">
<stop stop-color="#091C91"/>
<stop offset="1" stop-color="#24BCFF"/>
</linearGradient>
</defs>
</svg>
