<svg width="62" height="59" viewBox="0 0 62 59" fill="none" xmlns="http://www.w3.org/2000/svg">
<path d="M0.978516 47.3809H2.71875C3.66016 47.3809 4.33789 47.4688 4.75195 47.6445C5.16992 47.8164 5.49805 48.0977 5.73633 48.4883C5.97852 48.875 6.09961 49.3398 6.09961 49.8828C6.09961 50.4844 5.94141 50.9844 5.625 51.3828C5.3125 51.7812 4.88672 52.0586 4.34766 52.2148C4.03125 52.3047 3.45508 52.3496 2.61914 52.3496V56H0.978516V47.3809ZM2.61914 50.75H3.14062C3.55078 50.75 3.83594 50.7207 3.99609 50.6621C4.15625 50.6035 4.28125 50.5078 4.37109 50.375C4.46484 50.2383 4.51172 50.0742 4.51172 49.8828C4.51172 49.5508 4.38281 49.3086 4.125 49.1562C3.9375 49.043 3.58984 48.9863 3.08203 48.9863H2.61914V50.75ZM7.66102 47.1641H9.24891V50.2695C9.56141 50 9.87586 49.7988 10.1923 49.666C10.5087 49.5293 10.829 49.4609 11.1532 49.4609C11.786 49.4609 12.3192 49.6797 12.7528 50.1172C13.1239 50.4961 13.3095 51.0527 13.3095 51.7871V56H11.7333V53.2051C11.7333 52.4668 11.6981 51.9668 11.6278 51.7051C11.5575 51.4434 11.4364 51.248 11.2645 51.1191C11.0966 50.9902 10.8876 50.9258 10.6376 50.9258C10.3134 50.9258 10.0341 51.0332 9.79969 51.248C9.56922 51.4629 9.40906 51.7559 9.31922 52.127C9.27234 52.3184 9.24891 52.7559 9.24891 53.4395V56H7.66102V47.1641ZM17.9763 49.4609C18.5779 49.4609 19.1423 49.6113 19.6697 49.9121C20.2009 50.2129 20.615 50.6211 20.9119 51.1367C21.2087 51.6523 21.3572 52.209 21.3572 52.8066C21.3572 53.4082 21.2068 53.9707 20.906 54.4941C20.6091 55.0176 20.2029 55.4277 19.6873 55.7246C19.1716 56.0176 18.6033 56.1641 17.9822 56.1641C17.0681 56.1641 16.2869 55.8398 15.6384 55.1914C14.9939 54.5391 14.6716 53.748 14.6716 52.8184C14.6716 51.8223 15.0369 50.9922 15.7673 50.3281C16.408 49.75 17.1443 49.4609 17.9763 49.4609ZM17.9998 50.9668C17.5037 50.9668 17.0896 51.1406 16.7576 51.4883C16.4295 51.832 16.2654 52.2734 16.2654 52.8125C16.2654 53.3672 16.4275 53.8164 16.7517 54.1602C17.0798 54.5039 17.4939 54.6758 17.9939 54.6758C18.4939 54.6758 18.9099 54.502 19.242 54.1543C19.574 53.8066 19.74 53.3594 19.74 52.8125C19.74 52.2656 19.5759 51.8223 19.2478 51.4824C18.9236 51.1387 18.5076 50.9668 17.9998 50.9668ZM22.983 47.2754H24.5768V49.625H25.526V51.002H24.5768V56H22.983V51.002H22.1627V49.625H22.983V47.2754ZM29.5015 49.4609C30.103 49.4609 30.6675 49.6113 31.1948 49.9121C31.7261 50.2129 32.1402 50.6211 32.437 51.1367C32.7339 51.6523 32.8823 52.209 32.8823 52.8066C32.8823 53.4082 32.732 53.9707 32.4312 54.4941C32.1343 55.0176 31.728 55.4277 31.2124 55.7246C30.6968 56.0176 30.1284 56.1641 29.5073 56.1641C28.5933 56.1641 27.812 55.8398 27.1636 55.1914C26.5191 54.5391 26.1968 53.748 26.1968 52.8184C26.1968 51.8223 26.562 50.9922 27.2925 50.3281C27.9331 49.75 28.6695 49.4609 29.5015 49.4609ZM29.5249 50.9668C29.0288 50.9668 28.6148 51.1406 28.2827 51.4883C27.9546 51.832 27.7905 52.2734 27.7905 52.8125C27.7905 53.3672 27.9527 53.8164 28.2769 54.1602C28.605 54.5039 29.0191 54.6758 29.5191 54.6758C30.0191 54.6758 30.4351 54.502 30.7671 54.1543C31.0991 53.8066 31.2652 53.3594 31.2652 52.8125C31.2652 52.2656 31.1011 51.8223 30.773 51.4824C30.4487 51.1387 30.0327 50.9668 29.5249 50.9668ZM38.2172 50.5156L37.227 51.5059C36.8246 51.1074 36.4594 50.9082 36.1312 50.9082C35.9516 50.9082 35.8109 50.9473 35.7094 51.0254C35.6078 51.0996 35.557 51.1934 35.557 51.3066C35.557 51.3926 35.5883 51.4727 35.6508 51.5469C35.7172 51.6172 35.8773 51.7148 36.1312 51.8398L36.7172 52.1328C37.3344 52.4375 37.7582 52.748 37.9887 53.0645C38.2191 53.3809 38.3344 53.752 38.3344 54.1777C38.3344 54.7441 38.1254 55.2168 37.7074 55.5957C37.2934 55.9746 36.7367 56.1641 36.0375 56.1641C35.1078 56.1641 34.3656 55.8008 33.8109 55.0742L34.7953 54.002C34.9828 54.2207 35.2016 54.3984 35.4516 54.5352C35.7055 54.668 35.9301 54.7344 36.1254 54.7344C36.3363 54.7344 36.5062 54.6836 36.6352 54.582C36.7641 54.4805 36.8285 54.3633 36.8285 54.2305C36.8285 53.9844 36.5961 53.7441 36.1312 53.5098L35.5922 53.2402C34.5609 52.7207 34.0453 52.0703 34.0453 51.2891C34.0453 50.7852 34.2387 50.3555 34.6254 50C35.016 49.6406 35.5141 49.4609 36.1195 49.4609C36.5336 49.4609 36.9223 49.5527 37.2855 49.7363C37.6527 49.916 37.9633 50.1758 38.2172 50.5156ZM39.7259 47.1641H41.3138V50.2695C41.6263 50 41.9407 49.7988 42.2571 49.666C42.5735 49.5293 42.8938 49.4609 43.218 49.4609C43.8509 49.4609 44.3841 49.6797 44.8177 50.1172C45.1888 50.4961 45.3743 51.0527 45.3743 51.7871V56H43.7981V53.2051C43.7981 52.4668 43.763 51.9668 43.6927 51.7051C43.6223 51.4434 43.5013 51.248 43.3294 51.1191C43.1614 50.9902 42.9524 50.9258 42.7024 50.9258C42.3782 50.9258 42.0989 51.0332 41.8645 51.248C41.6341 51.4629 41.4739 51.7559 41.3841 52.127C41.3372 52.3184 41.3138 52.7559 41.3138 53.4395V56H39.7259V47.1641ZM50.0412 49.4609C50.6427 49.4609 51.2072 49.6113 51.7345 49.9121C52.2658 50.2129 52.6798 50.6211 52.9767 51.1367C53.2736 51.6523 53.422 52.209 53.422 52.8066C53.422 53.4082 53.2716 53.9707 52.9709 54.4941C52.674 55.0176 52.2677 55.4277 51.7521 55.7246C51.2365 56.0176 50.6681 56.1641 50.047 56.1641C49.133 56.1641 48.3517 55.8398 47.7033 55.1914C47.0588 54.5391 46.7365 53.748 46.7365 52.8184C46.7365 51.8223 47.1017 50.9922 47.8322 50.3281C48.4728 49.75 49.2091 49.4609 50.0412 49.4609ZM50.0646 50.9668C49.5685 50.9668 49.1545 51.1406 48.8224 51.4883C48.4943 51.832 48.3302 52.2734 48.3302 52.8125C48.3302 53.3672 48.4923 53.8164 48.8166 54.1602C49.1447 54.5039 49.5588 54.6758 50.0588 54.6758C50.5588 54.6758 50.9748 54.502 51.3068 54.1543C51.6388 53.8066 51.8048 53.3594 51.8048 52.8125C51.8048 52.2656 51.6408 51.8223 51.3127 51.4824C50.9884 51.1387 50.5724 50.9668 50.0646 50.9668ZM56.4424 49.625V50.3281C56.7315 50.0391 57.044 49.8223 57.3799 49.6777C57.7159 49.5332 58.0752 49.4609 58.458 49.4609C59.2901 49.4609 59.9971 49.7754 60.5791 50.4043C61.1612 51.0332 61.4522 51.8398 61.4522 52.8242C61.4522 53.7734 61.1514 54.5684 60.5498 55.209C59.9483 55.8457 59.2354 56.1641 58.4112 56.1641C58.044 56.1641 57.7022 56.0996 57.3858 55.9707C57.0694 55.8379 56.7549 55.623 56.4424 55.3262V58.332H54.8545V49.625H56.4424ZM58.1241 50.9375C57.6202 50.9375 57.2022 51.1094 56.8702 51.4531C56.5381 51.7969 56.3721 52.2461 56.3721 52.8008C56.3721 53.3672 56.5381 53.8262 56.8702 54.1777C57.2022 54.5254 57.6202 54.6992 58.1241 54.6992C58.6123 54.6992 59.0225 54.5215 59.3545 54.166C59.6905 53.8105 59.8584 53.3574 59.8584 52.8066C59.8584 52.2598 59.6944 51.8125 59.3662 51.4648C59.0381 51.1133 58.6241 50.9375 58.1241 50.9375Z" fill="#1F2A3C"/>
<g clip-path="url(#clip0_2847_2556)">
<path d="M19.1979 0H41.8021C45.2292 0 48 2.84188 48 6.35684V28.6432C48 32.1581 45.2292 35 41.8021 35H19.1979C15.7708 35 13 32.1581 13 28.6432V6.35684C13 2.84188 15.7708 0 19.1979 0Z" fill="url(#paint0_linear_2847_2556)"/>
<path d="M20.875 24.5447V9.15369C20.875 9.04899 20.9188 8.98916 21.0208 8.98916C21.2688 8.98916 21.5021 8.98916 21.8375 8.9742C22.1875 8.95924 22.5521 8.95924 22.9458 8.94429C23.3396 8.92933 23.7625 8.92933 24.2146 8.91437C24.6667 8.89941 25.1042 8.89941 25.5417 8.89941C26.7375 8.89941 27.7292 9.04899 28.5458 9.36309C29.275 9.61736 29.9458 10.0362 30.5 10.5896C30.9667 11.0682 31.3313 11.6516 31.5646 12.2947C31.7833 12.9229 31.9 13.5661 31.9 14.2392C31.9 15.5255 31.6083 16.5874 31.025 17.4251C30.4417 18.2627 29.625 18.8909 28.6771 19.2498C27.6854 19.6238 26.5917 19.7584 25.3958 19.7584C25.0458 19.7584 24.8125 19.7584 24.6667 19.7434C24.5208 19.7285 24.3167 19.7285 24.0396 19.7285V24.5298C24.0542 24.6345 23.9813 24.7242 23.8792 24.7392C23.8646 24.7392 23.85 24.7392 23.8208 24.7392H21.05C20.9333 24.7392 20.875 24.6793 20.875 24.5447ZM24.0542 11.8759V16.9016C24.2583 16.9165 24.4479 16.9315 24.6229 16.9315H25.3958C25.9646 16.9315 26.5333 16.8417 27.0729 16.6622C27.5396 16.5276 27.9479 16.2434 28.2688 15.8695C28.575 15.4956 28.7208 14.987 28.7208 14.3289C28.7354 13.8652 28.6188 13.4016 28.3854 12.9977C28.1375 12.6088 27.7875 12.3097 27.3646 12.1451C26.825 11.9208 26.2417 11.831 25.6437 11.846C25.2646 11.846 24.9292 11.846 24.6521 11.861C24.3604 11.846 24.1563 11.861 24.0542 11.8759Z" fill="white"/>
<path d="M40.9999 15.9892C40.5624 15.7499 40.0958 15.5854 39.5999 15.4807C39.0604 15.361 38.5208 15.2862 37.9666 15.2862C37.6749 15.2713 37.3687 15.3162 37.0916 15.3909C36.902 15.4358 36.7416 15.5405 36.6395 15.6901C36.5666 15.8097 36.5229 15.9593 36.5229 16.0939C36.5229 16.2285 36.5812 16.3632 36.6687 16.4828C36.7999 16.6473 36.9749 16.782 37.1645 16.8867C37.4999 17.0662 37.8499 17.2307 38.1999 17.3803C38.9874 17.6495 39.7458 18.0234 40.4458 18.4721C40.927 18.7862 41.3208 19.205 41.5979 19.7136C41.8312 20.1922 41.9479 20.7157 41.9333 21.2542C41.9479 21.9572 41.7437 22.6602 41.3645 23.2435C40.9562 23.8418 40.3874 24.3055 39.7312 24.5747C39.0166 24.8888 38.1416 25.0533 37.0916 25.0533C36.4208 25.0533 35.7645 24.9935 35.1083 24.8589C34.5979 24.7691 34.0874 24.6046 33.6208 24.3803C33.5187 24.3204 33.4458 24.2157 33.4604 24.0961V21.4935C33.4604 21.4486 33.4749 21.3888 33.5187 21.3589C33.5624 21.329 33.6062 21.3439 33.6499 21.3738C34.2187 21.7179 34.8166 21.9572 35.4583 22.1067C36.0124 22.2563 36.5958 22.3311 37.1791 22.3311C37.7333 22.3311 38.127 22.2563 38.3895 22.1217C38.6229 22.017 38.7833 21.7627 38.7833 21.4935C38.7833 21.2841 38.6666 21.0897 38.4333 20.8952C38.1999 20.7008 37.7187 20.4764 37.0041 20.1922C36.2604 19.923 35.5749 19.564 34.9333 19.1153C34.4812 18.7862 34.102 18.3525 33.8249 17.8439C33.5916 17.3653 33.4749 16.8418 33.4895 16.3183C33.4895 15.6751 33.6645 15.0619 33.9854 14.5085C34.3499 13.9102 34.8895 13.4315 35.5166 13.1324C36.202 12.7734 37.0624 12.6089 38.0979 12.6089C38.6958 12.6089 39.3083 12.6538 39.9062 12.7435C40.3437 12.8033 40.7666 12.923 41.1604 13.0875C41.2187 13.1025 41.277 13.1623 41.3062 13.2221C41.3208 13.282 41.3354 13.3418 41.3354 13.4016V15.8397C41.3354 15.8995 41.3062 15.9593 41.2624 15.9892C41.1312 16.0191 41.0583 16.0191 40.9999 15.9892Z" fill="white"/>
</g>
<defs>
<linearGradient id="paint0_linear_2847_2556" x1="13" y1="0" x2="48.9505" y2="1.28916" gradientUnits="userSpaceOnUse">
<stop stop-color="#091C91"/>
<stop offset="1" stop-color="#24BCFF"/>
</linearGradient>
<clipPath id="clip0_2847_2556">
<rect width="35" height="35" fill="white" transform="translate(13)"/>
</clipPath>
</defs>
</svg>
