<svg width="93" height="82" viewBox="0 0 93 82" fill="none" xmlns="http://www.w3.org/2000/svg">
<path d="M1.46777 64.0713H4.07812C5.49023 64.0713 6.50684 64.2031 7.12793 64.4668C7.75488 64.7246 8.24707 65.1465 8.60449 65.7324C8.96777 66.3125 9.14941 67.0098 9.14941 67.8242C9.14941 68.7266 8.91211 69.4766 8.4375 70.0742C7.96875 70.6719 7.33008 71.0879 6.52148 71.3223C6.04688 71.457 5.18262 71.5244 3.92871 71.5244V77H1.46777V64.0713ZM3.92871 69.125H4.71094C5.32617 69.125 5.75391 69.0811 5.99414 68.9932C6.23438 68.9053 6.42188 68.7617 6.55664 68.5625C6.69727 68.3574 6.76758 68.1113 6.76758 67.8242C6.76758 67.3262 6.57422 66.9629 6.1875 66.7344C5.90625 66.5645 5.38477 66.4795 4.62305 66.4795H3.92871V69.125ZM11.4915 63.7461H13.8734V68.4043C14.3421 68 14.8138 67.6982 15.2884 67.499C15.763 67.2939 16.2435 67.1914 16.7298 67.1914C17.679 67.1914 18.4788 67.5195 19.1292 68.1758C19.6859 68.7441 19.9642 69.5791 19.9642 70.6807V77H17.5999V72.8076C17.5999 71.7002 17.5472 70.9502 17.4417 70.5576C17.3363 70.165 17.1546 69.8721 16.8968 69.6787C16.6448 69.4854 16.3314 69.3887 15.9564 69.3887C15.47 69.3887 15.0511 69.5498 14.6995 69.8721C14.3538 70.1943 14.1136 70.6338 13.9788 71.1904C13.9085 71.4775 13.8734 72.1338 13.8734 73.1592V77H11.4915V63.7461ZM26.9645 67.1914C27.8668 67.1914 28.7135 67.417 29.5045 67.8682C30.3014 68.3193 30.9225 68.9316 31.3678 69.7051C31.8131 70.4785 32.0358 71.3135 32.0358 72.21C32.0358 73.1123 31.8102 73.9561 31.359 74.7412C30.9137 75.5264 30.3043 76.1416 29.5309 76.5869C28.7575 77.0264 27.9049 77.2461 26.9733 77.2461C25.6022 77.2461 24.4303 76.7598 23.4577 75.7871C22.4909 74.8086 22.0075 73.6221 22.0075 72.2275C22.0075 70.7334 22.5553 69.4883 23.651 68.4922C24.612 67.625 25.7164 67.1914 26.9645 67.1914ZM26.9996 69.4502C26.2555 69.4502 25.6344 69.7109 25.1364 70.2324C24.6442 70.748 24.3981 71.4102 24.3981 72.2188C24.3981 73.0508 24.6413 73.7246 25.1276 74.2402C25.6198 74.7559 26.2409 75.0137 26.9909 75.0137C27.7409 75.0137 28.3649 74.7529 28.8629 74.2314C29.361 73.71 29.61 73.0391 29.61 72.2188C29.61 71.3984 29.3639 70.7334 28.8717 70.2236C28.3854 69.708 27.7614 69.4502 26.9996 69.4502ZM34.4746 63.9131H36.8652V67.4375H38.289V69.5029H36.8652V77H34.4746V69.5029H33.2441V67.4375H34.4746V63.9131ZM44.2522 67.1914C45.1546 67.1914 46.0013 67.417 46.7923 67.8682C47.5891 68.3193 48.2102 68.9316 48.6555 69.7051C49.1009 70.4785 49.3235 71.3135 49.3235 72.21C49.3235 73.1123 49.0979 73.9561 48.6468 74.7412C48.2014 75.5264 47.5921 76.1416 46.8186 76.5869C46.0452 77.0264 45.1927 77.2461 44.261 77.2461C42.8899 77.2461 41.718 76.7598 40.7454 75.7871C39.7786 74.8086 39.2952 73.6221 39.2952 72.2275C39.2952 70.7334 39.843 69.4883 40.9388 68.4922C41.8997 67.625 43.0042 67.1914 44.2522 67.1914ZM44.2874 69.4502C43.5432 69.4502 42.9221 69.7109 42.4241 70.2324C41.9319 70.748 41.6858 71.4102 41.6858 72.2188C41.6858 73.0508 41.929 73.7246 42.4153 74.2402C42.9075 74.7559 43.5286 75.0137 44.2786 75.0137C45.0286 75.0137 45.6526 74.7529 46.1507 74.2314C46.6487 73.71 46.8977 73.0391 46.8977 72.2188C46.8977 71.3984 46.6516 70.7334 46.1595 70.2236C45.6731 69.708 45.0491 69.4502 44.2874 69.4502ZM57.3258 68.7734L55.8404 70.2588C55.2369 69.6611 54.6891 69.3623 54.1969 69.3623C53.9273 69.3623 53.7164 69.4209 53.5641 69.5381C53.4117 69.6494 53.3355 69.79 53.3355 69.96C53.3355 70.0889 53.3824 70.209 53.4762 70.3203C53.5758 70.4258 53.816 70.5723 54.1969 70.7598L55.0758 71.1992C56.0016 71.6562 56.6373 72.1221 56.983 72.5967C57.3287 73.0713 57.5016 73.6279 57.5016 74.2666C57.5016 75.1162 57.1881 75.8252 56.5611 76.3936C55.94 76.9619 55.1051 77.2461 54.0563 77.2461C52.6617 77.2461 51.5484 76.7012 50.7164 75.6113L52.193 74.0029C52.4742 74.3311 52.8023 74.5977 53.1773 74.8027C53.5582 75.002 53.8951 75.1016 54.1881 75.1016C54.5045 75.1016 54.7594 75.0254 54.9527 74.873C55.1461 74.7207 55.2428 74.5449 55.2428 74.3457C55.2428 73.9766 54.8941 73.6162 54.1969 73.2646L53.3883 72.8604C51.8414 72.0811 51.068 71.1055 51.068 69.9336C51.068 69.1777 51.358 68.5332 51.9381 68C52.524 67.4609 53.2711 67.1914 54.1793 67.1914C54.8004 67.1914 55.3834 67.3291 55.9283 67.6045C56.4791 67.874 56.9449 68.2637 57.3258 68.7734ZM59.5888 63.7461H61.9706V68.4043C62.4394 68 62.9111 67.6982 63.3857 67.499C63.8603 67.2939 64.3407 67.1914 64.8271 67.1914C65.7763 67.1914 66.5761 67.5195 67.2265 68.1758C67.7831 68.7441 68.0614 69.5791 68.0614 70.6807V77H65.6972V72.8076C65.6972 71.7002 65.6445 70.9502 65.539 70.5576C65.4335 70.165 65.2519 69.8721 64.9941 69.6787C64.7421 69.4854 64.4286 69.3887 64.0536 69.3887C63.5673 69.3887 63.1484 69.5498 62.7968 69.8721C62.4511 70.1943 62.2109 70.6338 62.0761 71.1904C62.0058 71.4775 61.9706 72.1338 61.9706 73.1592V77H59.5888V63.7461ZM75.0618 67.1914C75.9641 67.1914 76.8108 67.417 77.6018 67.8682C78.3987 68.3193 79.0198 68.9316 79.4651 69.7051C79.9104 70.4785 80.133 71.3135 80.133 72.21C80.133 73.1123 79.9075 73.9561 79.4563 74.7412C79.011 75.5264 78.4016 76.1416 77.6282 76.5869C76.8547 77.0264 76.0022 77.2461 75.0705 77.2461C73.6995 77.2461 72.5276 76.7598 71.5549 75.7871C70.5881 74.8086 70.1047 73.6221 70.1047 72.2275C70.1047 70.7334 70.6526 69.4883 71.7483 68.4922C72.7092 67.625 73.8137 67.1914 75.0618 67.1914ZM75.0969 69.4502C74.3528 69.4502 73.7317 69.7109 73.2336 70.2324C72.7414 70.748 72.4954 71.4102 72.4954 72.2188C72.4954 73.0508 72.7385 73.7246 73.2248 74.2402C73.717 74.7559 74.3381 75.0137 75.0881 75.0137C75.8381 75.0137 76.4622 74.7529 76.9602 74.2314C77.4582 73.71 77.7073 73.0391 77.7073 72.2188C77.7073 71.3984 77.4612 70.7334 76.969 70.2236C76.4827 69.708 75.8586 69.4502 75.0969 69.4502ZM84.6636 67.4375V68.4922C85.0972 68.0586 85.566 67.7334 86.0699 67.5166C86.5738 67.2998 87.1129 67.1914 87.6871 67.1914C88.9351 67.1914 89.9957 67.6631 90.8687 68.6064C91.7418 69.5498 92.1783 70.7598 92.1783 72.2363C92.1783 73.6602 91.7271 74.8525 90.8248 75.8135C89.9224 76.7686 88.8531 77.2461 87.6168 77.2461C87.066 77.2461 86.5533 77.1494 86.0787 76.9561C85.6041 76.7568 85.1324 76.4346 84.6636 75.9893V80.498H82.2818V67.4375H84.6636ZM87.1861 69.4062C86.4302 69.4062 85.8033 69.6641 85.3052 70.1797C84.8072 70.6953 84.5582 71.3691 84.5582 72.2012C84.5582 73.0508 84.8072 73.7393 85.3052 74.2666C85.8033 74.7881 86.4302 75.0488 87.1861 75.0488C87.9185 75.0488 88.5338 74.7822 89.0318 74.249C89.5357 73.7158 89.7877 73.0361 89.7877 72.21C89.7877 71.3896 89.5416 70.7188 89.0494 70.1973C88.5572 69.6699 87.9361 69.4062 87.1861 69.4062Z" fill="#1F2A3C"/>
<g clip-path="url(#clip0_1949_92)">
<path d="M30.5 0H61.5C66.2 0 70 3.89744 70 8.71795V39.2821C70 44.1026 66.2 48 61.5 48H30.5C25.8 48 22 44.1026 22 39.2821V8.71795C22 3.89744 25.8 0 30.5 0Z" fill="#001E36"/>
<path d="M32.7998 33.6615V12.5538C32.7998 12.4102 32.8598 12.3282 32.9998 12.3282C33.3398 12.3282 33.6598 12.3282 34.1198 12.3076C34.5998 12.2871 35.0998 12.2871 35.6398 12.2666C36.1798 12.2461 36.7598 12.2461 37.3798 12.2256C37.9998 12.2051 38.5998 12.2051 39.1998 12.2051C40.8398 12.2051 42.1998 12.4102 43.3198 12.841C44.3198 13.1897 45.2398 13.7641 45.9998 14.523C46.6398 15.1794 47.1398 15.9794 47.4598 16.8615C47.7598 17.723 47.9198 18.6051 47.9198 19.5282C47.9198 21.2923 47.5198 22.7487 46.7198 23.8974C45.9198 25.0461 44.7998 25.9076 43.4998 26.3999C42.1398 26.9128 40.6398 27.0974 38.9998 27.0974C38.5198 27.0974 38.1998 27.0974 37.9998 27.0769C37.7998 27.0564 37.5198 27.0564 37.1398 27.0564V33.641C37.1598 33.7846 37.0598 33.9076 36.9198 33.9282C36.8998 33.9282 36.8798 33.9282 36.8398 33.9282H33.0398C32.8798 33.9282 32.7998 33.8461 32.7998 33.6615ZM37.1598 16.2871V23.1794C37.4398 23.2 37.6998 23.2205 37.9398 23.2205H38.9998C39.7798 23.2205 40.5598 23.0974 41.2998 22.8512C41.9398 22.6666 42.4998 22.2769 42.9398 21.7641C43.3598 21.2512 43.5598 20.5538 43.5598 19.6512C43.5798 19.0153 43.4198 18.3794 43.0998 17.8256C42.7598 17.2923 42.2798 16.882 41.6998 16.6564C40.9598 16.3487 40.1598 16.2256 39.3398 16.2461C38.8198 16.2461 38.3598 16.2461 37.9798 16.2666C37.5798 16.2461 37.2998 16.2666 37.1598 16.2871Z" fill="#31A8FF"/>
<path d="M60.3997 21.9284C59.7997 21.6002 59.1597 21.3745 58.4797 21.2309C57.7397 21.0668 56.9997 20.9643 56.2397 20.9643C55.8397 20.9438 55.4197 21.0053 55.0397 21.1079C54.7797 21.1694 54.5597 21.313 54.4197 21.5181C54.3197 21.6822 54.2597 21.8874 54.2597 22.072C54.2597 22.2566 54.3397 22.4412 54.4597 22.6053C54.6397 22.8309 54.8797 23.0156 55.1397 23.1591C55.5997 23.4053 56.0797 23.6309 56.5597 23.8361C57.6397 24.2053 58.6797 24.7181 59.6397 25.3335C60.2997 25.7643 60.8397 26.3386 61.2197 27.0361C61.5397 27.6925 61.6997 28.4104 61.6797 29.1489C61.6997 30.113 61.4197 31.0771 60.8997 31.8771C60.3397 32.6976 59.5597 33.3335 58.6597 33.7027C57.6797 34.1335 56.4797 34.3591 55.0397 34.3591C54.1197 34.3591 53.2197 34.2771 52.3197 34.0925C51.6197 33.9694 50.9197 33.7438 50.2797 33.4361C50.1397 33.354 50.0397 33.2104 50.0597 33.0463V29.4771C50.0597 29.4156 50.0797 29.3335 50.1397 29.2925C50.1997 29.2515 50.2597 29.272 50.3197 29.313C51.0997 29.7848 51.9197 30.113 52.7997 30.3181C53.5597 30.5232 54.3597 30.6258 55.1597 30.6258C55.9197 30.6258 56.4597 30.5232 56.8197 30.3386C57.1397 30.195 57.3597 29.8463 57.3597 29.4771C57.3597 29.1899 57.1997 28.9232 56.8797 28.6566C56.5597 28.3899 55.8997 28.0822 54.9197 27.6925C53.8997 27.3232 52.9597 26.8309 52.0797 26.2156C51.4597 25.7643 50.9397 25.1694 50.5597 24.472C50.2397 23.8156 50.0797 23.0976 50.0997 22.3797C50.0997 21.4976 50.3397 20.6566 50.7797 19.8976C51.2797 19.0771 52.0197 18.4207 52.8797 18.0104C53.8197 17.5181 54.9997 17.2925 56.4197 17.2925C57.2397 17.2925 58.0797 17.354 58.8997 17.4771C59.4997 17.5591 60.0797 17.7232 60.6197 17.9489C60.6997 17.9694 60.7797 18.0515 60.8197 18.1335C60.8397 18.2156 60.8597 18.2976 60.8597 18.3797V21.7232C60.8597 21.8053 60.8197 21.8874 60.7597 21.9284C60.5797 21.9694 60.4797 21.9694 60.3997 21.9284Z" fill="#31A8FF"/>
</g>
<defs>
<clipPath id="clip0_1949_92">
<rect width="48" height="48" fill="white" transform="translate(22)"/>
</clipPath>
</defs>
</svg>
