<svg width="93" height="87" viewBox="0 0 93 87" fill="none" xmlns="http://www.w3.org/2000/svg">
<path d="M1.46777 69.0713H4.07812C5.49023 69.0713 6.50684 69.2031 7.12793 69.4668C7.75488 69.7246 8.24707 70.1465 8.60449 70.7324C8.96777 71.3125 9.14941 72.0098 9.14941 72.8242C9.14941 73.7266 8.91211 74.4766 8.4375 75.0742C7.96875 75.6719 7.33008 76.0879 6.52148 76.3223C6.04688 76.457 5.18262 76.5244 3.92871 76.5244V82H1.46777V69.0713ZM3.92871 74.125H4.71094C5.32617 74.125 5.75391 74.0811 5.99414 73.9932C6.23438 73.9053 6.42188 73.7617 6.55664 73.5625C6.69727 73.3574 6.76758 73.1113 6.76758 72.8242C6.76758 72.3262 6.57422 71.9629 6.1875 71.7344C5.90625 71.5645 5.38477 71.4795 4.62305 71.4795H3.92871V74.125ZM11.4915 68.7461H13.8734V73.4043C14.3421 73 14.8138 72.6982 15.2884 72.499C15.763 72.2939 16.2435 72.1914 16.7298 72.1914C17.679 72.1914 18.4788 72.5195 19.1292 73.1758C19.6859 73.7441 19.9642 74.5791 19.9642 75.6807V82H17.5999V77.8076C17.5999 76.7002 17.5472 75.9502 17.4417 75.5576C17.3363 75.165 17.1546 74.8721 16.8968 74.6787C16.6448 74.4854 16.3314 74.3887 15.9564 74.3887C15.47 74.3887 15.0511 74.5498 14.6995 74.8721C14.3538 75.1943 14.1136 75.6338 13.9788 76.1904C13.9085 76.4775 13.8734 77.1338 13.8734 78.1592V82H11.4915V68.7461ZM26.9645 72.1914C27.8668 72.1914 28.7135 72.417 29.5045 72.8682C30.3014 73.3193 30.9225 73.9316 31.3678 74.7051C31.8131 75.4785 32.0358 76.3135 32.0358 77.21C32.0358 78.1123 31.8102 78.9561 31.359 79.7412C30.9137 80.5264 30.3043 81.1416 29.5309 81.5869C28.7575 82.0264 27.9049 82.2461 26.9733 82.2461C25.6022 82.2461 24.4303 81.7598 23.4577 80.7871C22.4909 79.8086 22.0075 78.6221 22.0075 77.2275C22.0075 75.7334 22.5553 74.4883 23.651 73.4922C24.612 72.625 25.7164 72.1914 26.9645 72.1914ZM26.9996 74.4502C26.2555 74.4502 25.6344 74.7109 25.1364 75.2324C24.6442 75.748 24.3981 76.4102 24.3981 77.2188C24.3981 78.0508 24.6413 78.7246 25.1276 79.2402C25.6198 79.7559 26.2409 80.0137 26.9909 80.0137C27.7409 80.0137 28.3649 79.7529 28.8629 79.2314C29.361 78.71 29.61 78.0391 29.61 77.2188C29.61 76.3984 29.3639 75.7334 28.8717 75.2236C28.3854 74.708 27.7614 74.4502 26.9996 74.4502ZM34.4746 68.9131H36.8652V72.4375H38.289V74.5029H36.8652V82H34.4746V74.5029H33.2441V72.4375H34.4746V68.9131ZM44.2522 72.1914C45.1546 72.1914 46.0013 72.417 46.7923 72.8682C47.5891 73.3193 48.2102 73.9316 48.6555 74.7051C49.1009 75.4785 49.3235 76.3135 49.3235 77.21C49.3235 78.1123 49.0979 78.9561 48.6468 79.7412C48.2014 80.5264 47.5921 81.1416 46.8186 81.5869C46.0452 82.0264 45.1927 82.2461 44.261 82.2461C42.8899 82.2461 41.718 81.7598 40.7454 80.7871C39.7786 79.8086 39.2952 78.6221 39.2952 77.2275C39.2952 75.7334 39.843 74.4883 40.9388 73.4922C41.8997 72.625 43.0042 72.1914 44.2522 72.1914ZM44.2874 74.4502C43.5432 74.4502 42.9221 74.7109 42.4241 75.2324C41.9319 75.748 41.6858 76.4102 41.6858 77.2188C41.6858 78.0508 41.929 78.7246 42.4153 79.2402C42.9075 79.7559 43.5286 80.0137 44.2786 80.0137C45.0286 80.0137 45.6526 79.7529 46.1507 79.2314C46.6487 78.71 46.8977 78.0391 46.8977 77.2188C46.8977 76.3984 46.6516 75.7334 46.1595 75.2236C45.6731 74.708 45.0491 74.4502 44.2874 74.4502ZM57.3258 73.7734L55.8404 75.2588C55.2369 74.6611 54.6891 74.3623 54.1969 74.3623C53.9273 74.3623 53.7164 74.4209 53.5641 74.5381C53.4117 74.6494 53.3355 74.79 53.3355 74.96C53.3355 75.0889 53.3824 75.209 53.4762 75.3203C53.5758 75.4258 53.816 75.5723 54.1969 75.7598L55.0758 76.1992C56.0016 76.6562 56.6373 77.1221 56.983 77.5967C57.3287 78.0713 57.5016 78.6279 57.5016 79.2666C57.5016 80.1162 57.1881 80.8252 56.5611 81.3936C55.94 81.9619 55.1051 82.2461 54.0563 82.2461C52.6617 82.2461 51.5484 81.7012 50.7164 80.6113L52.193 79.0029C52.4742 79.3311 52.8023 79.5977 53.1773 79.8027C53.5582 80.002 53.8951 80.1016 54.1881 80.1016C54.5045 80.1016 54.7594 80.0254 54.9527 79.873C55.1461 79.7207 55.2428 79.5449 55.2428 79.3457C55.2428 78.9766 54.8941 78.6162 54.1969 78.2646L53.3883 77.8604C51.8414 77.0811 51.068 76.1055 51.068 74.9336C51.068 74.1777 51.358 73.5332 51.9381 73C52.524 72.4609 53.2711 72.1914 54.1793 72.1914C54.8004 72.1914 55.3834 72.3291 55.9283 72.6045C56.4791 72.874 56.9449 73.2637 57.3258 73.7734ZM59.5888 68.7461H61.9706V73.4043C62.4394 73 62.9111 72.6982 63.3857 72.499C63.8603 72.2939 64.3407 72.1914 64.8271 72.1914C65.7763 72.1914 66.5761 72.5195 67.2265 73.1758C67.7831 73.7441 68.0614 74.5791 68.0614 75.6807V82H65.6972V77.8076C65.6972 76.7002 65.6445 75.9502 65.539 75.5576C65.4335 75.165 65.2519 74.8721 64.9941 74.6787C64.7421 74.4854 64.4286 74.3887 64.0536 74.3887C63.5673 74.3887 63.1484 74.5498 62.7968 74.8721C62.4511 75.1943 62.2109 75.6338 62.0761 76.1904C62.0058 76.4775 61.9706 77.1338 61.9706 78.1592V82H59.5888V68.7461ZM75.0618 72.1914C75.9641 72.1914 76.8108 72.417 77.6018 72.8682C78.3987 73.3193 79.0198 73.9316 79.4651 74.7051C79.9104 75.4785 80.133 76.3135 80.133 77.21C80.133 78.1123 79.9075 78.9561 79.4563 79.7412C79.011 80.5264 78.4016 81.1416 77.6282 81.5869C76.8547 82.0264 76.0022 82.2461 75.0705 82.2461C73.6995 82.2461 72.5276 81.7598 71.5549 80.7871C70.5881 79.8086 70.1047 78.6221 70.1047 77.2275C70.1047 75.7334 70.6526 74.4883 71.7483 73.4922C72.7092 72.625 73.8137 72.1914 75.0618 72.1914ZM75.0969 74.4502C74.3528 74.4502 73.7317 74.7109 73.2336 75.2324C72.7414 75.748 72.4954 76.4102 72.4954 77.2188C72.4954 78.0508 72.7385 78.7246 73.2248 79.2402C73.717 79.7559 74.3381 80.0137 75.0881 80.0137C75.8381 80.0137 76.4622 79.7529 76.9602 79.2314C77.4582 78.71 77.7073 78.0391 77.7073 77.2188C77.7073 76.3984 77.4612 75.7334 76.969 75.2236C76.4827 74.708 75.8586 74.4502 75.0969 74.4502ZM84.6636 72.4375V73.4922C85.0972 73.0586 85.566 72.7334 86.0699 72.5166C86.5738 72.2998 87.1129 72.1914 87.6871 72.1914C88.9351 72.1914 89.9957 72.6631 90.8687 73.6064C91.7418 74.5498 92.1783 75.7598 92.1783 77.2363C92.1783 78.6602 91.7271 79.8525 90.8248 80.8135C89.9224 81.7686 88.8531 82.2461 87.6168 82.2461C87.066 82.2461 86.5533 82.1494 86.0787 81.9561C85.6041 81.7568 85.1324 81.4346 84.6636 80.9893V85.498H82.2818V72.4375H84.6636ZM87.1861 74.4062C86.4302 74.4062 85.8033 74.6641 85.3052 75.1797C84.8072 75.6953 84.5582 76.3691 84.5582 77.2012C84.5582 78.0508 84.8072 78.7393 85.3052 79.2666C85.8033 79.7881 86.4302 80.0488 87.1861 80.0488C87.9185 80.0488 88.5338 79.7822 89.0318 79.249C89.5357 78.7158 89.7877 78.0361 89.7877 77.21C89.7877 76.3896 89.5416 75.7188 89.0494 75.1973C88.5572 74.6699 87.9361 74.4062 87.1861 74.4062Z" fill="#1F2A3C"/>
<g clip-path="url(#clip0_1949_174)">
<path d="M27.2708 0H64.7292C70.4083 0 75 4.7094 75 10.5342V47.4658C75 53.2906 70.4083 58 64.7292 58H27.2708C21.5917 58 17 53.2906 17 47.4658V10.5342C17 4.7094 21.5917 0 27.2708 0Z" fill="#001E36"/>
<path d="M30.0498 40.6745V15.1694C30.0498 14.9959 30.1223 14.8968 30.2915 14.8968C30.7023 14.8968 31.089 14.8968 31.6448 14.872C32.2248 14.8472 32.829 14.8472 33.4815 14.8224C34.134 14.7976 34.8348 14.7976 35.584 14.7728C36.3331 14.748 37.0581 14.748 37.7831 14.748C39.7648 14.748 41.4081 14.9959 42.7615 15.5164C43.9698 15.9378 45.0815 16.6318 45.9998 17.5489C46.7731 18.3421 47.3773 19.3087 47.764 20.3745C48.1265 21.4156 48.3198 22.4814 48.3198 23.5968C48.3198 25.7284 47.8365 27.4882 46.8698 28.8763C45.9031 30.2643 44.5498 31.3053 42.979 31.9002C41.3356 32.5198 39.5231 32.7429 37.5415 32.7429C36.9615 32.7429 36.5748 32.7429 36.3331 32.7181C36.0915 32.6933 35.7531 32.6933 35.294 32.6933V40.6498C35.3181 40.8233 35.1973 40.972 35.0281 40.9968C35.004 40.9968 34.9798 40.9968 34.9315 40.9968H30.3398C30.1465 40.9968 30.0498 40.8976 30.0498 40.6745ZM35.3181 19.6805V28.0087C35.6565 28.0335 35.9706 28.0583 36.2606 28.0583H37.5415C38.484 28.0583 39.4265 27.9096 40.3206 27.6122C41.094 27.3891 41.7706 26.9181 42.3023 26.2985C42.8098 25.6788 43.0515 24.8361 43.0515 23.7455C43.0756 22.9771 42.8823 22.2087 42.4956 21.5395C42.0848 20.8951 41.5048 20.3993 40.804 20.1267C39.9098 19.7549 38.9431 19.6062 37.9523 19.631C37.324 19.631 36.7681 19.631 36.309 19.6557C35.8256 19.631 35.4873 19.6557 35.3181 19.6805Z" fill="#31A8FF"/>
<path d="M63.3996 26.4967C62.6746 26.1001 61.9013 25.8275 61.0796 25.654C60.1854 25.4557 59.2913 25.3318 58.3729 25.3318C57.8896 25.307 57.3821 25.3813 56.9229 25.5053C56.6088 25.5796 56.3429 25.7531 56.1738 26.001C56.0529 26.1993 55.9804 26.4472 55.9804 26.6702C55.9804 26.8933 56.0771 27.1164 56.2221 27.3147C56.4396 27.5873 56.7296 27.8104 57.0438 27.9839C57.5996 28.2813 58.1796 28.554 58.7596 28.8019C60.0646 29.248 61.3213 29.8677 62.4813 30.6113C63.2788 31.1318 63.9313 31.8258 64.3904 32.6685C64.7771 33.4617 64.9704 34.3292 64.9463 35.2215C64.9704 36.3865 64.6321 37.5514 64.0038 38.5181C63.3271 39.5095 62.3846 40.2779 61.2971 40.7241C60.1129 41.2446 58.6629 41.5172 56.9229 41.5172C55.8113 41.5172 54.7238 41.4181 53.6363 41.195C52.7904 41.0463 51.9446 40.7737 51.1713 40.4019C51.0021 40.3027 50.8813 40.1292 50.9054 39.9309V35.6181C50.9054 35.5437 50.9296 35.4446 51.0021 35.395C51.0746 35.3454 51.1471 35.3702 51.2196 35.4198C52.1621 35.9899 53.1529 36.3865 54.2163 36.6343C55.1346 36.8822 56.1013 37.0061 57.0679 37.0061C57.9863 37.0061 58.6388 36.8822 59.0738 36.6591C59.4604 36.4856 59.7263 36.0642 59.7263 35.6181C59.7263 35.2711 59.5329 34.9489 59.1463 34.6266C58.7596 34.3044 57.9621 33.9326 56.7779 33.4617C55.5454 33.0155 54.4096 32.4207 53.3463 31.6771C52.5971 31.1318 51.9688 30.413 51.5096 29.5702C51.1229 28.7771 50.9296 27.9095 50.9538 27.042C50.9538 25.9762 51.2438 24.96 51.7754 24.0429C52.3796 23.0514 53.2738 22.2583 54.3129 21.7625C55.4488 21.1677 56.8746 20.895 58.5904 20.895C59.5813 20.895 60.5963 20.9694 61.5871 21.1181C62.3121 21.2172 63.0129 21.4155 63.6654 21.6882C63.7621 21.713 63.8588 21.8121 63.9071 21.9113C63.9313 22.0104 63.9554 22.1095 63.9554 22.2087V26.2489C63.9554 26.348 63.9071 26.4472 63.8346 26.4967C63.6171 26.5463 63.4963 26.5463 63.3996 26.4967Z" fill="#31A8FF"/>
</g>
<defs>
<clipPath id="clip0_1949_174">
<rect width="58" height="58" fill="white" transform="translate(17)"/>
</clipPath>
</defs>
</svg>
