<svg width="72" height="70" viewBox="0 0 72 70" fill="none" xmlns="http://www.w3.org/2000/svg">
<path fill-rule="evenodd" clip-rule="evenodd" d="M33.3932 0.110496C30.4598 0.382124 28.3643 0.749801 25.985 1.41011C21.2722 2.71815 16.7325 5.07627 12.8522 8.23199C11.831 9.06241 9.11494 11.7385 8.22977 12.7866C4.28645 17.4547 1.61039 23.138 0.554496 29.0864C0.342463 30.2807 0 33.9184 0 34.9759C0 36.9103 0.387025 40.2314 0.856101 42.3232C2.08868 47.8194 4.23291 52.2125 7.96689 56.8916C8.90482 58.0668 12.2444 61.3216 13.4502 62.2357C18.3186 65.9258 22.9207 68.0297 28.8472 69.2745C30.4899 69.6195 34.1988 70 35.9187 70C37.6329 70 41.3663 69.6189 42.9903 69.278C49.0152 68.0135 54.106 65.6455 58.7685 61.9388C59.9164 61.0261 62.7962 58.2039 63.7048 57.101C67.9485 51.9503 70.6483 45.8959 71.4407 39.7525C71.9588 35.7361 71.9588 34.2455 71.4404 30.2351C70.7575 24.952 68.4817 19.3018 65.2765 14.9324C63.8943 13.0482 63.0982 12.1407 61.2328 10.3226C58.3688 7.53132 55.8626 5.72192 52.4189 3.95913C48.9348 2.17566 44.5825 0.831957 40.8015 0.372606C37.5497 -0.0225289 35.5807 -0.0921042 33.3932 0.110496ZM15.7293 29.6932C16.202 29.8558 17.0372 30.3806 17.2837 30.67C17.4174 30.8272 17.3856 30.9001 17.032 31.2447L16.627 31.6394L16.2549 31.3633C15.5391 30.8321 14.9724 30.6179 14.2878 30.6197C13.1075 30.623 12.1542 31.42 12.2731 32.3041C12.3844 33.1321 12.9173 33.5402 14.6518 34.126C15.9804 34.5747 16.436 34.8161 17.0103 35.3758C18.3713 36.7022 17.9421 38.9834 16.1665 39.8603C15.4956 40.1917 14.3887 40.3864 13.7162 40.2912C12.5481 40.126 10.7756 39.2174 10.7756 38.7838C10.7756 38.7104 10.9195 38.4823 11.0953 38.2771L11.415 37.9039L12.1138 38.4159C12.943 39.0233 13.5062 39.1941 14.4421 39.1217C15.2792 39.0568 15.9913 38.7031 16.3655 38.1662C16.5877 37.8475 16.6242 37.6835 16.5832 37.1869C16.5383 36.6428 16.4891 36.5509 16.02 36.1371C15.6443 35.8055 15.1944 35.5712 14.3474 35.2657C12.8698 34.733 12.4502 34.5284 11.9397 34.0915C10.9362 33.2328 10.8157 31.6111 11.6795 30.5905C12.564 29.5456 14.2278 29.1769 15.7293 29.6932ZM28.377 29.8565C28.7215 30.1692 28.7075 30.7641 28.3472 31.1152C27.5358 31.9061 26.347 30.8044 27.0595 29.9217C27.3557 29.5546 28.0091 29.5223 28.377 29.8565ZM20.541 33.0506V36.3584L22.1541 34.7891C23.6798 33.3048 23.795 33.2166 24.2801 33.1634C24.5623 33.1324 24.9311 33.1408 25.0999 33.1822C25.3978 33.255 25.3574 33.3055 23.7343 34.89L22.0619 36.5227L23.7955 38.2097C24.749 39.1376 25.5475 39.9505 25.57 40.016C25.5966 40.0939 25.3616 40.1353 24.8934 40.1353H24.1759L22.4456 38.4397C21.494 37.5071 20.6761 36.7441 20.6281 36.7441C20.5802 36.7441 20.541 37.5098 20.541 38.4454V40.1468L19.9763 40.1137L19.4115 40.0806L19.4067 35.0485C19.404 32.2808 19.4057 29.9548 19.4102 29.8795C19.4158 29.7895 19.6101 29.7428 19.9798 29.7428H20.541V33.0506ZM31.7656 34.9451V40.1474L31.2325 40.114L30.6993 40.0806L30.67 35.0485C30.654 32.2808 30.665 29.9548 30.6946 29.8795C30.7267 29.7979 30.9537 29.7428 31.2571 29.7428H31.7656V34.9451ZM35.3014 34.9391V40.0806H34.7623H34.2232L34.2251 34.9938C34.2262 32.196 34.2289 29.8673 34.231 29.8188C34.2333 29.7705 34.4749 29.7459 34.7682 29.7641L35.3014 29.7975V34.9391ZM38.8371 31.5059V33.2689L39.1458 33.1929C39.3155 33.151 39.815 33.091 40.2557 33.0593C41.9723 32.9364 43.4681 33.7455 44.1351 35.1579C44.5047 35.9407 44.5034 37.4491 44.1325 38.1873C43.759 38.9304 43.077 39.5601 42.2224 39.9512C41.5179 40.2736 41.4039 40.2924 40.2402 40.2794C39.3699 40.2696 38.8233 40.2059 38.3882 40.0637L37.7708 39.8619L37.7416 34.8023L37.7124 29.7428H38.2748H38.8371V31.5059ZM51.1537 33.2472C52.005 33.6256 52.6894 34.283 53.0781 35.0957C53.4719 35.9189 53.4944 37.4 53.1251 38.19C52.7881 38.9107 51.9451 39.7492 51.1982 40.1067C50.6422 40.3727 50.4396 40.4086 49.5005 40.4073C48.5892 40.406 48.3544 40.3663 47.8853 40.1341C47.0244 39.708 46.405 39.1072 45.9998 38.3052C45.6856 37.6833 45.6334 37.4631 45.6311 36.7521C45.6274 35.6567 45.9131 34.9099 46.6279 34.1463C47.8304 32.8618 49.5279 32.5245 51.1537 33.2472ZM27.9368 33.2028L28.2892 33.2715L28.2595 36.676L28.2299 40.0806H27.6791H27.1284L27.154 36.691C27.1825 32.9095 27.151 33.0496 27.9368 33.2028ZM56.1657 34.2007C56.6241 34.7272 57.0955 35.2748 57.2134 35.4178L57.4276 35.6776L58.4684 34.4606L59.5094 33.2435H60.2295C60.6256 33.2435 60.9496 33.2698 60.9496 33.302C60.9496 33.3342 60.3435 34.0669 59.6027 34.9302C58.8619 35.7934 58.2557 36.53 58.2557 36.567C58.2557 36.6277 60.1912 38.9158 60.8093 39.5858C61.2188 40.0298 61.1406 40.1353 60.4022 40.1353H59.7425L58.6449 38.85C58.0412 38.143 57.5126 37.5508 57.4703 37.5339C57.4281 37.5171 57.089 37.8617 56.7169 38.2997C56.3447 38.7377 55.858 39.293 55.6352 39.5337C55.4125 39.7743 55.2291 40.0081 55.2277 40.0533C55.2242 40.1635 53.7659 40.1591 53.7659 40.0489C53.7659 39.9743 54.3635 39.2541 56.2397 37.0678L56.666 36.5709L55.3273 35.0048C54.591 34.1434 53.9608 33.3947 53.9267 33.341C53.8927 33.2873 54.195 33.2435 54.5985 33.2435H55.3322L56.1657 34.2007ZM48.8832 34.0529C47.8699 34.3652 47.4175 34.7306 47.0405 35.5407C46.7828 36.0947 46.7413 36.8893 46.9369 37.5254C47.2553 38.5611 48.5724 39.4354 49.6794 39.3459C51.4399 39.2036 52.6566 37.5339 52.1999 35.887C52.0028 35.1765 51.0805 34.2992 50.2939 34.0742C49.5815 33.8704 49.48 33.8689 48.8832 34.0529ZM39.928 34.2339C39.6944 34.2898 39.3535 34.411 39.1703 34.5034L38.8371 34.6712V36.743C38.8371 39.2218 38.7527 39.0961 40.4173 39.0961C41.418 39.0961 41.5306 39.0731 42.0414 38.7653C42.3434 38.5834 42.7415 38.2251 42.926 37.9691C43.2229 37.5576 43.262 37.4123 43.2639 36.7137C43.2664 35.8511 43.1031 35.4326 42.5683 34.9311C41.9352 34.3374 40.7756 34.0313 39.928 34.2339Z" fill="#3D3BFF"/>
</svg>
