<svg width="40" height="40" viewBox="0 0 40 40" fill="none" xmlns="http://www.w3.org/2000/svg">
<path fill-rule="evenodd" clip-rule="evenodd" d="M18.5959 0.0631404C16.9623 0.218356 15.7954 0.428458 14.4704 0.805777C11.846 1.55323 9.31794 2.90073 7.15707 4.704C6.58838 5.17852 5.07589 6.70774 4.58296 7.3066C2.38702 9.97409 0.89679 13.2217 0.308785 16.6208C0.190709 17.3033 0 19.382 0 19.9863C0 21.0916 0.215525 22.9894 0.476742 24.1847C1.16313 27.3254 2.35721 29.8357 4.43657 32.5095C4.95888 33.1811 6.81859 35.0409 7.49011 35.5632C10.2012 37.6719 12.764 38.8741 16.0643 39.5854C16.9791 39.7826 19.0445 40 20.0023 40C20.9568 40 23.0359 39.7822 23.9402 39.5874C27.2954 38.8649 30.1303 37.5117 32.7268 35.3936C33.366 34.8721 34.9697 33.2594 35.4757 32.6291C37.8389 29.6859 39.3423 26.2262 39.7836 22.7157C40.0722 20.4206 40.0722 19.5689 39.7834 17.2772C39.4031 14.2583 38.1358 11.0296 36.3509 8.53283C35.5812 7.45613 35.1379 6.93753 34.0991 5.89865C32.5042 4.30361 31.1086 3.26967 29.1908 2.26236C27.2506 1.24323 24.8269 0.475404 22.7214 0.212918C20.9105 -0.0128737 19.814 -0.052631 18.5959 0.0631404ZM8.75925 16.9676C9.02253 17.0605 9.48759 17.3603 9.62485 17.5257C9.69936 17.6156 9.68161 17.6572 9.48471 17.8541L9.25919 18.0797L9.05198 17.9219C8.65337 17.6183 8.33777 17.4959 7.95654 17.497C7.29927 17.4989 6.7684 17.9543 6.8346 18.4595C6.8966 18.9326 7.19333 19.1658 8.15925 19.5006C8.89908 19.757 9.1528 19.8949 9.47265 20.2147C10.2305 20.9727 9.99152 22.2762 9.00272 22.7773C8.62911 22.9667 8.01273 23.0779 7.63825 23.0236C6.98774 22.9292 6.00069 22.4099 6.00069 22.1622C6.00069 22.1202 6.08082 21.9899 6.17871 21.8726L6.35673 21.6594L6.7459 21.9519C7.20764 22.2991 7.5213 22.3966 8.04248 22.3553C8.5086 22.3182 8.90515 22.1161 9.11355 21.8093C9.23731 21.6271 9.25762 21.5334 9.23481 21.2497C9.20981 20.9387 9.18237 20.8862 8.92115 20.6497C8.71194 20.4603 8.46141 20.3264 7.98973 20.1518C7.16688 19.8474 6.93323 19.7305 6.64895 19.4808C6.09014 18.9902 6.023 18.0635 6.50406 17.4803C6.99661 16.8832 7.9231 16.6725 8.75925 16.9676ZM15.8025 17.0608C15.9943 17.2396 15.9865 17.5795 15.7859 17.7801C15.334 18.2321 14.672 17.6025 15.0688 17.0981C15.2337 16.8884 15.5976 16.8699 15.8025 17.0608ZM11.4388 18.886V20.7762L12.3371 19.8795C13.1867 19.0313 13.2509 18.9809 13.521 18.9505C13.6781 18.9328 13.8835 18.9376 13.9775 18.9613C14.1434 19.0029 14.1209 19.0317 13.2171 19.9371L12.2857 20.8701L13.2511 21.8341C13.7821 22.3643 14.2268 22.8288 14.2393 22.8663C14.2541 22.9108 14.1232 22.9345 13.8625 22.9345H13.463L12.4994 21.9656C11.9695 21.4326 11.514 20.9966 11.4873 20.9966C11.4606 20.9966 11.4388 21.4341 11.4388 21.9688V22.941L11.1243 22.9221L10.8098 22.9032L10.8071 20.0277C10.8056 18.4462 10.8066 17.117 10.8091 17.074C10.8122 17.0226 10.9204 16.9959 11.1263 16.9959H11.4388V18.886ZM17.6895 19.9686V22.9414L17.3926 22.9223L17.0957 22.9032L17.0794 20.0277C17.0705 18.4462 17.0766 17.117 17.0931 17.074C17.111 17.0274 17.2374 16.9959 17.4063 16.9959H17.6895V19.9686ZM19.6585 19.9652V22.9032H19.3583H19.0581L19.0591 19.9964C19.0597 18.3977 19.0612 17.067 19.0624 17.0393C19.0637 17.0117 19.1983 16.9976 19.3616 17.0081L19.6585 17.0271V19.9652ZM21.6275 18.0034V19.0108L21.7994 18.9674C21.8939 18.9434 22.172 18.9091 22.4174 18.891C23.3734 18.8208 24.2063 19.2831 24.5778 20.0902C24.7836 20.5375 24.7829 21.3995 24.5763 21.8213C24.3684 22.2459 23.9886 22.6058 23.5126 22.8293C23.1203 23.0135 23.0568 23.0242 22.4088 23.0168C21.9241 23.0112 21.6198 22.9748 21.3775 22.8935L21.0337 22.7782L21.0174 19.887L21.0012 16.9959H21.3143H21.6275V18.0034ZM28.4863 18.9984C28.9603 19.2146 29.3415 19.5903 29.558 20.0547C29.7772 20.5251 29.7897 21.3714 29.5841 21.8228C29.3964 22.2347 28.927 22.7138 28.5111 22.9181C28.2014 23.0701 28.0886 23.0906 27.5657 23.0899C27.0582 23.0891 26.9274 23.0664 26.6662 22.9338C26.1868 22.6903 25.8418 22.347 25.6162 21.8887C25.4412 21.5333 25.4122 21.4075 25.4109 21.0012C25.4088 20.3753 25.5679 19.9485 25.966 19.5122C26.6356 18.7782 27.5809 18.5854 28.4863 18.9984ZM15.5573 18.973L15.7536 19.0123L15.7371 20.9577L15.7206 22.9032H15.4138H15.1072L15.1214 20.9663C15.1373 18.8054 15.1197 18.8855 15.5573 18.973ZM31.2773 19.5432C31.5326 19.8441 31.7951 20.157 31.8608 20.2387L31.98 20.3872L32.5597 19.6918L33.1394 18.9963H33.5403C33.7609 18.9963 33.9414 19.0113 33.9414 19.0297C33.9414 19.0481 33.6039 19.4668 33.1913 19.9601C32.7788 20.4534 32.4412 20.8743 32.4412 20.8954C32.4412 20.9301 33.519 22.2376 33.8633 22.6205C34.0913 22.8742 34.0477 22.9345 33.6365 22.9345H33.2692L32.6579 22.2C32.3218 21.796 32.0274 21.4576 32.0039 21.448C31.9804 21.4383 31.7915 21.6352 31.5843 21.8855C31.377 22.1358 31.106 22.4531 30.9819 22.5907C30.8579 22.7282 30.7558 22.8618 30.755 22.8876C30.753 22.9505 29.9409 22.948 29.9409 22.8851C29.9409 22.8425 30.2737 22.4309 31.3185 21.1816L31.5559 20.8977L30.8105 20.0028C30.4004 19.5105 30.0495 19.0827 30.0305 19.052C30.0116 19.0213 30.1799 18.9963 30.4046 18.9963H30.8132L31.2773 19.5432ZM27.2219 19.4588C26.6576 19.6372 26.4057 19.846 26.1958 20.309C26.0522 20.6256 26.0291 21.0796 26.1381 21.4431C26.3153 22.0349 27.0488 22.5345 27.6653 22.4834C28.6457 22.4021 29.3232 21.448 29.0689 20.5068C28.9591 20.1008 28.4455 19.5996 28.0075 19.471C27.6107 19.3545 27.5542 19.3536 27.2219 19.4588ZM22.2349 19.5622C22.1048 19.5942 21.915 19.6634 21.813 19.7162L21.6275 19.8121V20.996C21.6275 22.4124 21.5805 22.3406 22.5075 22.3406C23.0647 22.3406 23.1274 22.3275 23.4119 22.1516C23.58 22.0476 23.8017 21.8429 23.9045 21.6966C24.0698 21.4615 24.0916 21.3784 24.0926 20.9792C24.094 20.4863 24.0031 20.2472 23.7053 19.9606C23.3527 19.6214 22.707 19.4465 22.2349 19.5622Z" fill="url(#paint0_linear_2847_2520)"/>
<defs>
<linearGradient id="paint0_linear_2847_2520" x1="0" y1="0" x2="41.0862" y2="1.47333" gradientUnits="userSpaceOnUse">
<stop stop-color="#091C91"/>
<stop offset="1" stop-color="#24BCFF"/>
</linearGradient>
</defs>
</svg>
