<svg width="40" height="40" viewBox="0 0 40 40" fill="none" xmlns="http://www.w3.org/2000/svg">
<path d="M1.64082 19.5248C1.64082 30.3081 10.2278 39.0496 20.8204 39.0496C31.413 39.0496 40 30.3081 40 19.5248C40 8.74155 31.413 0 20.8204 0C10.2278 0 1.64082 8.74155 1.64082 19.5248Z" fill="url(#paint0_linear_2847_2499)"/>
<path d="M5.13875 26.8985C0.437711 31.4713 0 39.9943 0 39.9943C0 39.9943 8.37829 39.9364 13.0849 35.3638C17.7916 30.7912 19.8226 25.1894 17.6259 22.855C15.4293 20.5149 9.83977 22.3256 5.13875 26.8985Z" fill="url(#paint1_linear_2847_2499)"/>
<g opacity="0.2">
<path opacity="0.2" d="M14.9977 22.9772C15.8013 22.9957 16.409 23.2215 16.81 23.643C18.3202 25.2518 16.8397 30.1223 12.3052 34.5386C9.02936 37.7251 3.67524 38.5627 1.25284 38.7813C1.5775 36.3279 2.64276 30.9212 5.91292 27.7347C8.9417 24.7829 12.5084 22.9195 14.9977 22.9772ZM15.0233 21.8331C12.3204 21.7706 8.50085 23.628 5.13874 26.904C0.437711 31.4768 0 40 0 40C0 40 8.37829 39.9421 13.0849 35.3694C17.7916 30.7968 19.8225 25.1949 17.6259 22.8605C17 22.1822 16.1022 21.858 15.0233 21.8331Z" fill="url(#paint2_linear_2847_2499)"/>
</g>
<path d="M6.49565 28.5785C3.53595 31.4574 3.25879 36.8194 3.25879 36.8194C3.25879 36.8194 8.53321 36.7812 11.4929 33.9022C14.4526 31.0233 15.7345 27.4931 14.3505 26.0246C12.9666 24.556 9.46109 25.6939 6.49565 28.5785Z" fill="url(#paint3_linear_2847_2499)"/>
<path d="M12.198 32.8993L7.44713 27.8241L3.5332 28.9928C3.21148 29.089 2.87792 29.1377 2.54265 29.1377H2.28565C1.4287 29.0174 0.980629 28.7657 0.600082 28.0346C0.410597 27.6706 0.350098 27.2545 0.350098 26.8426C0.350098 26.3871 0.442401 25.9342 0.621981 25.517C4.2217 17.1572 6.70904 13.4781 13.6057 14.927C20.365 7.08943 24.7248 5.06058 33.1128 3.87701L34.6503 3.74347C34.9695 3.71574 35.2945 3.72192 35.6014 3.81514C36.2465 4.01097 36.5454 4.3152 36.7175 4.87117C36.8187 5.19863 36.8323 5.54616 36.8323 5.88947V6.01192C36.8323 6.66001 36.7832 7.30934 36.6691 7.94693C35.2267 16.0045 32.5233 20.2389 25.1604 26.7493C26.3469 33.7408 23.207 36.3794 14.2382 39.6763C13.8613 39.8148 13.4595 39.8853 13.0588 39.8853H12.9633C12.7274 39.8853 12.4901 39.8678 12.2641 39.7993C11.6298 39.607 11.2616 39.2586 10.9161 38.3377C10.8268 38.0995 10.7904 37.8447 10.7904 37.5896C10.7904 37.3305 10.8314 37.0731 10.9119 36.8272L12.198 32.8993Z" fill="url(#paint4_linear_2847_2499)"/>
<path d="M10.5558 29.0187L8.03369 26.3915L14.0279 16.7445C14.1372 16.5684 14.2639 16.3995 14.4022 16.2458C21.9614 7.84247 26.86 5.25825 34.8471 5.19581C34.9518 5.195 35.0531 5.24235 35.1202 5.32435L35.3074 5.55313L10.5558 29.0187Z" fill="white"/>
<path d="M35.3078 5.55273L10.5562 29.0183L13.6647 32.2426L23.3642 26.1663C23.506 26.0774 23.6435 25.9769 23.7712 25.8681C31.8746 18.9629 34.8254 13.3704 35.3607 5.69725C35.3643 5.64374 35.3451 5.59067 35.3078 5.55273Z" fill="url(#paint5_linear_2847_2499)"/>
<path d="M21.5244 20.7787C22.5934 20.7787 23.46 19.8965 23.46 18.8083C23.46 17.7201 22.5934 16.8379 21.5244 16.8379C20.4554 16.8379 19.5889 17.7201 19.5889 18.8083C19.5889 19.8965 20.4554 20.7787 21.5244 20.7787Z" fill="url(#paint6_linear_2847_2499)"/>
<path d="M25.5127 16.7184C26.3225 16.7184 26.979 16.05 26.979 15.2256C26.979 14.4012 26.3225 13.7329 25.5127 13.7329C24.7029 13.7329 24.0464 14.4012 24.0464 15.2256C24.0464 16.05 24.7029 16.7184 25.5127 16.7184Z" fill="url(#paint7_linear_2847_2499)"/>
<path d="M28.9146 12.8973C29.4653 12.8973 29.9117 12.4428 29.9117 11.8822C29.9117 11.3216 29.4653 10.8672 28.9146 10.8672C28.3639 10.8672 27.9175 11.3216 27.9175 11.8822C27.9175 12.4428 28.3639 12.8973 28.9146 12.8973Z" fill="url(#paint8_linear_2847_2499)"/>
<path d="M23.6939 26.5103L13.9712 32.5555C13.9245 32.5847 13.8892 32.6295 13.8715 32.6821L12.3152 37.3176C12.1658 37.8547 12.2727 38.0692 12.7258 38.3326C12.9766 38.4366 13.1345 38.4206 13.4296 38.3326C21.0564 34.7581 25.0399 32.6697 23.6939 26.5103Z" fill="url(#paint9_linear_2847_2499)" stroke="url(#paint10_linear_2847_2499)"/>
<path d="M13.7351 16.3333L7.54769 26.0717C7.51795 26.1185 7.47307 26.1533 7.42081 26.17L2.82875 27.6341C2.29745 27.7724 2.08962 27.658 1.84257 27.1901C1.74688 26.9321 1.76667 26.772 1.86073 26.4738C5.56768 18.8047 7.72121 14.8047 13.7351 16.3333Z" fill="url(#paint11_linear_2847_2499)" stroke="url(#paint12_linear_2847_2499)"/>
<defs>
<linearGradient id="paint0_linear_2847_2499" x1="40" y1="0" x2="38.5359" y2="40.1082" gradientUnits="userSpaceOnUse">
<stop stop-color="#091C91"/>
<stop offset="1" stop-color="#24BCFF"/>
</linearGradient>
<linearGradient id="paint1_linear_2847_2499" x1="0" y1="21.832" x2="19.0131" y2="22.5269" gradientUnits="userSpaceOnUse">
<stop stop-color="#091C91"/>
<stop offset="1" stop-color="#24BCFF"/>
</linearGradient>
<linearGradient id="paint2_linear_2847_2499" x1="0" y1="21.8315" x2="19.013" y2="22.5262" gradientUnits="userSpaceOnUse">
<stop stop-color="#091C91"/>
<stop offset="1" stop-color="#24BCFF"/>
</linearGradient>
<linearGradient id="paint3_linear_2847_2499" x1="3.25879" y1="25.3833" x2="15.2238" y2="25.8204" gradientUnits="userSpaceOnUse">
<stop stop-color="#091C91"/>
<stop offset="1" stop-color="#24BCFF"/>
</linearGradient>
<linearGradient id="paint4_linear_2847_2499" x1="0.350098" y1="3.729" x2="37.8222" y2="5.08484" gradientUnits="userSpaceOnUse">
<stop stop-color="#091C91"/>
<stop offset="1" stop-color="#24BCFF"/>
</linearGradient>
<linearGradient id="paint5_linear_2847_2499" x1="10.5562" y1="5.55273" x2="36.0392" y2="6.402" gradientUnits="userSpaceOnUse">
<stop stop-color="#F1F8FC"/>
<stop offset="1" stop-color="#CAEDFF"/>
</linearGradient>
<linearGradient id="paint6_linear_2847_2499" x1="19.5889" y1="16.8379" x2="23.5653" y2="16.978" gradientUnits="userSpaceOnUse">
<stop stop-color="#091C91"/>
<stop offset="1" stop-color="#24BCFF"/>
</linearGradient>
<linearGradient id="paint7_linear_2847_2499" x1="24.0464" y1="13.7329" x2="27.0588" y2="13.839" gradientUnits="userSpaceOnUse">
<stop stop-color="#091C91"/>
<stop offset="1" stop-color="#24BCFF"/>
</linearGradient>
<linearGradient id="paint8_linear_2847_2499" x1="27.9175" y1="10.8672" x2="29.9659" y2="10.9393" gradientUnits="userSpaceOnUse">
<stop stop-color="#091C91"/>
<stop offset="1" stop-color="#24BCFF"/>
</linearGradient>
<linearGradient id="paint9_linear_2847_2499" x1="12.252" y1="26.5103" x2="24.2706" y2="26.9342" gradientUnits="userSpaceOnUse">
<stop stop-color="#F1F8FC"/>
<stop offset="1" stop-color="#CAEDFF"/>
</linearGradient>
<linearGradient id="paint10_linear_2847_2499" x1="12.252" y1="26.5103" x2="24.2706" y2="26.9342" gradientUnits="userSpaceOnUse">
<stop stop-color="#F1F8FC"/>
<stop offset="1" stop-color="#CAEDFF"/>
</linearGradient>
<linearGradient id="paint11_linear_2847_2499" x1="1.77979" y1="16.0112" x2="14.059" y2="16.462" gradientUnits="userSpaceOnUse">
<stop stop-color="#F1F8FC"/>
<stop offset="1" stop-color="#CAEDFF"/>
</linearGradient>
<linearGradient id="paint12_linear_2847_2499" x1="1.77979" y1="16.0112" x2="14.059" y2="16.462" gradientUnits="userSpaceOnUse">
<stop stop-color="#F1F8FC"/>
<stop offset="1" stop-color="#CAEDFF"/>
</linearGradient>
</defs>
</svg>
