<svg width="70" height="70" viewBox="0 0 70 70" fill="none" xmlns="http://www.w3.org/2000/svg">
<path d="M2.87135 34.1685C2.87135 53.0392 17.8986 68.3369 36.4357 68.3369C54.9727 68.3369 70 53.0392 70 34.1685C70 15.2977 54.9727 0 36.4357 0C17.8986 0 2.87135 15.2977 2.87135 34.1685Z" fill="url(#paint0_linear_1946_403)"/>
<path d="M8.99282 47.0724C0.765996 55.0747 0 69.9901 0 69.9901C0 69.9901 14.662 69.8888 22.8987 61.8867C31.1354 53.8846 34.6897 44.0815 30.8453 39.9963C27.0013 35.9011 17.2196 39.0699 8.99282 47.0724Z" fill="url(#paint1_linear_1946_403)"/>
<g opacity="0.2">
<path opacity="0.2" d="M26.2461 40.21C27.6523 40.2424 28.7159 40.6376 29.4175 41.3751C32.0604 44.1905 29.4695 52.714 21.5341 60.4425C15.8014 66.0188 6.43168 67.4846 2.19248 67.8672C2.76063 63.5737 4.62483 54.1121 10.3476 48.5356C15.648 43.37 21.8897 40.1091 26.2461 40.21ZM26.2908 38.2077C21.5608 38.0985 14.8765 41.3489 8.99281 47.0819C0.765995 55.0843 0 69.9999 0 69.9999C0 69.9999 14.662 69.8985 22.8987 61.8964C31.1354 53.8943 34.6895 44.091 30.8453 40.0058C29.7501 38.8188 28.1788 38.2514 26.2908 38.2077Z" fill="#424242"/>
</g>
<path d="M11.3676 50.0124C6.18816 55.0506 5.70312 64.434 5.70312 64.434C5.70312 64.434 14.9334 64.3672 20.1129 59.329C25.2923 54.2909 27.5357 48.113 25.1137 45.5432C22.6918 42.9731 16.5572 44.9645 11.3676 50.0124Z" fill="url(#paint2_linear_1946_403)"/>
<path d="M21.3472 57.574L13.0331 48.6923L6.18372 50.7376C5.62071 50.9058 5.03697 50.9911 4.45025 50.9911H4.0005C2.50085 50.7807 1.71671 50.3401 1.05075 49.0608C0.719156 48.4238 0.613281 47.6955 0.613281 46.9747C0.613281 46.1776 0.774813 45.385 1.08908 44.655C7.38859 30.0253 11.7414 23.5868 23.8106 26.1223C35.6394 12.4066 43.2691 8.85614 57.9481 6.78488L60.6388 6.5512C61.1973 6.50267 61.766 6.51348 62.3032 6.67661C63.4321 7.01932 63.9552 7.55172 64.2563 8.52467C64.4335 9.09772 64.4573 9.7059 64.4573 10.3067V10.521C64.4573 11.6552 64.3713 12.7915 64.1715 13.9073C61.6473 28.008 56.9165 35.4182 44.0313 46.8115C46.1078 59.0465 40.6129 63.6642 24.9175 69.4337C24.2579 69.6761 23.5548 69.7994 22.8536 69.7994H22.6864C22.2736 69.7994 21.8583 69.7689 21.4627 69.649C20.3528 69.3125 19.7084 68.7027 19.1039 67.0912C18.9475 66.6743 18.8838 66.2284 18.8838 65.782C18.8838 65.3285 18.9556 64.8781 19.0964 64.4478L21.3472 57.574Z" fill="#3BB241"/>
<path d="M18.4732 50.7825L14.0596 46.1849L24.5494 29.3025C24.7408 28.9943 24.9625 28.6988 25.2045 28.4298C38.4332 13.724 47.0057 9.20158 60.983 9.0923C61.1664 9.09088 61.3435 9.17374 61.4609 9.31725L61.7886 9.71762L18.4732 50.7825Z" fill="white"/>
<path d="M61.7885 9.71729L18.4731 50.7821L23.9132 56.4246L40.8873 45.791C41.1355 45.6356 41.3761 45.4596 41.5994 45.2692C55.7804 33.1851 60.9444 23.3983 61.8811 9.97019C61.8875 9.87655 61.8538 9.78368 61.7885 9.71729Z" fill="url(#paint3_linear_1946_403)"/>
<path d="M37.6675 36.3627C39.5382 36.3627 41.0547 34.8189 41.0547 32.9145C41.0547 31.0101 39.5382 29.4663 37.6675 29.4663C35.7968 29.4663 34.2803 31.0101 34.2803 32.9145C34.2803 34.8189 35.7968 36.3627 37.6675 36.3627Z" fill="#3BB241"/>
<path d="M44.6471 29.2572C46.0643 29.2572 47.2132 28.0877 47.2132 26.645C47.2132 25.2023 46.0643 24.0327 44.6471 24.0327C43.2299 24.0327 42.0811 25.2023 42.0811 26.645C42.0811 28.0877 43.2299 29.2572 44.6471 29.2572Z" fill="#3BB241"/>
<path d="M50.6004 22.5698C51.5641 22.5698 52.3453 21.7745 52.3453 20.7934C52.3453 19.8124 51.5641 19.0171 50.6004 19.0171C49.6367 19.0171 48.8555 19.8124 48.8555 20.7934C48.8555 21.7745 49.6367 22.5698 50.6004 22.5698Z" fill="#3BB241"/>
<path d="M41.4649 46.3936L24.4501 56.9728C24.3684 57.0238 24.3066 57.1022 24.2756 57.1943L21.5521 65.3064C21.2906 66.2464 21.4778 66.6217 22.2706 67.0827C22.7095 67.2647 22.9858 67.2367 23.5023 67.0827C36.8492 60.8273 43.8203 57.1726 41.4649 46.3936Z" fill="url(#paint4_linear_1946_403)" stroke="url(#paint5_linear_1946_403)"/>
<path d="M24.0365 28.5832L13.2086 45.6254C13.1565 45.7073 13.078 45.7682 12.9865 45.7974L4.95043 48.3595C4.02067 48.6015 3.65696 48.4013 3.22463 47.5825C3.05715 47.1311 3.09179 46.8509 3.25641 46.3291C9.74358 32.9081 13.5122 25.908 24.0365 28.5832Z" fill="url(#paint6_linear_1946_403)" stroke="url(#paint7_linear_1946_403)"/>
<defs>
<linearGradient id="paint0_linear_1946_403" x1="70" y1="34.1685" x2="2.87135" y2="34.1685" gradientUnits="userSpaceOnUse">
<stop stop-color="#2D8431"/>
<stop offset="1" stop-color="#3BB241"/>
</linearGradient>
<linearGradient id="paint1_linear_1946_403" x1="32.161" y1="54.5376" x2="0.355139" y2="53.8274" gradientUnits="userSpaceOnUse">
<stop stop-color="#FF6D00"/>
<stop offset="0.2487" stop-color="#FF9B00"/>
<stop offset="0.5135" stop-color="#FFC600"/>
<stop offset="0.721" stop-color="#FFE000"/>
<stop offset="0.8439" stop-color="#FFEA00"/>
</linearGradient>
<linearGradient id="paint2_linear_1946_403" x1="21.4951" y1="48.9111" x2="4.34266" y2="65.4923" gradientUnits="userSpaceOnUse">
<stop offset="0.00444748" stop-color="#C62828"/>
<stop offset="0.2711" stop-color="#D75327"/>
<stop offset="0.5983" stop-color="#E98126"/>
<stop offset="0.8504" stop-color="#F59D25"/>
<stop offset="0.9953" stop-color="#F9A825"/>
</linearGradient>
<linearGradient id="paint3_linear_1946_403" x1="18.4731" y1="9.71729" x2="63.0685" y2="11.2035" gradientUnits="userSpaceOnUse">
<stop stop-color="#F1F8FC"/>
<stop offset="1" stop-color="#CAEDFF"/>
</linearGradient>
<linearGradient id="paint4_linear_1946_403" x1="21.4414" y1="46.3936" x2="42.4741" y2="47.1355" gradientUnits="userSpaceOnUse">
<stop stop-color="#F1F8FC"/>
<stop offset="1" stop-color="#CAEDFF"/>
</linearGradient>
<linearGradient id="paint5_linear_1946_403" x1="21.4414" y1="46.3936" x2="42.4741" y2="47.1355" gradientUnits="userSpaceOnUse">
<stop stop-color="#F1F8FC"/>
<stop offset="1" stop-color="#CAEDFF"/>
</linearGradient>
<linearGradient id="paint6_linear_1946_403" x1="3.11475" y1="28.0195" x2="24.6033" y2="28.8084" gradientUnits="userSpaceOnUse">
<stop stop-color="#F1F8FC"/>
<stop offset="1" stop-color="#CAEDFF"/>
</linearGradient>
<linearGradient id="paint7_linear_1946_403" x1="3.11475" y1="28.0195" x2="24.6033" y2="28.8084" gradientUnits="userSpaceOnUse">
<stop stop-color="#F1F8FC"/>
<stop offset="1" stop-color="#CAEDFF"/>
</linearGradient>
</defs>
</svg>
