<svg width="70" height="55" viewBox="0 0 70 55" fill="none" xmlns="http://www.w3.org/2000/svg">
<path d="M27.9134 25.5647C27.9907 25.9768 27.9655 26.566 27.8376 27.3325C27.7409 28.0906 27.5603 28.971 27.2957 29.9737C27.031 30.9765 26.7011 32.0466 26.3058 33.184C25.9416 34.3132 25.5266 35.4393 25.0606 36.5624C24.2344 38.5806 23.2266 40.7306 22.0373 43.0122C20.8396 45.2629 19.432 47.3532 17.8144 49.2833C16.3875 50.9295 15.2381 51.869 14.3661 52.102C14.0858 52.1769 13.8937 52.145 13.7897 52.0064C13.7252 51.8905 13.672 51.7549 13.6303 51.5996C13.5552 51.3201 13.5463 50.7899 13.6035 50.0091C13.6835 49.1888 13.7621 48.0528 13.8393 46.6008C13.8676 45.9608 13.8822 45.208 13.8833 44.3423C13.9071 43.4372 13.9112 42.5207 13.8956 41.5929C13.9027 40.6257 13.8985 39.6782 13.8828 38.7504C13.8672 37.8226 13.8568 36.9765 13.8517 36.2123L13.6524 36.2157C13.3627 37.1252 13.0058 38.2192 12.5815 39.4975C12.1885 40.7676 11.7342 42.1205 11.2188 43.5564C10.6951 44.9612 10.1205 46.363 9.49496 47.7617C8.86945 49.1604 8.19498 50.4391 7.47157 51.5977C7.15241 52.1489 6.83212 52.634 6.51072 53.0527C6.21212 53.4321 5.9124 53.7452 5.61156 53.992C5.28792 54.2782 4.95899 54.4826 4.62478 54.6052C4.2989 54.7588 3.96469 54.8814 3.62212 54.9729C3.27956 55.0645 3.05821 54.9239 2.95808 54.5512C2.89743 54.2013 2.86569 53.7105 2.86286 53.0788C2.85168 52.4161 2.84549 51.5856 2.84429 50.5873C2.86529 49.0506 2.86014 47.3544 2.82884 45.4987C2.78919 43.612 2.76318 41.8382 2.7508 40.1772C2.7496 39.1789 2.70281 38.2594 2.61042 37.4187C2.54083 36.5386 2.47266 35.9743 2.4059 35.7258C2.28908 35.291 2.18701 35.0354 2.09969 34.9589C2.03517 34.843 1.92506 34.8058 1.76935 34.8474C1.61364 34.889 1.40093 35.0291 1.13123 35.2676C0.892678 35.4977 0.695546 35.6336 0.539836 35.6752C0.259558 35.7501 0.0818687 35.6478 0.00676843 35.3683C-0.0266095 35.2441 0.0634629 35.0203 0.276985 34.697C0.444912 34.4524 0.713492 34.1476 1.08272 33.7827C1.44361 33.3867 1.82424 33.002 2.22462 32.6287C2.64779 32.2161 3.06791 31.8542 3.48497 31.543C3.90203 31.2319 4.2507 31.0389 4.53098 30.964C5.12268 30.8059 5.48864 31.1741 5.62886 32.0686C5.68116 32.3875 5.72206 32.7261 5.75157 33.0843C5.80387 33.4032 5.83337 33.7615 5.84008 34.1591L6.20271 50.7883C6.90557 49.8017 7.56252 48.6442 8.17358 47.3159C8.78464 45.9876 9.35622 44.6366 9.88831 43.2628C10.4204 41.8891 10.8944 40.5475 11.3102 39.2381C11.7261 37.9287 12.0861 36.784 12.3902 35.804C12.5081 35.3731 12.6248 34.8759 12.7404 34.3124C12.8872 33.7406 13.0112 33.2082 13.1123 32.7152C13.2363 32.1828 13.3458 31.7208 13.4409 31.3292C13.5276 30.9066 13.6052 30.6363 13.6736 30.5181C13.7792 30.2902 13.8974 30.1088 14.028 29.974C14.1815 29.7999 14.3547 29.6371 14.5477 29.4857C14.7718 29.3259 14.9533 29.1942 15.0924 29.0905C15.2625 28.9785 15.5033 28.8808 15.8147 28.7976C15.9705 28.756 16.1387 28.761 16.3194 28.8125C16.4918 28.833 16.6364 29.0607 16.7533 29.4955C16.82 29.7439 16.8693 30.1136 16.901 30.6044C16.9244 31.0641 16.9467 31.4576 16.9678 31.7848C16.9807 32.0809 16.9885 32.5449 16.9913 33.1765C16.9941 33.8082 16.995 34.5569 16.994 35.4226C17.0158 36.2489 17.0314 37.1768 17.041 38.2061C17.0422 39.2043 17.0278 40.2067 16.9978 41.2133C16.9862 41.9154 16.9757 42.6838 16.9663 43.5185C16.9486 44.3221 16.9495 45.0708 16.969 45.7645C16.9908 46.5909 17.0084 47.4017 17.0218 48.1969C18.1501 46.9302 19.2302 45.36 20.2622 43.4866C21.5138 41.1883 22.456 38.8561 23.0886 36.4902C23.7129 34.0932 23.9844 31.8738 23.903 29.8318C23.9002 29.2001 23.8954 28.6854 23.8887 28.2878C23.8737 27.8591 23.8453 27.5671 23.8036 27.4118C23.8097 27.3104 23.9123 27.1332 24.1113 26.8803C24.3104 26.6273 24.5562 26.362 24.8487 26.0841C25.164 25.7668 25.5073 25.492 25.8788 25.2596C26.2731 24.9878 26.6726 24.7978 27.0775 24.6897C27.2643 24.6397 27.4253 24.6799 27.5605 24.8102C27.7184 24.9012 27.8361 25.1527 27.9134 25.5647Z" fill="url(#paint0_linear_2520_748)"/>
<path d="M50.7848 36.1794C50.8181 36.3036 50.5093 36.769 49.8581 37.5754C49.207 38.3818 48.3192 39.3014 47.1948 40.3341C46.0932 41.3275 44.8192 42.3003 43.3728 43.2527C41.9265 44.205 40.4247 44.8892 38.8676 45.3053C36.9057 45.8296 35.3013 45.759 34.0544 45.0936C32.8387 44.4199 31.9596 43.0737 31.4172 41.055C31.0667 39.7507 30.9951 38.0556 31.2024 35.9698C31.4408 33.8756 32.111 31.6495 33.213 29.2913C33.8469 27.9236 34.538 26.7071 35.2865 25.6416C36.066 24.5679 36.8406 23.6619 37.6103 22.9237C38.3799 22.1855 39.1247 21.6036 39.8449 21.1782C40.5878 20.7134 41.2396 20.4061 41.8001 20.2563C42.7032 20.015 43.3594 19.9728 43.7688 20.1297C44.1697 20.2556 44.4495 20.6135 44.608 21.2036C44.8083 21.9489 44.5417 23.0687 43.8083 24.5628C43.0978 26.0175 42.1258 27.7418 40.8925 29.7357C40.4054 30.5315 39.8302 31.4342 39.1668 32.4436C38.5346 33.4447 37.9407 34.4022 37.3853 35.3162C36.6991 36.365 36.0171 37.4293 35.3393 38.5092C35.7404 40.499 36.4304 41.7626 37.4092 42.2999C38.3797 42.8061 39.5812 42.8678 41.0137 42.4851C42.2283 42.1605 43.4 41.6144 44.5288 40.8468C45.6493 40.0481 46.6369 39.2516 47.4916 38.4574C48.5081 37.52 49.4487 36.4865 50.3134 35.3567C50.488 35.5098 50.6034 35.6287 50.6596 35.7136C50.7158 35.7984 50.7575 35.9537 50.7848 36.1794ZM41.2007 24.3609C41.0672 23.864 40.8436 23.5909 40.5299 23.5415C40.2163 23.4922 39.8882 23.5133 39.5456 23.6048C38.9539 23.7629 38.2691 24.1956 37.4911 24.9027C36.7443 25.6016 36.1152 26.5519 35.6036 27.7538C35.3779 28.2801 35.1772 28.8996 35.0015 29.6122C34.8258 30.3249 34.6824 31.0955 34.5713 31.9241C34.4913 32.7443 34.4549 33.6028 34.4622 34.4996C34.4923 35.357 34.6003 36.1935 34.7861 37.0093C35.2671 36.3149 35.7595 35.6009 36.2632 34.8671C36.6903 34.2204 37.1515 33.5147 37.647 32.7499C38.1424 31.985 38.6025 31.213 39.0273 30.4338C39.7713 29.1033 40.3576 27.9314 40.7863 26.9181C41.2461 25.8965 41.3843 25.0441 41.2007 24.3609Z" fill="url(#paint1_linear_2520_748)"/>
<path d="M64.1149 1.96118C64.24 2.42702 64.2356 3.09391 64.1017 3.96185C63.9677 4.82979 63.6533 5.89573 63.1585 7.15968C62.6948 8.4153 62.004 9.88141 61.086 11.558C60.1908 13.1952 59.0331 15.0357 57.6129 17.0795C56.8956 18.1366 56.1244 19.2414 55.2992 20.3939C54.5051 21.5381 53.7567 22.6035 53.0538 23.5902C52.9549 24.2158 52.8829 24.8175 52.8379 25.3954C52.7991 25.8718 52.7529 26.3834 52.6996 26.9302C52.6379 27.446 52.5979 27.8561 52.5796 28.1606L52.7197 28.1231C53.0778 27.0954 53.5429 26.1556 54.1151 25.3037C54.7184 24.4435 55.3395 23.7117 55.9784 23.1083C56.6402 22.4654 57.2886 21.9593 57.9236 21.5899C58.5815 21.1811 59.144 20.9143 59.6111 20.7895C61.137 20.3817 62.2732 20.5109 63.0196 21.1769C63.7659 21.8429 64.3102 22.8125 64.6523 24.0858C64.8276 24.738 64.9074 25.5321 64.8919 26.4683C64.9076 27.3961 64.8226 28.3841 64.6369 29.4323C64.4513 30.4805 64.1411 31.562 63.7063 32.6767C63.2943 33.7521 62.768 34.7748 62.1274 35.7448C62.688 35.595 63.3283 35.3074 64.0485 34.882C64.7603 34.4255 65.4751 33.9183 66.193 33.3603C66.9109 32.8023 67.5738 32.2258 68.1815 31.6307C68.8205 31.0272 69.3276 30.4923 69.7029 30.0258L70 30.945C69.5396 31.4675 68.9899 32.0304 68.351 32.6339C67.712 33.2373 67.0025 33.8264 66.2223 34.401C65.4733 34.9673 64.665 35.4995 63.7975 35.9976C62.9528 36.4563 62.1183 36.829 61.2942 37.1158C61.0351 37.5179 60.7179 37.9522 60.3425 38.4186C59.9672 38.8851 59.5368 39.3329 59.0513 39.7622C58.597 40.1832 58.0949 40.5504 57.5449 40.8638C57.0033 41.2082 56.4366 41.4595 55.8449 41.6176C54.8483 41.8839 54.0042 41.9098 53.3123 41.6952C52.6205 41.4806 52.0438 41.1354 51.5821 40.6596C51.1517 40.1755 50.7979 39.6043 50.5209 38.9461C50.2751 38.2795 50.0687 37.6356 49.9018 37.0145C49.7683 36.5176 49.6679 35.8954 49.6005 35.1478C49.5559 34.3608 49.53 33.519 49.5227 32.6222C49.5154 31.7254 49.5309 30.7893 49.5692 29.8138C49.6075 28.8382 49.6541 27.8938 49.7091 26.9804C49.3626 27.3059 49.1352 27.2669 49.0267 26.8631C48.9683 26.6457 49.0812 26.3826 49.3653 26.0736C49.4565 25.9161 49.5986 25.7617 49.7915 25.6103C49.9066 24.5477 50.063 23.3908 50.2609 22.1396C50.4588 20.8884 50.665 19.6683 50.8795 18.4793C51.1252 17.2819 51.3607 16.1705 51.5858 15.1451C51.8337 14.0802 52.0809 13.1987 52.3272 12.5004C53.7077 8.56997 55.1558 5.63663 56.6716 3.70044C58.2103 1.72487 59.6958 0.545696 61.1283 0.162908C61.72 0.00480009 62.1925 -0.0382209 62.5456 0.0338451C62.9299 0.0975894 63.2177 0.237042 63.409 0.452206C63.6315 0.659048 63.7803 0.902223 63.8554 1.18173C63.9616 1.45291 64.0481 1.71273 64.1149 1.96118ZM61.3389 4.30066C61.172 3.67954 60.942 3.25835 60.649 3.03709C60.387 2.80752 59.9602 2.77178 59.3685 2.92989C58.6834 3.11296 58.0163 3.67398 57.3674 4.61296C56.7497 5.5436 56.1728 6.81283 55.6368 8.42062C55.0925 9.99736 54.5891 11.9127 54.1266 14.1665C53.6953 16.4121 53.3348 18.9216 53.0453 21.6951C53.4952 21.0091 54.141 20.1209 54.9829 19.0305C55.8164 17.909 56.7233 16.5017 57.7036 14.8084C58.4104 13.5877 59.0289 12.4738 59.5594 11.4666C60.0899 10.4595 60.5124 9.54768 60.8271 8.7313C61.1646 7.87554 61.3703 7.08829 61.4442 6.36954C61.5493 5.64246 61.5142 4.95284 61.3389 4.30066ZM61.456 26.5376C61.0888 25.1712 60.636 24.2936 60.0977 23.9049C59.5821 23.4768 58.9039 23.375 58.0631 23.5997C57.5337 23.7412 56.9837 24.0546 56.4132 24.5399C55.8343 24.9941 55.3324 25.6109 54.9076 26.3901C54.514 27.161 54.244 28.0819 54.0979 29.1529C53.9434 30.1927 54.0455 31.3804 54.4043 32.7158C54.663 33.6785 54.989 34.4569 55.3822 35.0508C55.7671 35.6137 56.1964 36.0315 56.6703 36.3043C57.1441 36.5771 57.6624 36.7049 58.2252 36.6877C58.788 36.6704 59.3922 36.5589 60.0379 36.3531C60.3281 35.9427 60.5892 35.4236 60.821 34.7958C61.1441 34.0104 61.3653 33.219 61.4848 32.4215C61.6271 31.5846 61.7155 30.7954 61.7499 30.054C61.776 29.2814 61.7564 28.5876 61.6913 27.9726C61.6262 27.3576 61.5477 26.8792 61.456 26.5376ZM58.9836 37.8331C57.7234 38.2364 56.6757 38.2501 55.8404 37.8741C55.0362 37.4899 54.3627 36.9708 53.8199 36.317L53.6923 36.4011C53.922 37.5047 54.3695 38.3005 55.0347 38.7884C55.731 39.2681 56.3905 39.4247 57.0134 39.2583C57.2937 39.1834 57.55 39.0816 57.7825 38.9529C58.0377 38.7849 58.2576 38.6096 58.4422 38.4271C58.658 38.2363 58.8385 38.0383 58.9836 37.8331Z" fill="url(#paint2_linear_2520_748)"/>
<defs>
<linearGradient id="paint0_linear_2520_748" x1="0" y1="0" x2="71.8437" y2="3.27889" gradientUnits="userSpaceOnUse">
<stop stop-color="#091C91"/>
<stop offset="1" stop-color="#24BCFF"/>
</linearGradient>
<linearGradient id="paint1_linear_2520_748" x1="0" y1="0" x2="71.8437" y2="3.27889" gradientUnits="userSpaceOnUse">
<stop stop-color="#091C91"/>
<stop offset="1" stop-color="#24BCFF"/>
</linearGradient>
<linearGradient id="paint2_linear_2520_748" x1="0" y1="0" x2="71.8437" y2="3.27889" gradientUnits="userSpaceOnUse">
<stop stop-color="#091C91"/>
<stop offset="1" stop-color="#24BCFF"/>
</linearGradient>
</defs>
</svg>
