<svg width="90" height="222" viewBox="0 0 90 222" fill="none" xmlns="http://www.w3.org/2000/svg">
<path fill-rule="evenodd" clip-rule="evenodd" d="M47.8664 1.77363C46.8041 2.74895 45.368 4.62694 44.6747 5.9466C43.7737 7.66123 43.3415 8.1403 43.1604 7.62512C42.9637 7.06635 42.6805 7.26802 41.9028 8.52207C41.3509 9.41197 40.7459 10.6819 40.5577 11.3446C40.3699 12.0072 39.9903 12.5 39.7141 12.4392C38.9572 12.2732 39.084 17.3374 39.8847 19.2462C40.3739 20.4126 40.6902 20.7191 41.0433 20.3673C41.3102 20.1013 41.8184 19.9943 42.1719 20.1295C42.9089 20.4113 46.8801 16.7434 47.8731 14.8641C49.1103 12.5211 49.3953 11.4683 48.7224 11.7254C48.2703 11.8985 48.3335 11.5198 48.9623 10.2904C50.0895 8.08747 50.1253 7.08529 49.0436 8.01085C47.4281 9.39303 47.0472 9.34239 48.1492 7.89108C49.6136 5.96333 51.192 0 50.238 0C49.9954 0 48.9283 0.79787 47.8664 1.77363ZM46.364 19.4686C44.8607 20.9164 43.6305 22.469 43.6305 22.9185C43.6305 24.3192 42.6416 25.9792 41.8078 25.9792C40.8714 25.9792 40.0955 24.7199 40.0955 23.1999C40.0955 22.6081 39.8184 21.8952 39.4804 21.6152C39.1419 21.3356 38.6227 20.5236 38.3262 19.8107C37.8967 18.7768 37.6342 18.5967 37.0284 18.9199C35.3766 19.801 31.6148 23.5447 30.5327 25.3852C28.7554 28.4072 29.1036 32.4577 31.3979 35.4462C32.0523 36.2991 32.1522 36.2406 34.5472 33.6057C37.1225 30.7722 40.9121 27.7405 41.8785 27.7405C43.0442 27.7405 53.9189 34.6021 55.5534 36.3692C57.4791 38.4515 58.2065 40.5289 58.21 43.9591C58.2135 47.0321 58.7124 46.8282 61.6249 42.5659C65.5302 36.85 66.3066 31.4111 63.8206 27.184C61.5489 23.321 56.4058 19.3418 51.5208 17.6668L49.0971 16.8359L46.364 19.4686ZM39.6297 31.2072C37.6819 32.4617 35.0646 35.0112 33.8539 36.8333C32.9219 38.2361 33.48 44.8736 34.7827 47.8819C35.6987 49.9964 37.8229 52.349 39.8838 53.5313C40.5586 53.9183 40.7101 54.5533 40.7256 57.0539C40.7499 60.9931 39.4287 63.8931 35.7951 67.8749C34.3258 69.4843 32.8773 71.5468 32.5755 72.4578C31.5972 75.4115 32.6612 83.8121 35.0664 92.1245C35.2622 92.8 37.6413 93.7806 39.1012 93.7868C39.4813 93.7885 39.6536 92.9739 39.6536 91.1734C39.6536 89.7345 39.8524 88.4351 40.0955 88.2854C40.3619 88.1211 40.5374 88.7142 40.5374 89.7798C40.5374 92.3095 41.2797 93.6512 42.8524 93.9647C45.0786 94.4081 47.9159 94.2619 48.3777 93.6793C48.6181 93.3768 48.9455 91.7961 49.1059 90.1673L49.3975 87.2057L47.729 86.5113C44.5894 85.2044 42.5996 82.4312 43.5665 80.7091C43.8939 80.1261 44.0269 80.252 44.2757 81.381C44.4445 82.1454 45.0561 83.1419 45.6349 83.5959C46.7909 84.5016 49.3096 85.6407 49.5637 85.3726C49.6521 85.2792 50.0445 82.1318 50.4364 78.378C50.8284 74.6242 51.458 70.3641 51.8359 68.911C52.3529 66.9229 56.0081 58.8007 58.0969 54.9985C58.176 54.854 57.4641 54.2239 56.515 53.5978C54.1275 52.0236 53.9039 50.7493 55.5583 48.1501C58.4778 43.5619 56.564 38.5743 50.2747 34.3802C46.9765 32.1808 42.8917 29.9422 42.1772 29.9422C41.8564 29.9422 40.7101 30.5115 39.6297 31.2072ZM39.1127 39.2665C39.8211 39.9723 38.9806 40.9503 37.6651 40.9503C36.3496 40.9503 35.5092 39.9723 36.2175 39.2665C36.5034 38.9816 37.1547 38.7487 37.6651 38.7487C38.1755 38.7487 38.8268 38.9816 39.1127 39.2665ZM49.5717 39.2581C50.443 39.6535 50.5836 39.8997 50.2013 40.359C49.6362 41.0371 47.6954 41.1313 46.7365 40.5272C46.0291 40.0811 46.0711 39.9992 47.3865 39.2674C48.482 38.6575 48.2513 38.6589 49.5717 39.2581ZM5.15887 42.5249C4.63038 43.1594 4.66485 43.7715 5.58661 50.1584C5.80049 51.6405 6.24944 52.8078 6.77395 53.2455C7.23749 53.6326 8.26354 54.6968 9.05319 55.611C11.4862 58.4264 10.8896 61.6456 7.93566 61.6456C7.47124 61.6456 6.73109 62.0419 6.29142 62.5263C5.2415 63.6826 4.23445 63.6394 3.05418 62.388C1.74621 61.0001 1.83237 60.3674 3.16067 61.6104C4.71433 63.0648 6.07048 62.5302 6.07048 60.4634C6.07048 59.2344 5.70327 58.5343 4.35509 57.1904C2.24288 55.0861 1.07852 54.9914 0.300807 56.8619C-0.445091 58.6576 0.204478 61.8988 2.15716 66.1193C3.95695 70.0109 5.46598 71.3328 8.10711 71.3328C10.8821 71.3328 12.7425 70.424 14.6054 68.158C17.2567 64.9344 18.1843 62.3933 18.1887 58.3432C18.1927 54.3252 17.4392 52.257 15.8909 52.0368C15.0871 51.9228 14.7252 52.2649 14.0266 53.7981C13.5498 54.8448 13.1556 56.0597 13.1503 56.4978C13.145 56.9359 12.9391 57.1702 12.6925 57.0182C11.8048 56.4718 10.473 53.2438 9.60554 49.5367C8.23128 43.664 6.49292 40.923 5.15887 42.5249ZM3.086 54.0121C2.73249 54.1539 3.2358 54.917 4.47263 56.1147C5.57292 57.1803 6.54639 58.5951 6.71916 59.3797C7.02097 60.7491 7.54637 61.0177 8.90648 60.4977C10.7686 59.7857 8.75271 56.1887 5.59059 54.581C4.65866 54.1073 3.83852 53.7356 3.76826 53.7545C3.69756 53.7735 3.39046 53.8897 3.086 54.0121ZM36.5754 55.3054C33.385 56.1596 28.6503 58.8293 28.1964 60.0296C27.9976 60.5549 27.4881 63.8583 27.0643 67.3699C26.0524 75.7493 26.451 83.8667 28.4169 94.9338L29.1288 98.9408L31.6294 99.3983C33.0046 99.6502 34.2171 99.7752 34.3236 99.6757C34.4301 99.5762 33.7854 96.18 32.891 92.1285C31.1363 84.1842 30.374 78.8729 30.374 74.5983C30.374 71.6406 31.0912 70.2113 34.3559 66.6627C35.2705 65.6684 36.2626 64.4016 36.56 63.8477C37.1432 62.7623 39.6536 55.548 39.6536 54.958C39.6536 54.5049 39.4985 54.5225 36.5754 55.3054ZM59.9157 55.7616C58.6943 57.1398 54.7015 65.2198 53.7854 68.1682C53.3104 69.697 52.618 73.8581 52.2464 77.415C51.8752 80.972 51.1894 86.6561 50.7227 90.0467C49.4545 99.2574 49.4528 99.7312 50.6852 101.038C51.4302 101.828 52.1986 102.156 53.3113 102.156C54.6688 102.156 68.8696 100.021 69.1351 99.777C69.4749 99.4652 67.3972 94.0461 66.4746 92.8379C64.8228 90.6737 63.1927 87.2409 62.4136 84.285C61.518 80.8874 61.5021 73.1866 62.3823 69.4037C63.2921 65.4945 65.3919 61.0023 66.7132 60.1397C67.8113 59.4229 68.5978 59.4973 75.667 60.9843C77.2561 61.3185 74.675 59.5942 70.315 57.4079C67.1891 55.8408 65.6571 55.3393 63.4658 55.1654C61.0889 54.9765 60.5281 55.0707 59.9157 55.7616ZM66.1922 64.0485C64.3548 67.6988 63.5029 71.8106 63.4609 77.2305C63.422 82.2947 64.1366 85.5223 66.095 89.1321L67.2713 91.2994L67.7423 86.7103C68.1228 82.9992 68.0967 81.8377 67.6058 80.6422C66.7534 78.5665 67.114 78.5409 68.4432 80.5832C69.486 82.1859 69.5399 82.5096 69.1555 84.8609C68.5337 88.6596 69.1069 94.8202 70.3724 97.9426C70.9588 99.3886 71.3954 100.606 71.3432 100.648C71.2911 100.69 68.6747 101.199 65.5289 101.78L59.8096 102.836L59.9254 105.32C59.9886 106.686 59.7076 109.127 59.3006 110.745C58.8932 112.362 58.7306 113.833 58.9387 114.013C59.1468 114.193 62.8635 115.292 67.1979 116.454C74.3233 118.366 75.4037 118.546 78.4739 118.337C85.4269 117.862 86.3739 116.614 86.9147 107.219C87.1967 102.322 87.4543 100.931 88.6977 97.5877C90.0689 93.9021 90.1365 93.4517 89.886 89.6618C89.6116 85.5091 89.1383 83.6249 87.1909 78.9372C86.5148 77.3098 86.0495 75.3393 86.0469 74.0936C86.0389 70.077 83.2475 65.9969 79.0793 63.9093C76.4726 62.6038 74.3516 62.0366 70.8196 61.7007L67.5315 61.3876L66.1922 64.0485ZM24.6092 63.026C21.7847 64.705 19.7008 67.1272 17.7229 71.0285C15.7857 74.8506 15.7636 74.9439 16.2161 77.3842C16.7402 80.2098 16.7853 87.4267 16.2952 90.0467C15.9916 91.6697 15.9404 91.5314 15.6474 88.2854C15.2966 84.3986 14.423 77.7985 14.2294 77.5749C14.1618 77.4965 13.4561 77.7677 12.6607 78.1772C11.5401 78.7549 10.4628 78.8743 7.86938 78.7091C6.02938 78.592 4.24329 78.4198 3.89995 78.3269C2.89908 78.0557 1.98483 83.1767 1.92517 89.3862C1.8474 97.5265 3.17437 101.115 6.97854 103.049C9.14023 104.148 10.769 104.146 12.583 103.044C14.7336 101.738 20.9058 95.7409 23.7396 92.2051L26.2442 89.0801L25.687 85.1599C24.9265 79.8117 24.9407 71.055 25.7175 66.2871C26.071 64.1176 26.3092 62.292 26.2477 62.2304C26.1859 62.1687 25.4484 62.5267 24.6092 63.026ZM35.6766 95.1782C35.6766 95.9466 35.7862 96.0082 36.3395 95.5507C36.704 95.2491 37.0023 94.9488 37.0023 94.8836C37.0023 94.818 36.704 94.6503 36.3395 94.5107C35.8803 94.3354 35.6766 94.5406 35.6766 95.1782ZM47.6075 95.5507C47.2429 95.7854 46.4586 95.9805 45.8647 95.9844C44.8285 95.9906 44.8457 96.036 46.2818 97.0919C47.1055 97.6973 47.8183 98.1927 47.866 98.1927C47.9137 98.1927 48.0339 97.4992 48.1333 96.6515C48.2327 95.8039 48.3039 95.1135 48.292 95.117C48.28 95.121 47.972 95.316 47.6075 95.5507ZM37.3337 96.4424C36.1229 97.183 36.4203 98.4842 38.107 99.825C38.9576 100.501 39.6536 101.303 39.6536 101.605C39.6536 102.423 38.2528 102.283 33.5269 100.994C28.8204 99.7087 26.5668 99.596 25.5641 100.595C24.9734 101.184 25.0193 101.384 25.98 102.408C27.2137 103.723 33.21 107.76 36.0129 109.163C37.5763 109.945 44.9641 111.363 47.6362 111.395C48.6583 111.406 49.8929 108.473 50.1448 105.431L50.3666 102.762L47.8814 100.555C43.8895 97.0095 39.3195 95.2275 37.3337 96.4424ZM30.5336 108.65C30.6538 109.074 30.8866 110.668 31.0506 112.193C31.2914 114.428 31.5499 115.095 32.3864 115.642C33.7363 116.523 35.0691 116.081 35.9024 114.475C36.6072 113.117 36.7915 110.962 36.2029 110.962C36.0063 110.962 34.6899 110.269 33.2772 109.421C30.3126 107.642 30.2415 107.622 30.5336 108.65ZM38.3213 113.57C38.3116 115.948 37.4835 117.068 34.6033 118.597C32.7558 119.578 31.7457 120.451 31.1792 121.555C29.1085 125.592 29.0095 134.256 30.9785 139.084C33.0647 144.201 36.2789 147.946 41.9067 151.821C51.1213 158.164 51.8544 164.851 44.3535 174.149C42.981 175.85 41.5365 178.218 41.1299 179.433C39.555 184.138 40.6147 191.303 43.6809 196.678C45.2606 199.447 49.5659 203.506 52.4903 204.983C53.8513 205.67 56.2525 206.295 59.005 206.678C65.4463 207.576 69.2209 209.487 71.9411 213.229C74.0533 216.135 73.3975 218.752 70.0353 220.835L68.155 222L70.1435 221.728C72.9004 221.352 76.5729 219.485 77.8393 217.817C80.0885 214.854 80.4098 209.263 78.5512 205.436C77.3338 202.931 73.299 199.12 68.4113 195.86C63.4344 192.54 62.4844 191.398 62.4844 188.74C62.4844 185.827 64.4428 183.173 71.4948 176.531C80.4381 168.108 81.8667 165.403 81.8256 156.976C81.7938 150.458 81.0174 147.757 76.823 139.583C72.5827 131.321 71.7321 128.663 72.0485 124.669C72.1757 123.064 72.3459 121.379 72.4267 120.926C72.5421 120.279 72.1236 119.969 70.4793 119.483C68.528 118.906 68.1237 118.94 64.5488 119.972C59.6408 121.39 55.7297 121.799 53.6418 121.113C51.6755 120.466 49.079 117.539 48.4692 115.283C47.9659 113.42 48.1086 113.482 42.1944 112.583L38.3279 111.996L38.3213 113.57ZM50.7563 115.811C52.1712 118.322 53.9803 119.769 55.7059 119.769C57.8225 119.77 64.4963 118.363 64.091 118.002C63.8957 117.828 60.9523 116.955 57.5498 116.063C54.1473 115.17 50.991 114.329 50.5354 114.195C49.7802 113.972 49.7997 114.114 50.7563 115.811Z" fill="white"/>
</svg>
