<svg width="263" height="105" viewBox="0 0 263 105" fill="none" xmlns="http://www.w3.org/2000/svg">
<path fill-rule="evenodd" clip-rule="evenodd" d="M259.534 31.7321C261.086 29.943 262.241 28.5103 263 27.434L261.951 26.5997C260.864 27.8273 259.749 29.0627 258.605 30.3058C257.461 31.5489 256.322 32.6973 255.189 33.7508C254.057 34.8044 252.95 35.7264 251.871 36.5169C250.776 37.2493 249.713 37.7554 248.682 38.0352C248.167 38.1751 247.827 38.0498 247.662 37.6593C247.482 37.2108 247.339 36.7835 247.231 36.3774C247.062 35.7394 246.924 34.7512 246.815 33.4128C246.764 32.059 246.753 30.5078 246.781 28.7592C246.867 26.9952 246.943 25.0783 247.009 23.0086C247.133 20.9235 247.285 18.8305 247.466 16.7297C248.676 13.417 249.539 10.416 250.055 7.72687C250.556 4.97972 250.599 2.82306 250.185 1.25688C250.016 0.618801 249.766 0.25161 249.434 0.155305C249.143 -0.0145513 248.798 -0.0450793 248.397 0.0637208C248.111 0.141435 247.775 0.263695 247.389 0.430502C247.004 0.597309 246.613 0.858898 246.216 1.21527C245.621 1.74982 245.182 2.17974 244.9 2.50503C244.603 2.77231 244.223 3.31047 243.762 4.11951C242.939 5.64851 242.456 7.30282 242.313 9.08244C242.155 10.8041 242.022 12.7365 241.914 14.8797C241.846 16.017 241.78 16.8121 241.716 17.2647C241.709 17.7019 241.649 18.4021 241.535 19.3655C241.33 19.9808 240.441 21.0302 238.87 22.5137C237.34 23.9236 234.919 25.3269 231.607 26.7235C230.45 27.224 229.443 27.5907 228.584 27.8239L227.296 28.1736C227.385 26.6571 227.468 25.1116 227.542 23.5371L227.795 19.2719C227.942 17.7399 228.076 16.2736 228.196 14.8731C228.241 14.1148 228.307 13.3198 228.394 12.488C228.523 11.5827 228.646 10.7721 228.763 10.0563C228.865 9.2825 228.941 8.64026 228.99 8.12958C229.024 7.56089 229.018 7.18953 228.972 7.01551C228.803 6.37744 228.518 6.1128 228.117 6.2216C227.316 6.4392 226.333 7.01678 225.17 7.95433C224.063 8.87634 223.246 10.3106 222.718 12.257C222.527 12.9303 222.362 13.8144 222.222 14.9093C222.124 15.9307 222.007 17.1126 221.871 18.4551C221.778 19.7241 221.678 21.0878 221.573 22.5463C221.452 23.9468 221.295 25.326 221.102 26.6841L220.836 28.8081C219.893 29.1884 219.168 29.696 218.661 30.331C218.211 30.9505 218.071 31.5793 218.239 32.2174C218.439 32.9714 218.59 33.4277 218.693 33.5862C218.781 33.6867 219.087 33.9145 219.611 34.2698L219.382 39.0233L218.569 38.3762C217.482 39.6038 216.367 40.8391 215.223 42.0823C214.078 43.3254 212.94 44.4737 211.807 45.5273C210.674 46.5809 209.568 47.5029 208.489 48.2933C207.394 49.0258 206.331 49.5319 205.3 49.8117C204.785 49.9515 204.445 49.8262 204.28 49.4357C204.1 48.9872 203.956 48.5599 203.849 48.1539C203.68 47.5158 203.542 46.5276 203.433 45.1893C203.382 43.8354 203.371 42.2842 203.399 40.5357C203.485 38.7716 203.561 36.8548 203.627 34.7851C203.751 32.6999 203.903 30.6069 204.084 28.5062C205.294 25.1934 206.157 22.1925 206.673 19.5033C207.174 16.7562 207.217 14.5995 206.803 13.0333C206.634 12.3953 206.384 12.0281 206.051 11.9318C205.761 11.7619 205.415 11.7314 205.015 11.8402C204.728 11.9179 204.393 12.0402 204.007 12.207C203.622 12.3738 203.231 12.6354 202.834 12.9917C202.239 13.5263 201.8 13.9562 201.518 14.2815C201.221 14.5488 200.841 15.0869 200.38 15.896C199.557 17.425 199.074 19.0793 198.931 20.8589C198.773 22.5805 198.64 24.5129 198.531 26.6561C198.464 27.7935 198.398 28.5885 198.334 29.0412C198.327 29.4783 198.266 30.1786 198.153 31.142C197.948 31.7573 197.059 32.8067 195.488 34.2902C193.958 35.7001 191.537 37.1034 188.224 38.5C187.068 39.0004 186.06 39.3672 185.202 39.6004L183.913 39.9501C184.003 38.4336 184.085 36.8881 184.16 35.3135L184.413 31.0484C184.56 29.5163 184.693 28.05 184.814 26.6496C184.859 25.8913 184.925 25.0963 185.012 24.2645C185.14 23.3591 185.264 22.5485 185.381 21.8328C185.483 21.059 185.559 20.4167 185.608 19.906C185.642 19.3373 185.635 18.966 185.589 18.792C185.421 18.1539 185.136 17.8893 184.735 17.9981C183.933 18.2157 182.951 18.7932 181.787 19.7308C180.681 20.6528 179.864 22.087 179.335 24.0334C179.145 24.7068 178.98 25.5909 178.84 26.6858C178.742 27.7072 178.625 28.8891 178.489 30.2316C178.395 31.5005 178.296 32.8642 178.191 34.3227C178.07 35.7232 177.913 37.1025 177.72 38.4605L177.453 40.5846C176.511 40.9648 175.786 41.4725 175.279 42.1075C174.829 42.727 174.688 43.3557 174.857 43.9938C175.057 44.7479 175.208 45.2042 175.311 45.3627C175.399 45.4631 175.705 45.691 176.228 46.0463L176.029 50.1965L175.774 49.9933C174.687 51.2208 173.572 52.4562 172.427 53.6993C171.341 54.9269 170.231 56.0675 169.098 57.1211C167.965 58.1746 166.859 59.0966 165.779 59.8871C164.684 60.6195 163.593 61.1334 162.505 61.4287C161.875 61.5997 161.43 61.1921 161.169 60.206C161.108 59.974 161.088 59.2023 161.109 57.8909C161.115 56.5215 161.119 55.0283 161.121 53.4113C161.18 51.7788 161.247 50.1753 161.322 48.6008C161.396 47.0262 161.435 45.8966 161.438 45.2119C161.508 43.3899 161.571 41.5388 161.626 39.6587C161.738 37.763 161.899 36.1652 162.107 34.8652C163.154 32.0942 163.772 29.9059 163.961 28.3003C164.207 26.6791 164.223 25.4625 164.008 24.6504C163.839 24.0123 163.56 23.6529 163.171 23.5722C162.823 23.4179 162.506 23.3796 162.22 23.4573C161.59 23.6282 160.834 24.0199 159.953 24.6321C159.129 25.2289 158.34 26.1892 157.585 27.5131C157.181 28.3066 156.865 29.2005 156.638 30.195C156.394 31.1314 156.224 32.1103 156.126 33.1317L155.785 36.0218C155.714 36.9116 155.591 37.7221 155.416 38.4535C154.784 40.2414 154.156 41.8108 153.531 43.1616C152.949 44.4389 152.33 45.6949 151.674 46.9297C151.004 48.1065 150.284 49.3279 149.514 50.5938C148.729 51.8016 147.839 53.1934 146.844 54.769C145.723 56.5653 144.677 58.0617 143.705 59.2582C142.732 60.4547 141.931 61.1384 141.302 61.3094C140.901 61.4182 140.641 61.3644 140.523 61.1479L140.338 60.4518C140.292 60.2778 140.299 59.8406 140.36 59.1404C140.405 58.3821 140.484 57.5213 140.597 56.558C140.711 55.5946 140.832 54.6603 140.961 53.7549C141.074 52.7915 141.147 52.0255 141.181 51.4568L142.807 36.3741C143.038 34.6949 143.096 33.4047 142.98 32.5035C142.922 31.5868 142.86 30.8887 142.794 30.4091C142.626 29.771 142.341 29.5063 141.94 29.6151C141.539 29.7239 141.026 29.9876 140.4 30.4062C139.816 30.7512 139.214 31.2567 138.592 31.9228C138.012 32.5154 137.471 33.253 136.968 34.1356C136.522 35.0026 136.201 35.9914 136.004 37.1018C135.806 38.2123 135.644 39.6863 135.516 41.5239C135.373 43.3036 135.164 45.4121 134.888 47.8495L133.433 60.7635C133.385 60.7614 133.335 60.7675 133.282 60.782C133.053 60.8442 132.839 60.9644 132.641 61.1426C132.5 61.3052 132.301 61.4834 132.046 61.6771C131.013 63.5739 129.898 65.2754 128.701 66.7816C127.645 68.1252 126.423 69.4207 125.034 70.668C123.688 71.8417 122.27 72.6306 120.782 73.0347C120.094 73.2213 119.497 73.1659 118.989 72.8686C118.538 72.5558 118.15 72.1327 117.824 71.5993C117.484 71.0078 117.193 70.3719 116.952 69.6913L116.445 67.7771C115.417 63.8906 115.041 60.2626 115.316 56.8929C115.632 53.4497 116.15 50.4182 116.868 47.7984C117.878 46.2808 118.669 44.9781 119.241 43.8904C119.854 42.7292 120.29 41.7094 120.549 40.8309C120.865 39.9369 121.032 39.1766 121.05 38.5499C121.053 37.8652 120.97 37.2038 120.801 36.5658C120.51 35.4636 119.734 35.0835 118.475 35.4255C118.074 35.5343 117.545 35.7399 116.889 36.0425C116.233 36.345 115.605 37.1059 115.007 38.3251C114.535 39.3237 114.112 40.2778 113.739 41.1873C113.351 42.0388 113.006 42.9406 112.706 43.8926C112.39 44.7865 112.068 45.7753 111.741 46.8588C111.456 47.8688 111.087 49.0259 110.634 50.3301L101.495 71.4624L101.214 71.4454C101.571 66.064 101.921 61.586 102.264 58.0112C102.592 54.3784 102.867 51.4749 103.09 49.3006C103.312 47.1263 103.473 45.5285 103.571 44.5071C103.669 43.4857 103.68 42.83 103.603 42.54C103.465 42.0179 103.195 41.8113 102.795 41.9201C102.108 42.1066 101.388 42.5195 100.637 43.1587C99.9273 43.7243 99.1989 44.4505 98.4515 45.3373C97.7461 46.1505 97.035 47.0585 96.3184 48.0613C95.5864 49.006 94.8907 49.972 94.2313 50.9593C93.488 52.0936 92.7734 53.2201 92.0874 54.3389C91.4015 55.4577 90.7783 56.4662 90.2181 57.3643C89.574 58.4096 88.9872 59.4393 88.4577 60.4534C88.4607 59.7687 88.4407 58.997 88.3977 58.1383C88.3393 57.2215 88.2733 56.2758 88.1996 55.3011C88.1259 54.3263 88.0026 53.3961 87.8297 52.5105C87.6988 51.5513 87.5336 50.6947 87.3341 49.9406C86.6591 47.3883 85.729 45.4958 84.5438 44.2633C83.3433 42.9727 81.6839 42.6149 79.5653 43.19C78.0194 43.6097 76.5103 44.5167 75.0381 45.9111C73.5505 47.2475 72.1816 48.8004 70.9312 50.5697C69.7228 52.2655 68.631 54.054 67.6557 55.9352C66.8421 57.511 66.1792 58.9514 65.667 60.2563C65.0125 58.9038 64.2748 57.6261 63.454 56.423C61.4497 53.4855 59.1423 50.9101 56.5317 48.6967C53.9212 46.4832 51.0648 44.6164 47.9625 43.096C44.9174 41.5601 41.8479 40.2795 38.7538 39.2543C38.765 39.0647 38.8601 38.728 39.039 38.2443C39.2025 37.7025 39.4156 37.1162 39.6784 36.4853C39.9258 35.7965 40.1655 35.0786 40.3975 34.3317C40.6868 33.5693 40.9265 32.8514 41.1166 32.1781L42.3494 28.4862C42.6765 27.4027 42.7633 26.5709 42.6099 25.9908C42.4872 25.5267 42.2541 25.3413 41.9105 25.4346C41.6089 25.4543 41.3149 25.503 41.0286 25.5807C40.5133 25.7206 39.9699 26.3344 39.3985 27.4221C38.827 28.5098 38.2939 29.7425 37.7991 31.1203C37.3044 32.498 36.8459 33.897 36.4238 35.3172C35.9863 36.6794 35.6515 37.7339 35.4195 38.4808C32.8643 37.8688 30.0555 37.5743 26.9932 37.5974C23.9309 37.6204 20.1381 38.2459 15.6148 39.4738C14.756 39.707 13.7637 40.1317 12.638 40.7482C11.497 41.3066 10.3294 41.9966 9.13524 42.8181C7.99832 43.6241 6.88442 44.5171 5.79353 45.4972C4.7599 46.4616 3.89242 47.4743 3.1911 48.535C1.33862 51.2761 0.30513 53.9813 0.090638 56.6507C-0.139196 59.2622 0.0680682 61.786 0.71243 64.2223C1.03461 65.4404 1.45747 66.2271 1.981 66.5824C2.56179 66.9221 3.19573 66.9987 3.88281 66.8122C4.51264 66.6412 5.0637 66.0564 5.53599 65.0578C5.99295 64.0012 6.1217 63.0959 5.92226 62.3418C5.75349 61.7037 5.34036 61.0698 4.68286 60.44C4.08262 59.7948 3.6751 59.0661 3.46032 58.254L3.18416 57.2098C3.10334 56.6722 3.06444 56.0611 3.06745 55.3764C3.11237 54.6181 3.23551 53.8076 3.43686 52.9447C3.62287 52.0238 3.98066 51.0563 4.51021 50.0421C5.26468 48.7182 6.45268 47.5253 8.07423 46.4634C9.69577 45.4015 11.5944 44.5752 13.7702 43.9846C15.8314 43.4251 17.8242 43.0706 19.7485 42.9213C21.73 42.7564 23.5628 42.7252 25.2468 42.8276C26.988 42.9145 28.6015 43.0982 30.0872 43.3788C31.5729 43.6594 32.8505 43.9654 33.92 44.2967C33.6236 45.4963 33.1907 47.5722 32.6215 50.5244C32.0369 53.4187 31.3557 56.9919 30.578 61.2442C29.8002 65.4965 28.9315 70.333 27.9719 75.7537C27.0695 81.1589 26.1314 87.009 25.1575 93.304C24.6496 96.4883 24.0742 99.0692 23.4312 101.047C22.8455 103.009 22.591 104.135 22.6677 104.425C22.7904 104.889 23.1458 105.072 23.7337 104.975C24.3216 104.877 24.9305 104.743 25.5603 104.572L26.3333 104.362C26.6195 104.285 26.984 104.154 27.4267 103.972L29.3162 103.459L32.494 102.597C34.8988 101.944 37.21 101.285 39.4277 100.621C41.6454 99.9569 43.8037 99.1845 45.9028 98.3039C48.0018 97.4232 50.0625 96.3975 52.0849 95.2268C54.1491 93.9826 56.2016 92.4617 58.2423 90.6644C59.8863 89.2233 61.404 87.5368 62.7954 85.6048C64.1715 83.6148 65.3374 81.5264 66.2933 79.3396C67.2337 77.0948 67.8726 74.8698 68.2098 72.6644C68.5471 70.459 68.4702 68.4282 67.9793 66.572C67.571 65.0284 67.0821 63.5571 66.5126 62.1583C66.6341 61.8258 66.7633 61.4674 66.9 61.083C67.5052 59.4266 68.3317 57.6791 69.3796 55.8403C70.2179 54.3693 71.1727 52.991 72.2442 51.7054C73.3156 50.4198 74.3953 49.6294 75.4832 49.3341C76.342 49.1009 77.0695 49.1832 77.6656 49.5809C78.319 49.9631 78.8753 50.5582 79.3344 51.3661C79.7783 52.116 80.1745 53.0343 80.5233 54.1209C80.8567 55.1494 81.1768 56.2438 81.4837 57.4039C81.7291 58.332 81.9271 59.4285 82.0775 60.6932C82.2698 61.8845 82.3972 63.0622 82.4597 64.2265C82.5222 65.3908 82.5539 66.4391 82.555 67.3714C82.6134 68.2881 82.5874 68.8858 82.477 69.1645L80.6077 72.1899C79.9217 73.3086 79.2531 74.6092 78.6019 76.0916C77.9926 77.5004 77.456 78.9517 76.9919 80.4455C76.5851 81.9237 76.2774 83.3128 76.0689 84.6128C75.8451 85.8548 75.833 86.8529 76.0324 87.607C76.4159 89.0571 77.2948 89.5957 78.669 89.2227C80.3867 88.7564 81.7429 87.7354 82.7376 86.1598C83.7323 84.5842 84.5589 82.8366 85.2172 80.9171C86.2333 78.0301 86.9687 75.126 87.4234 72.2048C87.8628 69.2256 88.224 66.2988 88.507 63.4243C89.5702 61.6435 90.6411 59.8918 91.7197 58.1691C92.6152 56.6825 93.568 55.1804 94.5781 53.6628C95.6454 52.1297 96.6024 50.8751 97.4489 49.8993C97.2486 51.6945 97.0448 53.7082 96.8374 55.9405L96.3871 62.5907C96.2216 64.7495 96.0904 66.8057 95.9935 68.7593C95.8811 70.6549 95.799 72.2005 95.7469 73.3958C95.6275 75.7286 95.5459 77.7403 95.502 79.4308C95.5001 81.0478 95.5912 82.2043 95.7753 82.9004C95.9287 83.4804 96.3204 83.685 96.9502 83.514C97.58 83.343 98.1674 82.7795 98.7123 81.8233C99.3144 80.8516 100.033 79.5065 100.867 77.788C101.313 76.9209 101.84 75.783 102.449 74.3741C103.043 72.9073 103.671 71.3379 104.334 69.666C105.053 67.9785 105.794 66.2543 106.556 64.4932C107.302 62.6742 108.014 60.9577 108.692 59.3438L109.127 59.5986C109.06 60.736 109.036 61.9236 109.057 63.1614C109.078 64.3993 109.119 65.6003 109.182 66.7647C109.301 67.9134 109.398 68.9752 109.472 69.9499C109.603 70.9091 109.73 71.6207 109.852 72.0848C110.558 74.7531 111.522 76.543 112.745 77.4544C114.025 78.3503 115.582 78.5496 117.414 78.0522C119.132 77.5859 120.984 76.5857 122.972 75.0514C124.944 73.4591 126.771 71.7819 128.453 70.0197C130.177 68.184 131.564 66.4706 132.616 64.8794C132.782 64.6154 132.933 64.3652 133.068 64.1286C133.031 64.5647 133.001 64.9687 132.979 65.3407C132.896 66.42 132.832 67.3388 132.787 68.0971C132.799 68.8398 132.838 69.451 132.904 69.9305C132.969 70.4101 133.056 70.853 133.163 71.259C133.593 72.8832 134.38 73.5399 135.525 73.229C135.869 73.1357 136.395 72.8063 137.105 72.2407C137.83 71.733 138.642 70.8597 139.542 69.6208C141.665 66.744 143.651 63.8113 145.499 60.8227C147.348 57.8341 149 55.1474 150.456 52.7628C152.163 49.9368 153.742 47.2077 155.194 44.5754C155.176 45.2021 155.144 45.8946 155.099 46.6529C155.096 47.3376 155.067 48.1538 155.01 49.1016C154.996 49.9759 154.984 50.9739 154.974 52.0958C154.941 53.5967 154.888 55.1345 154.813 56.709C154.796 58.268 154.763 59.7689 154.715 61.2119C154.709 62.5813 154.738 63.8482 154.8 65.0125C154.847 66.1188 154.947 66.9619 155.101 67.542C155.224 68.0061 155.425 68.4178 155.704 68.7772C155.983 69.1366 156.495 69.2153 157.239 69.0133C158.212 68.749 159.601 67.9679 161.406 66.6698C163.21 65.3717 165.413 63.3749 168.014 60.6793C170.02 58.5184 171.786 56.6091 173.311 54.9516C174.389 53.8121 175.276 52.8109 175.971 51.9482C175.957 52.4197 175.933 52.9379 175.899 53.5029L175.685 56.1723C175.655 56.9886 175.647 57.7681 175.659 58.5108C175.599 59.211 175.607 59.7062 175.684 59.9962C175.883 60.7503 176.143 61.2703 176.464 61.5562C176.728 61.8576 177.347 61.8762 178.32 61.6119C179.007 61.4254 179.656 61.0939 180.266 60.6173C180.934 60.1252 181.624 59.254 182.337 58.0037C182.756 57.2682 183.049 56.2872 183.215 55.0607C183.439 53.8187 183.59 52.5342 183.669 51.2073C183.748 49.8804 183.777 48.598 183.756 47.3601C183.735 46.1222 183.69 45.1397 183.621 44.4126C184.079 44.2882 184.579 44.0903 185.121 43.8189C185.548 43.5785 186.069 43.3439 186.683 43.1149C187.283 42.8279 187.895 42.4751 188.521 42.0566C190.272 41.0216 191.73 40.0354 192.893 39.0978C194.098 38.0867 195.098 37.2248 195.891 36.512C196.768 35.6522 197.503 34.8312 198.093 34.0491L197.942 36.6082C197.882 37.3084 197.829 38.0377 197.784 38.7959C197.781 39.4807 197.776 40.0416 197.769 40.4787C197.736 41.9797 197.69 43.5464 197.631 45.1789C197.629 46.7959 197.604 48.3259 197.556 49.7688C197.566 51.1962 197.594 52.4631 197.641 53.5694C197.688 54.6757 197.773 55.4609 197.896 55.9249C198.019 56.389 198.22 56.8007 198.499 57.1601C198.778 57.5195 199.29 57.5982 200.034 57.3962C200.893 57.163 202.238 56.3316 204.069 54.902C205.9 53.4723 208.147 51.5258 210.809 49.0623C212.876 47.1333 214.657 45.2821 216.152 43.5085C217.542 41.906 218.614 40.5894 219.368 39.5588C219.359 40.1825 219.33 40.9051 219.282 41.7265L219.067 44.3959C219.037 45.2121 219.029 45.9916 219.041 46.7343C218.981 47.4346 218.989 47.9297 219.066 48.2198C219.265 48.9738 219.526 49.4938 219.847 49.7797C220.11 50.0811 220.729 50.0997 221.702 49.8355C222.389 49.649 223.038 49.3174 223.649 48.8409C224.316 48.3488 225.006 47.4776 225.719 46.2272C226.138 45.4917 226.431 44.5107 226.597 43.2843C226.821 42.0423 226.972 40.7578 227.051 39.4308C227.13 38.1039 227.159 36.8215 227.138 35.5836C227.118 34.3458 227.073 33.3633 227.003 32.6361C227.461 32.5118 227.961 32.3139 228.503 32.0424C228.93 31.8021 229.451 31.5674 230.066 31.3384C230.665 31.0515 231.277 30.6987 231.903 30.2801C233.654 29.2452 235.112 28.2589 236.275 27.3213C237.481 26.3102 238.48 25.4483 239.273 24.7356C240.151 23.8757 240.885 23.0548 241.476 22.2726L241.324 24.8317C241.264 25.532 241.211 26.2612 241.166 27.0195C241.163 27.7042 241.158 28.2651 241.151 28.7022C241.118 30.2032 241.073 31.7699 241.013 33.4025C241.011 35.0194 240.987 36.5494 240.939 37.9924C240.948 39.4198 240.976 40.6866 241.023 41.7929C241.07 42.8992 241.155 43.6844 241.278 44.1485C241.401 44.6125 241.602 45.0242 241.881 45.3837C242.16 45.7431 242.672 45.8218 243.416 45.6197C244.275 45.3866 245.62 44.5552 247.451 43.1255C249.282 41.6959 251.529 39.7493 254.191 37.2858C256.259 35.3568 258.04 33.5056 259.534 31.7321ZM62.2221 70.5595C61.409 67.4852 60.1971 64.6434 58.5865 62.0342C56.9605 59.367 55.0447 56.9961 52.8391 54.9214C50.6754 52.7733 48.2504 50.9136 45.5643 49.3424C42.8781 47.7713 40.0529 46.4865 37.0887 45.4882C36.5715 47.2451 36.0052 49.5126 35.3899 52.2908C34.8319 55.0535 34.2494 58.0716 33.6423 61.3449C33.0771 64.5448 32.5217 67.8974 31.976 71.4028C31.4303 74.9081 30.9398 78.2742 30.5045 81.501C30.0539 84.6697 29.6641 87.6043 29.335 90.3048C29.006 93.0053 28.812 95.1719 28.7528 96.8044C29.3407 96.707 30.0431 96.5785 30.8601 96.4189C31.5625 96.2904 32.4576 96.0784 33.5455 95.7831L37.5821 94.6874C38.7845 94.361 40.3668 93.9625 42.3288 93.4921C44.3482 93.0061 46.4381 92.4388 48.5985 91.7901C50.7435 91.0835 52.793 90.2474 54.7469 89.2818C56.758 88.3007 58.3565 87.1517 59.5425 85.8351C60.5454 84.7546 61.2943 83.5255 61.789 82.1477C62.2838 80.77 62.5991 79.4099 62.735 78.0674C62.9128 76.6514 62.9264 75.311 62.776 74.0462C62.6675 72.7079 62.4829 71.5456 62.2221 70.5595ZM254.66 51.7289C256.124 50.9873 256.718 49.1837 255.986 47.7004C255.254 46.2172 253.473 45.616 252.009 46.3576C249.179 47.7914 246.143 48.6401 242.871 49.3054C241.273 49.6302 239.656 49.9048 237.978 50.1896L237.846 50.212C236.139 50.5019 234.371 50.8035 232.603 51.1698C228.526 52.0147 224.514 53.0063 220.477 54.3515C218.855 54.8922 217.319 55.4515 215.824 55.9958L215.824 55.996C213.066 57.0002 210.449 57.9531 207.689 58.6434C204.317 59.4871 200.976 60.6789 197.828 62.1139C196.711 62.6232 195.493 62.9692 194.053 63.3423C193.887 63.3851 193.718 63.4286 193.545 63.4729L193.544 63.4729C192.286 63.7956 190.846 64.1648 189.45 64.691C185.362 66.2322 181.261 67.6655 177.14 68.709C175.11 69.2232 172.971 69.8915 170.93 70.5291L170.928 70.5297C169.632 70.9345 168.375 71.327 167.211 71.6598C165.468 72.1582 163.7 72.5462 161.828 72.9572C161.423 73.0461 161.013 73.1362 160.597 73.2286C158.311 73.7369 155.896 74.3102 153.522 75.1573C152.35 75.5755 151.249 76.0216 150.233 76.4326L150.201 76.4458C149.158 76.868 148.214 77.2492 147.272 77.5804C145.421 78.2311 143.685 78.6462 141.72 78.6462C141.534 78.6462 141.332 78.6595 141.209 78.6679C141.131 78.6732 141.031 78.6805 140.932 78.6877L140.928 78.688L140.737 78.7018C140.404 78.7254 140.075 78.7449 139.782 78.7475C139.232 78.4114 138.571 78.2531 137.885 78.3401C136.26 78.5458 135.108 80.0465 135.311 81.692C135.461 82.9081 136.206 83.6661 136.77 84.0436C137.286 84.3882 137.801 84.5324 138.103 84.6007C138.728 84.7419 139.38 84.7562 139.824 84.7526C140.312 84.7487 140.795 84.7177 141.151 84.6924C141.207 84.6885 141.257 84.6849 141.302 84.6816L141.384 84.6756C141.464 84.6697 141.533 84.6647 141.605 84.6597C141.676 84.6549 141.715 84.6529 141.731 84.652C141.736 84.6517 141.739 84.6516 141.74 84.6515C144.583 84.6487 147 84.0325 149.215 83.254C150.301 82.8723 151.365 82.4416 152.379 82.0308L152.401 82.0222C153.44 81.6012 154.441 81.1963 155.491 80.8216C157.498 80.1055 159.609 79.5964 161.868 79.0943C162.247 79.01 162.632 78.9255 163.022 78.8401L163.024 78.8396L163.024 78.8395C164.902 78.4277 166.885 77.9929 168.821 77.4393C170.314 77.0125 171.67 76.5862 172.985 76.1731L172.986 76.1729C174.845 75.5887 176.62 75.0308 178.578 74.535C183.018 73.4105 187.361 71.8862 191.517 70.3193C192.591 69.9145 193.7 69.6292 194.99 69.2972C195.164 69.2526 195.34 69.2071 195.521 69.1604C196.973 68.7843 198.632 68.3326 200.261 67.5902C203.104 66.294 206.107 65.2249 209.11 64.4736C212.147 63.714 215.292 62.5725 218.237 61.5031L218.238 61.5028C219.66 60.9868 221.035 60.4876 222.33 60.0561C226.08 58.8061 229.856 57.8688 233.791 57.0533C235.44 56.7116 237.107 56.4266 238.826 56.1347L238.994 56.1062C240.644 55.8261 242.345 55.5374 244.037 55.1933C247.542 54.4805 251.158 53.5031 254.66 51.7289Z" fill="url(#paint0_linear_2520_718)"/>
<defs>
<linearGradient id="paint0_linear_2520_718" x1="0" y1="0" x2="268.325" y2="24.1007" gradientUnits="userSpaceOnUse">
<stop stop-color="#091C91"/>
<stop offset="1" stop-color="#24BCFF"/>
</linearGradient>
</defs>
</svg>
