<svg width="30" height="30" viewBox="0 0 30 30" fill="none" xmlns="http://www.w3.org/2000/svg">
<path fill-rule="evenodd" clip-rule="evenodd" d="M15.8605 0.00166618C15.8522 0.0224085 15.7968 0.216155 15.7375 0.432227L15.6296 0.82505L15.2833 0.884009C15.0929 0.916417 14.9372 0.949303 14.9372 0.957072C14.9372 0.964841 15.0885 1.00924 15.2734 1.05573C15.4583 1.10219 15.6096 1.14147 15.6096 1.14297C15.6096 1.15771 15.8687 2.02182 15.8749 2.02788C15.8795 2.03236 15.9334 1.83896 15.9947 1.59815C16.0559 1.35734 16.1195 1.15029 16.1359 1.13802C16.1523 1.12578 16.2967 1.08316 16.4567 1.04331C16.6167 1.00348 16.7477 0.964238 16.7477 0.956117C16.7477 0.948021 16.6007 0.913777 16.4212 0.880087L16.0947 0.81879L15.9852 0.391371C15.9249 0.156291 15.8688 -0.0190762 15.8605 0.00166618ZM13.2691 0.0456651C13.3521 0.240895 13.3485 0.554821 13.2614 0.720609C13.1561 0.920918 12.9205 1.06885 12.5835 1.14617C12.3175 1.20721 11.6646 1.22371 11.1739 1.18182C10.4553 1.12045 9.97242 1.14458 9.44647 1.26818C9.11437 1.34622 8.83245 1.51455 8.4928 1.83765C8.16908 2.14557 8.07018 2.32783 8.07018 2.61646C8.07018 2.86575 8.15698 3.04215 8.39159 3.26966C8.75201 3.61916 9.27157 3.88192 10.7859 4.48053C11.59 4.79836 12.0435 5.00437 12.277 5.15797C12.7948 5.49849 13.0211 5.9859 12.9916 6.6975C12.9855 6.84707 12.9895 6.95363 13.0006 6.93427C13.0118 6.91491 13.0549 6.7812 13.0965 6.63716C13.3134 5.88609 13.2649 5.16164 12.9692 4.73105C12.7733 4.44589 12.5369 4.28611 12.0533 4.112C11.1943 3.80275 10.4462 3.31584 10.2784 2.95681C10.0703 2.51134 10.5109 2.20715 11.5553 2.07527C12.6174 1.94119 13.2375 1.66121 13.4774 1.20734C13.5369 1.09493 13.5519 1.02943 13.5608 0.843932C13.5734 0.581572 13.5207 0.390843 13.3682 0.146234C13.281 0.00639293 13.2308 -0.0446207 13.2691 0.0456651ZM13.0491 3.46524C13.0491 3.47758 13.0795 3.5151 13.1167 3.54864C13.2266 3.64765 13.5001 3.99775 13.6464 4.22655C14.2127 5.11238 14.389 6.08378 14.1499 7.00009C13.8376 8.19706 12.7883 9.33978 11.4807 9.90694C10.3857 10.3819 8.64188 10.5847 7.07507 10.4193C6.57263 10.3663 5.80216 10.3664 5.41908 10.4196C4.52844 10.5434 3.86699 10.8538 3.29968 11.4142L3.08131 11.63L3.18927 11.4749C3.81725 10.5729 4.6163 10.0505 5.5484 9.93248C5.74438 9.90767 5.96422 9.90787 6.6347 9.93341C7.68516 9.97344 9.38432 9.95486 9.90416 9.89769C10.1945 9.86573 10.3316 9.83579 10.6154 9.74228C12.0084 9.28331 12.9856 8.52877 13.4747 7.53449C13.7702 6.93394 13.902 6.17598 13.8266 5.51172C13.7776 5.08038 13.7588 5.05056 13.7371 5.36954C13.5615 7.95218 12.2849 9.1012 9.58838 9.10364C9.29392 9.10392 8.66275 9.09067 8.18576 9.0742C6.1813 9.00501 5.11924 9.19848 4.17809 9.80423C3.78081 10.0599 3.25162 10.5973 2.92483 11.0768C2.1932 12.1504 1.70985 13.6834 1.62678 15.1936C1.60096 15.6632 1.63099 15.7153 1.84075 15.5654C1.98169 15.4646 2.06135 15.3084 2.31549 14.6345C2.7024 13.6085 2.95377 13.0842 3.30992 12.5602C3.87511 11.7287 4.50506 11.2839 5.31138 11.1469C5.68833 11.0829 6.59278 11.0899 7.50116 11.164C8.42159 11.2391 9.43131 11.2462 9.91947 11.1811C11.3195 10.9943 12.3878 10.4653 13.3864 9.46446C14.1895 8.65961 14.6888 7.81671 14.8366 7.01636C14.8873 6.74145 14.8803 6.17208 14.8228 5.9101C14.6697 5.21205 14.3027 4.58973 13.6957 3.99888C13.3834 3.69501 13.0491 3.41903 13.0491 3.46524ZM3.79172 4.16874C3.70213 4.4973 3.61554 4.7788 3.59929 4.79426C3.58305 4.80975 3.35446 4.85958 3.09129 4.90499C2.82812 4.95042 2.60442 4.99454 2.59418 5.00307C2.58394 5.01156 2.80241 5.0749 3.07968 5.14376L3.58377 5.26897L3.60845 5.35697C3.80841 6.0701 3.95847 6.56013 3.97226 6.54499C3.98172 6.53458 4.06206 6.24135 4.15077 5.89333L4.31209 5.26055L4.50995 5.20941C4.61876 5.1813 4.83496 5.12568 4.99038 5.08583C5.1458 5.04598 5.26219 5.00721 5.24902 4.99965C5.23586 4.9921 5.01705 4.948 4.76275 4.90167C4.36933 4.82996 4.29714 4.80982 4.27862 4.76663C4.26667 4.73869 4.19663 4.46693 4.12297 4.16271C4.04933 3.85849 3.98133 3.60098 3.97187 3.59047C3.96238 3.57996 3.88132 3.84019 3.79172 4.16874ZM19.5895 7.33614L19.474 7.75805L19.1195 7.82063C18.9246 7.85503 18.7651 7.88897 18.7652 7.89606C18.7652 7.90313 18.902 7.94164 19.0691 7.98162C19.2362 8.02162 19.3918 8.06371 19.415 8.07517C19.4427 8.08888 19.5001 8.24642 19.5826 8.53583C19.6517 8.77772 19.7154 8.96192 19.7244 8.94512C19.7334 8.92833 19.7847 8.73923 19.8385 8.52489C19.8923 8.31056 19.9453 8.11802 19.9562 8.097C19.9684 8.07359 20.097 8.02982 20.2888 7.98386C20.4607 7.94265 20.6014 7.90318 20.6014 7.89614C20.6014 7.88912 20.4522 7.85651 20.2697 7.82365L19.9379 7.76389L19.838 7.35869C19.783 7.13583 19.7306 6.94468 19.7215 6.93387C19.7124 6.92308 19.653 7.1041 19.5895 7.33614ZM15.05 10.9407C14.7817 11.2354 14.4906 11.5552 14.4032 11.6514L14.2442 11.8264L14.4645 12.0425C14.7407 12.3133 14.9738 12.6016 15.172 12.9175L15.3258 13.1629L15.1971 13.2054C14.8357 13.3248 14.5983 13.6472 14.5361 14.1028C14.5193 14.2261 14.5217 14.2362 14.5658 14.2241C14.9427 14.1208 16.1987 14.1204 16.5506 14.2234C16.5949 14.2364 16.5976 14.2274 16.5812 14.1208C16.5157 13.6966 16.2532 13.3426 15.9152 13.2228C15.8114 13.186 15.7666 13.1577 15.7757 13.1348C15.8323 12.9913 16.359 12.3266 16.6564 12.0231L16.8446 11.8311L16.2389 11.1648C15.9057 10.7984 15.6116 10.4775 15.5855 10.4518C15.5391 10.4063 15.5247 10.4195 15.05 10.9407ZM24.8374 11.2029C24.0501 11.2956 23.235 11.5599 22.7211 11.8893C22.0528 12.3177 21.4373 13.1946 21.2038 14.0511C21.1154 14.3752 21.1033 14.9957 21.1798 15.2756C21.4863 16.3969 22.799 17.358 24.2215 17.5028C24.5955 17.5409 24.9018 17.5063 25.2607 17.3856C26.3503 17.0191 27.1451 16.135 27.1451 15.2894C27.1451 15.039 27.0942 14.8513 26.9474 14.5604C26.7403 14.1502 26.3076 13.7845 25.9036 13.6783C25.4363 13.5553 24.8638 13.6352 24.4419 13.8821C24.2612 13.9879 24.0183 14.2351 23.9439 14.3889C23.9134 14.4519 23.8744 14.5778 23.8572 14.6687C23.7994 14.9738 23.9224 15.2653 24.1796 15.4324C24.3424 15.5382 24.4823 15.5732 24.6805 15.5579C25.0474 15.5296 25.3176 15.2356 25.321 14.8607C25.3218 14.7709 25.3318 14.6831 25.3431 14.6657C25.385 14.6016 25.5195 14.5541 25.6117 14.571C25.7284 14.5922 25.9146 14.7597 26.0026 14.9226C26.0609 15.0305 26.0711 15.081 26.0714 15.263C26.0719 15.5511 25.9986 15.7047 25.7422 15.9528C25.5274 16.1607 25.2771 16.3117 24.9828 16.4108C24.8048 16.4708 24.7386 16.4798 24.4682 16.4802C24.1147 16.4808 23.9304 16.4415 23.6405 16.3038C23.2471 16.1168 22.9484 15.8352 22.75 15.4642C22.5027 15.0015 22.4925 14.4819 22.7214 13.9913C23.008 13.3768 23.7413 12.7672 24.4682 12.5394C24.784 12.4404 24.9801 12.4125 25.3475 12.4141C25.9854 12.417 26.5588 12.5965 27.1431 12.9765C27.6403 13.2997 28.0471 13.7509 28.3096 14.2699C28.5042 14.6548 28.5685 14.8887 28.5862 15.2758C28.6132 15.8663 28.4828 16.439 28.1973 16.9838C27.8058 17.731 27.1284 18.2755 26.2408 18.5566C25.8635 18.6761 25.6008 18.721 24.9854 18.771C24.4116 18.8177 23.705 18.9072 23.2196 18.9946L22.8764 19.0564L22.6678 18.9112C22.0684 18.4938 21.0302 17.9734 19.9996 17.5736L19.7469 17.4755H15.4335H11.1201L10.8857 17.5494C10.7569 17.59 10.4067 17.719 10.1075 17.8362C9.08007 18.2385 8.67734 18.3404 8.10897 18.3416C7.47762 18.3431 7.32896 18.2843 6.06158 17.532C4.44989 16.5754 3.7969 16.1942 3.64357 16.1205C3.32042 15.9653 3.03855 15.9284 2.56596 15.9798C1.95471 16.0462 1.37116 16.0229 0.828162 15.9106C0.476744 15.8379 0.431171 15.8426 0.239619 15.9718C0.0402314 16.1061 -0.0310766 16.2256 0.0121427 16.3529C0.0586727 16.49 0.133757 16.5346 0.458354 16.6182C1.28707 16.8316 2.1341 17.2135 3.19475 17.8517C3.37257 17.9586 3.72975 18.1686 3.98853 18.3181C5.00567 18.9059 5.72275 19.457 7.55289 21.0572C9.21884 22.5139 9.85445 23.0121 10.7418 23.5567C11.9631 24.3063 13.2205 24.742 14.5233 24.8668C14.8955 24.9025 15.9006 24.9032 16.3611 24.868C18.8473 24.6785 20.8423 23.8489 22.2965 22.4C22.8143 21.884 23.1899 21.3957 23.4955 20.841L23.629 20.5986L23.9839 20.5334C24.1791 20.4975 24.5891 20.4281 24.8949 20.3792C25.9969 20.2029 26.5725 20.0441 27.2092 19.7408C27.8146 19.4523 28.2277 19.1622 28.6859 18.7039C29.3696 18.02 29.7908 17.2396 29.9529 16.3567C30.0086 16.0528 30.0166 15.3741 29.9678 15.0745C29.7972 14.0252 29.2799 12.9872 28.5947 12.3194C27.9318 11.6733 27.1007 11.3007 26.0792 11.1917C25.752 11.1567 25.1865 11.1618 24.8374 11.2029ZM14.8854 14.6124C13.7534 14.6722 12.8886 14.9778 12.3026 15.5252C11.9157 15.8867 11.6687 16.3348 11.6052 16.7904L11.5834 16.9476H15.5384H19.4934L19.4756 16.8658C19.4659 16.8209 19.4243 16.7048 19.3833 16.6079C18.7965 15.2229 17.151 14.4929 14.8854 14.6124ZM17.7434 25.2108C17.4831 25.2647 16.7281 25.366 16.3777 25.394C15.5412 25.4609 14.6021 25.4018 13.9565 25.2417C13.851 25.2156 13.7596 25.1991 13.7534 25.2051C13.7332 25.2248 13.9829 25.9585 14.0461 26.0646C14.1897 26.3059 14.5566 26.5458 14.9257 26.6396C15.0245 26.6647 15.1198 26.7027 15.1376 26.7239C15.1889 26.7853 15.178 27.1248 15.1187 27.3112L15.0675 27.4725L14.6079 27.5292C14.0346 27.5999 13.4008 27.7188 13.1937 27.7947C12.6636 27.9886 12.2002 28.3153 11.8753 28.7241C11.6557 29.0004 11.6033 29.0903 11.5846 29.2231C11.5634 29.3737 11.6064 29.4898 11.7239 29.599C11.8512 29.7173 11.9118 29.7334 12.5059 29.8066C14.2524 30.0217 16.4146 30.0602 18.209 29.9079C19.0226 29.8389 19.7258 29.745 19.8478 29.6889C20.0711 29.5865 20.1777 29.293 20.0677 29.0837C19.9684 28.8948 19.7543 28.6276 19.5454 28.4318C19.222 28.1288 18.9495 27.9572 18.5401 27.7989C18.2792 27.6981 17.7148 27.5937 17.0322 27.5201C16.8259 27.4979 16.6432 27.4752 16.6263 27.4697C16.5674 27.4506 16.489 27.1356 16.4894 26.9201C16.4896 26.8075 16.4984 26.7027 16.5088 26.6872C16.5193 26.6718 16.5976 26.6396 16.683 26.6158C17.0372 26.517 17.383 26.2776 17.5867 25.99C17.6722 25.8693 17.9253 25.239 17.9059 25.195C17.9019 25.186 17.8288 25.1931 17.7434 25.2108Z" fill="white"/>
</svg>
