<svg width="30" height="30" viewBox="0 0 30 30" fill="none" xmlns="http://www.w3.org/2000/svg">
<path fill-rule="evenodd" clip-rule="evenodd" d="M3.01986 0.039046C1.66854 0.204835 0.586146 1.14344 0.110768 2.56175C0.00480876 2.87789 0 3.17762 0 9.47213V16.052L0.132287 16.4832C0.290141 16.9976 0.744878 17.7194 1.13001 18.0668C1.52676 18.4247 2.05514 18.7086 2.58072 18.8464C3.0259 18.963 3.23389 18.9664 10.0638 18.9664H17.0891L17.4575 18.7211C18.3228 18.1451 19.5935 17.6305 20.7163 17.4012L21.3631 17.2691L21.3862 16.3902C21.4137 15.3475 21.5155 15.0056 21.9437 14.5174C22.0991 14.3404 22.1891 14.1919 22.1551 14.169C22.1225 14.1471 20.9587 13.2962 19.5688 12.2781L17.0417 10.4271L15.4625 11.4819C14.5941 12.0621 13.8686 12.5367 13.8504 12.5367C13.8322 12.5367 13.1232 12.0725 12.2748 11.5052C11.4264 10.9378 10.7038 10.4737 10.669 10.4737C10.6209 10.4737 6.58223 13.4036 2.78531 16.1932C2.56465 16.3552 2.7819 16.1236 6.65365 12.0675C8.80385 9.815 9.18248 9.39281 9.1127 9.32539C9.06737 9.28152 7.32828 7.88809 5.2481 6.22882C3.16792 4.56955 1.42637 3.17101 1.37799 3.12095C1.32962 3.0709 1.43517 3.11122 1.61255 3.21055C1.78992 3.30988 3.63702 4.33045 5.71721 5.47847C7.79739 6.62644 10.4737 8.10502 11.6646 8.76415C13.5871 9.82828 13.8453 9.95531 13.9686 9.89775C14.0449 9.86211 15.1288 9.26836 16.3771 8.57841C22.1804 5.37079 26.1653 3.17371 26.2991 3.10791C26.4892 3.01447 26.8765 2.69996 22.3839 6.28735L18.5085 9.38199L19.2234 10.1331C19.6165 10.5462 20.5798 11.5549 21.364 12.3746L22.7898 13.865L22.9971 13.7949C23.1217 13.7528 23.4182 13.7352 23.7403 13.751C24.5741 13.7918 24.7112 13.8747 26.2243 15.2544C26.9409 15.9079 27.5386 16.4426 27.5524 16.4426C27.5662 16.4426 27.6131 16.3006 27.6566 16.1271C27.7206 15.872 27.7358 14.5929 27.7358 9.44208C27.7358 3.54507 27.7281 3.0441 27.6325 2.68939C27.2987 1.45153 26.3712 0.489723 25.1503 0.115481C24.825 0.015791 24.1499 0.0087605 14.1024 0.000768495C8.21665 -0.00391854 3.22949 0.0133274 3.01986 0.039046ZM23.2766 15.6287L23.1327 15.7761V17.3322V18.8882L22.5317 18.9283C20.1999 19.0839 18.4671 19.857 17.0585 21.3704C15.4931 23.0522 14.5677 25.8277 14.4842 29.0916C14.4698 29.6534 14.4736 30.059 14.4925 29.9929C15.5086 26.4506 16.7568 24.787 18.8814 24.1432C19.6047 23.9241 20.3153 23.8309 21.6919 23.7747C22.4314 23.7445 23.0581 23.7335 23.0846 23.7502C23.1111 23.767 23.1327 24.4834 23.1327 25.3422V26.9038L23.2766 27.0512C23.3803 27.1574 23.4846 27.1987 23.6493 27.1987C23.8682 27.1987 24.0055 27.0815 26.8624 24.4552C28.5038 22.9462 29.8821 21.6453 29.9253 21.5641C30.125 21.1894 30.1435 21.2097 27.0447 18.3827C25.4575 16.9347 24.0827 15.6895 23.9897 15.6156C23.7598 15.4329 23.4623 15.4384 23.2766 15.6287Z" fill="white"/>
</svg>
