<svg width="16" height="17" viewBox="0 0 16 17" fill="none" xmlns="http://www.w3.org/2000/svg">
<path d="M4.00475 11.312V12.8H9.45275V13.616H4.00475V17H2.75675V13.616H0.18875V12.8H2.75675V0.199999H8.80475C10.9168 0.199999 12.5648 0.687999 13.7488 1.664C14.9488 2.624 15.5488 3.984 15.5488 5.744C15.5488 7.504 14.9488 8.872 13.7488 9.848C12.5648 10.824 10.9168 11.312 8.80475 11.312H4.00475ZM4.00475 1.304V10.232H8.82875C10.5888 10.232 11.9408 9.848 12.8848 9.08C13.8288 8.296 14.3008 7.192 14.3008 5.768C14.3008 4.328 13.8288 3.224 12.8848 2.456C11.9568 1.688 10.6048 1.304 8.82875 1.304H4.00475Z" fill="#1F2A3C"/>
</svg>
