<svg width="16" height="36" fill="none" xmlns="http://www.w3.org/2000/svg">
<path fill-rule="evenodd" clip-rule="evenodd" d="M8.50959 0.287616C8.32073 0.445776 8.06543 0.750315 7.94217 0.964314C7.78199 1.24236 7.70516 1.32005 7.67296 1.23651C7.638 1.14589 7.58764 1.1786 7.44938 1.38196C7.35126 1.52626 7.24372 1.73219 7.21025 1.83966C7.17687 1.94712 7.10939 2.02702 7.06029 2.01717C6.92572 1.99025 6.94827 2.81147 7.09061 3.12101C7.17757 3.31016 7.23382 3.35985 7.29659 3.3028C7.34404 3.25967 7.43438 3.24232 7.49722 3.26424C7.62826 3.30994 8.33425 2.71514 8.51077 2.41039C8.73073 2.03045 8.78139 1.85972 8.66175 1.90142C8.58139 1.92948 8.59262 1.86808 8.70441 1.66872C8.90481 1.31148 8.91117 1.14897 8.71886 1.29906C8.43166 1.52319 8.36394 1.51498 8.55986 1.27963C8.8202 0.967027 9.10081 0 8.9312 0C8.88807 0 8.69836 0.129384 8.50959 0.287616ZM8.24249 3.15707C7.97524 3.39184 7.75654 3.64361 7.75654 3.71652C7.75654 3.94365 7.58073 4.21285 7.43249 4.21285C7.26603 4.21285 7.12808 4.00863 7.12808 3.76214C7.12808 3.66618 7.07883 3.55057 7.01873 3.50516C6.95856 3.45982 6.86625 3.32815 6.81354 3.21255C6.73718 3.04489 6.69052 3.01569 6.58282 3.0681C6.28917 3.21098 5.62042 3.81805 5.42803 4.11652C5.11208 4.60657 5.17398 5.26342 5.58185 5.74804C5.69819 5.88635 5.71594 5.87685 6.14172 5.44957C6.59955 4.99008 7.27326 4.49847 7.44506 4.49847C7.65229 4.49847 9.58558 5.61116 9.87616 5.8977C10.2185 6.23537 10.3478 6.57226 10.3484 7.1285C10.3491 7.62683 10.4378 7.59377 10.9555 6.90257C11.6498 5.97568 11.7878 5.09369 11.3459 4.40821C10.942 3.78178 10.0277 3.1365 9.15925 2.86488L8.72837 2.73014L8.24249 3.15707ZM7.04528 5.06063C6.69901 5.26406 6.23371 5.67749 6.01847 5.97296C5.85279 6.20046 5.95201 7.2768 6.18359 7.76464C6.34644 8.10752 6.72406 8.48903 7.09045 8.68075C7.21041 8.74352 7.23736 8.84648 7.24011 9.25199C7.24443 9.89077 7.00954 10.361 6.36357 11.0067C6.10237 11.2677 5.84485 11.6022 5.7912 11.7499C5.61728 12.2289 5.80644 13.5911 6.23403 14.9391C6.26883 15.0487 6.69178 15.2077 6.95133 15.2087C7.01889 15.209 7.04953 15.0769 7.04953 14.7849C7.04953 14.5515 7.08488 14.3408 7.12808 14.3165C7.17545 14.2899 7.20664 14.3861 7.20664 14.5589C7.20664 14.9691 7.33862 15.1867 7.6182 15.2375C8.01397 15.3094 8.51839 15.2857 8.60048 15.1912C8.64321 15.1422 8.70142 14.8858 8.72994 14.6217L8.78179 14.1415L8.48515 14.0289C7.92701 13.8169 7.57327 13.3672 7.74515 13.088C7.80336 12.9934 7.82701 13.0138 7.87123 13.1969C7.90124 13.3209 8.00996 13.4825 8.11287 13.5561C8.31838 13.703 8.76615 13.8877 8.81132 13.8442C8.82703 13.8291 8.89679 13.3187 8.96647 12.7099C9.03615 12.1012 9.1481 11.4104 9.21526 11.1748C9.30718 10.8524 9.957 9.53525 10.3283 8.91867C10.3424 8.89525 10.2158 8.79307 10.0471 8.69153C9.62266 8.43626 9.58291 8.22962 9.87703 7.80812C10.3961 7.06409 10.0558 6.25529 8.93772 5.57517C8.35137 5.2185 7.62519 4.85549 7.49817 4.85549C7.44113 4.85549 7.23736 4.94781 7.04528 5.06063ZM6.95337 6.36754C7.0793 6.482 6.92988 6.64059 6.69602 6.64059C6.46216 6.64059 6.31274 6.482 6.43867 6.36754C6.48949 6.32134 6.60529 6.28357 6.69602 6.28357C6.78675 6.28357 6.90255 6.32134 6.95337 6.36754ZM8.81274 6.36618C8.96765 6.43031 8.99263 6.47022 8.92468 6.5447C8.82421 6.65466 8.47918 6.66994 8.30872 6.57197C8.18295 6.49964 8.19041 6.48636 8.42427 6.36768C8.61902 6.26879 8.57801 6.269 8.81274 6.36618ZM0.917133 6.89593C0.823178 6.99883 0.829306 7.09808 0.993176 8.1338C1.0312 8.37414 1.11101 8.56343 1.20426 8.63441C1.28666 8.69718 1.46907 8.86976 1.60946 9.01799C2.04199 9.47455 1.93594 9.99659 1.41078 9.99659C1.32822 9.99659 1.19664 10.0609 1.11847 10.1394C0.931823 10.3269 0.752791 10.3199 0.542966 10.117C0.310437 9.89191 0.325755 9.7893 0.561898 9.99088C0.838104 10.2267 1.0792 10.14 1.0792 9.80487C1.0792 9.60558 1.01391 9.49205 0.774237 9.27412C0.398735 8.93288 0.191737 8.91753 0.0534768 9.22085C-0.0791273 9.51204 0.0363517 10.0376 0.383495 10.7221C0.703458 11.3531 0.97173 11.5675 1.44126 11.5675C1.9346 11.5675 2.26533 11.4201 2.59652 11.0527C3.06787 10.5299 3.23276 10.1178 3.23354 9.46106C3.23425 8.80949 3.10031 8.47411 2.82505 8.43841C2.68215 8.41991 2.61781 8.47539 2.49361 8.72402C2.40885 8.89375 2.33878 9.09076 2.33784 9.1618C2.33689 9.23285 2.30029 9.27084 2.25645 9.2462C2.09863 9.15759 1.86186 8.63412 1.70765 8.03297C1.46334 7.08066 1.1543 6.63616 0.917133 6.89593ZM0.548622 8.75873C0.485777 8.78172 0.575253 8.90546 0.795134 9.09968C0.990741 9.27248 1.1638 9.5019 1.19452 9.62914C1.24817 9.85121 1.34158 9.89477 1.58337 9.81044C1.91441 9.69498 1.55604 9.11168 0.993883 8.85098C0.828206 8.77415 0.682404 8.71388 0.669913 8.71695C0.657344 8.72002 0.602748 8.73888 0.548622 8.75873ZM6.5023 8.96844C5.93512 9.10696 5.09338 9.53989 5.0127 9.73454C4.97735 9.81972 4.88677 10.3554 4.81144 10.9248C4.63154 12.2837 4.7024 13.6 5.0519 15.3947L5.17846 16.0445L5.62301 16.1186C5.86748 16.1595 6.08304 16.1798 6.10197 16.1636C6.1209 16.1475 6.00629 15.5967 5.84729 14.9398C5.53534 13.6515 5.39983 12.7902 5.39983 12.097C5.39983 11.6174 5.52733 11.3856 6.10771 10.8102C6.27032 10.6489 6.44668 10.4435 6.49955 10.3537C6.60324 10.1777 7.04953 9.00778 7.04953 8.9121C7.04953 8.83863 7.02195 8.84148 6.5023 8.96844ZM10.6517 9.04241C10.4345 9.26591 9.7247 10.5762 9.56186 11.0543C9.47741 11.3022 9.35431 11.977 9.28824 12.5538C9.22225 13.1306 9.10033 14.0523 9.01738 14.6022C8.79192 16.0958 8.79161 16.1726 9.0107 16.3846C9.14315 16.5127 9.27976 16.5658 9.47756 16.5658C9.71889 16.5658 12.2435 16.2196 12.2907 16.18C12.3511 16.1295 11.9817 15.2507 11.8177 15.0548C11.5241 14.7038 11.2343 14.1472 11.0958 13.6678C10.9365 13.1169 10.9337 11.8681 11.0902 11.2547C11.2519 10.6207 11.6252 9.89227 11.8601 9.75239C12.0553 9.63614 12.1952 9.64821 13.4519 9.88934C13.7344 9.94354 13.2756 9.66392 12.5004 9.30939C11.9447 9.05527 11.6724 8.97394 11.2828 8.94573C10.8602 8.9151 10.7606 8.93038 10.6517 9.04241ZM11.7675 10.3862C11.4409 10.9782 11.2894 11.645 11.2819 12.5239C11.275 13.3451 11.4021 13.8685 11.7502 14.4539L11.9593 14.8053L12.0431 14.0611C12.1107 13.4593 12.1061 13.271 12.0188 13.0771C11.8673 12.7405 11.9314 12.7364 12.1677 13.0675C12.3531 13.3275 12.3626 13.3799 12.2943 13.7612C12.1838 14.3772 12.2857 15.3763 12.5107 15.8826C12.6149 16.1171 12.6925 16.3145 12.6832 16.3213C12.674 16.3281 12.2088 16.4107 11.6496 16.5049L10.6328 16.6761L10.6534 17.0789C10.6646 17.3004 10.6147 17.6962 10.5423 17.9586C10.4699 18.2209 10.441 18.4595 10.478 18.4886C10.515 18.5178 11.1757 18.696 11.9463 18.8845C13.213 19.1944 13.4051 19.2237 13.9509 19.1897C15.187 19.1127 15.3554 18.9104 15.4515 17.3869C15.5016 16.5928 15.5474 16.3671 15.7685 15.825C16.0123 15.2274 16.0243 15.1543 15.9797 14.5398C15.9309 13.8663 15.8468 13.5608 15.5006 12.8006C15.3804 12.5367 15.2977 12.2172 15.2972 12.0152C15.2958 11.3638 14.7996 10.7022 14.0585 10.3637C13.5951 10.152 13.2181 10.06 12.5901 10.0055L12.0056 9.95475L11.7675 10.3862ZM4.37498 10.2204C3.87284 10.4927 3.50236 10.8855 3.15074 11.5181C2.80635 12.1379 2.80242 12.1531 2.88286 12.5488C2.97603 13.007 2.98405 14.1773 2.89693 14.6022C2.84296 14.8654 2.83384 14.8429 2.78176 14.3165C2.71939 13.6863 2.56408 12.616 2.52967 12.5797C2.51765 12.567 2.3922 12.611 2.25079 12.6774C2.05157 12.7711 1.86005 12.7904 1.399 12.7636C1.07189 12.7447 0.754363 12.7167 0.693324 12.7017C0.515392 12.6577 0.352858 13.4881 0.342253 14.4951C0.328427 15.8151 0.564333 16.397 1.24063 16.7106C1.62493 16.8888 1.91449 16.8886 2.23697 16.7099C2.61931 16.498 3.71659 15.5256 4.22038 14.9522L4.66564 14.4454L4.56658 13.8097C4.43138 12.9424 4.43389 11.5224 4.572 10.7493C4.63484 10.3975 4.67718 10.1014 4.66627 10.0914C4.65527 10.0814 4.52415 10.1395 4.37498 10.2204ZM6.34251 15.4343C6.34251 15.5589 6.362 15.5689 6.46035 15.4947C6.52516 15.4458 6.57818 15.3971 6.57818 15.3865C6.57818 15.3759 6.52516 15.3487 6.46035 15.3261C6.37873 15.2976 6.34251 15.3309 6.34251 15.4343ZM8.46355 15.4947C8.39874 15.5328 8.2593 15.5644 8.15372 15.565C7.96951 15.566 7.97257 15.5734 8.22788 15.7446C8.37431 15.8428 8.50102 15.9231 8.50951 15.9231C8.51799 15.9231 8.53936 15.8107 8.55703 15.6732C8.57471 15.5358 8.58736 15.4238 8.58524 15.4244C8.58312 15.425 8.52836 15.4567 8.46355 15.4947ZM6.6371 15.6393C6.42186 15.7594 6.47473 15.9704 6.77458 16.1878C6.9258 16.2975 7.04953 16.4275 7.04953 16.4765C7.04953 16.6092 6.8005 16.5865 5.96033 16.3773C5.12362 16.169 4.72298 16.1507 4.54474 16.3127C4.43971 16.4082 4.44788 16.4406 4.61866 16.6067C4.83799 16.82 5.90401 17.4746 6.4023 17.702C6.68023 17.8288 7.99362 18.0589 8.46866 18.064C8.65036 18.0659 8.86985 17.5901 8.91463 17.097L8.95406 16.6641L8.51226 16.3062C7.80257 15.7313 6.99014 15.4423 6.6371 15.6393ZM5.42819 17.619C5.44956 17.6877 5.49096 17.9462 5.5201 18.1934C5.56291 18.556 5.60887 18.6641 5.75758 18.7527C5.99757 18.8956 6.2345 18.8239 6.38266 18.5636C6.50796 18.3433 6.54071 17.9939 6.43607 17.9939C6.40112 17.9939 6.1671 17.8814 5.91595 17.7439C5.38891 17.4555 5.37626 17.4523 5.42819 17.619ZM6.81268 18.4168C6.81095 18.8024 6.66373 18.9839 6.1517 19.232C5.82325 19.3911 5.64367 19.5326 5.54296 19.7117C5.17484 20.3662 5.15725 21.7712 5.5073 22.5542C5.87816 23.3839 6.44959 23.9913 7.45009 24.6196C9.08824 25.6482 9.21856 26.7327 7.88506 28.2404C7.64106 28.5163 7.38426 28.9001 7.31199 29.0972C7.03201 29.8602 7.22039 31.0221 7.76549 31.8938C8.04634 32.3428 8.81172 33.001 9.33161 33.2404C9.57356 33.3519 10.0004 33.4532 10.4898 33.5154C11.6349 33.6609 12.3059 33.9708 12.7895 34.5777C13.165 35.0489 13.0485 35.4733 12.4507 35.8111L12.1165 36L12.47 35.9559C12.9601 35.895 13.613 35.5922 13.8381 35.3217C14.238 34.8412 14.2951 33.9345 13.9647 33.314C13.7482 32.9077 13.0309 32.2898 12.162 31.761C11.2772 31.2227 11.1083 31.0375 11.1083 30.6064C11.1083 30.1341 11.4565 29.7037 12.7102 28.6267C14.3001 27.2607 14.5541 26.8221 14.5468 25.4556C14.5411 24.3985 14.4031 23.9605 13.6574 22.6351C12.9036 21.2952 12.7524 20.8643 12.8086 20.2166C12.8312 19.9563 12.8615 19.6831 12.8759 19.6096C12.8964 19.5046 12.822 19.4544 12.5297 19.3756C12.1828 19.2821 12.1109 19.2875 11.4753 19.4549C10.6028 19.6849 9.90751 19.7512 9.53633 19.6399C9.18675 19.535 8.72515 19.0604 8.61674 18.6945C8.52726 18.3925 8.55264 18.4024 7.50123 18.2567L6.81386 18.1614L6.81268 18.4168ZM9.02335 18.7802C9.27489 19.1874 9.5965 19.4219 9.90326 19.422C10.2796 19.4221 11.466 19.194 11.394 19.1355C11.3592 19.1073 10.836 18.9657 10.2311 18.821C9.6262 18.6762 9.06506 18.5399 8.98407 18.5181C8.84982 18.4819 8.85327 18.505 9.02335 18.7802Z" fill="white"/>
</svg>
