<svg width="119" height="125" viewBox="0 0 119 125" fill="none" xmlns="http://www.w3.org/2000/svg">
<path d="M39.2064 8.17873C44.2313 3.31162 50.6711 0.490011 57.8335 0.0172472C58.6153 -0.0342975 61.6499 0.0377154 62.4691 0.127326C64.8281 0.385361 66.7037 0.788172 68.8392 1.49532L69.4384 1.69376L69.4553 3.20703C69.4661 4.17708 69.4497 4.7203 69.4096 4.7203C69.3752 4.7203 69.1406 4.6393 68.8881 4.54027C66.7623 3.70613 64.1333 3.12179 61.5359 2.90612C60.374 2.80965 57.4166 2.86488 56.4144 3.00172C54.2544 3.2967 52.9748 3.58482 51.148 4.1875C42.1225 7.1653 35.3442 14.9888 33.7655 24.2506C33.4508 26.0967 33.3752 27.1633 33.4138 29.2134C33.4488 31.069 33.5021 31.6294 33.809 33.3632C34.2609 35.9172 35.2358 38.6588 36.5273 41.0075C39.7604 46.8874 45.1766 51.3156 51.5895 53.3222C53.25 53.8417 54.4825 54.1054 56.509 54.3745C57.6852 54.5307 61.3976 54.5307 62.5322 54.3744C64.7766 54.0654 66.2261 53.7373 68.0064 53.1355C71.7261 51.8782 75.1821 49.7424 77.9858 46.9684C82.6241 42.3792 85.356 36.224 85.603 29.8062C85.6927 27.477 85.509 25.3507 85.0114 22.9563L84.969 22.7524L87.9129 22.7859L87.9602 23.0043C88.0388 23.3668 88.319 25.3018 88.3894 25.9685C88.4256 26.3117 88.473 27.2103 88.4947 27.9654C88.7223 35.8886 85.5846 43.5682 79.8347 49.1607C75.4669 53.4089 69.764 56.2215 63.7936 57.0718C62.1347 57.3081 61.3909 57.3561 59.4417 57.3528C57.3412 57.3492 56.419 57.2749 54.501 56.9548C51.8683 56.5155 49.176 55.6465 46.67 54.4271C40.9458 51.642 36.2619 46.9955 33.4567 41.3196C31.4949 37.3499 30.4937 33.0802 30.4937 28.683C30.4937 20.9502 33.6222 13.5876 39.2064 8.17873Z" fill="url(#paint0_linear_2919_83)"/>
<path d="M73.2182 14.0266C77.0289 10.9432 80.6279 8.3494 84.6367 5.79725C85.2966 5.37709 85.8521 5.03306 85.871 5.03281C85.8899 5.03256 86.1849 5.67687 86.5264 6.46465L87.1474 7.89691L85.5521 9.44438C77.0123 17.7277 68.8379 28.3837 62.7514 39.1667C61.4178 41.5292 59.4605 45.4962 58.9406 46.8903C58.8604 47.1055 58.7738 47.2944 58.7483 47.31C58.7228 47.3256 58.5207 47.1498 58.2992 46.9193C58.0777 46.6888 53.5995 42.1052 48.3477 36.7336C43.0958 31.3619 38.6692 26.8334 38.5108 26.6702C38.2335 26.3846 38.2274 26.3703 38.3468 26.2861C38.4677 26.2008 41.8588 23.4744 42.9057 22.6207C43.1942 22.3855 43.4555 22.1931 43.4865 22.1931C43.5174 22.1931 43.8916 22.4683 44.318 22.8048C45.317 23.593 48.4154 26.0343 50.2335 27.4657C51.014 28.0802 52.485 29.2397 53.5024 30.0424C54.5198 30.8452 55.3593 31.4925 55.3678 31.4809C55.4279 31.3999 56.5191 30.1244 56.8539 29.7438C61.7909 24.1329 67.4729 18.6755 73.2182 14.0266Z" fill="url(#paint1_linear_2919_83)"/>
<path d="M5.17207 68.657C7.75504 63.4495 10.5355 60.0412 14.0098 57.8236C14.4063 57.5706 14.8222 57.3587 14.9341 57.353C15.1884 57.3398 19.9128 60.1333 21.4886 61.2286C22.8397 62.1676 25.2731 64.4282 25.2731 64.7443C25.2731 64.8621 24.7358 65.5101 24.0791 66.1842C18.013 72.4116 13.9433 81.6197 12.7491 91.8195C12.6 93.093 12.478 94.6364 12.478 95.2495C12.478 95.871 12.3986 96.3642 12.2985 96.3642C12.1998 96.3642 9.39226 95.0211 6.05961 93.3797L0 90.3951L0.108307 88.2089C0.431066 81.6896 2.3141 74.419 5.17207 68.657Z" fill="url(#paint2_linear_2919_83)"/>
<path d="M95.4204 63.2916C97.1155 61.689 99.3072 60.1599 102.146 58.5992C103.225 58.006 104.18 57.5207 104.269 57.5207C104.678 57.5207 106.989 59.3591 108.621 60.9841C112.159 64.5066 114.858 69.0734 116.736 74.7152C118.108 78.8395 118.766 82.5379 118.906 86.9206L119 89.8606L118.433 90.2897C118.121 90.5256 115.34 91.8992 112.253 93.3423L106.639 95.966L106.512 95.3187C106.443 94.9628 106.258 93.3049 106.103 91.6346C105.2 81.9278 103.405 75.4078 100.334 70.6831C99.2618 69.0328 96.5154 66.3585 95.0515 65.5388C94.4388 65.1958 93.9367 64.8662 93.9356 64.8061C93.9346 64.7461 94.6026 64.0646 95.4204 63.2916Z" fill="url(#paint3_linear_2919_83)"/>
<path d="M48.7388 64.7163C49.1819 64.6563 52.2132 64.4223 55.4749 64.1962C58.7367 63.9703 62.0542 63.8244 62.8472 63.8723C65.9852 64.0613 68.6163 64.8678 74.1347 67.3322C81.3722 70.5641 83.7632 71.4188 85.5661 71.4188C87.2044 71.4188 88.1074 71.0486 91.903 68.8206L92.4853 68.4788L93.3399 68.9243C94.3727 69.4626 96.2151 71.1344 97.2602 72.4815C100.517 76.6796 102.944 84.1331 102.944 89.9369V91.3313L102.088 91.6877C101.203 92.0562 99.7676 92.518 98.978 92.6883C98.7294 92.742 97.5273 93.4317 96.3065 94.2211C95.0858 95.0104 93.9917 95.6036 93.8753 95.5394C93.8572 95.5295 93.6946 95.4085 93.4054 95.1935C91.8295 94.0214 86.4956 90.0544 80.3219 86.0294C67.3725 77.5868 65.2705 76.6901 63.6575 76.0019C63.3205 75.8582 63.0049 75.7235 62.6161 75.5311C58.346 73.4171 55.0402 73.0397 51.68 74.2829C50.7041 74.6439 49.4021 75.4527 45.8858 77.8825C43.1801 79.7524 41.6386 80.3222 39.2766 80.3258C38.504 80.327 37.342 80.1962 36.6943 80.0355C35.3613 79.7044 35.3098 79.6342 35.0025 77.7318C34.6385 75.4789 34.8845 75.1163 38.8848 72.009C40.1701 71.0106 42.4023 69.0834 43.8451 67.7265C46.5737 65.1606 46.8878 64.9672 48.7388 64.7163Z" fill="url(#paint4_linear_2919_83)"/>
<path d="M19.3068 79.7312C21.0839 75.6364 23.1785 72.4968 26.2395 69.3396C27.3163 68.2292 28.2984 67.3206 28.4222 67.3206C28.8234 67.3206 33.0741 68.2067 34.4276 68.5725C36.0821 69.0196 37.1875 69.4861 37.1875 69.8529C37.1875 70.0049 37.0283 70.8348 36.8156 71.3235C36.6025 71.8135 36.0011 72.1783 35.4631 72.5046C35.2995 72.6038 35.1417 72.6995 35.0025 72.7941C33.6344 73.7239 33.4074 75.0434 33.1776 76.3795C33.1513 76.5324 33.125 76.6855 33.0969 76.8382C32.7815 78.5532 33.055 80.7535 35.0025 81.6176C37.9639 82.9317 43.3291 82.4581 47.2281 79.4118C51.1499 76.3479 52.2841 76.1069 55.4661 76.1029C56.6246 76.1016 57.6632 76.5692 58.6523 77.0145C59.114 77.2223 59.565 77.4254 60.0123 77.5735C65.1281 79.2682 74.2566 84.7506 86.6469 93.75C88.679 95.226 90.7816 96.4302 92.3619 97.3353C93.5981 98.0432 94.5147 98.5681 94.8281 98.8971C95.5861 99.6925 96.6552 101.457 96.7669 102.529C96.8489 103.315 96.7859 103.64 96.3995 104.42C95.5965 106.042 93.9517 106.814 91.6616 106.646L90.3804 106.552L90.2755 108.184C89.993 112.578 88.357 114.004 83.6001 114.004H81.9346L80.3219 119.08L79.5138 119.208C79.0695 119.279 77.5995 119.387 76.2472 119.449L73.7885 119.562L73.5863 120.907C73.362 122.398 72.6856 123.819 71.9554 124.333C70.7352 125.193 68.8306 125.222 66.399 124.418C64.5305 123.801 59.523 121.451 59.5176 121.19C59.5169 121.155 59.5832 121.086 59.6861 120.98C59.9271 120.729 60.3683 120.271 60.6156 119.562C61.8202 118.069 61.6248 115.743 61.3594 114.19C61.193 113.216 60.4086 112.88 58.7563 112.868C58.0781 112.862 57.1554 112.986 56.3931 113.238C55.9614 113.38 55.5645 113.654 55.3224 113.82C55.1857 113.914 55.0983 113.975 55.0817 113.958C55.0625 113.939 55.1354 113.79 55.2456 113.564C55.401 113.246 55.6306 112.776 55.7812 112.304C56.783 109.169 57.1271 107.823 56.3931 106.681C54.7421 104.114 51.9065 103.463 49.4594 105.882C49.0516 106.286 48.7278 106.918 48.5478 107.269C48.4624 107.436 48.4094 107.539 48.3951 107.525C48.3951 107.4 48.4134 107.248 48.4355 107.065C48.4962 106.56 48.585 105.823 48.3951 104.779L47.6 102.273L46.3868 101.838C44.2061 101.233 43.0165 101.388 41.65 102.941L40.9062 103.515L40.5344 102.273C39.2322 99.4052 38.7621 99.0293 38.3127 98.6699C38.2725 98.6377 38.2324 98.6056 38.1919 98.5719C37.9104 98.3376 37.4633 98.1478 37.1982 98.15C36.1658 98.1583 34.0514 98.2655 31.6094 100.368C31.1232 100.786 30.9236 101.355 30.7885 101.739C30.6919 102.014 30.6282 102.196 30.5163 102.16C29.8429 101.949 27.3956 100.267 25.1148 98.4466C21.7979 95.7999 20.9258 95.2739 18.2682 94.3167C16.4047 93.6457 15.9114 93.4004 15.9738 93.1757C16.0176 93.0183 16.1068 92.3284 16.172 91.6424C16.5112 88.08 17.7863 83.2346 19.3068 79.7312Z" fill="url(#paint5_linear_2919_83)"/>
<path d="M31.2337 108.288C30.4595 104.719 32.2343 100.739 34.9619 99.9272C35.6523 99.7215 35.8962 99.7244 36.708 99.9473C38.6721 100.486 39.4388 102.663 38.6046 105.334C37.7651 108.021 34.8138 109.81 32.0625 109.3C31.4725 109.191 31.4139 109.119 31.2337 108.288Z" fill="url(#paint6_linear_2919_83)"/>
<path d="M37.8918 112.304C37.8807 108.767 40.0879 104.926 42.9428 103.515C44.9255 102.536 46.3045 102.871 46.7348 104.437C47.3601 106.712 45.8305 111.562 43.7237 113.984C42.5002 115.391 40.0801 116.072 38.9897 115.317C38.3076 114.845 37.8963 113.716 37.8918 112.304Z" fill="url(#paint7_linear_2919_83)"/>
<path d="M48.5818 108.891C49.7218 107.684 50.42 107.194 51.7304 106.681C52.2404 106.482 52.9321 106.367 53.4762 106.391C54.3318 106.43 54.388 106.463 54.5924 107.055C54.8955 107.934 54.8773 110.348 54.5582 111.606C54.1294 113.296 52.1015 117.184 51.0983 118.24C50.1158 119.274 48.7373 119.966 47.3185 120.137L46.3868 120.249L45.9795 119.22C45.4029 117.764 45.4052 114.952 45.9844 113.291C46.6094 111.501 47.431 110.109 48.5818 108.891Z" fill="url(#paint8_linear_2919_83)"/>
<path d="M53.2055 119.529C53.7203 116.723 55.5556 114.659 57.9533 114.19C59.7491 113.839 59.9009 113.947 60.0123 115.662C60.155 117.861 59.1171 120.47 57.3844 122.266C56.3172 123.372 54.9582 123.763 54.1864 123.186C53.9941 123.042 53.7011 122.922 53.5356 122.919C53.1096 122.911 52.9278 121.044 53.2055 119.529Z" fill="url(#paint9_linear_2919_83)"/>
<defs>
<linearGradient id="paint0_linear_2919_83" x1="0" y1="0" x2="122.246" y2="4.17326" gradientUnits="userSpaceOnUse">
<stop stop-color="#091C91"/>
<stop offset="1" stop-color="#24BCFF"/>
</linearGradient>
<linearGradient id="paint1_linear_2919_83" x1="0" y1="0" x2="122.246" y2="4.17326" gradientUnits="userSpaceOnUse">
<stop stop-color="#091C91"/>
<stop offset="1" stop-color="#24BCFF"/>
</linearGradient>
<linearGradient id="paint2_linear_2919_83" x1="0" y1="0" x2="122.246" y2="4.17326" gradientUnits="userSpaceOnUse">
<stop stop-color="#091C91"/>
<stop offset="1" stop-color="#24BCFF"/>
</linearGradient>
<linearGradient id="paint3_linear_2919_83" x1="0" y1="0" x2="122.246" y2="4.17326" gradientUnits="userSpaceOnUse">
<stop stop-color="#091C91"/>
<stop offset="1" stop-color="#24BCFF"/>
</linearGradient>
<linearGradient id="paint4_linear_2919_83" x1="0" y1="0" x2="122.246" y2="4.17326" gradientUnits="userSpaceOnUse">
<stop stop-color="#091C91"/>
<stop offset="1" stop-color="#24BCFF"/>
</linearGradient>
<linearGradient id="paint5_linear_2919_83" x1="0" y1="0" x2="122.246" y2="4.17326" gradientUnits="userSpaceOnUse">
<stop stop-color="#091C91"/>
<stop offset="1" stop-color="#24BCFF"/>
</linearGradient>
<linearGradient id="paint6_linear_2919_83" x1="0" y1="0" x2="122.246" y2="4.17326" gradientUnits="userSpaceOnUse">
<stop stop-color="#091C91"/>
<stop offset="1" stop-color="#24BCFF"/>
</linearGradient>
<linearGradient id="paint7_linear_2919_83" x1="0" y1="0" x2="122.246" y2="4.17326" gradientUnits="userSpaceOnUse">
<stop stop-color="#091C91"/>
<stop offset="1" stop-color="#24BCFF"/>
</linearGradient>
<linearGradient id="paint8_linear_2919_83" x1="0" y1="0" x2="122.246" y2="4.17326" gradientUnits="userSpaceOnUse">
<stop stop-color="#091C91"/>
<stop offset="1" stop-color="#24BCFF"/>
</linearGradient>
<linearGradient id="paint9_linear_2919_83" x1="0" y1="0" x2="122.246" y2="4.17326" gradientUnits="userSpaceOnUse">
<stop stop-color="#091C91"/>
<stop offset="1" stop-color="#24BCFF"/>
</linearGradient>
</defs>
</svg>
