<svg width="58" height="140" viewBox="0 0 58 140" fill="none" xmlns="http://www.w3.org/2000/svg">
<path fill-rule="evenodd" clip-rule="evenodd" d="M30.8472 1.11851C30.1627 1.73357 29.2372 2.91789 28.7904 3.75011C28.2097 4.83141 27.9312 5.13353 27.8145 4.80864C27.6877 4.45626 27.5052 4.58344 27.004 5.37428C26.6483 5.93547 26.2585 6.73631 26.1372 7.15422C26.0161 7.57214 25.7715 7.88287 25.5935 7.84454C25.1057 7.73986 25.1875 10.9335 25.7035 12.1372C26.0187 12.8728 26.2226 13.0661 26.4501 12.8442C26.6221 12.6765 26.9496 12.609 27.1774 12.6943C27.6524 12.872 30.2117 10.5589 30.8515 9.37374C31.6489 7.89619 31.8326 7.23225 31.3989 7.39442C31.1075 7.50355 31.1483 7.26474 31.5535 6.48945C32.2799 5.1002 32.303 4.4682 31.6059 5.05189C30.5648 5.92353 30.3193 5.8916 31.0295 4.97636C31.9732 3.76066 32.9904 0 32.3756 0C32.2193 0 31.5315 0.503162 30.8472 1.11851ZM29.879 12.2775C28.9103 13.1905 28.1175 14.1696 28.1175 14.4531C28.1175 15.3364 27.4801 16.3833 26.9428 16.3833C26.3394 16.3833 25.8393 15.5891 25.8393 14.6306C25.8393 14.2574 25.6608 13.8078 25.4429 13.6312C25.2248 13.4549 24.8902 12.9428 24.6991 12.4932C24.4223 11.8412 24.2531 11.7277 23.8627 11.9315C22.7983 12.4871 20.374 14.848 19.6766 16.0087C18.5313 17.9144 18.7557 20.4688 20.2342 22.3535C20.6559 22.8914 20.7203 22.8544 22.2637 21.1928C23.9234 19.4059 26.3656 17.494 26.9883 17.494C27.7396 17.494 34.7477 21.8212 35.8011 22.9355C37.0421 24.2487 37.5108 25.5588 37.5131 27.7219C37.5154 29.6599 37.8369 29.5313 39.7138 26.8433C42.2306 23.2387 42.731 19.8088 41.1288 17.143C39.6648 14.7069 36.3504 12.1975 33.2023 11.1412L31.6403 10.6172L29.879 12.2775ZM25.5392 19.6802C24.2839 20.4713 22.5972 22.0791 21.8169 23.2282C21.2164 24.1129 21.576 28.2987 22.4155 30.1958C23.0059 31.5292 24.3747 33.0129 25.7029 33.7585C26.1377 34.0026 26.2354 34.403 26.2454 35.9799C26.261 38.4641 25.4096 40.2929 23.0679 42.804C22.1211 43.8189 21.1876 45.1196 20.9931 45.6941C20.3626 47.5568 21.0483 52.8545 22.5983 58.0966C22.7245 58.5225 24.2577 59.1409 25.1986 59.1448C25.4435 59.1459 25.5545 58.6322 25.5545 57.4968C25.5545 56.5893 25.6827 55.7699 25.8393 55.6754C26.011 55.5719 26.1241 55.9459 26.1241 56.6179C26.1241 58.2132 26.6025 59.0593 27.616 59.257C29.0506 59.5366 30.8791 59.4444 31.1767 59.0771C31.3316 58.8863 31.5427 57.8894 31.646 56.8623L31.834 54.9946L30.7587 54.5567C28.7354 53.7325 27.4531 51.9836 28.0762 50.8976C28.2872 50.53 28.3729 50.6094 28.5332 51.3214C28.642 51.8034 29.0361 52.4318 29.4092 52.7181C30.1541 53.2893 31.7773 54.0077 31.941 53.8386C31.998 53.7797 32.2509 51.7948 32.5035 49.4276C32.7561 47.0603 33.1619 44.3737 33.4053 43.4574C33.7385 42.2037 36.0941 37.0815 37.4402 34.6837C37.4912 34.5926 37.0324 34.1953 36.4207 33.8004C34.8821 32.8077 34.7381 32.0041 35.8042 30.3649C37.6857 27.4715 36.4524 24.3261 32.3992 21.6812C30.2737 20.2942 27.6413 18.8824 27.1809 18.8824C26.9741 18.8824 26.2354 19.2415 25.5392 19.6802ZM25.206 24.7627C25.6625 25.2078 25.1208 25.8245 24.2731 25.8245C23.4253 25.8245 22.8837 25.2078 23.3402 24.7627C23.5244 24.583 23.9442 24.4361 24.2731 24.4361C24.602 24.4361 25.0217 24.583 25.206 24.7627ZM31.9462 24.7574C32.5077 25.0067 32.5983 25.162 32.352 25.4516C31.9877 25.8792 30.737 25.9386 30.1191 25.5577C29.6632 25.2764 29.6902 25.2247 30.538 24.7632C31.2439 24.3786 31.0953 24.3795 31.9462 24.7574ZM3.32461 26.8175C2.98402 27.2177 3.00623 27.6036 3.60026 31.6314C3.73809 32.5661 4.02742 33.3022 4.36544 33.5783C4.66416 33.8223 5.32539 34.4935 5.83428 35.07C7.40222 36.8455 7.01777 38.8756 5.11409 38.8756C4.8148 38.8756 4.33781 39.1255 4.05447 39.431C3.37786 40.1602 2.72887 40.133 1.96825 39.3438C1.12533 38.4685 1.18086 38.0695 2.03688 38.8534C3.03813 39.7706 3.91209 39.4335 3.91209 38.13C3.91209 37.355 3.67544 36.9135 2.80661 36.066C1.44541 34.739 0.695047 34.6793 0.193854 35.8589C-0.286837 36.9913 0.131775 39.0353 1.39017 41.6969C2.55003 44.151 3.52252 44.9846 5.22458 44.9846C7.01293 44.9846 8.21181 44.4115 9.4124 42.9825C11.121 40.9496 11.7187 39.3471 11.7216 36.793C11.7242 34.2591 11.2386 32.9549 10.2408 32.816C9.7228 32.7441 9.48957 32.9599 9.03935 33.9268C8.73209 34.5868 8.47807 35.3529 8.47466 35.6292C8.47124 35.9055 8.33853 36.0532 8.17963 35.9574C7.60753 35.6128 6.74924 33.5771 6.19024 31.2393C5.30461 27.5359 4.18432 25.8073 3.32461 26.8175ZM1.98876 34.0617C1.76094 34.1511 2.08529 34.6323 2.88236 35.3876C3.59144 36.0596 4.21878 36.9518 4.33013 37.4467C4.52462 38.3103 4.86321 38.4796 5.73973 38.1517C6.93975 37.7027 5.64063 35.4343 3.60283 34.4205C3.00225 34.1217 2.47371 33.8873 2.42844 33.8993C2.38287 33.9112 2.18496 33.9845 1.98876 34.0617ZM23.5708 34.8773C21.5148 35.416 18.4635 37.0996 18.171 37.8565C18.0429 38.1878 17.7146 40.271 17.4415 42.4855C16.7893 47.7698 17.0462 52.8889 18.3131 59.8682L18.7719 62.3951L20.3834 62.6836C21.2696 62.8424 22.051 62.9213 22.1196 62.8585C22.1883 62.7958 21.7728 60.654 21.1964 58.0991C20.0656 53.0891 19.5744 49.7397 19.5744 47.0439C19.5744 45.1787 20.0366 44.2774 22.1404 42.0395C22.7299 41.4125 23.3692 40.6136 23.5609 40.2643C23.9368 39.5798 25.5545 35.0303 25.5545 34.6582C25.5545 34.3724 25.4546 34.3835 23.5708 34.8773ZM38.6123 35.1649C37.8252 36.0341 35.2521 41.1296 34.6617 42.9889C34.3556 43.9531 33.9094 46.5772 33.6699 48.8203C33.4307 51.0634 32.9887 54.648 32.688 56.7862C31.8707 62.5947 31.8696 62.8935 32.6638 63.7177C33.1439 64.2161 33.6391 64.4225 34.3562 64.4225C35.231 64.4225 44.3826 63.0763 44.5538 62.9224C44.7727 62.7258 43.4338 59.3084 42.8392 58.5464C41.7747 57.1816 40.7242 55.0168 40.2221 53.1527C39.6449 51.0101 39.6347 46.1537 40.2019 43.7681C40.7883 41.3028 42.1415 38.4699 42.9929 37.9259C43.7006 37.4739 44.2075 37.5208 48.7632 38.4585C49.7872 38.6693 48.1239 37.5819 45.3141 36.2032C43.2996 35.2149 42.3123 34.8986 40.9002 34.789C39.3684 34.6698 39.007 34.7293 38.6123 35.1649ZM42.6572 40.3909C41.4731 42.6929 40.9241 45.2859 40.897 48.7039C40.872 51.8976 41.3325 53.933 42.5945 56.2094L43.3526 57.5762L43.6562 54.6822C43.9014 52.3419 43.8845 51.6093 43.5682 50.8554C43.0188 49.5464 43.2512 49.5303 44.1078 50.8182C44.7799 51.829 44.8146 52.0331 44.5669 53.5159C44.1662 55.9115 44.5355 59.7965 45.3511 61.7656C45.729 62.6775 46.0103 63.4453 45.9767 63.4717C45.9431 63.4981 44.257 63.8193 42.2298 64.1856L38.544 64.8515L38.6186 66.4179C38.6593 67.2793 38.4782 68.8187 38.2159 69.8389C37.9534 70.8591 37.8486 71.7869 37.9827 71.9002C38.1168 72.0137 40.512 72.7066 43.3053 73.4397C47.8972 74.6451 48.5935 74.7589 50.5721 74.6267C55.0529 74.3271 55.6632 73.5405 56.0117 67.6158C56.1934 64.5277 56.3594 63.6499 57.1608 61.5418C58.0444 59.2176 58.088 58.9335 57.9265 56.5435C57.7497 53.9247 57.4447 52.7364 56.1897 49.7802C55.754 48.7539 55.4541 47.5113 55.4524 46.7257C55.4473 44.1927 53.6484 41.6197 50.9622 40.3032C49.2823 39.4799 47.9155 39.1222 45.6393 38.9103L43.5203 38.7129L42.6572 40.3909ZM15.8593 39.7462C14.039 40.805 12.6961 42.3325 11.4214 44.7928C10.173 47.2031 10.1588 47.2619 10.4504 48.8008C10.7881 50.5827 10.8172 55.134 10.5014 56.7862C10.3057 57.8097 10.2727 57.7225 10.0839 55.6754C9.85778 53.2243 9.29479 49.0621 9.17006 48.9211C9.12649 48.8717 8.67172 49.0427 8.15913 49.301C7.43696 49.6653 6.74269 49.7405 5.07138 49.6364C3.8856 49.5625 2.73456 49.454 2.5133 49.3954C1.8683 49.2243 1.27911 52.4538 1.24067 56.3697C1.19055 61.5032 2.04571 63.766 4.49728 64.9856C5.89037 65.6787 6.94004 65.6779 8.10901 64.9828C9.49498 64.1589 13.4726 60.3772 15.2989 58.1474L16.9129 56.1767L16.5538 53.7044C16.0638 50.3317 16.0729 44.8094 16.5735 41.8027C16.8013 40.4345 16.9548 39.2833 16.9152 39.2444C16.8753 39.2055 16.4001 39.4313 15.8593 39.7462ZM22.9916 60.0223C22.9916 60.5068 23.0622 60.5457 23.4188 60.2572C23.6537 60.067 23.8459 59.8776 23.8459 59.8365C23.8459 59.7951 23.6537 59.6894 23.4188 59.6013C23.1229 59.4908 22.9916 59.6202 22.9916 60.0223ZM30.6804 60.2572C30.4454 60.4052 29.94 60.5282 29.5572 60.5307C28.8895 60.5346 28.9006 60.5632 29.8261 61.2291C30.3569 61.6109 30.8162 61.9233 30.847 61.9233C30.8777 61.9233 30.9552 61.486 31.0193 60.9514C31.0833 60.4169 31.1292 59.9815 31.1215 59.9837C31.1138 59.9862 30.9153 60.1092 30.6804 60.2572ZM24.0595 60.8195C23.2792 61.2866 23.4709 62.1071 24.5578 62.9527C25.106 63.3792 25.5545 63.8846 25.5545 64.0754C25.5545 64.5913 24.6518 64.503 21.6062 63.6896C18.5731 62.8794 17.1208 62.8083 16.4747 63.4383C16.0939 63.8096 16.1236 63.9357 16.7426 64.5816C17.5377 65.411 21.402 67.9568 23.2083 68.8412C24.2158 69.3344 28.9769 70.2291 30.6989 70.2488C31.3576 70.2563 32.1532 68.4061 32.3155 66.4881L32.4585 64.8048L30.8569 63.4131C28.2843 61.1772 25.3392 60.0534 24.0595 60.8195ZM19.6772 68.5183C19.7546 68.7857 19.9047 69.7909 20.0104 70.7522C20.1656 72.162 20.3322 72.5827 20.8712 72.9273C21.7412 73.483 22.6001 73.2042 23.1371 72.1917C23.5913 71.3351 23.7101 69.9761 23.3308 69.9761C23.204 69.9761 22.3557 69.5388 21.4453 69.0042C19.5348 67.8824 19.489 67.8699 19.6772 68.5183ZM24.696 71.6208C24.6897 73.1203 24.156 73.8265 22.2999 74.7911C21.1093 75.4098 20.4583 75.9602 20.0932 76.6566C18.7588 79.2019 18.695 84.6658 19.9639 87.7109C21.3083 90.9376 23.3798 93.2995 27.0066 95.7429C32.9449 99.7429 33.4173 103.96 28.5833 109.824C27.6988 110.897 26.7679 112.389 26.5059 113.156C25.491 116.123 26.1739 120.642 28.1499 124.031C29.168 125.778 31.9425 128.337 33.8271 129.268C34.7042 129.702 36.2516 130.096 38.0254 130.338C42.1765 130.904 44.609 132.109 46.362 134.469C47.7232 136.301 47.3006 137.952 45.1338 139.265L43.9221 140L45.2036 139.829C46.9803 139.592 49.347 138.414 50.1631 137.362C51.6126 135.493 51.8196 131.967 50.6219 129.554C49.8374 127.974 47.2371 125.571 44.0873 123.515C40.8799 121.422 40.2677 120.702 40.2677 119.025C40.2677 117.188 41.5298 115.514 46.0744 111.326C51.8379 106.014 52.7585 104.308 52.732 98.994C52.7115 94.8832 52.2112 93.1799 49.5082 88.0255C46.7755 82.8148 46.2273 81.139 46.4312 78.6201C46.5133 77.6077 46.6229 76.5455 46.675 76.2595C46.7493 75.8513 46.4797 75.6558 45.42 75.3496C44.1625 74.9858 43.9019 75.0069 41.5981 75.6581C38.4352 76.5525 35.9147 76.8102 34.5692 76.3773C33.302 75.9694 31.6287 74.1239 31.2357 72.701C30.9113 71.5264 31.0033 71.565 27.192 70.9983L24.7002 70.6278L24.696 71.6208ZM32.7096 73.0342C33.6215 74.6176 34.7873 75.5298 35.8993 75.5301C37.2634 75.5303 41.5643 74.6434 41.3031 74.4157C41.1772 74.306 39.2804 73.7557 37.0877 73.1928C34.895 72.6297 32.8609 72.0996 32.5673 72.0149C32.0806 71.8741 32.0931 71.9638 32.7096 73.0342Z" fill="url(#paint0_linear_2919_141)"/>
<defs>
<linearGradient id="paint0_linear_2919_141" x1="0" y1="0" x2="59.6385" y2="0.885991" gradientUnits="userSpaceOnUse">
<stop stop-color="#091C91"/>
<stop offset="1" stop-color="#24BCFF"/>
</linearGradient>
</defs>
</svg>
