<svg width="125" height="125" viewBox="0 0 125 125" fill="none" xmlns="http://www.w3.org/2000/svg">
<path fill-rule="evenodd" clip-rule="evenodd" d="M66.0854 0.00694242C66.0507 0.0933689 65.82 0.900645 65.5728 1.80095L65.1232 3.43771L63.6806 3.68337C62.8872 3.8184 62.2381 3.95543 62.2381 3.9878C62.2381 4.02017 62.8686 4.20518 63.6391 4.39888C64.4097 4.59247 65.0401 4.75611 65.0401 4.76239C65.0401 4.82378 66.1195 8.42426 66.1455 8.4495C66.1646 8.46815 66.3892 7.66234 66.6445 6.65896C66.8998 5.65557 67.1645 4.79288 67.2329 4.74175C67.3012 4.69074 67.9028 4.51317 68.5695 4.34713C69.2364 4.18119 69.7819 4.01766 69.7819 3.98382C69.7819 3.95009 69.1698 3.8074 68.4216 3.66703L67.0613 3.41162L66.6048 1.63071C66.3537 0.651213 66.1199 -0.0794841 66.0854 0.00694242ZM55.2881 0.190271C55.6336 1.00373 55.6186 2.31175 55.2557 3.00254C54.8172 3.83716 53.8355 4.45356 52.4313 4.7757C51.3228 5.03005 48.6025 5.09877 46.5579 4.92425C43.5636 4.66853 41.5517 4.7691 39.3603 5.28409C37.9765 5.60927 36.8019 6.31063 35.3867 7.65689C34.0378 8.93988 33.6257 9.69928 33.6257 10.9019C33.6257 11.9406 33.9874 12.6756 34.965 13.6236C36.4667 15.0798 38.6316 16.1747 44.9414 18.6689C48.2917 19.9932 50.1811 20.8516 51.1542 21.4915C53.3117 22.9104 54.2545 24.9413 54.1318 27.9063C54.1061 28.5295 54.1229 28.9734 54.1693 28.8928C54.2158 28.8121 54.3955 28.255 54.5688 27.6548C55.4724 24.5254 55.2706 21.5068 54.0382 19.7127C53.2219 18.5245 52.2369 17.8588 50.222 17.1333C46.6429 15.8448 43.5257 13.816 42.8267 12.3201C41.9594 10.4639 43.7953 9.19644 48.147 8.64698C52.5725 8.08829 55.1561 6.92169 56.156 5.03058C56.4037 4.5622 56.4663 4.2893 56.5033 3.51638C56.5556 2.42322 56.3362 1.62851 55.7009 0.609309C55.3377 0.0266372 55.1283 -0.18592 55.2881 0.190271ZM54.3711 14.4385C54.3711 14.4899 54.4979 14.6462 54.6529 14.786C55.1107 15.1985 56.2504 16.6573 56.8599 17.6106C59.2195 21.3016 59.9542 25.3491 58.9579 29.167C57.6565 34.1544 53.2845 38.9157 47.8363 41.2789C43.2738 43.258 36.0078 44.103 29.4795 43.4138C27.386 43.1928 24.1757 43.1934 22.5795 43.4152C18.8685 43.9308 16.1125 45.2242 13.7487 47.5593L12.8388 48.4582L13.2886 47.8121C15.9052 44.0539 19.2346 41.8771 23.1183 41.3853C23.9349 41.2819 24.8509 41.2828 27.6446 41.3892C32.0215 41.556 39.1013 41.4786 41.2673 41.2404C42.4773 41.1072 43.0484 40.9824 44.231 40.5928C50.0348 38.6805 54.1065 35.5365 56.1447 31.3937C57.3759 28.8914 57.9252 25.7332 57.6108 22.9655C57.4066 21.1682 57.3284 21.044 57.238 22.3731C56.5064 33.1341 51.1873 37.9217 39.9516 37.9318C38.7247 37.933 36.0948 37.8778 34.1073 37.8092C25.7554 37.5209 21.3302 38.327 17.4087 40.851C15.7534 41.9164 13.5484 44.1553 12.1868 46.1535C9.13835 50.6267 7.12438 57.0141 6.77823 63.3066C6.67068 65.2633 6.7958 65.4805 7.66979 64.8558C8.25702 64.436 8.58895 63.7851 9.64788 60.9769C11.26 56.7022 12.3074 54.5174 13.7913 52.3343C16.1463 48.8697 18.7711 47.0162 22.1308 46.4454C23.7014 46.1786 27.4699 46.208 31.2548 46.5168C35.09 46.8295 39.2971 46.8591 41.3311 46.5878C47.1645 45.8094 51.6158 43.6054 55.7767 39.4352C59.1229 36.0817 61.2034 32.5696 61.8191 29.2348C62.0306 28.0894 62.0011 25.717 61.7617 24.6254C61.1238 21.7169 59.5946 19.1239 57.0653 16.662C55.7643 15.3959 54.3711 14.2459 54.3711 14.4385ZM15.7988 17.3698C15.4255 18.7388 15.0647 19.9117 14.9971 19.9761C14.9294 20.0406 13.9769 20.2482 12.8804 20.4374C11.7838 20.6267 10.8518 20.8106 10.8091 20.8461C10.7664 20.8815 11.6767 21.1454 12.832 21.4323L14.9324 21.954L15.0352 22.3207C15.8684 25.2921 16.4936 27.3339 16.5511 27.2708C16.5905 27.2274 16.9252 26.0056 17.2949 24.5555L17.967 21.9189L18.7915 21.7059C19.2448 21.5887 20.1457 21.357 20.7932 21.191C21.4408 21.0249 21.9258 20.8634 21.8709 20.8319C21.8161 20.8004 20.9044 20.6167 19.8448 20.4236C18.2055 20.1248 17.9047 20.0409 17.8276 19.8609C17.7778 19.7446 17.486 18.6122 17.179 17.3446C16.8722 16.077 16.5889 15.0041 16.5495 14.9603C16.5099 14.9165 16.1722 16.0008 15.7988 17.3698ZM81.6228 30.5673L81.1416 32.3252L79.6648 32.586C78.8524 32.7293 78.188 32.8707 78.1882 32.9003C78.1885 32.9297 78.7582 33.0902 79.4545 33.2567C80.1507 33.4234 80.7994 33.5988 80.8959 33.6466C81.0114 33.7037 81.2504 34.3601 81.5944 35.566C81.8819 36.5738 82.1476 37.3413 82.185 37.2713C82.2223 37.2014 82.4364 36.4135 82.6605 35.5204C82.8848 34.6273 83.1055 33.8251 83.151 33.7375C83.2018 33.64 83.7377 33.4576 84.5365 33.2661C85.2531 33.0944 85.8393 32.9299 85.8393 32.9006C85.8393 32.8713 85.2173 32.7355 84.457 32.5985L83.0748 32.3495L82.6581 30.6612C82.429 29.7326 82.2107 28.9362 82.1728 28.8911C82.1349 28.8462 81.8875 29.6004 81.6228 30.5673ZM62.7082 45.5864C61.5902 46.8141 60.3774 48.1466 60.0132 48.5476L59.3508 49.2769L60.2689 50.1771C61.4198 51.3054 62.3909 52.5066 63.2165 53.8229L63.8577 54.8454L63.3213 55.0225C61.8156 55.5201 60.8262 56.8631 60.5671 58.7615C60.4969 59.2755 60.5072 59.3175 60.6908 59.2672C62.2611 58.8368 67.4945 58.8349 68.9607 59.2642C69.1455 59.3184 69.1567 59.281 69.0882 58.8367C68.8154 57.069 67.7218 55.5941 66.3134 55.0949C65.8807 54.9415 65.6941 54.8239 65.7319 54.7281C65.9678 54.1305 68.1624 51.3606 69.4018 50.0962L70.1859 49.2963L67.6619 46.5201C66.2736 44.9933 65.0485 43.6563 64.9395 43.5492C64.7463 43.3595 64.6863 43.4144 62.7082 45.5864ZM103.489 46.6788C100.209 47.0649 96.8126 48.1664 94.6714 49.5389C91.8865 51.3239 89.3222 54.9774 88.3492 58.5464C87.9809 59.8968 87.9303 62.4821 88.249 63.6483C89.5263 68.3203 94.9957 72.3251 100.923 72.9284C102.481 73.087 103.758 72.9431 105.253 72.44C109.793 70.913 113.105 67.2292 113.105 63.7059C113.105 62.6626 112.893 61.8806 112.281 60.6684C111.418 58.9593 109.615 57.4354 107.932 56.9927C105.985 56.4804 103.599 56.8132 101.841 57.8422C101.088 58.2829 100.076 59.3128 99.7663 59.9536C99.6393 60.2163 99.4766 60.7409 99.4049 61.1196C99.164 62.3908 99.6768 63.6056 100.748 64.3016C101.427 64.7423 102.01 64.8884 102.835 64.8247C104.364 64.7067 105.49 63.4815 105.504 61.9198C105.508 61.5452 105.549 61.1795 105.596 61.1071C105.771 60.84 106.331 60.6422 106.715 60.7123C107.202 60.801 107.977 61.4987 108.344 62.1775C108.587 62.6272 108.629 62.8376 108.631 63.5959C108.633 64.7961 108.327 65.4362 107.259 66.4702C106.364 67.3363 105.321 67.9652 104.095 68.3785C103.353 68.6285 103.077 68.6656 101.951 68.6675C100.478 68.67 99.7101 68.5063 98.5021 67.9323C96.8628 67.1534 95.6183 65.9799 94.7917 64.434C93.7611 62.5063 93.7189 60.3413 94.6723 58.2973C95.8667 55.7367 98.9223 53.1969 101.951 52.2476C103.267 51.8352 104.084 51.7187 105.615 51.7255C108.272 51.7374 110.662 52.4855 113.096 54.0686C115.168 55.4156 116.863 57.2953 117.957 59.4579C118.767 61.0615 119.035 62.036 119.109 63.6493C119.222 66.1096 118.678 68.496 117.489 70.766C115.857 73.8791 113.035 76.1481 109.337 77.3192C107.764 77.8171 106.67 78.004 104.106 78.2127C101.715 78.4072 98.7707 78.78 96.7485 79.1441L95.3183 79.4017L94.4492 78.7965C91.9515 77.0575 87.626 74.8891 83.3316 73.2232L82.2787 72.8147H64.3061H46.3336L45.3573 73.1223C44.8204 73.2916 43.3611 73.8293 42.1145 74.3175C37.8336 75.9938 36.1556 76.4183 33.7874 76.4235C31.1568 76.4295 30.5373 76.1844 25.2566 73.05C18.5412 69.0641 15.8204 67.4759 15.1816 67.1689C13.8351 66.5219 12.6606 66.3685 10.6915 66.5823C8.14462 66.859 5.71316 66.7622 3.45068 66.2941C1.98643 65.9912 1.79654 66.0109 0.998415 66.549C0.167631 67.1089 -0.129486 67.6066 0.0505948 68.1369C0.244469 68.7082 0.55732 68.8941 1.90981 69.2426C5.3628 70.1319 8.8921 71.7227 13.3115 74.382C14.0524 74.8277 15.5406 75.7023 16.6189 76.3253C20.8569 78.7746 23.8448 81.0707 31.4704 87.7385C38.4118 93.808 41.0602 95.8838 44.7573 98.1529C49.8462 101.276 55.0856 103.091 60.5139 103.612C62.0644 103.76 66.2524 103.763 68.1711 103.617C78.5303 102.827 86.8429 99.3705 92.902 93.3331C95.0597 91.1833 96.6244 89.1486 97.8978 86.8375L98.4544 85.8274L99.933 85.5557C100.746 85.4062 102.454 85.1172 103.729 84.9133C108.32 84.1788 110.719 83.5172 113.371 82.2533C115.894 81.0512 117.615 79.8426 119.525 77.9328C122.373 75.0833 124.128 71.8315 124.804 68.1529C125.036 66.8867 125.069 64.059 124.866 62.8102C124.155 58.4383 122 54.1132 119.145 51.331C116.382 48.6389 112.92 47.0865 108.663 46.6319C107.3 46.4863 104.944 46.5077 103.489 46.6788ZM62.0226 60.8852C57.3058 61.1341 53.7026 62.4074 51.261 64.6883C49.6487 66.1945 48.6194 68.0618 48.3551 69.9601L48.264 70.6148H64.7432H81.2225L81.1485 70.2743C81.1079 70.087 80.9346 69.6035 80.7636 69.1996C78.3186 63.4287 71.4627 60.387 62.0226 60.8852ZM73.931 105.045C72.8462 105.27 69.7004 105.692 68.2404 105.808C64.7551 106.087 60.8421 105.841 58.1521 105.174C57.7125 105.065 57.3318 104.996 57.306 105.021C57.2215 105.103 58.2623 108.16 58.5252 108.602C59.1236 109.608 60.6527 110.608 62.1906 110.999C62.6021 111.103 62.9993 111.261 63.0733 111.35C63.2869 111.605 63.2415 113.02 62.9946 113.797L62.7811 114.469L60.8661 114.705C58.4774 115 55.8368 115.495 54.9739 115.811C52.7649 116.619 50.8343 117.98 49.4803 119.684C48.5654 120.835 48.3473 121.209 48.2692 121.763C48.1808 122.39 48.3602 122.874 48.8497 123.329C49.3798 123.822 49.6323 123.889 52.1079 124.194C59.3851 125.091 68.3942 125.251 75.8708 124.616C79.2606 124.329 82.1909 123.937 82.6993 123.704C83.6294 123.277 84.0738 122.054 83.6154 121.182C83.2016 120.395 82.3096 119.282 81.4391 118.466C80.0916 117.203 78.9561 116.488 77.2502 115.829C76.1633 115.409 73.8117 114.974 70.9674 114.667C70.1079 114.575 69.3468 114.48 69.2762 114.457C69.0309 114.378 68.7041 113.065 68.7058 112.167C68.7068 111.698 68.7431 111.261 68.7867 111.197C68.8302 111.132 69.1569 110.999 69.5125 110.899C70.9885 110.487 72.429 109.49 73.278 108.292C73.6343 107.789 74.6888 105.162 74.6079 104.979C74.5913 104.942 74.2866 104.971 73.931 105.045Z" fill="url(#paint0_linear_2919_128)"/>
<defs>
<linearGradient id="paint0_linear_2919_128" x1="0" y1="0" x2="128.394" y2="4.60414" gradientUnits="userSpaceOnUse">
<stop stop-color="#091C91"/>
<stop offset="1" stop-color="#24BCFF"/>
</linearGradient>
</defs>
</svg>
