<svg width="59" height="110" viewBox="0 0 59 110" fill="none" xmlns="http://www.w3.org/2000/svg">
<path fill-rule="evenodd" clip-rule="evenodd" d="M1.08943 0.291734C0.213056 0.695163 0 1.3572 0 3.67696C0 6.70094 0.458716 7.32956 2.66535 7.32956H3.79532V8.16344C3.79532 9.79889 4.27733 10.2379 6.08114 10.2458L7.41813 10.2516L7.41658 11.1191C7.41175 13.7945 7.7949 24.8744 7.94878 26.5057C8.28553 30.0785 9.30061 33.9813 10.6083 36.7302C12.2465 40.1739 14.9584 43.493 17.6862 45.3933C18.4908 45.9537 19.8048 46.8691 20.6064 47.4272C21.4077 47.9855 22.3006 48.7281 22.5906 49.0776C25.096 52.0985 25.096 57.8934 22.5906 60.9142C22.3006 61.2638 21.4077 62.0064 20.6064 62.5647C19.8048 63.1228 18.4908 64.0381 17.6862 64.5986C14.9584 66.4989 12.2465 69.818 10.6083 73.2617C9.30061 76.0106 8.28553 79.9134 7.94878 83.4862C7.7949 85.1174 7.41175 96.1974 7.41658 98.8727L7.41813 99.7402L6.08114 99.7461C4.27733 99.7539 3.79532 100.193 3.79532 101.828V102.662H2.66535C0.458716 102.662 0 103.291 0 106.315C0 108.661 0.2134 109.304 1.12721 109.708C2.0079 110.097 56.9921 110.097 57.8728 109.708C58.7866 109.304 59 108.661 59 106.315C59 103.291 58.5413 102.662 56.3346 102.662H55.2047V101.828C55.2047 100.193 54.7227 99.7539 52.9189 99.7461L51.5819 99.7402L51.5834 98.8727C51.5882 96.1974 51.2051 85.1174 51.0512 83.4862C50.4277 76.8715 48.0398 71.1519 44.2284 67.1441C42.9004 65.7477 41.7827 64.8662 38.902 62.9432C35.8658 60.9164 34.7698 59.0947 34.56 55.7264C34.4434 53.8538 34.6818 52.3763 35.341 50.8849C36.0059 49.381 36.6718 48.6265 38.3936 47.4272C39.1951 46.8691 40.5092 45.9537 41.3138 45.3933C44.0416 43.493 46.7535 40.1739 48.3917 36.7302C49.6994 33.9813 50.7145 30.0785 51.0512 26.5057C51.2051 24.8744 51.5882 13.7945 51.5834 11.1191L51.5819 10.2516L52.9189 10.2458C54.7227 10.2379 55.2047 9.79889 55.2047 8.16344V7.32956H56.3346C58.5413 7.32956 59 6.70094 59 3.67696C59 1.33053 58.7866 0.688223 57.8728 0.283881C57.0054 -0.0996414 1.92302 -0.0921537 1.08943 0.291734ZM48.9938 12.2606C48.9924 15.1233 48.6274 25.0099 48.4644 26.597C48.0063 31.0548 46.5722 35.2622 44.3963 38.5319C43.3264 40.1395 41.2093 42.2966 39.7412 43.2747C36.4753 45.4508 35.7204 46.0202 34.8174 46.9882C33.0698 48.8616 31.9152 52.0476 31.9152 54.9959C31.9152 57.9443 33.0698 61.1303 34.8174 63.0037C35.7138 63.9647 36.2879 64.4003 39.5441 66.5909C44.465 69.9013 47.702 75.9996 48.4638 83.3949C48.6274 84.9812 48.9924 94.8624 48.9938 97.7313L48.9942 98.7358H29.5H10.0058V97.7822C10.0058 94.87 10.3837 84.6157 10.5425 83.2122C11.3756 75.8583 14.5899 69.8644 19.4559 66.5909C22.7083 64.403 23.2836 63.9674 24.152 63.0355C28.0072 58.8987 28.0221 51.1043 24.1826 46.9882C23.2796 46.0202 22.5247 45.4508 19.2588 43.2747C14.5823 40.1587 11.2806 33.8463 10.5356 26.597C10.3726 25.0099 10.0076 15.1233 10.0062 12.2606L10.0058 11.2561H29.5H48.9942L48.9938 12.2606ZM19.6803 33.6233C18.4425 33.8288 14.7357 34.7467 14.4876 34.909C14.2281 35.0787 15.4306 37.203 16.6471 38.7247C17.893 40.2829 19.2771 41.5016 21.133 42.6744C25.3674 45.3502 27.2114 47.6747 28.1359 51.5013C28.5194 53.0885 28.7511 53.4131 29.5 53.4131C30.2489 53.4131 30.4806 53.0885 30.8641 51.5013C31.7886 47.6747 33.6333 45.3494 37.867 42.6746C40.4918 41.0163 42.396 39.048 43.9284 36.4091C44.3207 35.7334 44.6188 35.1538 44.5909 35.1211C44.5629 35.0882 43.8537 35.3092 43.015 35.612C40.4067 36.5534 38.9041 36.789 36.1587 36.6866C33.4627 36.5859 32.4655 36.333 29.8048 35.0743C27.2545 33.868 26.1208 33.603 23.2032 33.5314C21.78 33.4966 20.1947 33.5378 19.6803 33.6233ZM29.0627 65.0334C28.5308 65.2592 28.3521 65.5658 27.8128 67.1795C26.609 70.7808 25.4785 72.0232 20.2705 75.4689C18.8383 76.4166 16.5636 78.7561 15.5834 80.2902C13.0901 84.1917 11.7317 89.5204 11.7312 95.4028L11.731 96.8182H29.5H47.269L47.2688 95.4028C47.2683 89.5204 45.9099 84.1917 43.4166 80.2902C42.4364 78.7561 40.1617 76.4166 38.7295 75.4689C33.5079 72.0143 32.2673 70.6365 31.1339 67.0336C30.5729 65.25 29.956 64.6545 29.0627 65.0334Z" fill="url(#paint0_linear_2919_147)"/>
<defs>
<linearGradient id="paint0_linear_2919_147" x1="0" y1="0" x2="60.6577" y2="1.16667" gradientUnits="userSpaceOnUse">
<stop stop-color="#091C91"/>
<stop offset="1" stop-color="#24BCFF"/>
</linearGradient>
</defs>
</svg>
