<svg width="58" height="13" viewBox="0 0 58 13" fill="none" xmlns="http://www.w3.org/2000/svg">
<path fill-rule="evenodd" clip-rule="evenodd" d="M0 0.851599V1.70261H1.43018H2.86035V5.86908V10.0355H3.83732H4.81425L4.82145 5.87641L4.82861 1.71729L6.26629 1.70968L7.704 1.70209L7.69647 0.858788L7.68896 0.0154909L3.84448 0.00803733L0 0.000616052V0.851599ZM15.4912 5.01777V10.0355H16.4117H17.3322L17.325 5.02552L17.3179 0.0154909L16.4045 0.00774363L15.4912 0V5.01777ZM10.252 2.63012C9.01648 2.78862 8.07197 3.58207 7.65271 4.81367C7.495 5.277 7.44213 5.61768 7.4268 6.26938C7.41853 6.6208 7.42584 6.97398 7.44482 7.14058C7.51511 7.75804 7.74595 8.4345 8.04317 8.89399C8.21957 9.16671 8.6151 9.55557 8.88768 9.72429C9.37918 10.0285 9.9135 10.1746 10.6343 10.2019C11.9792 10.2529 12.9658 9.75823 13.5504 8.73992C13.6819 8.511 13.87 8.07974 13.8468 8.06069C13.8326 8.04902 12.0954 7.74604 12.0457 7.74657C12.0276 7.74677 11.979 7.83852 11.9377 7.95049C11.7387 8.49002 11.3575 8.77246 10.8268 8.77351C10.0066 8.77516 9.39979 8.13772 9.32594 7.19695L9.30923 6.9844L11.6285 6.97689L13.9478 6.96937L13.9438 6.52339C13.934 5.42107 13.6717 4.46257 13.2107 3.84453C13.0615 3.64448 12.7159 3.29846 12.5459 3.17895C12.2247 2.95311 11.7353 2.75142 11.314 2.67126C11.1324 2.63672 10.4166 2.60899 10.252 2.63012ZM21.4526 2.64347C20.7612 2.7413 20.1858 3.0377 19.699 3.54689C19.4199 3.83889 19.2583 4.07588 19.086 4.44602C18.8005 5.05946 18.7081 5.55028 18.7076 6.4559C18.7073 7.02454 18.7161 7.16191 18.771 7.44655C19.076 9.02564 19.9856 9.9528 21.44 10.167C22.0744 10.2604 22.7628 10.2046 23.316 10.0149C23.9664 9.79201 24.4603 9.37744 24.8317 8.7427C24.9457 8.54785 25.1201 8.15148 25.1201 8.08722C25.1201 8.0641 24.812 7.99876 24.2136 7.89495C23.715 7.80845 23.3033 7.74308 23.2986 7.74965C23.294 7.75622 23.2536 7.85272 23.2089 7.9641C23.0975 8.24176 22.9794 8.4147 22.812 8.54536C22.6278 8.68916 22.4674 8.74558 22.189 8.76451C21.5537 8.8077 20.9858 8.43339 20.7452 7.81306C20.6782 7.64032 20.5889 7.20628 20.5889 7.05373V6.9844L22.9041 6.97689L25.2192 6.96937L25.2158 6.4559C25.2111 5.75224 25.1219 5.21512 24.9149 4.64405C24.5372 3.60235 23.7239 2.89924 22.6492 2.68534C22.3618 2.62813 21.7198 2.60565 21.4526 2.64347ZM28.875 2.64259C28.431 2.71515 28.0535 2.86793 27.7097 3.11414C26.9974 3.62426 26.557 4.41114 26.4108 5.4345C26.2233 6.74755 26.4314 7.95216 26.9944 8.81098C27.1513 9.05044 27.4762 9.39954 27.6874 9.55569C27.9003 9.71311 28.2707 9.89408 28.5186 9.96177C28.7999 10.0386 29.4418 10.0551 29.7374 9.99308C30.3035 9.87422 30.7734 9.57039 31.1879 9.05522L31.3274 8.88181L31.3165 9.75941C31.3064 10.5746 31.3012 10.6494 31.2435 10.8109C31.0667 11.306 30.6523 11.5135 29.8354 11.516C29.1162 11.5183 28.8104 11.3499 28.7303 10.9078C28.7136 10.8156 28.6978 10.7976 28.6217 10.7844C28.5129 10.7654 26.6595 10.5343 26.6161 10.5343C26.5617 10.5343 26.6062 11.1962 26.6737 11.3933C26.7888 11.7291 26.9078 11.92 27.1719 12.1928C27.5383 12.5712 27.9088 12.7576 28.5384 12.8802C29.614 13.0897 30.8856 13.0194 31.6408 12.7085C32.0583 12.5367 32.4579 12.229 32.6562 11.9266C32.7629 11.764 32.9299 11.4002 32.9891 11.2015C33.1755 10.5756 33.1912 10.1913 33.1913 6.22851L33.1914 2.78824H32.3276H31.4639V3.27481C31.4639 3.54243 31.4535 3.757 31.4407 3.7516C31.428 3.74624 31.3504 3.66449 31.2683 3.56995C30.8644 3.10495 30.4546 2.83451 29.9487 2.69925C29.6873 2.62936 29.1345 2.60019 28.875 2.64259ZM37.9325 2.65574C37.5268 2.74719 37.1954 3.01772 36.8589 3.53222L36.689 3.79204L36.6812 3.29012L36.6735 2.78824H35.8104H34.9473V6.41189V10.0355H35.8791H36.811L36.8243 8.09168C36.8352 6.49557 36.846 6.08746 36.8843 5.81039C36.9906 5.04356 37.1891 4.65118 37.5689 4.45747C37.9075 4.28477 38.285 4.31032 38.7159 4.53508C38.827 4.59305 38.9224 4.63583 38.9279 4.63014C38.9334 4.62442 39.029 4.34961 39.1404 4.01943C39.2518 3.68923 39.3734 3.33499 39.4107 3.2322C39.448 3.12942 39.4785 3.02731 39.4785 3.00531C39.4785 2.92034 39.0081 2.7192 38.6606 2.65562C38.3756 2.60348 38.1642 2.60351 37.9325 2.65574ZM42.3955 2.64409C41.3245 2.7562 40.639 3.19773 40.2359 4.03525C40.1133 4.28981 39.9834 4.65963 40.0105 4.67641C40.0414 4.69549 41.6617 4.99653 41.6693 4.98458C41.6731 4.97886 41.7234 4.87306 41.7812 4.74947C41.9202 4.45219 42.1211 4.25792 42.388 4.16262C42.5516 4.10423 42.6334 4.09446 42.9478 4.09575C43.6013 4.09842 43.886 4.21869 44.0515 4.56198C44.1234 4.71127 44.1373 4.77782 44.1467 5.02076L44.1577 5.30493L43.9973 5.36711C43.7654 5.45698 43.148 5.61428 42.4808 5.75344C41.2068 6.01916 40.6953 6.23543 40.3101 6.67133C39.9232 7.10904 39.7459 7.70593 39.8185 8.32641C39.879 8.84384 40.0334 9.17531 40.3834 9.53891C40.7348 9.90403 41.054 10.0702 41.5902 10.1671C42.4979 10.3311 43.4661 10.0426 44.1454 9.40561C44.2278 9.32839 44.2995 9.27017 44.3048 9.27624C44.3101 9.28235 44.3642 9.45238 44.425 9.6541L44.5355 10.0209L45.4479 10.0286C45.9498 10.0329 46.3604 10.0268 46.3604 10.0151C46.3604 10.0035 46.3151 9.88473 46.2597 9.75125C46.1114 9.39341 46.0247 9.00055 45.9907 8.53165C45.9732 8.29161 45.9639 7.40638 45.9682 6.40089C45.9747 4.85941 45.9702 4.64927 45.9249 4.3776C45.836 3.84514 45.7291 3.60945 45.4484 3.32663C45.1092 2.98498 44.6698 2.78276 44.0522 2.68411C43.7052 2.62869 42.7608 2.60589 42.3955 2.64409ZM51.189 2.64473C50.6189 2.72991 50.0901 3.02335 49.6243 3.51294L49.3906 3.7585V3.27337V2.78824H48.541H47.6914V6.41189V10.0355H48.6118H49.5322L49.5325 8.13569C49.5327 6.19421 49.5541 5.58535 49.6351 5.21394C49.7604 4.63883 50.1371 4.23659 50.6574 4.12236C50.9045 4.06811 51.0385 4.06864 51.2467 4.12468C51.4638 4.18313 51.5776 4.26402 51.6985 4.44602C51.9003 4.74968 51.8938 4.65444 51.9043 7.49018L51.9137 10.0355H52.847H53.7803V8.03282C53.7803 5.56701 53.8026 5.29023 54.041 4.80073C54.442 3.97762 55.6306 3.8313 55.9759 4.56257C56.1216 4.87101 56.1304 5.04752 56.1307 7.65156L56.1309 10.0355H57.0654H58V7.51729C58 5.90549 57.9888 4.88403 57.969 4.67955C57.9028 3.99889 57.7598 3.65516 57.377 3.25641C57.0218 2.88657 56.6729 2.72061 56.0774 2.63825C55.2354 2.52182 54.4637 2.81362 53.8078 3.49645L53.5572 3.75727L53.4495 3.58817C53.2985 3.35136 53.005 3.05771 52.7884 2.92685C52.363 2.66994 51.7473 2.56132 51.189 2.64473ZM10.976 4.11095C11.4927 4.20842 11.9155 4.65414 12.0454 5.23824C12.0705 5.3512 12.0993 5.51956 12.1093 5.61234L12.1276 5.78105H10.7367H9.3457V5.6516C9.3457 5.22225 9.51514 4.77914 9.78722 4.49687C10.1126 4.15927 10.5241 4.02571 10.976 4.11095ZM22.263 4.10875C22.6515 4.18389 23.022 4.48455 23.2027 4.87147C23.3077 5.09617 23.3926 5.44982 23.3926 5.66246V5.78105H22.0049H20.6172V5.69687C20.6172 5.48735 20.7103 5.08018 20.8047 4.87684C21.0709 4.30331 21.6612 3.99241 22.263 4.10875ZM30.2885 4.17878C30.5766 4.28711 30.8381 4.50491 31.0284 4.79504C31.4285 5.4051 31.4764 6.82059 31.1229 7.58798C31.0248 7.80094 30.7644 8.10746 30.5657 8.24378C30.1547 8.52584 29.5841 8.56906 29.1558 8.35065C28.7586 8.14813 28.4788 7.76062 28.3484 7.23268C28.2276 6.74318 28.2224 5.87198 28.3374 5.37749C28.4883 4.72911 28.9167 4.25005 29.4606 4.12177C29.7012 4.06503 30.0499 4.08903 30.2885 4.17878ZM44.1508 7.03539C44.1505 7.28955 44.1386 7.58079 44.1244 7.68255C44.0554 8.17715 43.6983 8.58221 43.1602 8.77648C43.018 8.82779 42.9116 8.8432 42.6929 8.84422C42.445 8.8454 42.3896 8.83592 42.249 8.76832C41.7096 8.50918 41.4977 7.86596 41.801 7.40914C41.9668 7.15954 42.2456 7.0368 43.1035 6.83584C43.3761 6.772 43.7074 6.68793 43.8398 6.64906C43.9722 6.61018 44.0965 6.57723 44.116 6.57582C44.1429 6.57388 44.1512 6.68359 44.1508 7.03539Z" fill="#1F2A3C"/>
</svg>
