<svg width="30" height="20" viewBox="0 0 30 20" fill="none" xmlns="http://www.w3.org/2000/svg">
<path fill-rule="evenodd" clip-rule="evenodd" d="M0 9.79711V19.5942L5.22838 19.584L10.4568 19.5738L10.8854 19.4918C12.2889 19.2234 13.2879 18.7315 14.1025 17.9078C14.948 17.0528 15.4022 16.0329 15.5549 14.6459C15.604 14.1998 15.5956 13.1057 15.5397 12.6748C15.3776 11.4262 14.9931 10.4876 14.3827 9.85118C13.8735 9.32029 13.2178 9.01369 12.4667 8.95534L12.2048 8.93497L12.4637 8.86533C12.8266 8.76768 13.0226 8.68891 13.2988 8.52966C14.1051 8.0647 14.6344 7.29127 14.8519 6.25983C14.9345 5.86832 14.9658 4.98174 14.9145 4.48536C14.6556 1.97807 13.0949 0.378263 10.5853 0.047604C10.2726 0.00640705 9.53537 0 5.11199 0H0V9.79711ZM19.4744 2.35234V3.55947H23.3172H27.16V2.35234V1.14522H23.3172H19.4744V2.35234ZM10.0531 3.55473C10.2997 3.65533 10.5857 3.93151 10.7294 4.20782C10.9065 4.54863 10.9661 4.82849 10.9845 5.40754C11.0223 6.59408 10.7656 7.36135 10.2327 7.65453C9.87455 7.85157 9.96386 7.8463 6.98138 7.8463H4.2715L4.26363 5.65584L4.25579 3.46534L7.06537 3.47373L9.87497 3.48209L10.0531 3.55473ZM22.4414 5.02987C20.6299 5.25015 19.2149 5.98591 18.1683 7.25159C17.1389 8.49657 16.5029 10.224 16.3483 12.195C16.2752 13.1274 16.395 14.2373 16.6745 15.2169C17.4184 17.8243 19.1938 19.4235 21.839 19.8688C22.9446 20.0549 24.4434 20.0418 25.4606 19.8373C27.746 19.3776 29.1912 18.1582 29.6736 16.2826C29.7674 15.9178 29.8546 15.287 29.8546 14.9732V14.795H28.2206H26.5866L26.5663 14.97C26.488 15.643 26.0744 16.2106 25.43 16.529C25.0642 16.7098 24.7833 16.7918 24.3184 16.8537C22.6048 17.0817 21.2776 16.5052 20.6836 15.2748C20.4702 14.8328 20.3321 14.2282 20.3319 13.7349L20.3317 13.495H25.1373C28.1773 13.495 29.9495 13.4841 29.961 13.4653C30.0013 13.3994 30.0149 12.1007 29.9801 11.6379C29.8136 9.42073 29.1686 7.77428 28.016 6.6237C27.1707 5.77999 26.1281 5.28209 24.741 5.05977C24.2958 4.98842 22.9284 4.97063 22.4414 5.02987ZM24.4178 7.9525C25.5368 8.26545 26.258 9.24681 26.3815 10.6248L26.403 10.8641H23.3479H20.2928L20.3121 10.7214C20.3228 10.6428 20.3793 10.4341 20.4378 10.2574C20.8802 8.9212 21.7405 8.11493 22.9626 7.8914C23.0397 7.87729 23.344 7.86995 23.6387 7.87512C24.0763 7.88277 24.2191 7.89694 24.4178 7.9525ZM9.99476 10.9105C10.7565 11.0736 11.2931 11.6456 11.5339 12.5513C11.6113 12.8421 11.6162 12.9011 11.6168 13.5415C11.6174 14.182 11.6126 14.2403 11.5365 14.5238C11.4207 14.9555 11.2706 15.2283 10.994 15.5101C10.8202 15.6871 10.7061 15.7728 10.5333 15.856C10.0469 16.0901 10.2616 16.0757 7.0962 16.087L4.25619 16.0971V13.4806V10.8641L7.01965 10.8646C9.32795 10.8651 9.81799 10.8727 9.99476 10.9105Z" fill="url(#paint0_linear_3052_440)"/>
<defs>
<linearGradient id="paint0_linear_3052_440" x1="0" y1="0" x2="30.7653" y2="1.65484" gradientUnits="userSpaceOnUse">
<stop stop-color="#091C91"/>
<stop offset="1" stop-color="#24BCFF"/>
</linearGradient>
</defs>
</svg>
