<svg width="30" height="27" viewBox="0 0 30 27" fill="none" xmlns="http://www.w3.org/2000/svg">
<path fill-rule="evenodd" clip-rule="evenodd" d="M14.6809 0.0273052C14.6086 0.0475024 14.1355 0.36325 13.6295 0.728937C13.1236 1.09462 12.2174 1.74908 11.6158 2.18325L10.5219 2.97267H8.47002C6.50501 2.97267 6.40855 2.97584 6.19111 3.04774C5.74513 3.19521 5.4166 3.4762 5.21095 3.886L5.08761 4.13183L5.06884 5.53252L5.05006 6.93324L4.3179 7.46264C3.91521 7.7538 2.83802 8.53217 1.92417 9.19226L0.262641 10.3925L0.36597 10.4561C0.422816 10.491 1.68586 11.4005 3.17272 12.4771L5.87609 14.4346L5.89487 9.39472L5.91364 4.35478L6.01791 4.1807C6.08549 4.06781 6.1845 3.97062 6.29951 3.90428L6.47685 3.80193H14.9625C19.6295 3.80193 23.495 3.8148 23.5523 3.8305C23.6818 3.86603 23.9387 4.0903 24.0231 4.24144C24.0813 4.34567 24.0879 4.75898 24.1051 9.39221L24.1239 14.4296L24.4431 14.1971C24.6186 14.0692 25.8689 13.1651 27.2215 12.188C28.5742 11.2109 29.6841 10.4004 29.6881 10.3869C29.6921 10.3734 28.7053 9.64917 27.4953 8.77752C26.2852 7.90587 25.2133 7.13012 25.1132 7.05365L24.9312 6.91455V5.60586C24.9312 4.38054 24.9262 4.28276 24.8536 4.07102C24.709 3.64983 24.3927 3.30813 23.9617 3.10775L23.7109 2.9911L21.5707 2.97267L19.4305 2.95424L17.4911 1.54725C16.4243 0.773422 15.4952 0.111632 15.4263 0.0766557C15.2789 0.00183756 14.869 -0.0252886 14.6809 0.0273052ZM14.1719 7.46467C12.2803 7.80201 10.9675 9.11512 10.4662 11.1713C10.3958 11.4602 10.3849 11.611 10.3852 12.2973C10.3856 13.0664 10.389 13.1023 10.5022 13.5193C10.7106 14.2867 11.019 14.8268 11.5427 15.3408C12.0439 15.8328 12.6253 16.1609 13.3883 16.3824C14.5475 16.7189 16.1147 16.7197 17.1641 16.3844C17.5329 16.2666 18.0008 16.0408 18.3537 15.8103C18.9124 15.4454 19.5935 14.7047 19.6114 14.4425L19.6183 14.3428L19.13 14.3326L18.6418 14.3224L18.4415 14.5457C18.0223 15.0132 17.3047 15.428 16.6261 15.595C15.5855 15.8511 14.1752 15.7534 13.208 15.3582C12.3513 15.0081 11.7393 14.3631 11.458 13.5135C10.9841 12.0823 11.3886 10.3381 12.4322 9.31378C13.1219 8.63669 14.0666 8.27996 15.1698 8.27996C15.9451 8.27996 16.5603 8.44091 17.1525 8.79868C17.9077 9.25488 18.3679 9.95777 18.4744 10.8178C18.5785 11.6576 18.2426 12.5727 17.6187 13.1494C17.2047 13.532 16.7192 13.7305 16.5657 13.5799C16.4786 13.4944 16.4795 13.4898 17.12 10.5726C17.246 9.99908 17.3391 9.51394 17.3269 9.49459C17.3146 9.47502 17.0815 9.45936 16.8031 9.45936H16.3015L16.2451 9.70217C16.214 9.8357 16.178 9.95545 16.1649 9.96823C16.1519 9.98106 16.0996 9.93934 16.0487 9.8755C15.9119 9.70394 15.5331 9.47027 15.2551 9.38598C14.7993 9.24781 14.336 9.30792 13.8173 9.57251C13.108 9.93429 12.5474 10.6883 12.2892 11.6274C12.0478 12.5053 12.2396 13.4756 12.7663 14.0413C13.4361 14.7607 14.3755 14.8063 15.1854 14.1588C15.2997 14.0674 15.4005 13.9927 15.4096 13.9927C15.4186 13.9927 15.4446 14.048 15.4673 14.1155C15.5184 14.2677 15.6883 14.442 15.8735 14.5323C15.988 14.5882 16.0966 14.6003 16.4643 14.5979C16.9661 14.5947 17.2167 14.5272 17.6336 14.283C17.9094 14.1214 18.4196 13.6487 18.6556 13.3361C19.6455 12.025 19.6625 10.3271 18.6991 8.98712C18.1764 8.2601 17.4319 7.7806 16.4163 7.51704C16.0947 7.43356 15.9621 7.42081 15.3004 7.40982C14.6944 7.39973 14.4765 7.41034 14.1719 7.46467ZM15.1152 10.2507C15.3742 10.3266 15.5581 10.4899 15.6976 10.7681C15.9878 11.3468 15.8296 12.3416 15.3402 13.0148C14.893 13.6299 14.264 13.876 13.8091 13.6139C13.6358 13.5141 13.4422 13.2847 13.3668 13.0899C13.2181 12.706 13.2479 12.1276 13.4465 11.5425C13.6819 10.8489 14.066 10.3959 14.5428 10.2495C14.752 10.1854 14.893 10.1856 15.1152 10.2507ZM0 18.5823V26.1985L0.143467 26.0939C0.373029 25.9266 3.36627 23.7364 6.60244 21.3678C8.24737 20.1639 9.73126 19.0779 9.89996 18.9546C10.0687 18.8313 10.1992 18.7185 10.19 18.7039C10.1808 18.6893 10.0343 18.5717 9.86448 18.4426C8.39974 17.329 7.85219 16.913 6.45807 15.8541C5.58041 15.1876 4.53285 14.3919 4.13016 14.086C3.72747 13.7801 2.65457 12.9652 1.74593 12.2751C0.837297 11.585 0.072766 11.0082 0.0469337 10.9932C0.00946183 10.9716 0 12.4994 0 18.5823ZM27.6721 12.7061C26.4227 13.6581 25.0795 14.6807 24.6871 14.9785C24.2947 15.2764 23.6442 15.7706 23.2416 16.0767C21.7688 17.1963 20.1394 18.4322 19.9672 18.5604C19.87 18.6327 19.7897 18.7008 19.7888 18.7117C19.7879 18.7226 20.6025 19.3278 21.5989 20.0567C22.5953 20.7855 24.137 21.9134 25.025 22.5632C25.913 23.213 27.3745 24.2814 28.2728 24.9375C29.1712 25.5936 29.9273 26.1463 29.9531 26.1657C29.9906 26.194 30 24.6723 30 18.5858C30 14.3974 29.9873 10.9715 29.9718 10.9728C29.9563 10.9741 28.9215 11.7541 27.6721 12.7061ZM9.16765 20.3626C8.2934 21.0045 5.94511 22.7239 3.94922 24.1834C1.9533 25.6429 0.322641 26.8536 0.325494 26.8739C0.342916 26.9985 0.368223 26.9988 15 26.9999C28.6545 27.0009 29.4258 26.9976 29.5643 26.9365L29.7107 26.8719L29.2076 26.5011C28.7136 26.1368 20.7561 20.3133 19.7357 19.5692C19.4492 19.3603 19.1986 19.1894 19.1787 19.1894C19.1589 19.1894 18.6583 19.5582 18.0663 20.0089C15.5618 21.9158 15.5158 21.949 15.2922 22.0128C15.0463 22.083 14.7966 22.0652 14.5589 21.9606C14.4711 21.9219 13.5999 21.2826 12.623 20.5398C11.6461 19.7971 10.8267 19.1908 10.802 19.1924C10.7774 19.194 10.0419 19.7206 9.16765 20.3626Z" fill="url(#paint0_linear_3052_451)"/>
<defs>
<linearGradient id="paint0_linear_3052_451" x1="0" y1="0" x2="30.8054" y2="1.2274" gradientUnits="userSpaceOnUse">
<stop stop-color="#091C91"/>
<stop offset="1" stop-color="#24BCFF"/>
</linearGradient>
</defs>
</svg>
