<svg width="20" height="36" viewBox="0 0 20 36" fill="none" xmlns="http://www.w3.org/2000/svg">
<path fill-rule="evenodd" clip-rule="evenodd" d="M10.9699 8.72812C10.9659 8.73868 10.9392 8.83731 10.9106 8.94731L10.8587 9.1473L10.692 9.17731C10.6003 9.19381 10.5253 9.21055 10.5253 9.21451C10.5253 9.21846 10.5981 9.24107 10.6872 9.26473C10.7762 9.28839 10.8491 9.30915 10.8491 9.30915C10.8491 9.31665 10.9738 9.75656 10.9768 9.75965C10.979 9.76193 11.005 9.66347 11.0345 9.54087C11.064 9.41828 11.0946 9.31287 11.1025 9.30663C11.1104 9.3004 11.1799 9.2787 11.2569 9.25841C11.334 9.23814 11.397 9.21816 11.397 9.21402C11.397 9.2099 11.3263 9.19247 11.2398 9.17532L11.0826 9.14411L11.0299 8.92652C11.0009 8.80684 10.9739 8.71756 10.9699 8.72812ZM9.72218 8.75052C9.7621 8.84991 9.76037 9.00973 9.71844 9.09413C9.66777 9.1961 9.55432 9.27142 9.39206 9.31077C9.26396 9.34185 8.94962 9.35025 8.71336 9.32893C8.36734 9.29768 8.13487 9.30997 7.88163 9.37289C7.72173 9.41262 7.58599 9.49832 7.42246 9.66281C7.26659 9.81956 7.21897 9.91235 7.21897 10.0593C7.21897 10.1862 7.26077 10.276 7.37373 10.3918C7.54726 10.5698 7.79742 10.7035 8.52656 11.0083C8.9137 11.1701 9.13203 11.275 9.24449 11.3531C9.4938 11.5265 9.60274 11.7746 9.58857 12.1369C9.58559 12.2131 9.58753 12.2673 9.5929 12.2574C9.59827 12.2476 9.61904 12.1795 9.63907 12.1062C9.74347 11.7238 9.72016 11.355 9.57775 11.1358C9.48343 10.9906 9.3696 10.9093 9.13677 10.8207C8.72318 10.6632 8.36297 10.4153 8.2822 10.2326C8.18198 10.0058 8.39412 9.85091 8.89699 9.78378C9.40838 9.71551 9.70692 9.57298 9.82248 9.34192C9.85109 9.28469 9.85833 9.25135 9.8626 9.15691C9.86865 9.02335 9.8433 8.92625 9.76989 8.80172C9.72791 8.73053 9.70371 8.70456 9.72218 8.75052ZM9.61621 10.4914C9.61621 10.4977 9.63087 10.5168 9.64878 10.5338C9.70168 10.5843 9.83339 10.7625 9.90381 10.879C10.1765 11.3299 10.2614 11.8245 10.1462 12.291C9.99586 12.9003 9.49065 13.4821 8.86109 13.7708C8.33386 14.0126 7.49424 14.1159 6.73985 14.0316C6.49793 14.0046 6.12697 14.0047 5.94252 14.0318C5.5137 14.0948 5.19522 14.2528 4.92207 14.5382L4.81693 14.648L4.86891 14.569C5.17127 14.1099 5.556 13.8439 6.00479 13.7838C6.09914 13.7712 6.205 13.7713 6.52782 13.7843C7.0336 13.8047 7.85171 13.7952 8.10201 13.7661C8.24182 13.7498 8.30782 13.7346 8.44447 13.687C9.11514 13.4533 9.58564 13.0692 9.82117 12.563C9.96343 12.2573 10.0269 11.8714 9.99058 11.5332C9.96698 11.3136 9.95796 11.2985 9.94751 11.4609C9.86296 12.7757 9.24831 13.3606 7.94996 13.3619C7.80818 13.362 7.50429 13.3552 7.27463 13.3469C6.30952 13.3116 5.79815 13.4101 5.345 13.7185C5.15372 13.8487 4.89893 14.1222 4.74158 14.3664C4.38932 14.9129 4.1566 15.6934 4.1166 16.4622C4.10417 16.7013 4.11863 16.7278 4.21962 16.6515C4.28748 16.6002 4.32583 16.5207 4.4482 16.1775C4.63449 15.6553 4.75552 15.3883 4.927 15.1216C5.19913 14.6983 5.50244 14.4718 5.89067 14.4021C6.07216 14.3695 6.50763 14.3731 6.945 14.4108C7.38818 14.449 7.87434 14.4526 8.10938 14.4195C8.78346 14.3244 9.29782 14.0551 9.77864 13.5455C10.1653 13.1358 10.4057 12.7067 10.4769 12.2992C10.5013 12.1593 10.4979 11.8694 10.4702 11.736C10.3965 11.3807 10.2198 11.0639 9.92754 10.7631C9.77721 10.6084 9.61621 10.4679 9.61621 10.4914ZM5.15898 10.8495C5.11584 11.0168 5.07415 11.1601 5.06633 11.168C5.05851 11.1759 4.94844 11.2012 4.82173 11.2244C4.69502 11.2475 4.58731 11.2699 4.58238 11.2743C4.57745 11.2786 4.68264 11.3109 4.81614 11.3459L5.05885 11.4097L5.07073 11.4545C5.16701 11.8175 5.23926 12.067 5.2459 12.0593C5.25046 12.054 5.28914 11.9047 5.33185 11.7275L5.40952 11.4054L5.50479 11.3793C5.55718 11.365 5.66128 11.3367 5.73611 11.3164C5.81094 11.2961 5.86698 11.2764 5.86064 11.2725C5.8543 11.2687 5.74895 11.2463 5.62651 11.2227C5.43708 11.1862 5.40233 11.1759 5.39341 11.1539C5.38766 11.1397 5.35393 11.0013 5.31847 10.8465C5.28301 10.6916 5.25027 10.5605 5.24571 10.5552C5.24114 10.5498 5.20212 10.6823 5.15898 10.8495ZM12.7653 12.462L12.7097 12.6768L12.539 12.7087C12.4452 12.7262 12.3684 12.7435 12.3684 12.7471C12.3684 12.7507 12.4343 12.7703 12.5147 12.7906C12.5952 12.811 12.6701 12.8324 12.6813 12.8383C12.6947 12.8452 12.7223 12.9254 12.762 13.0728C12.7952 13.1959 12.826 13.2897 12.8303 13.2812C12.8346 13.2726 12.8593 13.1763 12.8852 13.0672C12.9111 12.9581 12.9366 12.8601 12.9419 12.8494C12.9478 12.8375 13.0097 12.8152 13.102 12.7918C13.1848 12.7708 13.2525 12.7507 13.2525 12.7471C13.2525 12.7436 13.1807 12.727 13.0928 12.7102L12.9331 12.6798L12.8849 12.4735C12.8585 12.3601 12.8332 12.2627 12.8289 12.2572C12.8245 12.2517 12.7959 12.3439 12.7653 12.462ZM10.5796 14.2971C10.4504 14.4471 10.3103 14.6099 10.2682 14.6589L10.1917 14.748L10.2977 14.858C10.4307 14.9959 10.5429 15.1426 10.6383 15.3035L10.7124 15.4284L10.6505 15.45C10.4765 15.5108 10.3621 15.6749 10.3322 15.9069C10.3241 15.9697 10.3253 15.9748 10.3465 15.9686C10.528 15.9161 11.1327 15.9158 11.3021 15.9683C11.3235 15.9749 11.3248 15.9703 11.3169 15.916C11.2853 15.7001 11.159 15.5199 10.9962 15.4589C10.9462 15.4401 10.9246 15.4258 10.929 15.4141C10.9563 15.341 11.2099 15.0026 11.3531 14.8481L11.4437 14.7504L11.152 14.4112C10.9916 14.2246 10.8501 14.0613 10.8374 14.0482C10.8151 14.025 10.8082 14.0317 10.5796 14.2971ZM15.2921 14.4306C14.913 14.4777 14.5206 14.6123 14.2731 14.78C13.9513 14.9981 13.655 15.4445 13.5426 15.8806C13.5 16.0456 13.4942 16.3614 13.531 16.5039C13.6786 17.0748 14.3106 17.5641 14.9956 17.6378C15.1756 17.6572 15.3231 17.6396 15.4959 17.5781C16.0205 17.3916 16.4032 16.9415 16.4032 16.511C16.4032 16.3835 16.3787 16.288 16.308 16.1398C16.2083 15.931 16 15.7448 15.8055 15.6907C15.5805 15.6282 15.3048 15.6688 15.1016 15.7945C15.0146 15.8484 14.8977 15.9742 14.8619 16.0525C14.8472 16.0846 14.8284 16.1487 14.8201 16.195C14.7923 16.3503 14.8515 16.4987 14.9754 16.5838C15.0537 16.6376 15.1211 16.6555 15.2165 16.6477C15.3932 16.6333 15.5233 16.4836 15.5249 16.2927C15.5253 16.247 15.5301 16.2023 15.5356 16.1935C15.5557 16.1608 15.6205 16.1366 15.6649 16.1452C15.7211 16.1561 15.8107 16.2413 15.8531 16.3242C15.8812 16.3792 15.8861 16.4049 15.8862 16.4975C15.8865 16.6442 15.8512 16.7224 15.7277 16.8487C15.6243 16.9545 15.5038 17.0314 15.3621 17.0819C15.2764 17.1124 15.2445 17.117 15.1143 17.1172C14.9441 17.1175 14.8554 17.0975 14.7158 17.0274C14.5264 16.9322 14.3826 16.7888 14.287 16.5999C14.1679 16.3644 14.1631 16.0999 14.2732 15.8501C14.4113 15.5373 14.7644 15.227 15.1143 15.111C15.2664 15.0606 15.3608 15.0464 15.5377 15.0472C15.8448 15.0486 16.1209 15.1401 16.4022 15.3335C16.6416 15.498 16.8375 15.7277 16.9639 15.9919C17.0576 16.1879 17.0885 16.3069 17.0971 16.5041C17.1101 16.8047 17.0473 17.0962 16.9098 17.3736C16.7213 17.754 16.3951 18.0312 15.9678 18.1743C15.7861 18.2351 15.6597 18.2579 15.3634 18.2834C15.0871 18.3072 14.7468 18.3528 14.5132 18.3972L14.3479 18.4287L14.2475 18.3548C13.9588 18.1423 13.459 17.8774 12.9628 17.6738L12.8411 17.6239H8.68744L8.57462 17.6615C8.51258 17.6822 8.34395 17.7479 8.1999 17.8075C7.70522 18.0123 7.51131 18.0642 7.23765 18.0648C6.93367 18.0656 6.86209 18.0356 6.25187 17.6527C5.47587 17.1657 5.16147 16.9716 5.08765 16.9341C4.93206 16.855 4.79634 16.8363 4.5688 16.8624C4.27449 16.8962 3.99352 16.8844 3.73208 16.8272C3.56288 16.7902 3.54093 16.7926 3.44871 16.8583C3.3527 16.9268 3.31837 16.9876 3.33918 17.0524C3.36158 17.1222 3.39774 17.1449 3.55402 17.1875C3.95304 17.2961 4.36087 17.4905 4.87155 17.8154C4.95716 17.8699 5.12914 17.9767 5.25374 18.0528C5.74347 18.3521 6.08873 18.6326 6.96991 19.4473C7.77203 20.1889 8.07807 20.4425 8.50529 20.7198C9.09334 21.1014 9.69878 21.3232 10.326 21.3867C10.5052 21.4049 10.9892 21.4052 11.2109 21.3874C12.4079 21.2909 13.3685 20.8685 14.0687 20.1309C14.318 19.8682 14.4988 19.6196 14.646 19.3372L14.7103 19.2138L14.8812 19.1806C14.9751 19.1624 15.1725 19.127 15.3198 19.1021C15.8503 19.0124 16.1275 18.9316 16.434 18.7771C16.7256 18.6303 16.9244 18.4826 17.1451 18.2492C17.4742 17.9011 17.6771 17.5038 17.7551 17.0543C17.7819 16.8996 17.7857 16.5541 17.7623 16.4015C17.6801 15.8674 17.4311 15.3389 17.1012 14.999C16.782 14.6701 16.3818 14.4804 15.89 14.4248C15.7325 14.4071 15.4602 14.4097 15.2921 14.4306ZM10.5004 16.1663C9.95534 16.1967 9.53897 16.3523 9.25683 16.631C9.07051 16.815 8.95157 17.0432 8.92104 17.2751L8.9105 17.3551H12.719L12.7105 17.3135C12.7058 17.2906 12.6858 17.2315 12.666 17.1822C12.3835 16.4771 11.5912 16.1055 10.5004 16.1663ZM11.8765 21.5618C11.7511 21.5893 11.3876 21.6409 11.2189 21.6551C10.8161 21.6892 10.364 21.6591 10.0531 21.5776C10.0023 21.5643 9.95834 21.5559 9.95536 21.559C9.9456 21.569 10.0659 21.9425 10.0962 21.9965C10.1654 22.1194 10.3421 22.2415 10.5198 22.2893C10.5674 22.302 10.6133 22.3214 10.6218 22.3322C10.6465 22.3634 10.6412 22.5362 10.6127 22.6312L10.588 22.7133L10.3668 22.7421C10.0907 22.7781 9.78559 22.8387 9.68588 22.8773C9.43061 22.976 9.20753 23.1423 9.05106 23.3505C8.94534 23.4911 8.92013 23.5369 8.91111 23.6045C8.90089 23.6811 8.92163 23.7403 8.97819 23.7959C9.03944 23.8561 9.06862 23.8643 9.3547 23.9015C10.1956 24.0111 11.2367 24.0306 12.1006 23.9531C12.4923 23.918 12.8309 23.8702 12.8897 23.8416C12.9972 23.7895 13.0485 23.64 12.9956 23.5335C12.9477 23.4373 12.8447 23.3013 12.7441 23.2017C12.5884 23.0474 12.4571 22.96 12.26 22.8794C12.1344 22.8281 11.8627 22.775 11.534 22.7375C11.4347 22.7262 11.3467 22.7147 11.3386 22.7119C11.3102 22.7021 11.2725 22.5418 11.2727 22.4321C11.2728 22.3747 11.277 22.3214 11.282 22.3135C11.287 22.3056 11.3248 22.2893 11.3659 22.2771C11.5364 22.2268 11.7029 22.1049 11.801 21.9585C11.8422 21.8971 11.964 21.5762 11.9547 21.5538C11.9528 21.5492 11.9176 21.5528 11.8765 21.5618Z" fill="url(#paint0_linear_3052_435)"/>
<path fill-rule="evenodd" clip-rule="evenodd" d="M2.19873 0.0304149C1.86193 0.0777613 1.70065 0.12981 1.34384 0.306397C0.925036 0.51365 0.48708 0.939645 0.284989 1.33632C-0.0257597 1.94643 0.000551822 0.403298 0.000551822 18.0085C0.000551822 32.3527 0.00707612 33.9129 0.0679721 34.1398C0.282302 34.9383 0.858426 35.5537 1.69093 35.8733L1.98351 35.9856L9.89039 35.9965C16.6875 36.0058 17.8312 35.999 18.0388 35.948C18.7582 35.7713 19.3577 35.3184 19.7005 34.693C20.0272 34.0967 19.9994 35.6464 19.9994 18.0161C19.9994 4.33591 19.991 2.13835 19.9377 1.92182C19.7178 1.02775 19.0406 0.350596 18.0927 0.0769844C17.864 0.0109939 17.3189 0.0057605 10.1499 0.000445278C5.91637 -0.00266208 2.33835 0.0108304 2.19873 0.0304149ZM14.8445 2.63712C14.9482 2.7599 14.9482 2.89368 14.8445 3.01646L14.763 3.113L10.0812 3.11749C7.50619 3.11999 5.35044 3.10948 5.29061 3.09415C5.04204 3.03049 5.01295 2.68639 5.24652 2.57244C5.33031 2.53155 6.3342 2.52284 10.0577 2.53069L14.763 2.54059L14.8445 2.63712ZM17.4417 5.67886C18.3146 5.93648 18.9892 6.59835 19.2081 7.41195C19.269 7.63809 19.2757 8.70866 19.2757 18.125C19.2757 28.5813 19.2757 28.587 19.1874 28.8926C19.0666 29.3109 18.888 29.5958 18.5322 29.938C18.3177 30.1444 18.1389 30.271 17.9111 30.3781C17.2948 30.6677 17.7617 30.6526 9.83994 30.6397C3.36731 30.6291 2.69038 30.6218 2.51289 30.5612C1.92048 30.3587 1.41045 29.9856 1.10154 29.5287C1.01148 29.3956 0.890025 29.1417 0.831645 28.9645L0.725504 28.6423V18.1452C0.725504 8.81512 0.732838 7.62116 0.791304 7.40586C1.0432 6.47868 1.865 5.77175 2.85644 5.62934C2.98616 5.6107 6.26819 5.59868 10.1499 5.60261C16.6435 5.60915 17.2262 5.61528 17.4417 5.67886ZM10.557 32.1812C11.0407 32.388 11.3043 32.7569 11.3353 33.2702C11.3629 33.7273 11.2732 33.955 10.9392 34.2754C10.7254 34.4804 10.6298 34.5407 10.4292 34.5966C9.50945 34.853 8.64897 34.2558 8.64884 33.361C8.64872 32.4095 9.64719 31.7922 10.557 32.1812Z" fill="url(#paint1_linear_3052_435)"/>
<defs>
<linearGradient id="paint0_linear_3052_435" x1="0" y1="0" x2="20.5614" y2="0.409621" gradientUnits="userSpaceOnUse">
<stop stop-color="#091C91"/>
<stop offset="1" stop-color="#24BCFF"/>
</linearGradient>
<linearGradient id="paint1_linear_3052_435" x1="0" y1="0" x2="20.5614" y2="0.409621" gradientUnits="userSpaceOnUse">
<stop stop-color="#091C91"/>
<stop offset="1" stop-color="#24BCFF"/>
</linearGradient>
</defs>
</svg>
