<svg width="29" height="30" viewBox="0 0 29 30" fill="none" xmlns="http://www.w3.org/2000/svg">
<path fill-rule="evenodd" clip-rule="evenodd" d="M13.0858 0.0638708C10.9829 0.270493 8.68879 1.07529 6.92048 2.22673C3.0871 4.72281 0.645 8.68227 0.113236 13.2634C0.0194336 14.071 0.0187238 15.9371 0.111752 16.7452C0.300906 18.387 0.790513 20.0951 1.50084 21.5911C1.72983 22.0735 1.91724 22.4993 1.91724 22.5372C1.91724 22.5752 1.48232 24.2662 0.950811 26.2949C0.419241 28.3237 -0.00858449 29.9909 0.000130831 29.9999C0.00878159 30.0088 1.71195 29.6018 3.78497 29.0954L7.55405 28.1746L8.2702 28.5263C10.238 29.4926 12.2899 29.9666 14.506 29.9669C18.5195 29.9673 22.1778 28.3674 24.9377 25.4048C27.0748 23.1108 28.4117 20.3104 28.8817 17.1436C29.0398 16.0786 29.0393 13.865 28.8808 12.8056C28.2765 8.76696 26.2768 5.34468 23.0817 2.88083C20.6823 1.03058 17.4758 -0.0348354 14.4141 0.000869687C13.9853 0.00587507 13.3876 0.0342389 13.0858 0.0638708ZM10.5683 8.23399C10.6467 8.3074 10.7705 8.48759 10.8433 8.63442C11.0772 9.10586 12.1174 11.7618 12.1174 11.8876C12.1174 12.1109 11.8105 12.6333 11.3484 13.1966C11.0852 13.5174 10.8908 13.8164 10.8908 13.9004C10.8908 14.0669 11.3273 14.8242 11.7504 15.3917C12.7131 16.683 13.9947 17.7543 15.3453 18.3964C16.1251 18.7672 16.2626 18.8072 16.4608 18.7209C16.6319 18.6463 17.2712 17.9078 17.7557 17.2253C17.892 17.0333 18.072 16.8585 18.1558 16.8367C18.3864 16.7769 18.6678 16.892 20.2975 17.7122C21.9786 18.5585 21.9086 18.4899 21.8501 19.2349C21.8008 19.8608 21.6221 20.4247 21.3589 20.7847C21.0791 21.1674 20.2961 21.7375 19.7605 21.9483C19.309 22.1262 18.5212 22.2029 17.8987 22.1296C17.0426 22.0289 15.1645 21.3895 14.0864 20.8319C12.0481 19.7775 10.1737 17.9207 8.40964 15.2082C6.83533 12.7873 6.75186 10.5646 8.17 8.82769C8.71016 8.16611 8.93204 8.06307 9.77059 8.08409C10.3211 8.09791 10.4484 8.1218 10.5683 8.23399Z" fill="url(#paint0_linear_2592_1082)"/>
<defs>
<linearGradient id="paint0_linear_2592_1082" x1="0" y1="0" x2="29.79" y2="1.03264" gradientUnits="userSpaceOnUse">
<stop stop-color="#239110"/>
<stop offset="1" stop-color="#61EE61"/>
</linearGradient>
</defs>
</svg>
