<svg width="1020" height="900" viewBox="0 0 1020 900" fill="none" xmlns="http://www.w3.org/2000/svg">
<path d="M1124 562C1124 872.384 872.384 1124 562 1124C251.616 1124 0 872.384 0 562C0 251.616 251.616 0 562 0C872.384 0 1124 251.616 1124 562Z" fill="#0936AE" fill-opacity="0.05"/>
<path d="M1008.01 562.513C1008.01 809.12 808.093 1009.03 561.487 1009.03C314.88 1009.03 114.966 809.12 114.966 562.513C114.966 315.907 314.88 115.993 561.487 115.993C808.093 115.993 1008.01 315.907 1008.01 562.513Z" fill="#0936AE" fill-opacity="0.05"/>
<path d="M890.988 562.513C890.988 745.059 743.006 893.041 560.46 893.041C377.915 893.041 229.932 745.059 229.932 562.513C229.932 379.968 377.915 231.985 560.46 231.985C743.006 231.985 890.988 379.968 890.988 562.513Z" fill="#0936AE" fill-opacity="0.05"/>
</svg>
