<svg width="30" height="28" viewBox="0 0 30 28" fill="none" xmlns="http://www.w3.org/2000/svg">
<path fill-rule="evenodd" clip-rule="evenodd" d="M16.4901 0.585569C16.3982 0.631286 16.2561 0.766048 16.1744 0.884986L16.0257 1.10125L16.0102 2.58421C15.9953 4.01338 15.9988 4.07582 16.1087 4.30478C16.1762 4.44559 16.3056 4.59777 16.4262 4.67826C16.5996 4.79402 16.6728 4.81053 16.921 4.78977C17.2584 4.76152 17.4743 4.5966 17.6364 4.24334C17.7232 4.05421 17.734 3.88106 17.735 2.662C17.7363 1.19773 17.7149 1.05272 17.4574 0.774437C17.2012 0.49764 16.8175 0.422666 16.4901 0.585569ZM20.9671 0.601127C20.7764 0.718419 20.6193 0.929959 20.5336 1.18488C20.4514 1.42955 20.4507 3.86853 20.5328 4.11596C20.8048 4.93541 21.6984 5.05196 22.1045 4.32092C22.2358 4.08453 22.236 4.08108 22.236 2.65042C22.236 1.21977 22.2358 1.21631 22.1045 0.979924C22.0321 0.849623 21.8924 0.688313 21.794 0.621516C21.5678 0.467799 21.1985 0.458719 20.9671 0.601127ZM25.4898 0.585569C25.3979 0.631286 25.2558 0.766048 25.174 0.884986L25.0254 1.10125L25.0119 2.6192C24.9985 4.11299 25.0002 4.14049 25.1179 4.34794C25.1837 4.46391 25.3201 4.61534 25.4209 4.68453C25.5743 4.78966 25.6539 4.80676 25.907 4.78892C26.1528 4.77155 26.2406 4.73826 26.3741 4.61163C26.7132 4.29028 26.7334 4.18069 26.7347 2.662C26.736 1.19773 26.7146 1.05272 26.457 0.774437C26.2009 0.49764 25.8172 0.422666 25.4898 0.585569ZM13.2092 2.77531C12.9949 2.89016 12.8106 3.14232 12.7357 3.42283C12.7007 3.55403 12.6873 6.91796 12.6963 13.3042L12.7101 22.9867L12.8541 23.2338C12.9541 23.4054 13.0677 23.5149 13.2259 23.5922L13.4538 23.7035L21.3448 23.7024C28.9829 23.7013 29.2428 23.698 29.456 23.6004C29.5945 23.5369 29.7311 23.4157 29.8244 23.2736L29.9726 23.0476L29.9863 13.2254L30 3.40308L29.8897 3.17311C29.6852 2.74706 29.5739 2.70596 28.5726 2.68685L27.6989 2.67017L27.6684 3.43021C27.6236 4.54403 27.4642 4.98012 26.9179 5.48396C26.0836 6.25313 24.8859 5.97979 24.3361 4.89469C24.1222 4.4724 24.0517 4.09148 24.0517 3.35609V2.67697H23.6044H23.157V3.38263C23.157 3.84904 23.1294 4.19556 23.0754 4.40476C22.9164 5.02064 22.5411 5.50451 22.0226 5.76203C21.7211 5.91172 21.6516 5.92573 21.3046 5.90635C20.8557 5.88134 20.6226 5.78126 20.2715 5.46278C19.7563 4.99541 19.5798 4.4715 19.5789 3.40706L19.5782 2.67697H19.1309H18.6835L18.6826 3.30086C18.6811 4.33398 18.4975 4.91885 18.0185 5.416C17.657 5.79129 17.4201 5.88862 16.8678 5.88862C16.3163 5.88862 16.1057 5.80239 15.7294 5.42269C15.241 4.92984 15.0545 4.34476 15.053 3.30086L15.0521 2.67697H14.2223C13.5159 2.67697 13.3654 2.69157 13.2092 2.77531ZM27.1832 8.98924C27.4439 9.10998 27.5425 9.21979 27.6877 9.55091C27.9067 10.0503 27.7356 10.7591 27.3287 11.038L27.1325 11.1726H21.4993C15.1104 11.1726 15.6452 11.2115 15.3446 10.7248C15.1649 10.4338 15.1105 10.0052 15.2074 9.64239C15.2818 9.36353 15.5854 9.01234 15.8083 8.94713C15.9019 8.91974 18.3471 8.89738 21.4729 8.89531C26.7026 8.89186 26.983 8.89648 27.1832 8.98924ZM0.693027 9.55855C0.401511 9.70515 0.212466 9.91276 0.0805763 10.2312C0.00942101 10.403 0 11.3651 0 18.4469C0 25.5287 0.00942101 26.4908 0.0805763 26.6625C0.209519 26.974 0.388249 27.1729 0.691027 27.3421L0.973648 27.5H11.7364C21.4861 27.5 22.5165 27.492 22.6834 27.4151C22.98 27.2784 23.2158 27.0457 23.3482 26.7588C23.4623 26.5116 23.4718 26.423 23.4723 25.6018L23.4728 24.7124H17.7396C13.8248 24.7124 11.9594 24.6945 11.8582 24.6561C11.7768 24.625 11.6325 24.5242 11.5376 24.4318C11.198 24.1013 11.2101 24.3419 11.2101 17.9328V12.1283L9.56544 12.1275C8.34885 12.1269 7.8865 12.1093 7.78919 12.0599C7.64909 11.9886 7.40489 11.5861 7.31526 11.2787C7.28547 11.1765 7.23589 10.9149 7.2051 10.6974C7.13821 10.2247 7.02106 9.97468 6.7567 9.74052C6.38677 9.41285 6.46092 9.42034 3.59082 9.42034H0.968017L0.693027 9.55855ZM27.1666 13.5557C27.2336 13.5815 27.3558 13.6706 27.4381 13.7537C27.6921 14.0103 27.7589 14.1906 27.7606 14.6239C27.7624 15.0943 27.6531 15.3523 27.3457 15.6034L27.1472 15.7655L21.5698 15.7797C16.1891 15.7934 15.9846 15.7904 15.7666 15.6931C15.2046 15.4423 14.9866 14.6644 15.3021 14.0361C15.3862 13.8686 15.5217 13.6978 15.6256 13.6284L15.8045 13.5088H21.4246C24.5451 13.5088 27.0989 13.5297 27.1666 13.5557ZM27.1985 18.1758C27.4496 18.3051 27.5477 18.4176 27.6877 18.7368C27.9187 19.2638 27.7076 20.021 27.263 20.2599C27.0876 20.3541 26.8335 20.3584 21.4737 20.3582L15.8678 20.358L15.6846 20.2453C15.4646 20.11 15.3939 20.027 15.2609 19.7478C15.1481 19.5112 15.128 19.1131 15.2131 18.8039C15.2801 18.5607 15.5451 18.2444 15.7616 18.1492C15.8895 18.093 17.0012 18.079 21.4618 18.0773C26.7978 18.0753 27.0104 18.0789 27.1985 18.1758Z" fill="white"/>
</svg>
